<?xml version="1.0" encoding="utf-8"?>
<!-- Generator: Adobe Illustrator 19.1.0, SVG Export Plug-In . SVG Version: 6.00 Build 0)  -->
<svg version="1.1" id="Capa_1" xmlns="http://www.w3.org/2000/svg" xmlns:xlink="http://www.w3.org/1999/xlink" x="0px" y="0px"
	 viewBox="220 -248 600 600" style="enable-background:new 220 -248 600 600;" xml:space="preserve">
<g>
	<path d="M703.1,144.9V73.4h-26.2v57.1c0,9-7.3,16.2-16.1,16.2H336c-8.9,0-16.1-7.3-16.1-16.2V-64.2c0-9,7.3-16.3,16.1-16.3h185.8
		v-16.7H312.2c-10.2,0-18.6,8.3-18.6,18.6v241.9l-46.5,55.9c0,15.4,12.5,28,27.9,28h446.7c15.3,0,27.9-12.5,27.9-28l-46.5-55.9
		V144.9z M535.6,237.9h-74.5c-2.6,0-4.6-2.1-4.6-4.6c0-2.7,2.1-4.7,4.6-4.7h74.5c2.6,0,4.6,2.1,4.6,4.7
		C540.2,235.8,538.2,237.9,535.6,237.9z M421.6,219.2l14.2-17.1h125.1l14.2,17.1H421.6z"/>
	<rect x="467.8" y="40.2" width="38.9" height="38.8"/>
	<rect x="492.2" y="-13.2" width="38.8" height="38.8"/>
	<rect x="530.3" y="35.5" width="38.9" height="38.9"/>
	<rect x="561.3" y="-29" width="46.1" height="46.1"/>
	<rect x="626.4" y="-170.4" width="46.2" height="46.1"/>
	<rect x="542.8" y="-86.9" width="46.1" height="46.1"/>
	<rect x="615.3" y="-106.7" width="65.8" height="65.8"/>
	<rect x="664.5" y="-27.3" width="79.6" height="79.6"/>
	<rect x="694.6" y="-177.2" width="99" height="99"/>
	<rect x="603.4" y="22.3" width="46.1" height="46.2"/>
</g>
</svg>
