<?xml version="1.0" encoding="utf-8"?>
<!-- Generator: Adobe Illustrator 19.1.0, SVG Export Plug-In . SVG Version: 6.00 Build 0)  -->
<svg version="1.1" id="Capa_1" xmlns="http://www.w3.org/2000/svg" xmlns:xlink="http://www.w3.org/1999/xlink" x="0px" y="0px"
	 viewBox="-577 577.8 460 460" style="enable-background:new -577 577.8 460 460;" xml:space="preserve">
<path d="M-245.8,627.6l45.4,36.1l-19.9,25l-45.4-36.1L-245.8,627.6z"/>
<path d="M-178.9,636.6c0.7-1,0.6-2.4-0.3-3.2l-41.9-33.3c-1-0.6-2.4-0.5-3.2,0.5l-11.6,14.6l45.4,36.1L-178.9,636.6z"/>
<path d="M-253.6,809.3c18.4-23.1,21.4-55.2,7.1-80c-1.6-2.8-1.2-6.3,0.9-8.8l15.3-19.2l-45.4-36.1l-15.3,19.2
	c-1.9,2.6-5.2,3.8-8.3,2.9c-27.6-8.2-58.1,1.9-76.4,24.9l-171.7,216l122.1,97.1L-253.6,809.3z M-400,972.6c-2.7,3.5-7.8,4-11.2,1.3
	l-88.5-70.3c-3.5-2.7-4-7.8-1.3-11.2l89.6-112.7c2.7-3.5,7.8-4,11.2-1.3l88.5,70.3c3.5,2.7,4,7.8,1.3,11.2L-400,972.6z"/>
<path d="M-403.8,795.8l75.1,59.7l-79.7,100.2l-75.1-59.7L-403.8,795.8z"/>
</svg>
