<?xml version="1.0" encoding="utf-8"?>
<!-- Generator: Adobe Illustrator 19.1.0, SVG Export Plug-In . SVG Version: 6.00 Build 0)  -->
<svg version="1.1" id="Capa_1" xmlns="http://www.w3.org/2000/svg" xmlns:xlink="http://www.w3.org/1999/xlink" x="0px" y="0px"
	 viewBox="-551 551.8 512 512" style="enable-background:new -551 551.8 512 512;" xml:space="preserve">
<g>
	<path d="M-411.5,791.8h206c11,0,20-9,20-20s-9-20-20-20h-206c-11,0-20,9-20,20S-422.5,791.8-411.5,791.8z"/>
	<path d="M-411.5,871.8h125.1c11,0,20-9,20-20s-9-20-20-20h-125.1c-11,0-20,9-20,20S-422.5,871.8-411.5,871.8z"/>
	<path d="M-185.5,551.8h-245.9c-44.1,0-80,35.9-80,80v352c0,44.1,35.9,80,80,80h66.9c11,0,20-9,20-20s-9-20-20-20h-66.9
		c-22.1,0-40-17.9-40-40v-352c0-22.1,17.9-40,40-40h245.9c22.1,0,40,17.9,40,40v123c0,11,9,20,20,20s20-9,20-20v-123
		C-105.5,587.7-141.4,551.8-185.5,551.8z"/>
	<path d="M-411.5,711.8h206c11,0,20-9,20-20s-9-20-20-20h-206c-11,0-20,9-20,20S-422.5,711.8-411.5,711.8z"/>
	<path d="M-134.1,928.7h-28.4v-28.4c0-15.7-12.7-28.4-28.4-28.4c-15.7,0-28.4,12.7-28.4,28.4v28.4h-28.4
		c-15.7,0-28.4,12.7-28.4,28.4s12.7,28.4,28.4,28.4h28.4v28.4c0,15.7,12.7,28.4,28.4,28.4c15.7,0,28.4-12.7,28.4-28.4v-28.4h28.4
		c15.7,0,28.4-12.7,28.4-28.4S-118.4,928.7-134.1,928.7z"/>
</g>
</svg>
