<?xml version="1.0" encoding="utf-8"?>
<!-- Generator: Adobe Illustrator 19.1.0, SVG Export Plug-In . SVG Version: 6.00 Build 0)  -->
<svg version="1.1" id="Capa_1" xmlns="http://www.w3.org/2000/svg" xmlns:xlink="http://www.w3.org/1999/xlink" x="0px" y="0px"
	 viewBox="-551 551.7 512 512" style="enable-background:new -551 551.7 512 512;" xml:space="preserve">
<g>
	<g>
		<path d="M-194.3,725.1c-5.5,0-10,4.5-10,10l0,0.7c0,5.5,4.4,10,9.9,10c0,0,0,0,0,0c5.5,0,9.9-4.4,10-9.9l0-0.8
			C-184.3,729.6-188.8,725.1-194.3,725.1z"/>
	</g>
</g>
<g>
	<g>
		<path d="M-50.9,994l-118.2-118.2c-3.6-3.6-9.2-3.9-13.2-0.8l-35-35c12.2-17.4,21.4-37.1,27-58.5c1.4-5.3-1.8-10.8-7.1-12.2
			c-5.3-1.4-10.8,1.8-12.2,7.1c-18.8,71.8-83.8,122-158.1,122c-90.1,0-163.4-73.3-163.4-163.4s73.3-163.4,163.4-163.4
			c73.8,0,138.6,49.7,157.8,120.8c1.4,5.3,6.9,8.5,12.2,7c5.3-1.4,8.5-6.9,7-12.2c-21.5-79.8-94.3-135.6-177-135.6
			c-101.1,0-183.3,82.2-183.3,183.3s82.2,183.3,183.3,183.3c38.9,0,75.5-12.2,105.6-33.4l34.9,34.9c-3.7,3.9-3.7,10.1,0.1,13.9
			l47.5,47.5h-28.7c-5.5,0-10,4.5-10,10v50.8h-23.9V940.4c0-5.5-4.5-10-10-10h-63.8c-5.5,0-10,4.5-10,10V1042h-23.9v-59.8
			c0-5.5-4.5-10-10-10h-63.8c-5.5,0-10,4.5-10,10v59.8h-23.9V919.8c0-5.5-4.5-10-10-10H-531c-5.5,0-10,4.5-10,10V1042
			c-5.5,0-10,4.5-10,10s4.5,10,10,10h418.4c5.5,0,10-4.5,10-10c0-2-0.6-3.8-1.6-5.4l5.3,5.3c7.6,7.6,17.8,11.8,28.6,11.8
			c0.1,0,0.1,0,0.2,0c10.9-0.1,21.1-4.3,28.8-12C-35.1,1035.8-35,1009.9-50.9,994z M-477.2,1042H-521V929.8h43.8V1042z M-369.6,1042
			h-43.8v-49.8h43.8V1042z M-262,1042h-43.8v-91.7h43.8V1042z M-246.3,872.5c5.9-5.2,11.4-10.8,16.6-16.7l33.2,33.2l-16.7,16.7
			L-246.3,872.5z M-189.3,943.2l-16.5-16.5l29.7-29.7l16.5,16.5L-189.3,943.2z M-154.4,1042h-43.8v-40.8h37.9c0.3,0,0.5,0,0.8,0
			l5.2,5.2V1042z M-122.5,1042h-12v-15.7l17.3,17.3C-118.7,1042.6-120.6,1042-122.5,1042z M-65.2,1037.6c-4,4-9.2,6.2-14.8,6.2
			c0,0-0.1,0-0.1,0c-5.5,0-10.7-2.1-14.6-6l-80.5-80.5l29.7-29.7l80.5,80.5C-56.9,1016.2-57,1029.5-65.2,1037.6z"/>
	</g>
</g>
<g id="_x33_Hbl2Z.tif">
	<g>
		<path d="M-326.6,848.8c-19-6-36.2-14.3-48.1-31.7c-16.6-24.4-17.1-57.3-0.3-82.7c16.2-24.4,47.1-37.1,75.5-31.1
			c30,6.4,52.8,29.8,57.6,59.2c6.1,37.6-14.5,71.3-50.8,82.9c-3.2,1-6.3,2.2-9.4,3.3C-310.3,848.8-318.5,848.8-326.6,848.8z
			 M-257.6,775.6c0.1-32.5-24.2-57.4-56.3-57.6c-31-0.2-57,25.8-57.1,57.2c-0.1,32.1,25.7,57.8,57.8,57.7
			C-282.4,832.7-257.7,807.3-257.6,775.6z"/>
		<path d="M-475.5,684.4c4.6-3.6,9.9-4.5,15.6-4.5c24.4,0.1,48.8,0.1,73.2,0c7.9,0,15,0.7,15.5,11.2c0.5,11.2-7.1,12.8-15.3,12.9
			c-25.1,0.3-50.3,0.1-75.4,0.1c-5,0-9.4-1.9-13.6-4.2C-475.5,694.8-475.5,689.6-475.5,684.4z"/>
		<path d="M-475.5,713.3c4.8-3,10-4.4,15.8-4.4c24.4,0.1,48.8-0.1,73.2,0.1c6.1,0.1,14.5-0.4,14.3,8.2c-0.2,7.8-4.9,15.5-14.3,15.7
			c-25.9,0.4-51.7,0.1-77.6,0c-4.2,0-7.8-2.2-11.4-4.1C-475.5,723.7-475.5,718.5-475.5,713.3z"/>
		<path d="M-475.5,828.8c5.1-2.6,10.6-2.7,16.1-2.7c23.9,0,47.7,0,71.6,0c17.5,0.1,21.3,7.1,12.3,22.7c-30.1,0-60.2-0.4-90.3,0.3
			c-8.7,0.2-11-2.4-9.8-10.4C-475.1,835.5-475.5,832.1-475.5,828.8z"/>
		<path d="M-475.5,800c5.2-3,10.9-4.3,17-4.3c18.9,0.1,37.7,0,56.6,0.1c9.6,0.1,18.6,9.5,18.8,19c0.1,3.4-1.9,4.9-4.7,4.9
			c-27,0.2-53.9,1.4-80.8-0.6c-2.3-0.2-4.5-2.3-6.8-3.6C-475.5,810.3-475.5,805.1-475.5,800z"/>
		<path d="M-475.5,742.2c5.5-3.5,11.6-4.4,18-4.4c19.5,0.1,39.1-0.1,58.6,0.2c4.3,0.1,11.8-2.3,11.8,4.1c0,6.8-1.3,18.2-8.7,18.6
			c-26.6,1.3-53.5,6-79.8-2.9C-475.5,752.5-475.5,747.4-475.5,742.2z"/>
		<path d="M-475.5,771.1c4.3-2.3,8.6-4.2,13.6-4.2c19.2,0,38.4,0.2,57.6-0.1c9.9-0.1,11.2,5.6,11.4,13.6c0.2,8.5-3.8,10.9-11.5,10.8
			c-18.5-0.2-36.9-0.1-55.4,0c-5.7,0-10.9-1.4-15.7-4.5C-475.5,781.4-475.5,776.2-475.5,771.1z"/>
		<path d="M-314.4,675.1c-12.5,0-25.1,0.2-37.6-0.1c-8.1-0.2-14.7-2.9-14.1-13c0.6-9.3,6.6-11.2,14.5-11.2
			c24.7,0.1,49.5,0.1,74.2,0.1c8,0,14.8,1.3,15.2,11.6c0.3,10.4-6.7,12.2-14.5,12.5C-289.3,675.4-301.9,675.1-314.4,675.1z"/>
		<path d="M-315.5,644.7c-12.9,0-25.9-0.1-38.8,0c-7.7,0.1-11.9-3.1-11.9-11.1c0-7.9,4.1-11.5,11.7-11.5c26.6,0,53.3,0,79.9,0
			c8.1,0,12.4,3.7,12.4,12.1c0.1,8.5-4.8,10.6-12.2,10.6C-288.1,644.6-301.8,644.7-315.5,644.7z"/>
		<path d="M-314.5,680c13.3,0,26.6,0,39.8,0c8.7,0,12.9,4.4,12.3,13.2c-0.6,9.7-7.1,11.5-14.8,10.4c-6.9-1-13.5-3.7-20.3-5.4
			c-14.4-3.6-28.5-1.8-42.5,2.8c-4.9,1.6-9.7,3.5-15.1,2.8c-7.2-0.9-11.6-4.4-11.3-12.2c0.3-7.6,4.1-11.5,11.8-11.5
			C-341,680-327.8,680-314.5,680z"/>
		<g>
			<path d="M-309.8,732.3v5.4c3.5,0.4,6.6,1.1,9.1,2.2c2.5,1.1,4.7,2.8,6.6,5c1.5,1.7,2.6,3.4,3.5,5.2s1.2,3.4,1.2,4.9
				c0,1.7-0.6,3.1-1.8,4.3c-1.2,1.2-2.7,1.8-4.4,1.8c-3.2,0-5.4-1.8-6.3-5.3c-1.1-4.1-3.7-6.9-7.9-8.3v20.7c4.1,1.1,7.4,2.2,9.8,3.1
				c2.4,0.9,4.6,2.3,6.5,4c2.1,1.8,3.6,4,4.7,6.5c1.1,2.5,1.7,5.3,1.7,8.3c0,3.8-0.9,7.3-2.7,10.6c-1.8,3.3-4.4,6-7.8,8.1
				c-3.4,2.1-7.5,3.3-12.3,3.7v4.4c0,2-0.2,3.4-0.6,4.3s-1.2,1.3-2.5,1.3c-1.2,0-2-0.4-2.5-1.1c-0.5-0.7-0.7-1.9-0.7-3.4v-5.4
				c-3.9-0.4-7.3-1.3-10.2-2.7c-2.9-1.4-5.3-3.1-7.3-5.2s-3.4-4.2-4.3-6.5c-0.9-2.2-1.4-4.4-1.4-6.6c0-1.6,0.6-3,1.9-4.3
				s2.8-1.9,4.6-1.9c1.5,0,2.8,0.3,3.8,1c1,0.7,1.7,1.7,2.1,2.9c0.9,2.7,1.7,4.8,2.3,6.2c0.7,1.4,1.7,2.8,3,4
				c1.3,1.2,3.1,2.1,5.3,2.7v-23.1c-4.4-1.2-8.2-2.6-11.1-4.1c-3-1.5-5.4-3.7-7.3-6.4c-1.9-2.8-2.8-6.4-2.8-10.7
				c0-5.7,1.8-10.4,5.4-14c3.6-3.6,8.9-5.8,15.7-6.4v-5.3c0-2.8,1-4.2,3.1-4.2C-310.9,728.2-309.8,729.5-309.8,732.3z M-316.1,766.4
				v-19c-2.8,0.8-5,1.9-6.5,3.3s-2.3,3.4-2.3,6.2c0,2.6,0.7,4.6,2.2,5.9C-321.3,764-319.1,765.3-316.1,766.4z M-309.8,781.1v21.8
				c3.3-0.7,5.9-2,7.8-4c1.8-2,2.7-4.4,2.7-7.1c0-2.9-0.9-5.1-2.7-6.7C-303.8,783.6-306.4,782.2-309.8,781.1z"/>
		</g>
	</g>
</g>
</svg>
