<?xml version="1.0" encoding="utf-8"?>
<!-- Generator: Adobe Illustrator 19.1.0, SVG Export Plug-In . SVG Version: 6.00 Build 0)  -->
<svg version="1.1" id="Capa_1" xmlns="http://www.w3.org/2000/svg" xmlns:xlink="http://www.w3.org/1999/xlink" x="0px" y="0px"
	 viewBox="-551 551.8 512 512" style="enable-background:new -551 551.8 512 512;" xml:space="preserve">
<path d="M-287.2,551.8H-491c-33.1,0-60,26.9-60,60v392c0,33.1,26.9,60,60,60h285.9c33.1,0,60-26.9,60-60V694.6L-287.2,551.8z
	 M-276.1,619.6l62.9,63.2h-42.9c-11,0-20-9-20-20V619.6z M-205.1,1023.8H-491c-11,0-20-9-20-20v-392c0-11,9-20,20-20h174.9v71.1
	c0,33.1,26.9,60,60,60h71v280.9C-185.1,1014.8-194.1,1023.8-205.1,1023.8z M-421,838.8c-16.6,0-30-13.4-30-30s13.4-30,30-30
	s30,13.4,30,30S-404.4,838.8-421,838.8z M-246,928.8c0,16.6-13.4,30-30,30s-30-13.4-30-30s13.4-30,30-30S-246,912.2-246,928.8z
	 M-271.2,768.8l-108.1,200h-45.5l108.1-200H-271.2z"/>
</svg>
