<?xml version="1.0" encoding="utf-8"?>
<!-- Generator: Adobe Illustrator 19.1.0, SVG Export Plug-In . SVG Version: 6.00 Build 0)  -->
<svg version="1.1" id="Capa_1" xmlns="http://www.w3.org/2000/svg" xmlns:xlink="http://www.w3.org/1999/xlink" x="0px" y="0px"
	 viewBox="-509 386.8 595.3 841.9" style="enable-background:new -509 386.8 595.3 841.9;" xml:space="preserve">
<path d="M70.5,766.8c-9.6-9.4-19.2-19-28.1-29.1c-9.3-10.5-20.1-14.4-34.2-14.3c-78.1,0.5-156.3,0-234.4,0.5
	c-14.3,0.1-24.5-4.3-33.2-15.6c-28.8-37.1-66.8-54.2-114.2-52.9c-78.9,2.2-142.3,80.9-126.3,158.3c11.2,53.9,41,91.6,95.2,107.1
	s100.8,4.5,137.9-39.9c14.2-17,33.1-23,55.2-24.1c11.1-0.5,23.3-6.3,32.5-13.1c10.6-7.7,18.5-19.2,28.4-29.9
	c13.9,12.7,25.7,23.6,38.1,35.1c10.3-12.1,19.8-23.4,30.2-35.7c11.7,13.4,21.6,24.8,32.8,37.7c11.2-11.8,22.2-23.3,34.3-36.1
	c10.7,11.6,20.3,22,30.1,32.7c19.6-18.3,37.6-35.3,55.8-52C81.2,785.7,80.5,776.6,70.5,766.8z M-366.4,784.5l-41.2,5.5v-0.6
	l26.1-34.4C-373.4,762.9-367.8,773.3-366.4,784.5z M-384.6,828.1l-23-28.7v-0.6l39.5,4.7C-371,813.2-376.9,821.8-384.6,828.1z
	 M-397.9,743.9l-17.4,39.9h-0.6l-17.6-39.4c5.7-2.6,11.9-4,18.3-4C-409.2,740.3-403.3,741.6-397.9,743.9z M-461.1,803.3l37-4.7v0.6
	l-22,28.2C-453.2,821-458.5,812.7-461.1,803.3z M-424.4,789.1v0.6l-38.2-4.9c1.2-10.8,6-20.7,12.9-28.4L-424.4,789.1z M-415.4,839.4
	c-5.4-0.1-10.7-1.1-15.6-3l14.9-32.3h0.6l14.2,33.2C-405.8,838.8-410.6,839.5-415.4,839.4z"/>
</svg>
