<svg id="Capa_1" xmlns="http://www.w3.org/2000/svg" viewBox="-122 -123.6 595.3 841.9">
  <style>
    .st0{fill:#1d1d1b}
  </style>
  <g id="cwcKNL.tif">
    <path class="st0" d="M460.5-32.9c-13 39.1-19.4 80-30.7 119.5-1.4 4.8.5 12.1-5.9 13.6-5.1 1.2-7.9-4.8-11.3-8-25.9-24.9-18.9-25.2-43.5.1-54.3 55.9-108 112.4-161.9 168.8-12.4 13-29.5 13.3-41.9-1-26.7-30.8-57.5-57.6-84.6-88-5.7-6.4-9.8-6.5-15.3-.6-29 30.5-58.1 61-87.2 91.5-14.4 15.1-28.5 30.4-43.4 44.9-10.5 10.3-24.7 10.4-34 1.7-9.3-8.8-10.3-24.9-1.1-35.7 10-11.8 20.7-23.1 31.3-34.3 38.3-40.4 76.6-80.8 115.1-121 19.8-20.7 32.3-20.7 52.5 0 25.7 26.3 51.4 52.7 76.5 79.6 8.3 8.9 14.1 10.5 23.3.7 48.6-51.3 97.7-102.2 146.9-153 7.3-7.5 6.5-12.8-.9-19.1-5.5-4.7-10.2-10.3-15.6-15.3-7.5-6.9-6.3-10.5 3.6-13.3 35.9-10.1 71.7-20.6 107.5-31.2 5.1-1.5 9.8-3.9 14.8-5.8 5-1.1 6.9.9 5.8 5.9zM184.1 338.3c-.4 5.1.2 10.4.1 15.4-.2 12.9.1 25.8.1 38.7 0 25 0 49.9-.2 74.9-.1 11.7 5.1 15.3 15.9 15 16.9-.4 33.9-.1 50.8-.1 20.2-.1 20.6-.5 20.6-20.1V360.4c0-36.3-.9-88.4.5-124.8-14.3 15.5-28.7 30.9-43 46.4-8.8 9.5-17.7 19.1-26.5 28.6-4.4 4.7-9.5 8.8-13.5 13.9-3.4 4.1-4.5 8.8-4.8 13.8z"/>
    <path class="st0" d="M38 241.4c-26.4 27.9-54.3 57.2-80.1 84-4.2 4.5-6.6 9.4-6.6 15.6 0 42.7 0 85.3-.1 128 0 9.3 4.2 13.2 13.3 13.1 18.5-.2 36.9.1 55.3 0 17.9 0 18.7-.8 18.7-19.1 0-37.9.1-75.8.1-113.7 0-35.5-.9-69-.6-107.9zM67.4 198c0 2.7.3 20.6.3 25.8-.2 39.7-.1 79.5-.1 119.2.1 41.2.3 82.4-.2 123.7-.1 11 3.9 15.9 15.3 15.6 17.9-.5 35.9-.7 53.8.1 13.7.7 18.9-4 18.7-18.2-.6-52.3-1.3-104.8-.1-157 .2-8.8-1.8-14.1-6.9-20.9-3.7-5-7.7-9.8-11.8-14.6-10.2-12-20.7-23.6-31.4-35.1-8.4-9.1-16.9-18.1-25.6-26.9-2.6-2.7-8.2-10.9-12-11.7zm238.3 1.4c-4 4.1-5.2 9.1-5.2 14.6 0 84.7.1 169.4-.1 254.1 0 10.9 4.9 14.4 15.1 14.2 16.5-.4 32.9-.1 49.4-.1 22.8 0 22.9 0 22.9-22.2V114.3s-57.3 59.3-82.1 85.1z"/>
  </g>
</svg>
