<?xml version="1.0" encoding="utf-8"?>
<!-- Generator: Adobe Illustrator 17.1.0, SVG Export Plug-In . SVG Version: 6.00 Build 0)  -->
<!DOCTYPE svg PUBLIC "-//W3C//DTD SVG 1.1//EN" "http://www.w3.org/Graphics/SVG/1.1/DTD/svg11.dtd">
<svg version="1.1" id="Capa_1" xmlns="http://www.w3.org/2000/svg" xmlns:xlink="http://www.w3.org/1999/xlink" x="0px" y="0px"
	 viewBox="0 0 595.3 841.9" enable-background="new 0 0 595.3 841.9" xml:space="preserve">
<path d="M516.6,199.8c-6.5-18.7-24.2-32-44.9-32h-348c-20.7,0-38.4,13.3-44.9,32L12.9,389.3v253.1c0,17.4,14.2,31.6,31.6,31.6h31.6
	c17.6,0,31.6-14.2,31.6-31.6v-31.6h379.6v31.6c0,17.4,14.2,31.6,31.6,31.6h31.6c17.6,0,31.6-14.2,31.6-31.6V389.3L516.6,199.8z
	 M123.6,515.9c-26.3,0-47.5-21.2-47.5-47.5s21.2-47.5,47.5-47.5s47.5,21.2,47.5,47.5S149.9,515.9,123.6,515.9z M471.6,515.9
	c-26.3,0-47.5-21.2-47.5-47.5s21.2-47.5,47.5-47.5s47.5,21.2,47.5,47.5S497.9,515.9,471.6,515.9z M76.2,357.7l47.5-142.4h348
	l47.5,142.4H76.2z"/>
</svg>
