<?xml version="1.0" encoding="utf-8"?>
<!-- Generator: Adobe Illustrator 17.1.0, SVG Export Plug-In . SVG Version: 6.00 Build 0)  -->
<!DOCTYPE svg PUBLIC "-//W3C//DTD SVG 1.1//EN" "http://www.w3.org/Graphics/SVG/1.1/DTD/svg11.dtd">
<svg version="1.1" id="Capa_1" xmlns="http://www.w3.org/2000/svg" xmlns:xlink="http://www.w3.org/1999/xlink" x="0px" y="0px"
	 viewBox="0 0 595.3 841.9" enable-background="new 0 0 595.3 841.9" xml:space="preserve">
<g>
	<g>
		<path d="M233.7,167.9v122.6c4.3,0.5,8.4,1.4,12.3,2.5c58.1,14.1,99.2,66.8,99.2,127.6c0,36.2-14.7,69.8-39.1,93.6
			c13.8,3.8,26.7,8.4,38.6,13.4c42.1,18.7,68.8,43.3,79.7,73.7c3.5,9.8,5.2,20.1,5.2,30.2v41.9h121V168.1L233.7,167.9z M382.3,280.4
			H326v-56.2h56.3V280.4z M494.6,505.2h-56.2V449h56.2V505.2z M494.6,392.9h-56.2v-56.3h56.2V392.9z M494.6,280.4h-56.2v-56.2h56.2
			V280.4z"/>
	</g>
	<g>
		<g>
			<path d="M382.3,631.7v42.2H44.6v-42.2c0-47.6,81-75.1,139.8-82.4c0,0,0.2,0,0.3,0c10.4-1.3,20.2-1.9,28.6-1.9
				c6.2,0,13,0.3,20.4,1.1c2.7,0.3,5.5,0.5,8.4,0.9c0.2,0,0.2,0,0.3,0c26.4,3.2,57.4,10.6,83.5,21.8c25.8,11.4,46.8,26.7,53.8,46.2
				C381.3,621.9,382.3,626.7,382.3,631.7z"/>
		</g>
		<g>
			<path d="M297.8,420.7c0,38-25,70.1-59.6,80.7c-1.4,0.5-3,0.9-4.4,1.3c-6.5,1.7-13.3,2.5-20.4,2.5c-8.9,0-17.4-1.4-25.5-4
				c-34.2-10.8-58.8-42.9-58.8-80.5c0-46.7,37.6-84.5,84.3-84.5c7.1,0,13.9,0.8,20.4,2.5C270.6,347.8,297.8,381,297.8,420.7z"/>
		</g>
	</g>
</g>
</svg>
