<?xml version="1.0" encoding="utf-8"?>
<!-- Generator: Adobe Illustrator 19.1.0, SVG Export Plug-In . SVG Version: 6.00 Build 0)  -->
<svg version="1.1" id="Capa_1" xmlns="http://www.w3.org/2000/svg" xmlns:xlink="http://www.w3.org/1999/xlink" x="0px" y="0px"
	 viewBox="-507 507.8 600 600" style="enable-background:new -507 507.8 600 600;" xml:space="preserve">
<g>
	<path d="M-438.9,719.6c5.9-8.7,14.2-13,25-13c11.1,0,19.2,3.2,24.3,9.7c5.1,6.5,7.9,16.6,8.1,30.3h24.7l0.4-0.8
		c-0.3-19.3-5.3-34-15.2-44c-9.9-10-24-15.1-42.3-15.1c-18.1,0-32.6,6.2-43.4,18.7c-10.9,12.4-16.3,29.7-16.3,51.9v52
		c0,22.1,5.5,39.4,16.5,51.7c11,12.4,25.7,18.5,44,18.5c18,0,31.9-5.1,41.8-15.4c9.9-10.3,14.8-24.7,14.9-43.4l-0.4-0.8h-24.8
		c-0.2,13.9-2.8,24-7.8,30.3c-5,6.3-12.9,9.5-23.7,9.5c-11,0-19.5-4.3-25.5-13c-6-8.7-9.1-21.2-9.1-37.5v-52.4
		C-447.8,740.7-444.8,728.3-438.9,719.6z"/>
	<path d="M-277.1,800.9h32v42.6c-2.4,4.7-6.1,8.6-11,11.6c-4.9,3-11.9,4.6-20.8,4.6c-12.2,0-21.8-4.2-28.9-12.6
		c-7.1-8.4-10.6-20.6-10.6-36.5v-55.9c0-15.6,3.3-27.6,9.9-35.8s15.6-12.3,27-12.3c11.3,0,19.8,3.1,25.5,9.2
		c5.7,6.1,8.8,15.1,9.2,26.8h24.7l0.3-0.8c-0.7-17.4-6.1-30.9-16.2-40.6c-10.1-9.7-24.7-14.5-43.9-14.5c-18.9,0-34,6-45.4,17.9
		c-11.4,11.9-17.1,28.7-17.1,50.4v55.6c0,22,6,39,18,51c12,11.9,27.8,17.9,47.5,17.9c15,0,27.3-3,37-9c9.6-6,16.6-12.8,20.9-20.3
		V782h-58.2V800.9z"/>
	<polygon points="-106.2,848.5 -106.7,848.5 -123,787.6 -135.2,787.6 -151.2,848 -151.7,848 -163.8,787.6 -180,787.6 -159.3,877.8 
		-145.3,877.8 -129.4,817.8 -128.9,817.8 -112.7,877.8 -98.8,877.8 -78.2,787.6 -94.3,787.6 	"/>
	<path d="M-40,785.9c-9.7,0-17.7,3.8-24,11.5c-6.3,7.7-9.5,17.4-9.5,29.2v13.2c0,11.6,3.2,21.1,9.7,28.6c6.5,7.4,15,11.2,25.8,11.2
		c6.2,0,11.7-1,16.5-3.1c4.8-2.1,8.6-4.7,11.4-7.9l-5.3-10.5c-3,2.8-6.2,5-9.5,6.5s-7.3,2.2-12,2.2c-6.3,0-11.1-2.5-14.5-7.6
		c-3.4-5.1-5.1-11.5-5.1-19.3v-3.6h48.5v-11.7c0-11.8-2.8-21.2-8.3-28.1C-21.9,789.4-29.8,785.9-40,785.9z M-24.9,824.1h-31.8
		c0.3-7.3,2-13.4,4.9-18.2c2.9-4.8,6.9-7.2,11.7-7.2c5,0,8.7,2,11.3,6.1c2.6,4.1,3.8,9.3,3.8,15.8V824.1z"/>
	<path d="M59.9,797.4c-5.2-7.6-12.5-11.5-22-11.5c-4.4,0-8.3,1-11.6,2.9s-6.2,4.7-8.5,8.3v-49.3H0.8v130h14.7l1.3-10.6
		c2.4,4.1,5.3,7.1,8.9,9.2c3.5,2.1,7.7,3.1,12.4,3.1c9.4,0,16.7-3.6,21.8-10.7c5.2-7.1,7.8-16.7,7.8-28.6v-12.3
		C67.6,815.2,65,805,59.9,797.4z M50.8,840.2c0,8.1-1.4,14.5-4,19.2s-7,7.1-13,7.1c-3.8,0-7.1-1-9.8-3c-2.7-2-4.8-4.9-6.3-8.5v-43.4
		c1.5-3.8,3.6-6.8,6.2-9c2.6-2.2,5.8-3.4,9.6-3.4c5.9,0,10.3,2.6,13,7.9c2.8,5.3,4.1,12.3,4.1,20.9V840.2z"/>
</g>
</svg>
