<?xml version="1.0" encoding="utf-8"?>
<!-- Generator: Adobe Illustrator 19.1.0, SVG Export Plug-In . SVG Version: 6.00 Build 0)  -->
<svg version="1.1" id="Capa_1" xmlns="http://www.w3.org/2000/svg" xmlns:xlink="http://www.w3.org/1999/xlink" x="0px" y="0px"
	 viewBox="0 0 595.3 841.9" style="enable-background:new 0 0 595.3 841.9;" xml:space="preserve">
<path d="M462.4,209.7c-11.2-12.9-21.1-24.3-32.8-37.7c-10.4,12.3-19.9,23.6-30.2,35.7c-12.4-11.5-24.2-22.4-38.1-35.1
	c-9.9,10.7-17.8,22.2-28.4,29.9c-9.2,6.8-21.4,12.6-32.5,13.1c-22.1,1.1-41,7.1-55.2,24.1c-37.1,44.4-83.7,55.4-137.9,39.9
	s-84-53.2-95.2-107.1C-3.9,95.1,59.5,16.4,138.4,14.2c47.4-1.3,85.4,15.8,114.2,52.9c8.7,11.3,18.9,15.7,33.2,15.6
	c78.1-0.5,156.3,0,234.4-0.5c14.1-0.1,24.9,3.8,34.2,14.3c8.9,10.1,18.5,19.7,28.1,29.1c10,9.8,10.7,18.9,0.1,28.7
	c-18.2,16.7-36.2,33.7-55.8,52c-9.8-10.7-19.4-21.1-30.1-32.7C484.6,186.4,473.6,197.9,462.4,209.7z M122.6,148.9
	c0-19.8-17.8-37.8-37.3-37.8c-19.6,0-36.5,17.9-36.2,38.4c0.2,19.8,16.6,36.6,36,36.8C104.9,186.6,122.6,168.9,122.6,148.9z"/>
</svg>
