<svg xmlns="http://www.w3.org/2000/svg" viewBox="-122 -123.6 595.3 841.9">
  <path d="M437.5 475.5c-18-13.2-36.4-25.9-54-39.7-2.3-1.8-4.6-3.2-6.9-4.5-.6-27.9-.2-76.9-.2-102 0-48.1.1-96.1.1-144.2 0-14.5-7.2-22.3-21.5-22.4-41.5-.1-83-.1-124.6-.1-6.2-12-12.4-24-18.6-36.1-3.4-6.5-9.3-10.1-15.7-12.8-4.5-1.9-9.1-3.7-13.8-5.3-18.9-6.1-37.8-12.1-56.8-17.9-6.8-2.1-13.9-3.6-21.1-2.2-1.2.2-2.4.5-3.6.7l-79.5 41.4c-2.4 2.1-4.9 4-7.1 6.3-7 7.3-10.9 16.4-11.6 25.8H-.6c-19.4.3-25.4 6.7-25.4 26.1v242.7c-20.5 14.4-40.6 29.4-60.9 44.2v31.2c25.7.1 72.8 0 98.5 0h332.2c24.8 0 68.8.2 93.6-.1.1-.1 1.6-19 .1-31.1zM17.2 158.9c1.3-7.6 5.7-13.1 12.4-16.6 22.9-12 45.9-24 68.8-35.9 3.4-1.7 6.6-1 9.3 1.4 1.9 1.7 3.7 3.8 4.9 6 6.2 11.5 12.1 23.1 18.2 34.7.7 1.3 1.4 2.6 2.3 3.9 2.9 4.2 8.1 5.9 12.8 3.8 5.2-2.4 10.3-5.2 15.4-7.8 7-3.6 14.1-7.2 21.2-10.7 2-1 4.1-1.8 6.2-2.3 5.4-1.4 8.5-.1 11.7 4.5.6.9 1.2 1.9 1.7 2.9 3.5 6.7 6.9 13.4 10.3 20.1 4.1 8 8.3 16 12.4 24 13.5 26.3 27.1 52.6 40.7 78.9 3.7 7.1 4.8 14.3 1.3 21.8-2.3 5-6.1 8.5-10.8 10.9-2 1-3.9 2.1-5.9 3.1H85.6l-21-40.8c-12.7-24.7-25.4-49.3-38.1-73.9-2.1-4-4.1-8-6.2-12-2-3.9-3.4-7.8-3.4-12.1 0-1.4.1-2.6.3-3.9zm336.2 155.5c-.1 17.4-.8 34.7-.9 52-.1 8.6.8 17.3.7 25.9-.2 13.6-6.5 19.7-19.9 19.7h-316C4 412-2.6 405.8-2.6 392.2c0-19 .7-37.9.7-56.9-.1-42.1-.5-84.1-.7-126.2 0-12.1 3.2-18.5 11.3-21.1 15.2 29.6 30.4 59.1 45.6 88.7 7.1 13.8 14.2 27.7 21.4 41.5H251c4.6-2.4 9.1-4.7 13.7-7.1 2.3-2.1 4.9-4 7-6.3 12.4-13 15.4-31.7 7.1-48.1-11.9-23.4-23.9-46.7-35.9-70h89.6c14.1 0 20.8 6.5 20.8 20.8.1 35.7.2 71.3.1 106.9z" fill="#1d1d1b"/>
</svg>
