<?xml version="1.0" encoding="utf-8"?>
<!-- Generator: Adobe Illustrator 19.1.0, SVG Export Plug-In . SVG Version: 6.00 Build 0)  -->
<svg version="1.1" id="Capa_1" xmlns="http://www.w3.org/2000/svg" xmlns:xlink="http://www.w3.org/1999/xlink" x="0px" y="0px"
	 viewBox="-509 386.8 595.3 841.9" style="enable-background:new -509 386.8 595.3 841.9;" xml:space="preserve">
<style type="text/css">
	.st0{fill:#1D1D1B;}
</style>
<g>
	<path class="st0" d="M50.5,862.3c-18-13.2-36.4-25.9-54-39.7c-2.3-1.8-4.6-3.2-6.9-4.5c-0.6-27.9-0.2-76.9-0.2-102
		c0-48.1,0.1-96.1,0.1-144.2c0-14.5-7.2-22.3-21.5-22.4c-41.5-0.1-83-0.1-124.6-0.1c-6.2-12-12.4-24-18.6-36.1
		c-3.4-6.5-9.3-10.1-15.7-12.8c-4.5-1.9-9.1-3.7-13.8-5.3c-18.9-6.1-37.8-12.1-56.8-17.9c-6.8-2.1-13.9-3.6-21.1-2.2
		c-1.2,0.2-2.4,0.5-3.6,0.7l-79.5,41.4c-2.4,2.1-4.9,4-7.1,6.3c-7,7.3-10.9,16.4-11.6,25.8h-3.2c-19.4,0.3-25.4,6.7-25.4,26.1v242.7
		c-20.5,14.4-40.6,29.4-60.9,44.2v31.2c25.7,0.1,72.8,0,98.5,0h332.2c24.8,0,68.8,0.2,93.6-0.1C50.5,893.3,52,874.5,50.5,862.3z
		 M-369.8,545.8c1.3-7.6,5.7-13.1,12.4-16.6c22.9-12,45.9-24,68.8-35.9c3.4-1.7,6.6-1,9.3,1.4c1.9,1.7,3.7,3.8,4.9,6
		c6.2,11.5,12.1,23.1,18.2,34.7c0.7,1.3,1.4,2.6,2.3,3.9c2.9,4.2,8.1,5.9,12.8,3.8c5.2-2.4,10.3-5.2,15.4-7.8
		c7-3.6,14.1-7.2,21.2-10.7c2-1,4.1-1.8,6.2-2.3c5.4-1.4,8.5-0.1,11.7,4.5c0.6,0.9,1.2,1.9,1.7,2.9c3.5,6.7,6.9,13.4,10.3,20.1
		c4.1,8,8.3,16,12.4,24c13.5,26.3,27.1,52.6,40.7,78.9c3.7,7.1,4.8,14.3,1.3,21.8c-2.3,5-6.1,8.5-10.8,10.9c-2,1-3.9,2.1-5.9,3.1
		h-164.5l-21-40.8c-12.7-24.7-25.4-49.3-38.1-73.9c-2.1-4-4.1-8-6.2-12c-2-3.9-3.4-7.8-3.4-12.1C-370.1,548.2-370,547-369.8,545.8z
		 M-33.6,701.2c-0.1,17.4-0.8,34.7-0.9,52c-0.1,8.6,0.8,17.3,0.7,25.9c-0.2,13.6-6.5,19.7-19.9,19.7h-316
		c-13.3,0-19.9-6.2-19.9-19.8c0-19,0.7-37.9,0.7-56.9c-0.1-42.1-0.5-84.1-0.7-126.2c0-12.1,3.2-18.5,11.3-21.1
		c15.2,29.6,30.4,59.1,45.6,88.7c7.1,13.8,14.2,27.7,21.4,41.5H-136c4.6-2.4,9.1-4.7,13.7-7.1c2.3-2.1,4.9-4,7-6.3
		c12.4-13,15.4-31.7,7.1-48.1c-11.9-23.4-23.9-46.7-35.9-70h89.6c14.1,0,20.8,6.5,20.8,20.8C-33.6,630-33.5,665.7-33.6,701.2z"/>
	<path class="st0" d="M-244.1,624.6c13.1,0,23.7-10.6,23.7-23.7c0-13.1-10.6-23.7-23.7-23.7s-23.7,10.6-23.7,23.7
		C-267.8,614-257.1,624.6-244.1,624.6z"/>
	<path class="st0" d="M-278.2,625.7l2,9.3l-16.3,34.6l17,0.2l11,12.9l16-34l4.5,4l4.5-4l16,34l11-12.9l17-0.2l-16.3-34.6l2-9.3
		l15.2-8.7l-7.2-16l7.2-16l-15.2-8.7l-3.6-17.2l-17.5,1.9l-13-11.8l-13,11.8l-17.5-1.9l-3.6,17.2l-15.2,8.7l7.2,16l-7.2,16
		L-278.2,625.7z M-244.1,569.4c17.4,0,31.5,14.1,31.5,31.5c0,17.4-14.1,31.5-31.5,31.5c-17.4,0-31.5-14.1-31.5-31.5
		S-261.4,569.4-244.1,569.4z"/>
</g>
</svg>
