<?xml version="1.0" encoding="utf-8"?>
<!-- Generator: Adobe Illustrator 19.1.0, SVG Export Plug-In . SVG Version: 6.00 Build 0)  -->
<svg version="1.1" id="Capa_1" xmlns="http://www.w3.org/2000/svg" xmlns:xlink="http://www.w3.org/1999/xlink" x="0px" y="0px"
	 viewBox="-551 551.8 512 512" style="enable-background:new -551 551.8 512 512;" xml:space="preserve">
<g>
	<g>
		<path d="M-231.4,761.3c-8.6,12.4-19.5,22.8-28.7,34.6c-10.6,13.6-15.7,29.1-15.5,46.3c0.1,7.4,0,7.4-7.5,7.4c-15,0-30,0-45,0
			c-5,0-4.7,0-5.2-5c-0.7-8-0.7-15.9,0.5-23.9c1.4-9.7,4.6-18.8,9.1-27.5c5.8-11.4,14-21.2,22.1-31c7.1-8.6,14.1-17.3,17.3-28.2
			c2.8-9.6,2.1-18.6-5-26.3c-4-4.4-9.4-6.3-15-7.7c-8.7-2.1-17.3-1.3-26,0.6c-8.8,2-17.2,4.9-24.9,9.8c-2,1.3-2.9,0.9-3.4-1.5
			c-0.9-3.6-2.2-7-3.3-10.5c-1.3-0.3-1.8-1.4-2.4-2.5c-0.9-2.9-0.9-6-2.2-8.8c-1.5-1.9-2.7-4-2.7-6.5c0.3-4.5-1.6-8.3-3.6-12.2
			c-1.3-4.4-1-5.1,2.9-7.2c15.7-8.3,32.5-12.7,50-15c16.2-2.1,32.3-1.9,48.3,1.8c9.4,2.1,18.5,5.1,26.4,11c0.9,0.5,1.8,0.9,2.6,1.5
			c1.2,1.1,2.4,2.4,4,3.1c0.3,0.1,0.6,0.3,0.8,0.5c4,3.7,8,7.4,11.5,11.5c4.1,6.3,7.1,13.2,9.4,20.4c3.1,9.5,1.9,19.1,1.7,28.7
			c-0.1,5.2-2,9.9-3.8,14.6c-0.7,2-1.5,3.9-2.2,5.9c-1.1,2.2-2.2,4.4-3.4,6.6c-0.6,1.7-1.3,3.4-2.8,4.6
			C-229,757.9-229.7,760.1-231.4,761.3z"/>
		<path d="M-47.2,812c-0.8-10.9-3.7-21.2-8.8-30.8c-4.3-8.2-10.3-15-16.7-21.6c-12.9-10.9-27.6-18-44.5-20.1
			c-1.9-0.2-2.1-1.4-2.2-2.9c-1.2-14.1-3.4-28.1-7.9-41.6c-6.5-19.9-16-38.2-28.9-54.7c-19.6-24.9-43.9-43.4-73.4-55.2
			c-32.3-12.9-65.5-15.7-99.5-8.9c-31.5,6.2-59,20.4-82.8,41.9c-11.7,10.6-21.9,22.6-30.4,36c-8.7,13.8-15.4,28.4-20.1,44.1
			c-3.7,12.3-5.8,24.8-6.7,37.5c-0.2,2.9-1.5,3.8-4.1,4.1c-9.4,1.3-18.2,4.3-26.6,8.7c-8.7,4.6-16.1,10.8-22.8,17.9
			c-0.5,0.5-1.2,1-1.6,1.6c-10.1,12.5-16.2,26.6-17.2,42.7c-1.4,3.4-0.6,6.9,0,10.3c-0.5,3.8,0.6,7.4,1.2,11.1
			c0.7,4.5,2.7,8.6,4.4,12.7c3.8,9.2,9.1,17.4,16.1,24.5c12.8,13.1,28.3,21.1,46.4,23.7c3.3,0.5,4.4,2,4.7,5.2
			c0.8,10.8,3.4,21.4,7.3,31.4c10.2,25.8,26.8,46.3,50.2,61.3c19.3,12.4,40.4,18.7,63.3,19.3c2.7,0.1,4.5,1.1,6.4,3
			c5.2,5.2,10.9,9.9,18.6,10.1c16.6,0.2,33.3,0.2,49.9,0c10.7-0.1,20.2-9.6,20.8-20.3c0.7-13.1-9.1-23.7-22.3-23.8
			c-14.8-0.1-29.6,0.2-44.4-0.1c-7.4-0.1-14.1,1.8-18.8,7c-5.1,5.6-10.7,6.9-17.6,5.4c-1.3-0.3-2.6-0.3-3.9-0.5
			c-11.6-1.4-22.5-5.1-32.9-10.2c-8.5-4.1-16.3-9.3-23.1-15.9c0-1.1-1.2-0.9-1.7-1.4c-1.8-1-3.4-2.2-4.7-3.8
			c-4.7-4.6-8.9-9.7-13.4-14.5c-3-3.2-4.4-6.7-4.6-10.9c-0.3-0.7-0.6-1.4-0.9-2.1c-6.7-13.4-10.7-27.7-10.8-42.7
			c-0.3-49.2-0.2-98.5-0.1-147.7c0-4.4,0.7-8.8,1.1-13.2c1.5-1,1.3-2.9,2.2-4.2c0.6-3.6-0.5-7.5,1.7-10.9c-0.1-2.7,2-4.7,2.1-7.3
			c-0.1-2.2,1.2-3.9,1.8-5.8c7.5-23.5,20-43.9,37.1-61.6c9.2-9.6,19.8-17.7,31.2-24.6c14.9-9,31-15,48.1-18.7
			c16.4-3.6,33-4.4,49.6-2.3c14.3,1.7,28.1,5.4,41.5,11c19.6,8.1,36.5,19.9,51.6,34.6c6.1,6,10.9,13.1,16.5,19.5
			c0.4,0.6,1,1.1,1.5,1.6l-0.1,0.1l18.4,39.3l0.8,1.1c2.2,7.8,4.1,15.7,5.4,23.7c1,6.4,1.3,12.9,2.3,19.2c0,1.5,0.2,3.1-0.1,4.6
			c-0.3,1.7-0.4,3.4-0.4,5.1c0,8.5,0.1,17,0,25.5c-0.1,4.9,0.7,9.6,1.6,14.3c0,28.5,0.1,57,0.1,85.5c0,4.2,0,8.4,0,12.6
			c0,1.7,0.3,2.9,2.4,3c14.4,0.6,28.3-1.5,41.4-7.5c14.4-6.6,25.9-16.6,34.6-29.8c3.8-5.8,6.5-12.2,8.8-18.6c2-5.5,2.2-11.5,3-17.3
			C-46.5,817.9-46.9,815-47.2,812z"/>
		<circle cx="-303.1" cy="904" r="33.9"/>
	</g>
</g>
</svg>
