<?xml version="1.0" encoding="utf-8"?>
<!-- Generator: Adobe Illustrator 19.1.0, SVG Export Plug-In . SVG Version: 6.00 Build 0)  -->
<svg version="1.1" id="Capa_1" xmlns="http://www.w3.org/2000/svg" xmlns:xlink="http://www.w3.org/1999/xlink" x="0px" y="0px"
	 viewBox="-551 551.8 512 512" style="enable-background:new -551 551.8 512 512;" xml:space="preserve">
<g>
	<g>
		<path d="M-191,731.3c-0.1,24.7-4.9,48.3-13.4,70h84.4v30h-99.2c-6.5,10.7-14,20.8-22.4,30h71.7v30h-106.1
			c-31.3,21.4-69.2,34-109.9,34c-4.3,0-8.7-0.2-13-0.4v36.4h217.6l67.4,88.8l75-98.8V731.3H-191z"/>
	</g>
</g>
<g>
	<g>
		<path d="M-386,565.3c-91,0-165,74-165,165v198.8l81.1-56.7c25.4,15,54.2,22.9,83.9,22.9c91,0,165-74,165-165S-295,565.3-386,565.3
			z M-384,822.8c-11.5,0-20.9-9.4-20.9-20.9s9.4-20.9,20.9-20.9s20.9,9.4,20.9,20.9C-363.1,813.5-372.5,822.8-384,822.8z
			 M-354.7,722.8l-15.4,15.4v15.1c0,7.7-6.2,13.9-13.9,13.9c-7.7,0-13.9-6.2-13.9-13.9v-15.1c0-7.4,2.9-14.4,8.2-19.7l15.4-15.4
			c3.6-3.6,4.3-7.2,4.3-11.8c0-8-6.5-14.6-14.6-14.6c-7.3,0-13.3,6-13.3,13.3c0,7.7-6.2,13.9-13.9,13.9c-7.7,0-13.9-6.2-13.9-13.9
			c0-22.7,18.4-41.1,41.1-41.1c23.4,0,42.4,19,42.4,42.4C-342.3,704.5-346.6,714.6-354.7,722.8z"/>
	</g>
</g>
</svg>
