<?xml version="1.0" encoding="utf-8"?>
<!-- Generator: Adobe Illustrator 19.1.0, SVG Export Plug-In . SVG Version: 6.00 Build 0)  -->
<svg version="1.1" id="Capa_1" xmlns="http://www.w3.org/2000/svg" xmlns:xlink="http://www.w3.org/1999/xlink" x="0px" y="0px"
	 viewBox="-551 551.8 512 512" style="enable-background:new -551 551.8 512 512;" xml:space="preserve">
<g>
	<g>
		<path d="M-295,551.8c-140.6,0-256,115.4-256,256c0,45.7,12.4,90.5,35.9,130l-35.1,106.2c-1.8,5.4-0.4,11.3,3.6,15.4
			c4,4,10,5.4,15.4,3.6l106.2-35.1c39.5,23.5,84.3,35.9,130,35.9c140.6,0,256-115.4,256-256S-154.4,551.8-295,551.8z M-295,1002.7
			c-24.8,0-45-20.2-45-45c0-24.8,20.2-45,45-45s45,20.2,45,45C-250,982.6-270.2,1002.7-295,1002.7z M-231.8,786.9l-33.2,33.2v32.6
			c0,16.5-13.5,30-30,30s-30-13.5-30-30v-32.6c0-16,6.2-31.1,17.6-42.4l33.2-33.2c7.7-7.7,9.2-15.5,9.2-25.4
			c0-17.3-14.1-31.4-31.4-31.4c-15.8,0-28.6,12.8-28.6,28.6c0,16.5-13.5,30-30,30s-30-13.5-30-30c0-48.9,39.8-88.6,88.6-88.6
			c50.4,0,91.4,41,91.4,91.4C-205,747.5-214.3,769.4-231.8,786.9z"/>
	</g>
</g>
</svg>
