<?xml version="1.0" encoding="utf-8"?>
<!-- Generator: Adobe Illustrator 19.1.0, SVG Export Plug-In . SVG Version: 6.00 Build 0)  -->
<svg version="1.1" id="Capa_1" xmlns="http://www.w3.org/2000/svg" xmlns:xlink="http://www.w3.org/1999/xlink" x="0px" y="0px"
	 viewBox="-501 501.8 612 612" style="enable-background:new -501 501.8 612 612;" xml:space="preserve">
<g>
	<path d="M88.6,968.1c-14-17.1-28-34.1-42.3-50.8c-3.8-4.4-5.5-8.8-5.5-14.6c0.1-88.9,0.1-177.8,0.1-266.6c0-2.2,0.1-4.4-0.1-6.5
		c-0.6-11.4-8.2-19.9-19.4-21.7c-2.7-0.4-5.6-0.4-8.4-0.4c-139.1,0-278.1,0-417.2,0c-3.4,0-6.8-0.1-10.3,0.1
		c-11.4,0.7-19.2,7.3-21.5,18.5c-0.6,2.9-0.7,5.9-0.7,8.8c0,90,0,179.9,0,269.9c0,4.3-1.1,7.7-4,11c-8,9.3-15.7,18.8-23.7,28.1
		c-8.6,10-16.4,20.6-25.6,30.2c0,3.1,0,6.2,0,9.3c7.5,18.7,17.3,25.3,37.7,25.3c105.5,0,211,0,316.5,0c64.5,0,129,0,193.5,0
		c11,0,20.9-2.7,28.4-11.4c4.5-5.2,7.1-11.1,8-18C95,973.9,91.2,971.3,88.6,968.1z M-156.9,996.8c-27.3,0.1-54.7,0.1-82,0
		c-3.1,0-6.1-0.9-6.4-4.7c-0.3-4,2.3-4.9,5.7-4.9c14,0,28,0,41.9,0c13.5,0,27,0,40.5,0c3.2,0,6.6,0,6.6,4.5
		C-150.5,995.8-153.6,996.8-156.9,996.8z M-111.4,974.7c-0.8,1.5-3.2,0.6-4.8,0.7c-6.1,0.1-12.1,0.1-18.2,0.1c-21.1,0-42.3,0-63.4,0
		c-27.5,0-55,0-82.5,0c-1.3,0-3.1,0.7-3.9-0.7c-0.9-1.5,1-2.4,1.8-3.4c1.6-2.1,3.8-3.8,5-6.1c4.3-7.9,11-9.1,19.5-9
		c42.1,0.4,84.2,0.3,126.4,0.1c4.3,0,7.4,1.2,9.9,4.6c2.5,3.4,5.4,6.4,8,9.7C-112.8,971.9-110.4,972.9-111.4,974.7z M8.9,869.5
		c0,14.2-7.2,21.3-21.3,21.3c-123.4,0-246.8,0-370.2,0c-15,0-22-7-22.1-22c0-73,0-146.1,0-219.1c0-11.7,4.8-18.9,13.9-20.9
		c2.5-0.6,5.2-0.5,7.9-0.5c61.7,0,123.4,0,185.1,0c61.7,0,123.4,0.2,185.1-0.1C0.2,627.9,9,635.3,9,649.4
		C8.9,722.8,9,796.1,8.9,869.5z"/>
	<path d="M-151.8,693.8c-2.4-2.8-5.1-5.3-7.8-7.8c-0.2-0.1-0.3-0.2-0.5-0.3c-1.1-0.5-1.8-1.3-2.7-2.1c-0.5-0.4-1.2-0.7-1.8-1
		c-5.3-3.9-11.5-6-17.8-7.4c-10.8-2.5-21.7-2.6-32.6-1.2c-11.8,1.6-23.2,4.5-33.8,10.2c-2.7,1.4-2.9,1.9-2,4.9
		c1.3,2.6,2.6,5.2,2.4,8.2c0,1.7,0.8,3.1,1.8,4.4c0.9,1.9,0.9,4,1.5,6c0.4,0.7,0.8,1.4,1.6,1.7c0.8,2.4,1.7,4.7,2.2,7.1
		c0.4,1.6,1,1.9,2.3,1c5.2-3.3,10.9-5.3,16.8-6.6c5.8-1.3,11.7-1.8,17.6-0.4c3.8,0.9,7.4,2.2,10.2,5.2c4.8,5.2,5.3,11.3,3.4,17.8
		c-2.2,7.4-6.9,13.3-11.7,19.1c-5.5,6.6-11,13.2-14.9,21c-3,5.9-5.2,12-6.1,18.6c-0.8,5.4-0.8,10.7-0.3,16.2
		c0.3,3.3,0.1,3.3,3.5,3.3c10.2,0,20.3,0,30.5,0c5.1,0,5.1,0,5.1-5c-0.1-11.7,3.4-22.1,10.5-31.3c6.2-8,13.6-15,19.4-23.4
		c1.2-0.8,1.6-2.3,2.7-3.2c1-0.8,1.4-2,1.9-3.1c0.8-1.5,1.5-3,2.3-4.4c0.4-1.4,1-2.7,1.5-4c1.2-3.2,2.5-6.4,2.5-9.9
		c0.1-6.5,0.9-13-1.2-19.4C-147,702.7-149,698.1-151.8,693.8z"/>
	<circle cx="-203.7" cy="848.1" r="22.9"/>
</g>
</svg>
