<svg height="512pt" viewBox="0 0 512 512.00109" width="512pt" xmlns="http://www.w3.org/2000/svg"><path d="m245 472h-184.304688c-8.539062 0-13.6875-4.765625-16-7.605469-3.988281-4.90625-5.53125-11.289062-4.234374-17.519531 20.769531-99.761719 108.808593-172.617188 210.441406-174.980469 1.695312.0625 3.390625.105469 5.097656.105469 1.664062 0 3.320312-.039062 4.96875-.101562 31.503906.675781 61.546875 7.769531 89.375 21.132812 9.960938 4.78125 21.90625.582031 26.6875-9.371094 4.78125-9.957031.585938-21.90625-9.371094-26.6875-9.832031-4.722656-19.898437-8.761718-30.164062-12.160156 33.070312-24.832031 54.503906-64.367188 54.503906-108.8125 0-74.988281-61.007812-136-136-136-74.988281 0-136 61.011719-136 136 0 44.507812 21.492188 84.09375 54.644531 108.917969-30.371093 9.996093-58.871093 25.546875-83.8125 46.0625-45.734375 37.617187-77.53125 90.085937-89.535156 147.742187-3.761719 18.066406.746094 36.621094 12.363281 50.90625 11.5625 14.21875 28.707032 22.371094 47.035156 22.371094h184.304688c11.046875 0 20-8.953125 20-20s-8.953125-20-20-20zm-85-336c0-52.933594 43.066406-96 96-96s96 43.066406 96 96c0 51.441406-40.667969 93.558594-91.542969 95.894531-1.484375-.027343-2.964843-.0625-4.457031-.0625-1.5625 0-3.125.023438-4.6875.050781-50.765625-2.453124-91.3125-44.519531-91.3125-95.882812zm344.582031 222.605469c-18.828125 18.160156-37.660156 29.082031-56.371093 10.808593l-16.167969-16.046874s-20.914063 9.3125-44.570313 32.96875l-1.136718 1.140624c-23.65625 23.652344-32.96875 44.566407-32.96875 44.566407l16.046874 16.167969c18.273438 18.714843 7.351563 37.542968-10.808593 56.375-9.0625 9.394531-23.9375 9.933593-33.652344 1.210937l-.246094-.222656c-11.402343-11.398438-16.796875-27.257813-16.707031-45.214844l.109375-.113281c.160156-31.972656 17.703125-70.605469 49.660156-102.585938 31.976563-31.953125 70.609375-49.5 102.585938-49.65625 17.957031-.089844 33.816406 5.300782 45.21875 16.703125l.21875.25c8.722656 9.710938 8.1875 24.589844-1.210938 33.648438zm0 0"/></svg>