<?xml version="1.0" encoding="utf-8"?>
<!-- Generator: Adobe Illustrator 19.1.0, SVG Export Plug-In . SVG Version: 6.00 Build 0)  -->
<svg version="1.1" id="Capa_1" xmlns="http://www.w3.org/2000/svg" xmlns:xlink="http://www.w3.org/1999/xlink" x="0px" y="0px"
	 viewBox="-509 386.8 595.3 841.9" style="enable-background:new -509 386.8 595.3 841.9;" xml:space="preserve">
<style type="text/css">
	.st0{fill:#1D1D1B;}
</style>
<path class="st0" d="M55.5,713.8c-1.9-59-24.5-114.7-61.2-158.4c-40.3-48.2-97.6-81.9-162.7-89.8c-145.1-17.7-280.4,98-285.1,243.8
	c-0.6,19.2,0.7,38.3,4.7,57.2c0.8,3.8,0.2,5.8-4,6.6c-4.4,0.8-8.6,2.3-12.9,3.4c-3.2,0.8-3.3,2.1-1.1,4.3
	c15.7,15.9,31.4,31.7,47,47.7c2.4,2.5,3.7,2.2,4.6-1.2c1.4-5.6,3-11.2,4.6-16.7c4.3-15.6,8.5-31.3,12.9-46.8
	c1.2-4.2,0.1-5.1-3.9-3.9c-3.6,1.1-7.4,1.7-11,2.9c-3.9,1.3-5.6,0.3-6.2-3.9c-13.5-89.2,14-163.2,85-218.4
	c58.1-45,124.7-56.4,195.6-36.8C-75.6,521.2-29.5,560,0,617.5C47.6,710.3,24.5,827-61.3,894.2c-41.3,32.4-88.4,48.1-140.9,47.5
	c-43.4-0.5-83.3-12.7-119.7-36.4c-11.9-7.8-22.9-16.7-33.2-26.6c-2.7-2.6-4.8-2.6-7.4,0.2c-4.6,4.9-9.5,9.7-14.5,14.3
	c-2.9,2.7-2.6,4.6,0.1,7.3c7.5,7.5,15.4,14.5,23.7,21c26,20.5,54.8,35.7,86.7,44.4c46.9,12.8,93.6,11,139.7-3.7
	C-67.7,943.3-19.9,908.9,14.6,857C43.5,813.7,57.1,766,55.5,713.8L55.5,713.8z"/>
<path class="st0" d="M-319.8,768.3c-3.8-6.2-6.5-13.6-8.1-22h-27.7c2.5,16.1,8.3,29.6,17.4,40.8c9.2,11.2,20.5,18.4,34.1,21.7v31.7
	h26.5v-30.8c6.8-0.8,13.4-2.4,19.9-4.8c6.5-2.3,12.2-5.6,17.2-9.7c5-4.1,9.1-9.2,12.2-15.3c3.1-6,4.6-13.2,4.6-21.4
	c0-7.6-1.5-14.2-4.6-19.8c-3.1-5.5-7.1-10.4-12.2-14.6c-5-4.2-10.8-7.9-17.2-11.1c-6.5-3.2-13.1-6.2-19.9-9.1v-57
	c6,1.7,10.8,4.6,14.6,8.8c3.8,4.2,6.8,9.7,9.1,16.5h26.5c-2.7-15.4-8.6-27.1-17.9-35.2c-9.2-8-20-13.1-32.3-15.4v-20h-26.5v20
	c-6.8,1.2-13.1,3.2-19,5.9s-11,6-15.3,10.2c-4.3,4.1-7.7,8.8-10.2,14c-2.5,5.2-3.7,11-3.7,17.1c0,7,1.3,13.1,4,18.4
	c2.7,5.4,6.2,10.1,10.8,14.2c4.5,4.1,9.7,7.7,15.4,10.8c5.7,3.1,11.7,6,17.9,8.6v61.3C-310.8,779.2-316,774.6-319.8,768.3
	L-319.8,768.3z M-277.8,732.4c7.8,3.5,14.2,7.3,19.1,11.4c4.9,4.1,7.4,8.9,7.4,14.2c0,6.2-2.4,11.6-7.1,16.5
	c-4.7,4.8-11.2,8.1-19.4,10V732.4z M-318.3,682.3c-3.4-3.6-5.1-8.1-5.1-13.4c0-4.5,1.7-8.7,4.9-12.6s8-6.8,14.2-8.6v44.4
	C-310.2,689.2-314.9,686-318.3,682.3L-318.3,682.3z"/>
<g>
	<g>
		<path class="st0" d="M-106.4,669.4l-74.8,61.7c0,0.1,0,0.2-0.1,0.4c0,0.2-0.1,0.3-0.1,0.4v62.5c0,2.3,0.8,4.2,2.5,5.9
			c1.6,1.6,3.6,2.5,5.9,2.5h50v-50h33.3v50h50c2.3,0,4.2-0.8,5.9-2.5c1.6-1.6,2.5-3.6,2.5-5.9v-62.5c0-0.3,0-0.6-0.1-0.8
			L-106.4,669.4z"/>
		<path class="st0" d="M-3,717l-28.5-23.7v-53.1c0-1.2-0.4-2.2-1.2-3c-0.8-0.8-1.8-1.2-3-1.2h-25c-1.2,0-2.2,0.4-3,1.2
			c-0.8,0.8-1.2,1.8-1.2,3v25.4l-31.8-26.5c-2.8-2.3-6.1-3.4-9.9-3.4c-3.8,0-7.1,1.1-9.9,3.4l-93.6,78c-0.9,0.7-1.3,1.6-1.4,2.8
			c-0.1,1.2,0.2,2.2,0.9,3.1l8.1,9.6c0.7,0.8,1.6,1.3,2.7,1.4c1,0.1,2.1-0.2,3.1-0.9l90.1-75.1l90.1,75.1c0.7,0.6,1.6,0.9,2.7,0.9
			h0.4c1.1-0.2,2-0.7,2.7-1.4l8.1-9.6c0.7-0.9,1-1.9,0.9-3.1C-1.6,718.7-2.1,717.7-3,717z"/>
	</g>
</g>
</svg>
