<?xml version="1.0" encoding="utf-8"?>
<!-- Generator: Adobe Illustrator 19.1.0, SVG Export Plug-In . SVG Version: 6.00 Build 0)  -->
<svg version="1.1" id="Capa_1" xmlns="http://www.w3.org/2000/svg" xmlns:xlink="http://www.w3.org/1999/xlink" x="0px" y="0px"
	 viewBox="-509 386.8 595.3 841.9" style="enable-background:new -509 386.8 595.3 841.9;" xml:space="preserve">
<style type="text/css">
	.st0{fill:#1D1D1B;}
</style>
<path class="st0" d="M59.9,718.9c-1.9-59-24.5-114.7-61.2-158.4c-40.3-48.2-97.6-81.9-162.7-89.8c-145.1-17.7-280.4,98-285.1,243.8
	c-0.6,19.2,0.7,38.3,4.7,57.2c0.8,3.8,0.2,5.8-4,6.6c-4.4,0.8-8.6,2.3-12.9,3.4c-3.2,0.8-3.3,2.1-1.1,4.3
	c15.7,15.9,31.4,31.7,47,47.7c2.4,2.5,3.7,2.2,4.6-1.2c1.4-5.6,3-11.2,4.6-16.7c4.3-15.6,8.5-31.3,12.9-46.8
	c1.2-4.2,0.1-5.1-3.9-3.9c-3.6,1.1-7.4,1.7-11,2.9c-3.9,1.3-5.6,0.3-6.2-3.9c-13.5-89.2,14-163.2,85-218.4
	c58.1-45,124.7-56.4,195.6-36.8C-71.2,526.2-25.1,565,4.4,622.5C52,715.4,28.9,832-56.9,899.3c-41.3,32.4-88.4,48.1-140.9,47.5
	c-43.4-0.5-83.3-12.7-119.7-36.4c-11.9-7.8-22.9-16.7-33.2-26.6c-2.7-2.6-4.8-2.6-7.4,0.2c-4.6,4.9-9.5,9.7-14.5,14.3
	c-2.9,2.7-2.6,4.6,0.1,7.3c7.5,7.5,15.4,14.5,23.7,21c26,20.5,54.8,35.7,86.7,44.4c46.9,12.8,93.6,11,139.7-3.7
	C-63.3,948.4-15.5,913.9,19,862C47.9,818.7,61.5,771,59.9,718.9L59.9,718.9z"/>
<g id="LuYyZN.tif">
	<g>
		<path class="st0" d="M-135.9,728.6c3,0,5.4-0.1,7.8,0c5,0.2,7.3,2.5,7.4,7.6c0.1,3.8,0,7.6,0,11.7c5.8,0,11,0,16.5,0
			c0,29.8,0,59.3,0,88.9c-19.7,0-39.1,0-59.1,0c0,1.4,0,2.6,0,3.8c0,8.9,0.1,17.8,0,26.7c-0.2,10.8-8.6,17.1-19.1,14.6
			c-5.9-1.4-10.3-6.4-10.8-12.5c-0.1-1.6-0.1-3.2-0.1-4.9c0-37.4,0-74.8,0-112.2c0-1.4,0-2.7,0-4.3c-1.7,0-3.2,0-5.1,0
			c0,1.5,0,2.9,0,4.4c0,38.1,0,76.2,0,114.2c0,11.1-8.5,17.9-19.2,15.2c-5.7-1.4-9.2-5.2-10.3-11c-0.4-1.8-0.4-3.7-0.4-5.5
			c0-67,0-134,0.1-201.1c0-3.4-1.1-5.8-3.4-8.2c-22.4-22.7-44.8-45.5-67.2-68.3c-4.7-4.8-5.4-10.3-2.3-15.5c3.1-5.1,9-7.6,14.3-5.7
			c2.2,0.8,4.4,2.2,6,3.9c17.1,17.4,34.2,34.8,51.2,52.4c2.3,2.4,4.6,3.6,8.1,3.6c16.8-0.2,33.6,0.3,50.3-0.2
			c21.5-0.6,35.6,17.1,35.3,35.1c-0.3,20.8-0.1,41.7-0.1,62.5C-135.9,725.4-135.9,726.7-135.9,728.6z M-158.2,747.6
			c0-26.7,0-53.2,0-79.6c-1.8,0-3.4,0-4.8,0c0,26.7,0,53.2,0,79.6C-161.2,747.6-159.8,747.6-158.2,747.6z M-128.2,736
			c-7.6,0-15,0-22.4,0c0,4,0,7.8,0,11.6c7.5,0,14.9,0,22.4,0C-128.2,743.6-128.2,739.9-128.2,736z"/>
		<path class="st0" d="M-194.4,567.3c14.4,0.1,26.3,12.3,26.1,26.5c-0.3,14.5-12.2,26.1-26.7,25.9c-14.3-0.2-25.9-12-25.9-26.3
			C-220.8,579.1-208.8,567.2-194.4,567.3z"/>
		<path class="st0" d="M-97.4,748c4.5,0,8.8-0.3,13,0.1c5.1,0.5,9.3,5,10,10.1c0.2,1.3,0.3,2.5,0.3,3.8c0,20.3,0,40.5,0,60.8
			c0,8.4-3.9,13.4-10.9,14c-4,0.3-8.1,0.1-12.4,0.1C-97.4,807.1-97.4,777.7-97.4,748z"/>
		<path class="st0" d="M-158.2,747.6c-1.6,0-3.1,0-4.8,0c0-26.5,0-52.9,0-79.6c1.4,0,3,0,4.8,0
			C-158.2,694.4-158.2,720.9-158.2,747.6z"/>
		<path class="st0" d="M-128.2,736c0,3.9,0,7.6,0,11.6c-7.5,0-14.8,0-22.4,0c0-3.8,0-7.6,0-11.6C-143.2,736-135.8,736-128.2,736z"/>
	</g>
</g>
</svg>
