<?xml version="1.0" encoding="utf-8"?>
<!-- Generator: Adobe Illustrator 19.1.0, SVG Export Plug-In . SVG Version: 6.00 Build 0)  -->
<svg version="1.1" id="Capa_1" xmlns="http://www.w3.org/2000/svg" xmlns:xlink="http://www.w3.org/1999/xlink" x="0px" y="0px"
	 viewBox="-509 386.8 595.3 841.9" style="enable-background:new -509 386.8 595.3 841.9;" xml:space="preserve">
<style type="text/css">
	.st0{fill:#1D1D1B;}
</style>
<g>
	<path class="st0" d="M50.5,802.5c-1.9-59-24.5-114.7-61.2-158.4c-40.3-48.2-97.6-81.9-162.7-89.8c-145.1-17.7-280.4,98-285.1,243.8
		c-0.6,19.2,0.7,38.3,4.7,57.2c0.8,3.8,0.2,5.8-4,6.6c-4.4,0.8-8.6,2.3-12.9,3.4c-3.2,0.8-3.3,2.1-1.1,4.3
		c15.7,15.9,31.4,31.7,47,47.7c2.4,2.5,3.7,2.2,4.6-1.2c1.4-5.6,3-11.2,4.6-16.7c4.3-15.6,8.5-31.3,12.9-46.8
		c1.2-4.2,0.1-5.1-3.9-3.9c-3.6,1.1-7.4,1.7-11,2.9c-3.9,1.3-5.6,0.3-6.2-3.9c-13.5-89.2,14-163.2,85-218.4
		c58.1-45,124.7-56.4,195.6-36.8C-80.6,609.8-34.5,648.6-5,706.1C42.6,799,19.5,915.6-66.3,982.9c-41.3,32.4-88.4,48.1-140.9,47.5
		c-43.4-0.5-83.3-12.7-119.7-36.4c-11.9-7.8-22.9-16.7-33.2-26.6c-2.7-2.6-4.8-2.6-7.4,0.2c-4.6,4.9-9.5,9.7-14.5,14.3
		c-2.9,2.7-2.6,4.6,0.1,7.3c7.5,7.5,15.4,14.5,23.7,21c26,20.5,54.8,35.7,86.7,44.4c46.9,12.8,93.6,11,139.7-3.7
		C-72.7,1032-24.9,997.5,9.6,945.6C38.5,902.3,52.1,854.6,50.5,802.5z"/>
	<rect x="-226.1" y="810.4" class="st0" width="52.9" height="17.6"/>
	<path class="st0" d="M-350.1,907.3c0,14.6,11.9,26.4,26.4,26.4h247.9c14.6,0,26.4-11.9,26.4-26.4V714.9L-81.1,810
		c-3.6,10.8-13.7,18.1-25.1,18.1h-49.5v8.8c0,4.9-3.9,8.8-8.8,8.8H-235c-4.9,0-8.8-3.9-8.8-8.8v-8.8h-49.5
		c-11.4,0-21.5-7.3-25.1-18.1l-31.7-95.1V907.3z"/>
	<path class="st0" d="M-164.5,669.5H-235c-14.6,0-26.4,11.9-26.4,26.4v8.8h-73.5l33.2,99.7c1.2,3.6,4.6,6,8.4,6h49.5v-8.8
		c0-4.9,3.9-8.8,8.8-8.8h70.5c4.9,0,8.8,3.9,8.8,8.8v8.8h49.5c3.8,0,7.2-2.4,8.4-6l33.2-99.7h-73.5v-8.8
		C-138.1,681.3-150,669.5-164.5,669.5z M-155.6,704.7h-88.1v-8.8c0-4.9,3.9-8.8,8.8-8.8h70.5c4.9,0,8.8,3.9,8.8,8.8V704.7z"/>
</g>
</svg>
