<?xml version="1.0" encoding="utf-8"?>
<!-- Generator: Adobe Illustrator 19.1.0, SVG Export Plug-In . SVG Version: 6.00 Build 0)  -->
<svg version="1.1" id="Capa_1" xmlns="http://www.w3.org/2000/svg" xmlns:xlink="http://www.w3.org/1999/xlink" x="0px" y="0px"
	 viewBox="-509 386.8 595.3 841.9" style="enable-background:new -509 386.8 595.3 841.9;" xml:space="preserve">
<g>
	<path d="M41.6,780.2c-1.9-59-24.5-114.7-61.2-158.4c-40.3-48.2-97.6-81.9-162.7-89.8c-145.1-17.7-280.4,98-285.1,243.8
		c-0.6,19.2,0.7,38.3,4.7,57.2c0.8,3.8,0.2,5.8-4,6.6c-4.4,0.8-8.6,2.3-12.9,3.4c-3.2,0.8-3.3,2.1-1.1,4.3
		c15.7,15.9,31.4,31.7,47,47.7c2.4,2.5,3.7,2.2,4.6-1.2c1.4-5.6,3-11.2,4.6-16.7c4.3-15.6,8.5-31.3,12.9-46.8
		c1.2-4.2,0.1-5.1-3.9-3.9c-3.6,1.1-7.4,1.7-11,2.9c-3.9,1.3-5.6,0.3-6.2-3.9c-13.5-89.2,14-163.2,85-218.4
		c58.1-45,124.7-56.4,195.6-36.8c62.6,17.3,108.7,56.1,138.2,113.6c47.6,92.9,24.5,209.5-61.3,276.8
		c-41.3,32.4-88.4,48.1-140.9,47.5c-43.4-0.5-83.3-12.7-119.7-36.4c-11.9-7.8-22.9-16.7-33.2-26.6c-2.7-2.6-4.8-2.6-7.4,0.2
		c-4.6,4.9-9.5,9.7-14.5,14.3c-2.9,2.7-2.6,4.6,0.1,7.3c7.5,7.5,15.4,14.5,23.7,21c26,20.5,54.8,35.7,86.7,44.4
		c46.9,12.8,93.6,11,139.7-3.7c59.1-18.9,106.9-53.4,141.4-105.3C29.6,880,43.2,832.3,41.6,780.2z"/>
	<path d="M-95.1,668c-30.1-32-72.2-52.4-119.1-54.1l0,0l-3.3-0.1c-0.9,0-1.7-0.1-2.6-0.1c-0.9,0-1.7,0-2.6,0.1l-3.3,0.1l0,0
		c-46.9,1.6-89,22.1-119.1,54.1c0,0-0.1,0-0.1,0.1c0,0,0,0,0,0c-28.9,30.7-46.6,72.1-46.6,117.5c0,43.6,16.4,83.5,43.3,113.8
		c0,0.1,0,0.1,0.1,0.2c0.1,0.1,0.3,0.2,0.4,0.4c30.2,33.8,73.6,55.6,122.1,57.2l0,0l3.3,0.1c0.9,0,1.7,0.1,2.6,0.1
		c0.9,0,1.7,0,2.6-0.1l3.3-0.1l0,0c48.5-1.7,91.9-23.5,122.2-57.4c0.1-0.1,0.2-0.1,0.3-0.2c0,0,0-0.1,0.1-0.2
		c26.9-30.3,43.3-70.2,43.3-113.8C-48.4,740.2-66.2,698.8-95.1,668L-95.1,668C-95.1,668.1-95.1,668-95.1,668z M-241,627.1
		c-19.6,18.6-35.3,40.3-46.7,64.2c-15.1-5.2-29.6-12.2-43.2-20.8C-306.9,647.3-275.7,631.6-241,627.1z M-339.4,679.1
		c14.7,9.6,30.4,17.3,46.8,23c-10,24.3-15.6,50.6-16.3,77.6H-380C-378.5,741.1-363.4,706-339.4,679.1z M-342.6,888.3
		c-22.2-26.4-36-60-37.4-96.8h71.1c0.7,25.1,5.6,49.5,14.3,72.4C-311.4,869.9-327.5,878.1-342.6,888.3z M-334.6,897.2
		c14-9.3,28.9-16.8,44.5-22.4c11.5,25.8,28.1,49.4,49,69.3C-277.5,939.3-310.1,922.3-334.6,897.2z M-226.1,941.7
		c-22.7-19.8-40.5-43.9-52.6-70.6c17-5,34.6-7.8,52.6-8.3V941.7z M-226.1,850.9c-19.6,0.5-38.8,3.6-57.2,9.1
		c-8.3-21.6-13-44.8-13.7-68.6h70.9V850.9z M-226.1,779.6H-297c0.7-25.8,6.1-50.7,15.8-73.9c17.8,5.2,36.3,8,55.1,8.5V779.6z
		 M-226.1,702.4c-17.1-0.5-33.9-3-50.2-7.6c12-24.6,29-46.9,50.2-65.4V702.4z M-109.4,670.4c-13.6,8.7-28.1,15.6-43.2,20.8
		c-11.4-23.8-27.2-45.6-46.7-64.2C-164.6,631.6-133.4,647.3-109.4,670.4z M-214.3,629.5c21.2,18.5,38.2,40.7,50.2,65.4
		c-16.2,4.6-33,7.1-50.2,7.6V629.5z M-214.3,714.3c18.8-0.5,37.3-3.4,55.1-8.5c9.7,23.2,15.1,48.1,15.8,73.9h-70.9V714.3z
		 M-214.3,791.5h70.9c-0.7,23.8-5.4,46.9-13.7,68.6c-18.4-5.6-37.6-8.6-57.2-9.1V791.5z M-214.3,941.7v-78.9
		c18,0.5,35.6,3.3,52.6,8.3C-173.8,897.8-191.6,921.9-214.3,941.7z M-199.3,944.1c20.9-19.9,37.5-43.5,49-69.3
		c15.6,5.6,30.5,13.1,44.5,22.4C-130.3,922.3-162.9,939.3-199.3,944.1z M-97.8,888.3c-15.1-10.2-31.2-18.4-48-24.5
		c8.7-22.9,13.6-47.3,14.3-72.4h71.1C-61.8,828.3-75.6,861.9-97.8,888.3z M-60.4,779.6h-71.1c-0.7-27-6.3-53.2-16.3-77.6
		c16.4-5.7,32.1-13.4,46.8-23C-76.9,706-61.8,741.1-60.4,779.6z"/>
</g>
</svg>
