<svg id="Capa_1" xmlns="http://www.w3.org/2000/svg" viewBox="-122 -123.6 595.3 841.9">
  <style>
    .st0{fill:#1d1d1b}
  </style>
  <path class="st0" d="M437.5 292c-1.9-59-24.5-114.7-61.2-158.4-40.3-48.2-97.6-81.9-162.7-89.8-145.1-17.7-280.4 98-285.1 243.8-.6 19.2.7 38.3 4.7 57.2.8 3.8.2 5.8-4 6.6-4.4.8-8.6 2.3-12.9 3.4-3.2.8-3.3 2.1-1.1 4.3 15.7 15.9 31.4 31.7 47 47.7 2.4 2.5 3.7 2.2 4.6-1.2 1.4-5.6 3-11.2 4.6-16.7 4.3-15.6 8.5-31.3 12.9-46.8 1.2-4.2.1-5.1-3.9-3.9-3.6 1.1-7.4 1.7-11 2.9-3.9 1.3-5.6.3-6.2-3.9-13.5-89.2 14-163.2 85-218.4 58.1-45 124.7-56.4 195.6-36.8 62.6 17.3 108.7 56.1 138.2 113.6 47.6 92.9 24.5 209.5-61.3 276.8-41.3 32.4-88.4 48.1-140.9 47.5-43.4-.5-83.3-12.7-119.7-36.4-11.9-7.8-22.9-16.7-33.2-26.6-2.7-2.6-4.8-2.6-7.4.2-4.6 4.9-9.5 9.7-14.5 14.3-2.9 2.7-2.6 4.6.1 7.3 7.5 7.5 15.4 14.5 23.7 21 26 20.5 54.8 35.7 86.7 44.4 46.9 12.8 93.6 11 139.7-3.7 59.1-18.9 106.9-53.4 141.4-105.3 28.9-43.3 42.5-91 40.9-143.1z"/>
  <path class="st0" d="M146.3 363.5c-5.2-8.6-9-18.7-11.2-30.3H96.9c3.4 22.1 11.4 40.8 24 56.2 12.6 15.4 28.2 25.4 46.9 29.9V463h36.5v-42.4c9.3-1.1 18.4-3.3 27.4-6.6 8.9-3.2 16.8-7.7 23.7-13.4 6.9-5.7 12.5-12.7 16.8-21 4.2-8.3 6.4-18.2 6.4-29.5 0-10.5-2.1-19.5-6.4-27.2-4.2-7.6-9.8-14.3-16.8-20.1-6.9-5.8-14.8-10.9-23.7-15.3-8.9-4.4-18-8.5-27.4-12.5v-78.5c8.2 2.3 14.9 6.3 20.1 12.1 5.2 5.8 9.4 13.4 12.5 22.7h36.5c-3.7-21.2-11.9-37.3-24.6-48.4-12.7-11-27.6-18.1-44.5-21.2v-27.6h-36.5v27.6c-9.3 1.7-18 4.4-26.1 8.1-8.1 3.7-15.1 8.3-21 14-5.9 5.7-10.6 12.1-14 19.3s-5.1 15.1-5.1 23.5c0 9.6 1.8 18.1 5.5 25.4 3.7 7.4 8.6 13.9 14.8 19.5 6.2 5.7 13.3 10.6 21.2 14.8 7.9 4.2 16.1 8.2 24.6 11.9v84.4c-9-4.1-16.2-10.5-21.4-19.1zm57.9-49.5c10.7 4.8 19.5 10 26.3 15.7 6.8 5.7 10.2 12.2 10.2 19.5 0 8.5-3.3 16-9.8 22.7-6.5 6.6-15.4 11.2-26.7 13.8V314zm-55.8-68.9c-4.7-4.9-7-11.1-7-18.4 0-6.2 2.3-12 6.8-17.4 4.5-5.4 11-9.3 19.5-11.9v61.1c-8.2-4-14.6-8.4-19.3-13.4z"/>
</svg>
