<?xml version="1.0" encoding="utf-8"?>
<!-- Generator: Adobe Illustrator 19.1.0, SVG Export Plug-In . SVG Version: 6.00 Build 0)  -->
<svg version="1.1" id="Capa_1" xmlns="http://www.w3.org/2000/svg" xmlns:xlink="http://www.w3.org/1999/xlink" x="0px" y="0px"
	 viewBox="220 -248 600 600" style="enable-background:new 220 -248 600 600;" xml:space="preserve">
<g>
	<path d="M674-177.5c9.2,9.4,18.4,18.9,27.9,28.1L511.5,41.1l-2.6,2.6l-64.4-64.4c-10.2,14.1-16.4,31.2-17.1,49.6l43.9,43.9
		l18.4,18.4l5,5c3.9,3.9,9.1,5.9,14.2,5.9c0.9,0,1.7-0.1,2.6-0.2c4.2-0.6,8.4-2.4,11.7-5.7l5-5l86.7-86.7l25.9-25.9l84.2-84.3
		l10.2-10.2l27.5,27.3c2.6,2.6,5.1,5.3,8.7,5.3c1.3,0,2.9-0.3,4.6-1.3c5.6-3,6.7-7.8,7-13.2c1.3-29.7,2.8-59.4,4.1-89.1
		c0.4-9-3.3-13.1-12-13.1h-1.4l-91.3,4.3c-4.8,0.2-9.4,0.4-12,6.1C667.7-183.9,670.7-180.7,674-177.5z"/>
	<path d="M255.8,67.8l5,5c3.9,3.9,9.1,5.9,14.2,5.9s10.3-2,14.2-5.9l38.2-38.2v-2.2c0-30.2,7-58.8,19.6-84.2l-91.2,91.2
		C247.9,47.3,247.9,59.9,255.8,67.8z"/>
	<path d="M780.5,247.4L666.3,133.3l-6.2,6.2l-8.6-8.6c20.3-27.5,32.4-61.5,32.4-98.4c0-18.3-3-36-8.4-52.4l-41.3,41.3
		c0.3,3.7,0.6,7.3,0.6,11.1c0,64.2-52.1,116.2-116.2,116.2c-64.2,0-116.2-52.1-116.2-116.2c0-64.2,52.1-116.2,116.2-116.2
		c23.2,0,44.9,6.9,63,18.5l35.4-35.4c-27.5-20.3-61.5-32.4-98.4-32.4c-91.4,0-165.5,74.1-165.5,165.5S427.2,198,518.6,198
		c37,0,71.2-12.1,98.7-32.7l8.6,8.6l-6.2,6.2l114.1,114.2c12.9,12.9,33.9,12.9,46.8,0C793.3,281.3,793.3,260.3,780.5,247.4z"/>
</g>
</svg>
