<svg xmlns="http://www.w3.org/2000/svg" viewBox="-122 -123.6 595.3 841.9">
  <path d="M96.5 210.3c-10.9 9.3-18 6.9-24.5 6.9-33.7.3-67.5 0-101.2.2-12.6.1-28-.7-28.4 17-.4 18 14.6 17.5 27.6 17.5 16.2.1 32.3 0 48.5 0 68.2 0 136.3.5 204.5-.4 16-.2 21.3 4.5 19.9 20.2-1.1 13.2-.6 26.7.4 40 .7 8.9 5.6 16 16 16.4 10.6.4 14.9-6.7 16.7-15.6 1.1-5.4.9-11.2.9-16.8.1-56.2.3-112.4.3-168.7 0-27-6-32.9-33.7-32.9-68.2-.1-136.3 0-204.5 0-4.9 0-9.9-.3-14.7.7-8.9 1.8-16.3 6.7-16.6 16.4-.3 10.9 7.4 17 17.4 17.6 17.5 1 35.1.2 52.7.8 4.6.2 11.3-3.5 14.3 6.3-38.7 0-76.6.1-114.4 0-13 0-28.7-.8-29.1 16.1-.5 18.6 16.4 17.8 29.8 17.9 31.6.3 63.2 0 94.9.2 6.2 0 13.3-1.9 23.1 7.5H29c-32.3 0-64.7 0-97 .2-10.3.1-18.3 4.2-18.4 15.7-.1 11.3 7.3 16 17.8 16.4 7 .3 14.1.2 21.1.2 46.1.2 92.4.2 144 .2zM260 384.7c0-2.4-.1-4.7-.1-7.1h111c7.7 0 15.6.3 23.1-1 8.9-1.6 15.8-6.5 15.4-16.9-.4-10.2-7.1-14.9-16.2-16.2-5.5-.8-11.2-.4-16.8-.4-82.9 0-165.8-.3-248.7.3-14.5.1-20.5-3.7-19.1-18.8 1.1-11.8.4-23.9.1-35.8-.3-11.4-3.4-21.9-17.2-21.8-14.1 0-15.9 11.3-16.9 22.2-.2 2.8-.1 5.6-.1 8.4 0 56.9-.1 113.8.1 170.7.1 26.2 6 32.1 32.4 32.1 68.8.1 137.7 0 206.5 0 2.1 0 4.2 0 6.3-.1 12.3-.5 23.9-4 23.4-18.3-.4-12.8-11.3-16.4-22.9-16.4-15.5 0-30.9.1-46.4-.2-4.9-.1-10.8 1.7-15.2-3.6 6.3-5.1 12.8-3 18.7-3 33.7-.2 67.4-.2 101.2-.1 12.3.1 24.3-2.4 24.4-16.7.2-14.5-12.5-17-24.3-17.5-13.3-.5-26.7-.2-40-.2h-78.5c5.6-8.9 12.6-7 19.1-7 45-.2 89.9-.1 134.9-.1 12 0 24-1.2 23.6-16.9-.4-14.1-11.6-15.6-22.9-15.6H260zm-81.5-53.9c0 .4-.4.7-.7.7h-6.3c-.7 0-.7-.6-.7-5.9-9.2-1.7-14.1-7.7-14.1-18.1 0-.4.3-.7.7-.8l11.2-.6c.5 0 .8.2 1 1 .6 3.1 2 4.9 4 4.9 1.1 0 1.9-.8 1.9-1.9 0-2.3-2.1-4.2-9.1-9.2-5-3.6-8.3-8.8-8.3-15.1 0-6.7 4.4-13.7 12.6-15.4v-4.8c0-.4.3-.8.6-.8h6.4c.7 0 .7.5.7 5.7 8.1 1.7 13 8.4 13 16.1 0 .5-.4.9-1 1l-12.1.6c-.6 0-2.2-3.3-2.9-3.3-.8 0-1.1.7-1.1 1.3 0 2.1 2.9 4.3 8.8 8.8 5.5 4.1 8.4 9.1 8.4 14.5 0 8.8-4.9 14.8-13.1 16.4v4.9z" fill="#1d1d1b"/>
</svg>
