<?xml version="1.0" encoding="utf-8"?>
<!-- Generator: Adobe Illustrator 19.1.0, SVG Export Plug-In . SVG Version: 6.00 Build 0)  -->
<svg version="1.1" id="Capa_1" xmlns="http://www.w3.org/2000/svg" xmlns:xlink="http://www.w3.org/1999/xlink" x="0px" y="0px"
	 viewBox="-507 507.8 600 600" style="enable-background:new -507 507.8 600 600;" xml:space="preserve">
<g>
	<path d="M-311.9,916.4l-35.3,35.3c-5,5-9,14.8-9,21.8v91.9h53.3V920.2C-302.8,913.1-306.9,911.4-311.9,916.4z"/>
	<path d="M-77.5,829.3l-35.3,35.3c-5,5-9,14.8-9,21.8v178.9h53.3V833.1C-68.5,826-72.5,824.3-77.5,829.3z"/>
	<path d="M-3.2,755l-31.5,31.5c-5,5-9.1,14.7-9.1,21.8v257.2H5.8V758.7C5.8,751.7,1.8,750-3.2,755z"/>
	<path d="M-155.7,907.5l-33.6,33.6c0,0-2.4,2.4-5.4,5.4c-2.9,2.9-5.3,11-5.3,18.1v100.8h53.4V911.3
		C-146.6,904.2-150.7,902.5-155.7,907.5z"/>
	<path d="M-241.8,941.1l-27.1-27.1c-5-5-9.1-3.3-9.1,3.7v147.6h53.4V971c0-7-3.9-16.6-8.6-21.3L-241.8,941.1z"/>
	<path d="M-390,994.6l-24.3,24.3l-17.2,17.2c-5,5-9,13.6-9,19.2v10.1h59.5v-67.1C-380.9,991.3-385,989.6-390,994.6z"/>
	<path d="M53.7,545.5h-181.6c-7.1,0-8.7,4.1-3.8,9.1l64.6,64.6l-26.3,26.2l-122.2,122.2l-64.6-64.6c-5-5-13.1-5-18.1,0l-179.7,179.8
		c-20,20-20,52.4,0,72.3l1.2,1.3c20,20,52.4,20,72.3,0l115.2-115.3l64.6,64.6c5,4.9,13.1,4.9,18.1,0l213-213l63.6,63.6
		c5,5,9,3.3,9-3.7V570C79.2,557,66.7,545.5,53.7,545.5z"/>
</g>
</svg>
