<?xml version="1.0" encoding="utf-8"?>
<!-- Generator: Adobe Illustrator 19.1.0, SVG Export Plug-In . SVG Version: 6.00 Build 0)  -->
<svg version="1.1" id="Capa_1" xmlns="http://www.w3.org/2000/svg" xmlns:xlink="http://www.w3.org/1999/xlink" x="0px" y="0px"
	 viewBox="220 -248 600 600" style="enable-background:new 220 -248 600 600;" xml:space="preserve">
<g>
	<g>
		<g>
			<path d="M622.6-224.7"/>
			<path d="M622.6-109.3"/>
			<path d="M449.5,237h-85.1v-85.1h85.1V237z"/>
			<rect x="484.6" y="158.6" width="203.8" height="20.2"/>
			<rect x="484.6" y="210.1" width="149.5" height="20.2"/>
		</g>
		<g>
			<g>
				<path d="M600,47.7v22H424.3v-22c0-24.8,42.1-39.1,72.7-42.9c0,0,0.1,0,0.2,0c5.4-0.7,10.5-1,14.9-1c3.2,0,6.8,0.2,10.6,0.6
					c1.4,0.2,2.9,0.3,4.4,0.5c0.1,0,0.1,0,0.2,0c13.7,1.7,29.9,5.5,43.4,11.3c13.4,5.9,24.3,13.9,28,24
					C599.4,42.6,600,45.1,600,47.7z"/>
			</g>
			<g>
				<path d="M556-62.1c0,19.8-13,36.5-31,42c-0.7,0.3-1.6,0.5-2.3,0.7c-3.4,0.9-6.9,1.3-10.6,1.3c-4.6,0-9.1-0.7-13.3-2.1
					c-17.8-5.6-30.6-22.3-30.6-41.9c0-24.3,19.6-44,43.9-44c3.7,0,7.2,0.4,10.6,1.3C541.9-100,556-82.7,556-62.1z"/>
			</g>
		</g>
	</g>
	<path d="M290.8,176.6v113c0,21.5,17.5,39.1,38.9,39.1h380.6c21.4,0,38.9-17.6,38.9-39.1V-73.5c0-124.2-138.6-150.5-142.3-150.9
		H329.7c-21.4,0-38.9,17.6-38.9,39.1v82.9C290.8-102.4,290.8,176.6,290.8,176.6z M711.4-121.7c-8.9-4.1-19.4-6.3-31.7-6.3h-36
		c0.4-15.4-0.7-39.9-7.9-59.9C660.8-177.3,694.9-157.5,711.4-121.7 M322.1-99.3v-81.3c0-6.5,5.1-11.8,11.4-11.8h257.8
		c3.9,0,6.9,1.5,9.7,4.5c12.8,14,14.5,53.8,13,75.9l-0.9,14.4h63.3c35.6,0,41,25.5,41.4,28.2v354.1c0,6.3-5.4,11.4-11.4,11.4H333.5
		c-6.3,0-11.4-5.1-11.4-11.4v-111V-99.3z"/>
</g>
</svg>
