<?xml version="1.0" encoding="utf-8"?>
<!-- Generator: Adobe Illustrator 19.1.0, SVG Export Plug-In . SVG Version: 6.00 Build 0)  -->
<svg version="1.1" id="Capa_1" xmlns="http://www.w3.org/2000/svg" xmlns:xlink="http://www.w3.org/1999/xlink" x="0px" y="0px"
	 viewBox="-507 507.8 600 600" style="enable-background:new -507 507.8 600 600;" xml:space="preserve">
<g>
	<path d="M-5.1,618.4c0-1.9-1.1-4.3-2.5-5.6c-22.9-22.4-46-44.7-69-67c-1.1-1.1-2-2.3-3-3.5c-109.8,0-219.5,0-329.3,0
		c0,155.7,0,311.4,0,467.2c0,19.1,0,38.2,0,57.3c134.6,0,269.2,0,403.9,0C-5.1,917.4-5,767.9-5.1,618.4z M-40.1,1031.6
		c-111.3,0-222.4,0-333.8,0c0-151.4,0-302.6,0-454.3c2,0,3.6,0,5.3,0c88.4,0,176.8,0,265.1,0c5.5,0,5.5,0,5.5,5.5
		c0,14.8,0,29.6,0,44.4c0,5.5,0,5.5,5.7,5.5c15.8,0,31.6,0,47.3,0c1.5,0,3,0,4.8,0C-40.1,765.9-40.1,898.6-40.1,1031.6z"/>
	<path d="M-231.2,891.5c46.6,0.1,93.2,0,139.9,0c1.7,0,3.4-0.2,5-0.6c5.5-1.5,8.9-5,9.8-10.7c1.8-10.8-3.8-17.7-14.8-17.8
		c-23.3-0.1-46.6,0-69.9,0c-17,0-34.1,0-51.1,0c-6.8,0-13.7-0.1-20.5,0.1c-6.9,0.2-11,3.4-12.8,9.4
		C-248.8,882.9-242.6,891.4-231.2,891.5z"/>
	<path d="M-91.5,786.9c-23.2-0.1-46.3,0-69.5,0v0c-23.6,0-47.2-0.1-70.8,0c-9.1,0-14.4,5.4-14.6,14.2c-0.2,8.6,4.7,13.9,13.7,14.7
		c1.4,0.1,2.8,0.1,4.2,0.1c44.8,0,89.6,0,134.4,0c2.4,0,4.8-0.1,7.1-0.5c5.3-0.8,9.1-4.4,10.3-9.7
		C-74.2,794.5-80.1,786.9-91.5,786.9z"/>
	<path d="M-91.3,942.8c-23.3-0.1-46.6,0-69.9,0c-23.5,0-46.9,0-70.4,0c-9.2,0-14.8,5.6-14.8,14.5c0,8.8,5.1,14.1,14.3,14.5
		c1.1,0,2.2,0,3.4,0c45.1,0,90.2,0,135.3,0c1.7,0,3.4,0,5-0.2c6.6-0.6,10.7-4.4,11.9-10.9C-74.7,950.1-80.5,942.9-91.3,942.8z"/>
	<path d="M-230,735.5c45.8,0,91.6,0,137.4,0c1.7,0,3.4-0.1,5-0.3c5.7-0.8,9.6-4.5,10.9-10.1c2.1-9.7-2.6-18.8-14.6-18.6
		c-23.3,0.3-46.6,0.1-69.9,0.1c-23.6,0-47.2,0-70.8,0c-8.4,0-13.3,4.4-14.2,12.3C-247.5,729.3-241.6,735.5-230,735.5z"/>
	<path d="M-279.7,687.2c-4.9-3.9-11.9-3.1-16,2c-1.3,1.6-2.5,3.4-3.6,5.1c-5.1,7.6-10.2,15.2-15.5,23.2c-0.8-0.7-1.3-1-1.6-1.4
		c-4.1-6.5-12.6-5.3-16.2-2.2c-5,4.3-5.2,11.2-0.3,16.7c3.8,4.4,7.7,8.8,11.7,13.1c6.8,7.4,15.5,6.2,20-2.7
		c1.9-3.7,3.2-7.8,5.4-11.3c5.8-9.2,11.8-18.2,17.9-27.3C-274.3,696.5-274.7,691.2-279.7,687.2z"/>
	<path d="M-326.6,824.4c6.4,6,14.8,3.9,18.4-4.2c1-2.3,1.7-4.8,3-6.9c6.5-10.5,13.2-21,19.9-31.3c4-6.2,3.6-12-1.4-15.6
		c-5.6-4-12.9-2.7-16.9,3.1c-5.3,7.8-10.5,15.8-15.7,23.7c-0.7,1.1-1.6,2.2-2.5,3.5c-1-0.9-1.7-1.5-2.4-2.2
		c-4.9-4.8-10.8-5.3-15.3-1.5c-4.9,4.2-5.6,10.6-1.2,16C-336.3,814.4-331.7,819.6-326.6,824.4z"/>
	<path d="M-301.5,848.3c-2.7,2.7-4.8,6.1-7,9.3c-4.5,6.7-8.9,13.4-13.3,20c-2.3-1.8-4.1-3.8-6.3-5c-4.3-2.2-10.2-0.7-12.9,2.9
		c-3.8,4.9-3.6,10.3,1,15.6c3.8,4.4,7.8,8.7,11.9,12.9c7.5,7.6,16.2,5.7,20.6-4c3.2-7.1,7-13.9,11-20.6c3.3-5.6,7.4-10.8,11.1-16.2
		c2.2-3.3,3.9-6.8,2.4-11C-285.9,845.1-295.9,842.7-301.5,848.3z"/>
	<path d="M-293.4,928.2c-4.5-0.2-7.8,1.7-10.3,5.3c-1.7,2.4-3.3,4.8-5,7.3c-4.4,6.6-8.7,13.2-13.8,20.7c-0.7-1.2-1-2.1-1.5-2.7
		c-4.7-4.9-11.1-5.6-15.7-1.9c-4.7,3.8-5.5,10.3-1.2,15.8c3.8,5,8.1,9.5,12.5,14c7.6,7.9,16.5,6,20.8-3.9c2.7-6.1,5.8-12.1,9.2-17.8
		c4.4-7.3,9.8-14,14-21.3C-279.9,936.3-284.7,928.6-293.4,928.2z"/>
</g>
</svg>
