<?xml version="1.0" encoding="utf-8"?>
<!-- Generator: Adobe Illustrator 19.1.0, SVG Export Plug-In . SVG Version: 6.00 Build 0)  -->
<svg version="1.1" id="Capa_1" xmlns="http://www.w3.org/2000/svg" xmlns:xlink="http://www.w3.org/1999/xlink" x="0px" y="0px"
	 viewBox="-509 386.8 595.3 841.9" style="enable-background:new -509 386.8 595.3 841.9;" xml:space="preserve">
<style type="text/css">
	.st0{fill:#1D1D1B;}
</style>
<g id="zeAuGo.tif">
	<g>
		<path class="st0" d="M-327.4,999c-1.1-37.1,3-41.9,40-41.1c13.3,0.3,20.6-2.2,23.7-16.7c3.1-14.6,14.2-24.9,27.2-32
			c5.3-2.9,7.5-6,7.5-12.3c-0.2-71.2-0.2-142.4,0-213.7c0-5-1.2-8.7-4.9-12c-2.3-2-4.3-4.4-5.8-6.9c-3.3-5.5-7.7-11.8-4.7-17.9
			c2.9-6,10.3-2.9,15.6-3c16.3-0.3,32.6,0.1,48.9-0.2c9.6-0.2,11.2,4.2,8.2,12c-1.4,3.5-2.4,7.9-5,10c-10.3,8.2-9.8,19.2-9.8,30.6
			c0.2,66.7,0.2,133.4-0.1,200c0,6.5,1.7,10.2,7.6,13.4c15.7,8.7,26.1,21.9,29.5,39.7c1.3,6.7,4.6,8.8,10.8,8.7
			c7.6-0.2,15.2-0.1,22.7,0c19.6,0.3,27.5,8.1,27.8,27.7c0.1,4.5-0.1,9.1-0.2,13.6C-168.1,999-247.8,999-327.4,999z"/>
		<path class="st0" d="M-463.9,801c18.8,3,25.5-7.6,31.2-23.8c16.9-48.3,35.7-95.9,53.7-143.7c0.4-1.1,0.8-2.1,1.2-3.2
			c2.3-5.8,4.8-11.5,12.3-11.6c7.5,0,10,5.5,12.2,11.5c10.5,28,21.1,56,31.7,84c9.5,25.2,19.3,50.2,28.4,75.5
			c2.7,7.4,6.3,11,14.7,10.8c12.2-0.4,13.3,1.8,7.3,13c-19.8,36.6-50.2,57.6-92.1,58.6c-43.5,1-75-20-96.3-57.3
			c-1.7-3-3.1-6.1-4.6-9.2C-463.9,804-463.9,802.5-463.9,801z M-364.2,663.1c-0.9,0-1.7,0-2.6,0c-4,10.5-8,21.1-12,31.6
			c-11.9,31.5-23.9,63-35.7,94.6c-1.6,4.4-6,10.8,4.3,10.8c29.9,0,59.9-0.1,89.8,0.1c6.2,0,7.2-2.5,5.2-7.7
			c-4.1-10.6-8.1-21.2-12.1-31.9C-339.6,728.2-351.9,695.7-364.2,663.1z"/>
		<path class="st0" d="M-59.8,872.3c-33.6-1.8-65.2-21.2-85.2-59c-5.8-11-4.7-13.2,7.7-12.8c8.6,0.3,11.9-3.8,14.6-11
			c19.4-51.8,39-103.5,58.6-155.3c0.3-0.7,0.5-1.4,0.8-2.1c2.4-6.4,4.3-13.6,13.2-13.4c8.6,0.3,10.6,7.5,13,13.8
			c11.5,30.5,23,61,34.5,91.4c8.3,22,16.8,43.9,24.7,66c2.7,7.6,6.6,10.8,14.9,10.5c11.8-0.3,12.6,1.5,7.4,12.4
			C27.6,848.7-10.3,872.4-59.8,872.3z M-49.3,662.6c-1.5,0.9-2,1-2.1,1.3C-67.9,707-84.5,750.1-101,793.3c-2.3,6.1,1,7.1,6.1,7.1
			c29.2-0.1,58.4-0.2,87.5,0.1c7.8,0.1,9.2-2.7,6.6-9.5C-16.9,748.4-32.9,705.9-49.3,662.6z"/>
		<path class="st0" d="M-207.6,621.6c-17.9,0.2-33.9-13.5-36.4-31.3c-2-14-8.7-20.7-23.3-22.9c-10.6-1.5-21.5-1.5-31.4,2.9
			c-18.7,8.4-39.2,13.6-53.8,30.1c-6.8,7.6-18,7-25.9,0.6c-7.7-6.2-9.9-16.9-5.4-25.7c4.5-8.8,15-14.2,23.9-10
			c9.5,4.5,16.6,1.4,24.5-2.8c15.8-8.3,32-15.6,50.1-17.6c15.3-1.7,29.6,0.7,42.5,8.8c5.9,3.7,10.5,5.1,16-0.2
			c5.8-5.4-0.9-7.9-2.5-11.4c-3-6.6-4-12.9-1.1-19.7c4.4-10.6,10.7-20,17.1-29.4c4.2-6.2,7.6-4.9,10.9,0.6c5,8.1,10.1,16,14.8,24.3
			c5.3,9.3,5.7,18.7-1.2,27.7c-1.9,2.4-4.2,5.1-0.5,7.6c3.2,2.2,5.9,7,10.7,3.8c33.9-22.8,65.8-10.9,97.5,5.3
			c8.2,4.2,15.6,7.8,25.6,3c9.3-4.4,20,1.9,24.1,11.5c3.9,9.1,0.8,19.5-7.4,25.1c-8.8,6.1-18.6,4.2-26.8-3.1
			C-86.7,580-111.3,568-139.9,567c-20.3-0.7-27.8,6.1-32.4,26C-176,609.1-191.2,621.4-207.6,621.6z"/>
	</g>
</g>
</svg>
