<svg xmlns="http://www.w3.org/2000/svg" viewBox="-122 -123.6 595.3 841.9">
  <path d="M438.1 509.3c-6.4-.4-12.8.1-19.2.4-2.5.1-3.3-.7-3.2-3.2.1-5.5.1-11.1 0-16.6 0-14.5-8.6-23.6-23-24.5-.8-.1-1.6 0-2.4 0H197.4c-6.2 0-12.1 1.1-17 5.2-5.7 4.8-8.3 11-8.3 18.4 0 6.1-.4 12.1-1 18.1-.2 2.1-1.2 2.6-3.1 2.6-5.3.1-10.7.4-16 .6-2.3.1-3 1-2.8 3.3.5 6.2.7 12.5 1 18.7 95.2 0 190.4 0 285.6.1 2 0 2.5-.4 2.5-2.5-.3-6.8-.2-13.7-.2-20.6zM199 290.8c7.9 13.8 15.9 27.5 23.8 41.3 1 1.8 1.9 2.1 3.7 1.1 23.4-13.6 46.8-27.1 70.2-40.6l58.2-33.6c3.7-2.1 3.7-2.1 1.6-5.7-24.7-42.7-49.3-85.4-73.9-128.2-1.1-2-2-2.4-4.1-1.2-43 24.9-86 49.7-129.1 74.5-2.1 1.2-2.5 2.1-1.2 4.3 8.3 14.1 16.3 28.3 24.6 42.3 1.2 2.1 1.1 3.1-1.1 4.2-30.3 15.8-60.5 31.7-90.8 47.6-50 26.2-100 52.5-149.9 78.8-12.4 6.5-19.5 21-17.3 34.4 2.5 14.7 13.4 25.8 27.8 28.1 1.8.3 3.6.3 5 .4 6.6-.2 12.5-1.7 17.8-5.1 76.1-48.1 152.3-96.3 228.5-144.3 4-2.5 3.2-3.5 6.2 1.7zM121.2 184c5.8.9 11-.4 15.9-3.2 36.3-21 72.6-41.9 108.9-62.9 7.7-4.5 15.5-8.9 23.2-13.4 13.3-7.8 16-24.1 5.9-35.1-4.3-4.7-9.9-6.8-15.7-7.1-5.5.1-10 2-14.3 4.5-16.9 9.8-33.8 19.5-50.7 29.3L114.9 142c-7 4-11.1 9.8-12.1 17.9-1.3 11.2 7.1 22.3 18.4 24.1zm113.6 169.1c-8.6 5.3-12.6 15.5-9.9 25 2.8 9.9 11.2 16.3 22.1 16.3 3.5.2 7.3-1 10.7-3 44.4-25.6 88.8-51.2 133.2-76.9 8.8-5.1 13.2-14.4 11.3-23.7-1.9-9.6-9.5-16.8-19.7-18.1-4.9-.7-9.6.6-13.8 3.1-40.9 23.6-81.9 47.2-122.8 70.8-3.8 2.2-7.5 4.3-11.1 6.5z" fill="#1d1d1b"/>
</svg>
