<svg id="Capa_1" xmlns="http://www.w3.org/2000/svg" viewBox="-122 -123.6 595.3 841.9">
  <style>
    .st0{fill:#1d1d1b}
  </style>
  <path class="st0" d="M432 316.1c-16.3-13.7-32.7-27.3-49.1-40.9-19.1-15.9-38.3-31.8-57.4-47.7-19.4-16.1-38.7-32.2-58.1-48.3-15.5-12.9-31-25.9-46.6-38.8-10.6-8.8-21.2-17.8-32.1-26.3-6.8-5.3-12.6-4-18 2.6-12.3 14.9-24.8 29.7-37 44.7-2 2.5-3.3 2.3-5.7.5-11.9-9.1-23.9-18-35.7-27-3.3-2.5-6.7-3.8-10.8-2.7-3.8 1.1-6.4 3.8-8.7 6.8-5.2 6.8-10.3 13.7-15.5 20.5-19.6 26-39.3 52-58.7 78-2.2 2.9-4.4 3.6-7.8 3-10.9-2.1-21.8-4-32.7-5.9-7.5-1.2-13.1 2.9-14.4 10.3-2.8 15.9-5.6 31.9-8.4 47.8-4.4 25.1-8.9 50.1-13.3 75.2-2.1 12-3.6 24.1-6.6 35.9v11.6c2.5 4.5 6.4 6.3 11.4 7.2 17.6 3 35.1 6.3 52.7 9.4 31.3 5.5 62.7 11 94 16.5 10.6 1.9 21.3 3.7 31.9 5.5 2.2.4 4.3.4 3.7-2.6-1.1-5.1-.6-10.2-.6-15.3 0-3.5-1.4-5-4.7-5.5-6.8-1.1-13.6-2.4-20.4-3.6-31.3-5.5-62.6-11-94-16.4-3.7-.6-5.4-2.1-6.3-5.7-5.1-19.4-15.6-35-33-45.4-2.1-1.3-2.7-2.6-2.3-5.1 2.7-14.7 5.3-29.4 7.9-44.1 1.4-7.7 1.3-7.8 9.3-9 20.3-3.3 36.3-13.6 48.7-29.7 1.8-2.4 3.6-3.3 6.7-2.7 30.1 5.3 60.2 10.5 90.3 15.7 32.3 5.7 64.5 11.5 96.8 17.2 2.7.5 4.2 1.8 4.5 4.5.3 3.1 1 6 2.1 8.9 5.4 14.9 14.9 26.8 27.9 35.7 3.2 2.2 4 4.5 3.2 8-.8 3.6-1.1 7.4-1.8 11-.5 2.7.2 4 3 4 5.4 0 10.8-.1 16.2-.1 2.6 0 3.6-1.4 4-3.8.9-5.9 2.1-11.7 3.1-17.6 2.6-14.9 5.2-29.7 7.7-44.6.6-3.4 1.6-3.4 4.2-1.8 4 2.4 5.5 5.5 4.3 10.1-.5 1.9-.5 3.8-.7 5.8-1.2 15.3 2.7 29.4 10.2 42.5 1.3 2.2 1 3.7-.5 5.6-3.2 4-6.2 8.1-9.3 12.2-1.1 1.4-2.1 2.9-2.1 4.9-.3 8.7.2 17.3-.7 26-.8 7.6.5 15.4.7 23.2.1 2.4.6 4.3 2.5 5.9 7.5 6.2 14.8 12.5 22.4 18.5 7.5 5.9 14.3 4.6 19.1-1.8 7.5-9.8 15.5-19.1 23.4-28.5 21.9-26.2 43.9-52.4 65.6-78.7 6.1-7.3 12.8-14.2 17.8-22.4 2.8-4.7 2-9.5-2.3-13.2zm-260.1-44.5c-.5 1-1.4.5-2.2.4-5.9-1-11.7-2-17.6-2.9-1.8-.3-3.8-.4-3.9-2.8-.1-2.4 1.6-3.3 3.6-3.9 1.1-.3 2.2-.4 3.4-.6 6.1 1 11.4 3.8 15.9 8 .6.5 1.2 1.1.8 1.8zm6.6 2c2.8-2.7 5.2-4.8 7.5-7.1 2.7-2.7 2.5-5.4-.2-7.9s-5.4-5.2-8.8-6.8c-2.6-1.2-3.2-2.9-2.2-5.7 1-2.7 3.1-5.8.4-8.5-3.1-3.1-7.3-4.7-11.6-4.7-3.2 0-4.6 3-5.2 5.7-1 4.2-3.2 5.5-7.6 5.5-12.6-.1-20.5 5.8-24 17.6-.9 3.2-2.8 2.4-4.7 2.1-12.2-2.2-24.5-4.5-36.7-6.7-20-3.6-40-7.1-60-10.5-3.3-.6-4.3-1.2-1.9-4.2 13.5-17.7 26.9-35.5 40.2-53.3 1.6-2.1 3.2-2.7 5.7-1.7 16.2 6.4 32.5 5.6 48.7 0 3.1-1.1 5.4-.5 8 1.5 28.1 21.3 56.2 42.5 84.4 63.8l41.7 31.5c.9.6 1.8 1.2 2.3 3-25.4-4.6-50.1-9-76-13.6zM379.9 307c-6.8 15.9-6.7 32.3-2.8 48.8 1 4.4.2 7.4-2.7 10.8-8.8 10.1-17.3 20.5-25.7 31-3 3.8-6.1 5.6-11.2 5.3-15.5-.9-29.7 4.1-43.5 10.5-1.2.6-2.5 1.2-3.7 1.9-.2-.2-.5-.4-.7-.6 5.1-6.8 10.3-13.6 15.4-20.4 13.4-17.8 26.8-35.5 40.2-53.4 4.1-5.5 3.6-11.4-1.8-15.8-9-7.3-18.4-14.2-27.6-21.2-19-14.4-38-28.7-56.9-43-1.1-.8-2.8-1.4-2-3.1.8-1.8 2.7-1.8 4.4-1.3 6.1 1.9 10.6 5.9 14.2 11 .4.6.7 1.2 1 1.8 3.6 5.9 5.5 6.4 11.3 2.8 8.6-5.2 8.8-6.3 2.8-14.6-.2-.2-.3-.5-.5-.7-4.4-4-6.9-8-1.3-13.1 1.5-1.3 1.3-3.7-.1-5.4-2.5-3.1-5.6-5.4-9.2-6.9-3.1-1.2-5.2 1.2-6.4 3.3-2.4 4.2-5.3 5-10 3.8-8.2-2.1-16-.8-22.5 5-2.3 2-3.8.7-5.4-.5l-25.8-19.5c-17.8-13.4-35.5-26.8-53.3-40.3-1.1-.8-2.2-1.6-3.3-2.6-1.1-1-3.4-1.7-1.9-3.8 1.3-1.9 2.8-3.4 5.5-2.3 3.1 1.2 6.2 2.4 9.5 3 16.1 3.3 31.7 1.8 46.6-5.1 7.3-3.3 7.1-3.3 13.3 1.9 11.9 10.1 24.1 19.9 36.1 29.9 15.5 12.9 31 25.8 46.5 38.8 23.3 19.4 46.5 38.8 69.9 58.1 2 1.7 2.7 3.3 1.6 5.9z"/>
  <path class="st0" d="M276.2 462.1c.2-4.1-1.2-5.6-5.5-5.5-15.8.3-31.5.4-47.3.8-20.1.6-40.1 0-60.2.8-14.2.6-28.5.3-42.8.3-3.7 0-5.3 1.2-5.1 5.1.3 5.1.3 10.2.1 15.4-.1 3.5 1.1 4.9 4.8 4.8 8.9-.2 17.7-.1 26.6-.1 12.3-.2 24.6-.7 36.9-.8 29.2-.3 58.4-1.1 87.6-1.6 3.9-.1 5.1-1.5 4.9-5.2-.2-4.6-.3-9.3 0-14zm-.1-75.4c-.1-6.1-.3-6.3-6.4-6.2-24.2.4-48.4.8-72.6 1.5-24.2.7-48.4.7-72.6 1-2.1 0-4.1.4-6.2.4-2.1.1-2.9 1.2-2.9 3.2.1 6 .1 11.9.1 17.9 0 2.4 1.1 3.6 3.5 3.5h10.4v.1c5.4-.2 10.8-.7 16.2-.7l110.8-1.2c5.3-.1 10.5-.5 15.8-.6 3-.1 4.2-1.4 4.1-4.4-.2-4.8-.2-9.6-.2-14.5zm-155.3 59.5c3.3-.2 6.6 0 10 0v.1c13.8-.5 27.6-1.2 41.5-1.4 32.8-.5 65.6-.7 98.4-1.1h2.1c2.4 0 3.5-1.1 3.5-3.6-.1-3.9 0-7.8-.1-11.6-.2-9.8 1.6-10.8-9.6-9.4h-.8c-22.4.2-44.8.2-67.2.8-26 .7-52 .8-78 1-3.7 0-5.3 1.1-5 5 .3 5 .3 10 .1 14.9-.5 4.1 1.3 5.5 5.1 5.3zm-1.4-128.6c-.3-.8-1.2-1.4-2-2-2.9-2.2-5.8-4.2-9.3-5.4-3.1-1.1-4.2-2.8-3.1-6.3 2-6.3.4-8.5-6.1-9.9-1.8-.4-3.5-.7-5.3-1-3.6-.2-5.3 1.8-5.6 4.9-.7 5.7-3.6 8-9.3 8.6-7 .8-12.8 4.5-16.2 10.9-5.6 10.4-2.8 22.4 6.7 30.2 5.3 4.4 11.5 7.7 16.8 12.1 3 2.5 5 5.7 3.6 9.5-1.3 3.7-5.1 4.3-8.6 4.5-7.1.5-12.8-2.8-18.3-6.8-6.6-4.8-8-4.5-12.8 2.3-.6.9-1.3 1.8-1.8 2.8-1.9 3.1-1.4 5.6 1.4 8 3.8 3.3 8.3 5.5 12.9 7.4 2.6 1.1 3.5 2.4 2.7 5.3-2.1 8.2-1.5 9 6.9 11 .9.2 1.9.4 2.8.7 3.4.9 6.4-.3 6.7-3.6.8-7.3 5.3-9.8 11.7-10.5.5-.1 1.1-.3 1.6-.5 15.2-4.7 21.7-22 13.6-35.6-4.3-7.1-11.5-10.6-17.8-15.3-2.9-2.2-5.7-4.3-8-7.2-2.7-3.4-2-6.1 2-7.8 3.2-1.3 6.5-1.1 9.8-.3 4.5 1.1 8.4 3.6 12.1 6.2 2.6 1.8 5.5 2.4 7.4-.4 2.4-3.4 7.4-6.1 5.5-11.8z"/>
</svg>
