<svg id="Capa_1" xmlns="http://www.w3.org/2000/svg" viewBox="-122 -123.6 595.3 841.9">
  <style>
    .st0{fill:#1d1d1b}
  </style>
  <path class="st0" d="M400.7 320.2c-25.7.3-51.4-.2-77.1.3-7.6.1-9.7-2.4-9.3-9.6.5-10.4.1-20.8.1-31.3 0-11.2-5.7-18.7-15.3-23.7-7.8-4.1-9.9-2.7-10 6-.1 15.8 0 31.5 0 47.3 0 11.1 0 11.1-11.2 11.1-61.6 0-123.1.1-184.7-.1-11.6 0-20 4.8-26 14.3-1.9 3.1-3.7 6.3-5.3 9.5-25.2 50.8-50.3 101.6-75.5 152.4-1.3 2.5-2 5.6-5.1 6.8-15 6.2-26.9-1.6-26.9-17.7V249.2c0-21.3.8-22.1 21.8-22.8.7 0 1.5-.1 2.2-.1 3.6 0 5-1.8 5.4-5.3 2.3-18.8 1.3-20-17.1-20-1 0-1.9.1-2.9 0-16.1-1-27.6 5.7-34.1 20.6v288.1c7.2 15.1 19.4 19.6 35.6 19.5 110.8-.4 221.6-.4 332.3 0 18.1.1 29.7-7.5 37.8-22.9 27.8-53 55.8-105.9 83.8-158.8.7-1.3 1.6-2.4 2.4-3.6v-14.6c-5.2-7.1-12.3-9.2-20.9-9.1z"/>
  <path class="st0" d="M-.5 426.5c1.6 2.9 4.4 4.1 6 .5 5.3-12.2 13.7-23 13.6-37.7-.4-97.7-.2-195.5-.3-293.2 0-6.4 1.1-9.8 8.6-9.8 52.6.3 105.3.2 157.9 0 6.7 0 9 2.6 8.9 9.1-.3 14.3-.2 28.6 0 42.9.1 9 3.5 12.3 12.4 12.4 11.6.1 23.3 0 34.9.1 10.9 0 11.4.4 11.4 11.6v136.1c0 8.6.8 9.1 10.7 9.1 10.1 0 10.9-.5 11-8.9.1-51.2 0-102.4 0-153.5 0-5.9-2-10.8-6-15.1-17.5-18.8-35-37.7-52.2-56.7-5.1-5.7-10.8-8-18.5-8-56.8.2-113.5.1-170.3.1-21 0-29.7 8.7-29.7 29.5v320.1c0 3.9-.3 7.9 1.6 11.4zm215.7-322.9c9.3 8.9 16.3 16.6 23.4 25.4-7.2 1.5-13.4 1-19.5.7-2.6-.1-3.8-2-3.8-4.4-.1-6.4-.1-12.9-.1-21.7z"/>
  <path class="st0" d="M224.5 262.5c6.8-.8 12.2-6.2 12.4-12.2.2-6.3-5.4-12.1-12.5-12.8-2.2-.2-4.4-.1-6.5-.1H57.8c-3.6 0-7.3-.2-10.9.3-6.6 1-11.2 6.4-11.2 12.4 0 6.3 5.2 11.7 12 12.4 2.2.2 4.4.1 6.5.1h163.7c2.2 0 4.4.1 6.6-.1zm1-93.3c-2.4-.4-4.8-.3-7.3-.3H54.5c-12.3 0-18.7 4.2-18.8 12.3-.1 8.3 6.7 13.1 18.9 13.1h163.7c2.4 0 4.9.1 7.3-.3 6.3-1.1 11.3-6.8 11.3-12.5-.1-6.1-4.9-11.3-11.4-12.3zM36 317.1c-.9 5.6 1.5 10 6.5 12.6 3.5 1.8 8.4 3.4 10.6-.3 5.6-9.2 12.2-17 22.4-22.1-10.7-1.2-20.9-2.6-31-.1-4.8 1.2-7.7 5-8.5 9.9z"/>
</svg>
