<?xml version="1.0" encoding="utf-8"?>
<!-- Generator: Adobe Illustrator 19.1.0, SVG Export Plug-In . SVG Version: 6.00 Build 0)  -->
<svg version="1.1" id="Capa_1" xmlns="http://www.w3.org/2000/svg" xmlns:xlink="http://www.w3.org/1999/xlink" x="0px" y="0px"
	 viewBox="215.6 -248 600 600" style="enable-background:new 215.6 -248 600 600;" xml:space="preserve">
<style type="text/css">
	.st0{fill:#1D1D1B;}
</style>
<path class="st0" d="M454.3,49.1c1.1,0,2,0.5,2.8,1.4c1.4,1.7,1.5,4,1.5,6.1c0.3,28.9-13.9,54-22.1,80.9
	C426,172,414,206.3,406.2,241.4c-6.3,28.7,10.3,47.2,38.9,52.1c27.9,4.7,53.7-0.4,74.1-19.4c28.6-26.6,55.1-55.4,81.8-83.9
	c2.7-2.8,1.5-11-0.2-15.8c-2.6-6.9-7.9-21.3-17.7-17c-2.9,1.3-5.1,3.9-7.1,6.5c-5.9,7.9-12.5,15.3-18.7,22.9
	c-2.7,3.2-21,31.2-25.9,19.1c-0.7-1.8-0.5-3.8-0.2-5.7c4.1-28.9,13.7-56.3,21.9-84.2c8.8-30,17.6-59.9,25.5-90.2
	c8.8-33.6-3.9-52.6-37.4-61.5c-27.3-7.2-53.8-4.1-73.7,16.7c-30.6,32-59.3,65.8-88.4,99.2c-10.2,11.8,4.1,15.2,8.9,21.5
	c5.5,7.1,11.1,6.6,16.8-0.6c7.6-9.6,14.9-19.4,23-28.5C431,69.1,446.4,48.8,454.3,49.1z M549.7-73.3c38.3-0.2,70.4-33.5,70.1-72.6
	c-0.3-31.8-25.6-57.4-56.8-57.5c-37-0.1-72.4,35.6-71.6,72.4C492.2-98,517.3-73.1,549.7-73.3L549.7-73.3z"/>
</svg>
