<svg xmlns="http://www.w3.org/2000/svg" viewBox="-122 -123.6 595.3 841.9">
  <path d="M286.2 629.4h-221c-2.8-.8-5.6-1.6-8.5-2.4-87.5-21.8-142.2-91.6-142.6-182-.2-50.6-.2-101.2 0-151.7.2-31.6 20.7-53.9 48.6-53.5 27.6.4 47.3 22.1 47.5 52.9.2 34.9.1 69.7.1 104.6 0 3.4 0 6.9.2 10.3.2 3 .8 6.3 4.5 6.6 3.8.3 4.8-2.9 5.1-5.9.4-4.4.5-8.8.5-13.2v-330c0-19.3 5.5-36 22.6-46.9 15.2-9.7 31.5-11 47.6-2.4 17 9.1 25.8 23.7 25.8 43.1.1 72.2 0 144.4.2 216.6 0 5.9-3 16.3 4.4 16.5 9.7.2 5.8-10.6 5.8-16.5.3-81.5.2-163 .3-244.6 0-8.8.3-17.7 1.7-26.4 3.8-23.3 23-39.1 46.4-39.2 23.4-.1 43 15.6 46.9 38.6 1.6 9.1 1.8 18.6 1.9 27.9.1 80 .1 160.1.1 240.1 0 4.9.1 9.8.5 14.7.2 3 1.2 6.2 5 6.1 3.8-.1 4.6-3.4 4.8-6.3.3-4.4.3-8.8.3-13.2 0-71.2-.2-142.4.2-213.6 0-34.6 30.3-57 61.9-46.8 21.5 6.9 33.6 25.5 33.7 53.1.2 68.8.1 137.5.1 206.3 0 4.9.1 9.8.4 14.7.2 3 1.3 6.2 5.1 5.9 3.7-.3 4.4-3.5 4.5-6.5.2-3.9.2-7.9.2-11.8 0-53-.1-106.1.1-159.1 0-6.8.2-13.9 2-20.4 6.2-23 28.7-38 51.4-34.9 25.9 3.5 42.6 23.7 42.6 53.3.2 112.9.4 225.9-.1 338.8-.2 41.6-14.4 78.8-40.4 111.4-28.6 35.8-66.6 55.7-110.4 65.8z" fill="#1d1d1b"/>
</svg>
