<?xml version="1.0" encoding="utf-8"?>
<!-- Generator: Adobe Illustrator 19.1.0, SVG Export Plug-In . SVG Version: 6.00 Build 0)  -->
<svg version="1.1" id="Capa_1" xmlns="http://www.w3.org/2000/svg" xmlns:xlink="http://www.w3.org/1999/xlink" x="0px" y="0px"
	 viewBox="-551 551.8 512 512" style="enable-background:new -551 551.8 512 512;" xml:space="preserve">
<g>
	<path d="M-202.7,575.9c0-15.8-5-22-21.3-21.7c-44.9,0.8-89.8,0.9-134.7-0.1c-17.6-0.4-23.9,5-23.7,23.2
		c0.8,76.8,0.4,153.6,0.3,230.4c0,70.3-0.4,140.6,0.1,210.9c0.3,46.6-8.8,42.3,44.7,42.5c11.5,0,16.7-4.5,16.4-16.2
		c-0.4-17.6-0.1-35.1,0-52.7c0.1-28.6,0.2-28.7,27.8-28.7c27,0,27.5,0.5,27.6,27c0.1,10.4,0,20.8,0,31.2
		c0.3,43.2-4.4,38.5,40.4,39.6c17.3,0.4,22.4-5.9,22.4-22.7C-203.2,884.4-203.1,730.1-202.7,575.9z M-340,889.8
		c-11.9,0.1-18.6-4.4-18.6-16.9c0-15.6,0-31.2,0-46.8c0-12,6.8-15.3,17.7-15.2c10.9,0.1,17.5,3.6,17.3,15.6c-0.2,8.4,0,16.9,0,25.3
		c0,7.1-0.2,14.3,0.1,21.4C-323.3,884.8-328.6,889.7-340,889.8z M-323.7,754.6c0,7.1-0.2,14.3,0,21.4c0.4,11.5-5,16.4-16.5,16.4
		c-10.5,0-18.1-3-18.3-14.9c-0.3-16.2-0.3-32.4-0.1-48.6c0.1-11.6,7-15.4,17.8-15.4c11.1,0,17.2,4.1,16.9,15.8
		C-323.9,737.7-323.7,746.1-323.7,754.6z M-339.9,698.3c-11.8,0.1-18.7-4.1-18.7-16.7c0-15.6,0-31.2,0-46.8
		c0-11.8,6.5-15.5,17.5-15.4c10.8,0.1,17.7,3.3,17.4,15.4c-0.2,8.4,0,16.9,0,25.3c0,7.1-0.2,14.3,0.1,21.4
		C-323.3,693-328.3,698.2-339.9,698.3z M-308.8,635.3c-0.1-11.7,5.8-15.9,17-15.7c10.6,0.2,15.5,4.8,15.4,15.3
		c-0.1,8.4,0,16.8,0,25.2c0,7.1-0.2,14.2,0.1,21.4c0.4,11.2-4.3,16.7-16,16.8c-11.4,0.1-16.6-5-16.4-16.4
		C-308.6,666.4-308.6,650.8-308.8,635.3z M-276.4,754.6C-276.5,754.6-276.5,754.6-276.4,754.6c-0.1,7.8-0.1,15.5-0.1,23.3
		c0.1,11.2-6.6,14.2-16.4,14.2c-10.3,0.1-15.8-4.2-15.8-14.9c0.1-16.2,0.1-32.4,0-48.6c-0.1-10.5,5-15.1,15.5-15.2
		c11.2-0.1,17.1,4.1,16.8,15.9C-276.6,737.8-276.4,746.2-276.4,754.6z M-276.4,874.1c0.2,11.9-6.1,15.8-17.1,15.7
		c-10.5-0.1-15.4-5-15.3-15.5c0.1-8.4,0-16.8,0-25.3c0-7.1,0.1-14.2,0-21.4c-0.3-11.1,4.4-16.6,16.1-16.6c11.6,0,16.5,5,16.3,16.4
		C-276.6,843-276.6,858.5-276.4,874.1z M-261,633.5c0.1-11,6.8-14,16.7-14c10.5,0,18,2.5,17.9,14.8c-0.1,8.4,0,16.9,0,25.3
		c0,0,0.1,0,0.1,0c0,7.1-0.1,14.3,0,21.4c0.3,10.8-3.6,17.2-15.6,17.3c-11.4,0.1-19.2-3.3-19.2-16.1
		C-261.2,666-261.2,649.8-261,633.5z M-242.8,713.4c11.5,0.2,16.8,5.1,16.5,16.4c-0.2,7.8,0,15.6,0,23.4c0,7.1-0.2,14.3,0.1,21.4
		c0.4,12-4.5,17.9-17.2,17.8c-12.3-0.1-17.8-5.7-17.8-17.7c0.1-14.9,0.1-29.8-0.1-44.8C-261.5,717.1-254.7,713.2-242.8,713.4z
		 M-243.4,889.9c-12.3-0.2-17.9-5.7-17.8-17.7c0.1-14.9,0.1-29.8-0.1-44.8c-0.2-12.8,6.6-16.6,18.5-16.5
		c11.5,0.2,16.7,5.1,16.5,16.4c-0.2,7.8,0,15.6,0,23.4c0,7.1-0.2,14.3,0.1,21.4C-225.8,884.2-230.7,890-243.4,889.9z"/>
	<path d="M-415,984.4c-19,1.8-18.3-11.5-18.5-24.5c-0.1-13.4,0.2-25.4,19-24.1c10.1,0.7,19.9,0.3,20.1-14.3
		c0.2-13.8-7.9-16.7-18.9-15.8c-19.4,1.7-20.4-10.5-20.3-24.9c0.1-14.5-0.5-28.5,20.6-26.5c13,1.2,19-4.4,18.8-18.1
		c-0.2-13.4-7.1-17.2-18.6-16.1c-17.1,1.7-21.3-7.3-20.8-22.4c0.6-14.6-1.7-30.2,20.7-28.9c11.4,0.7,18.8-3.1,18.5-16.5
		c-0.3-12.9-8.2-15.3-18.3-14.3c-18.9,1.8-21.3-9.2-20.9-24.2c0.3-14.5-0.2-28.3,20.6-27.2c9.8,0.5,18.7-1,18.3-14.2
		c-0.5-13.7-10.5-12.7-19.7-12.8c-35.8-0.1-71.6,0.7-107.4-0.4c-18.4-0.6-25.3,5.1-24.9,24.3c1.1,54,0.4,108.1,0.4,162.1
		c0,55.3,0.4,110.7-0.3,166c-0.2,16.5,4.6,23.6,22.1,23.1c35.8-1,71.6-0.7,107.4-0.1c14.7,0.2,24.1-3,22.9-20.4
		C-395.1,999.7-390.2,982.1-415,984.4z M-519.5,711.9c0.1-23.3,2.6-25.6,27.9-25.3c22.1,0.2,23.6,1.9,23.3,27.3
		c-0.2,22.9-1.5,24-26.6,23.9C-518.2,737.7-519.6,736.2-519.5,711.9z M-519.5,793.6c0.2-22.8,2.9-25.1,28.4-24.8
		c21.7,0.3,23.1,2,22.8,27.8c-0.3,22.5-1.5,23.5-27.1,23.4C-518.2,819.8-519.7,818.1-519.5,793.6z M-468.3,881.2
		c-0.1,23.5-1.6,24.7-27.7,24.4c-22.2-0.2-23.6-1.9-23.5-26.8c0.1-23.4,1.7-24.7,27.8-24.4C-469.3,854.6-468.1,856-468.3,881.2z
		 M-496.3,984.8c-20,0.9-24.2-8.4-23.4-25.7c1-22.1,1.8-23.3,29.7-23.2c17.4-3.6,22.6,6.3,21.9,24.2
		C-469,983.4-469.9,983.7-496.3,984.8z"/>
	<path d="M-49.9,1020.5c-13.3-3-12.5-13.1-12.5-22.9c0-43.6,0-87.2-0.1-130.8c0-44.3-0.3-88.5,0.2-132.8c0.2-14.2-5-19.9-19.4-19.5
		c-29.3,0.7-58.6,0.2-87.9,0.2c-9.2,0-17.2,0.9-17.1,13.2c0.1,12.2,8.2,13.1,17.3,13.1c20.8,0,41.7,0,62.5,0.2
		c7.1,0.1,15.9-0.3,15.9,9.9c0,10.1-8.8,9.8-15.9,9.9c-20.8,0.2-41.7,0.2-62.5,0.2c-9.1,0-17.1,1.2-17.2,13.2
		c-0.1,12.2,7.8,13.2,17,13.2c20.8,0,41.7-0.1,62.5,0.2c6.2,0.1,14.9-1.4,15.2,7.8c0.4,10.8-9.2,9.1-15.9,9.2
		c-20.2,0.4-40.4,0.1-60.5,0.2c-8.5,0.1-17.7-0.7-18.2,11.9c-0.6,13.3,8.3,14.3,18.1,14.3c20.8,0,41.7,0,62.5,0.2
		c5.7,0.1,13.3-0.5,13.9,7.2c0.8,9.7-7.8,8.8-14,8.9c-21.5,0.3-43,0.2-64.4,0.3c-8.4,0-15.8,1-16.1,12.1
		c-0.4,11.6,6.5,14.3,16.2,14.3c20.2,0,40.4-0.1,60.5,0.3c7.5,0.1,17.9-1.2,18.3,9.6c0.5,11.7-10.2,9.5-17.5,9.7
		c-20.8,0.4-41.7,0.3-62.5,0.3c-9,0-15.1,2.9-15.1,13.4c0,10.7,6.6,12.9,15.4,12.9c20.2,0,40.4,0,60.5,0.1c9.9,0,20.5-0.9,20.8,13.8
		c0.3,14.5-9.6,14.7-19.9,14.7c-20.2,0-40.4,0.2-60.5,0c-9.9-0.1-16.5,2.9-16.4,14.2c0.1,21.5,0,43,0,64.4c0,8.4,3.4,13.9,12.5,13.9
		c39.7,0.1,79.4,0.1,119.1,0c5.6,0,10.4-2,11.5-8.3C-42.6,1027.4-43.8,1021.8-49.9,1020.5z M-143.6,1019c-28.5,0-29.9-2-29.1-29.2
		c0.4-12.3,5.1-18,17.3-17.7c3.9,0.1,7.7-0.1,11.6-0.1c29,0,31,1.5,31.1,23.7C-112.6,1018.1-113.8,1019.1-143.6,1019z"/>
</g>
</svg>
