<?xml version="1.0" encoding="utf-8"?>
<!-- Generator: Adobe Illustrator 19.1.0, SVG Export Plug-In . SVG Version: 6.00 Build 0)  -->
<svg version="1.1" id="Capa_1" xmlns="http://www.w3.org/2000/svg" xmlns:xlink="http://www.w3.org/1999/xlink" x="0px" y="0px"
	 viewBox="-501 501.8 612 612" style="enable-background:new -501 501.8 612 612;" xml:space="preserve">
<g>
	<path d="M77.8,553.2v-0.9h-3h-539.8h-3v0.9c-17.7,1.2-30.8,15.3-32.9,32.3v3v355.7c0,6.9,1.8,12.7,4.8,17.9
		c6.9,12.1,17.1,18.3,31.1,18.3h197v49.7h-37.4c-9.3,0-16.5,7.2-16.5,16.5s7.2,16.5,16.5,16.5h220.7c9.3,0,16.8-7.2,16.8-16.5
		c0-9.3-7.5-16.5-16.8-16.5h-37.4v-49.7h197c14.1,0,24.3-6.1,31.1-18.3c3.1-5.5,5.1-11.4,5.1-17.9V588.6v-3
		C108.9,568.5,94.8,554.5,77.8,553.2z M77.8,944.3c0,2.1-0.9,3-3,3h-539.8c-2.1,0-3-0.9-3-3V588.6v-3H77.8v3h0V944.3z"/>
	<path d="M5.2,713c-4.9-4.3-6.3-4.3-10,0.9c-19.5,27.7-38.9,55.5-58.4,83.2c-2.7,3.9-2.1,6.3,1.7,9c27.7,19.2,55.2,38.6,82.9,57.8
		c5.5,3.8,5.6,3.7,12-5c0.2-0.4,0.3-0.8,0.5-1.1c17.2-38.5,20.7-91.4-9.7-124.8C18.1,726.2,12.2,719.1,5.2,713z"/>
	<path d="M-75.8,812.9c0-0.8,0-1.6,0-2.4c-0.1-0.8-0.3-1.6-0.4-2.4c-0.2-0.2-0.3-0.4-0.3-0.7c-7.7-2-15.6-1.9-23.4-2.7
		c-16-1.6-32-3.1-48.1-4.4c-12.2-1-24.5-1.7-36.7-2.6c-4.3-0.3-6.5,1.4-6.1,6c0.4,5.7,0.6,11.5,1,17.2c0.1,0.8,0.1,1.5,0.2,2.3
		c3.2,10,5.3,20.3,10,29.9c13.6,27.7,35.2,49.5,64.3,60.6c10.5,4,21.4,6.3,32.4,7.8c4.9,0.7,6.9-1.1,6.9-6.3c-0.2-32-0.1-64,0-96
		C-76.2,817.1-75.9,815-75.8,812.9z"/>
	<path d="M18.4,871.2c-26.4-18.3-52.7-36.7-79.1-55.1c-2.1-1.4-4.2-1.8-6.5-1.3c-0.5,0.8-0.9,1.7-1.4,2.5
		c0.1,32.1,0.2,64.2,0.2,96.3c0,2.7,0,5.4,1.4,7.8c0.4,0,0.7,0.1,1.1,0.3c1.5,0,3,0,4.5,0c1.2-0.1,2.4-0.1,3.5-0.2
		c9.8-1.9,19.4-4.4,28.9-7.2c15.5-9.8,32.8-17,45.2-31c0.4-0.4,0.7-0.8,1.1-1.2c0.4-0.5,0.7-0.9,1.1-1.4c0.3-0.4,0.6-0.7,0.9-1.1
		C20.9,876.7,22.2,873.9,18.4,871.2z"/>
	<path d="M-179.6,727.9c0.1,0.5,0.2,1.2,0.3,1.7c0.3-0.1,0.7,0.1,1,0.3c0.3-0.2,0.6-0.4,0.9-0.7c5.8-4.8,10.2-12.9,15.7-18.4
		c13.5-13.3,30.4-24,48.3-29.9l0,0c0-12.1-0.1-24.2,0.1-36.2c0.1-0.6,0.1-1.2,0.1-1.8V637c0-0.5,0-0.9,0-1.4v-14.5
		c0-6.9-5.6-12.5-12.5-12.5h-41c-6.9,0-12.5,5.6-12.5,12.5V632c-0.1,1.7-0.1,3.3-0.1,4.7c0.1,28,0,57,0,85
		C-179.3,723.7-179.5,726-179.6,727.9z"/>
	<path d="M-200.9,656.9c-1.8-4.7-6.3-8-11.7-8h-41c-4.6,0-8.5,2.4-10.7,6.1c-0.6,0.6-1.1,1.2-1.6,1.9c-0.1,0.7-0.3,1.4-0.4,2.1
		c0.1,39.3,0.1,78.6,0.2,117.9c0,32,0,64,0,95.9c0,0.2,0.1,0.4,0.1,0.6c0.7,6.2,6,11,12.4,11h41c6.9,0,12.5-5.6,12.5-12.5v-1.1
		c0,0,0-0.1,0-0.1c0-58.5,0-117,0-175.5c0-11.7,0.1-23.5,0.2-35.2c-0.1-0.8-0.2-1.5-0.3-2.3C-200.4,657.5-200.7,657.2-200.9,656.9z"
		/>
	<path d="M-85.4,603.6L-85.4,603.6L-85.4,603.6C-85.4,603.6-85.4,603.6-85.4,603.6z"/>
	<path d="M-90.2,675.4c1.5,0,3.1-0.1,4.6-0.1c16.7-1.2,36.7-1.4,52.3,5.5c0.3-0.1,0.6,0,0.9,0.2c2.6-0.4,4.3,1.9,6.7,2.3
		c0.5-0.4,0.9-0.9,1.4-1.3c0-1.2,0.1-2.3,0.1-3.5c0-9.6,0-19.3,0-28.9c0-2.7-0.1-5.4-0.1-8.1c0-1.3,0-2.5,0-3.8
		c0-0.4,0.1-0.9,0.1-1.3v-21.8c0-6.9-5.6-12.5-12.5-12.5h-41.4c-6.9,0-12.5,5.6-12.5,12.5v4.6c0,0-0.1,0-0.1,0
		c-0.1,17.6-0.3,26.4-0.4,44c0,3.2-0.3,6.5-0.5,9.7c-0.1,0.5-0.2,1-0.3,1.4l0.1,0.3C-91.2,674.9-90.7,675.1-90.2,675.4z"/>
	<path d="M-286.8,850.1c0-0.1,0-0.3,0-0.4c0-61.3,0-122.6,0-184c0-8.1,0.1-16.1,0.2-24.2c0-0.7-0.1-1.3-0.2-2v0
		c0-6.9-5.6-12.5-12.5-12.5h-41c-6.7,0-12.2,5.3-12.5,12c-0.1,1.1-0.2,2.4-0.2,3.7c0,30.4,0,60.8,0,91.3c0,46.2,0,92.4,0,138.6
		c0,0.3,0.1,0.6,0.3,0.9c0.8,6.1,6,10.9,12.4,10.9h41c6.1,0,11.2-4.4,12.3-10.2c0.2,0,0.3-0.1,0.3-0.1c0-4.6,0.1-9.3,0.1-13.9
		c-0.1-1.7-0.2-3.3-0.2-5V850.1z"/>
	<path d="M-374,808.1c0-4.3-0.7-8.7,0-13c-0.5-1.4-0.5-2.9,0-4.4c-0.1-21.1,0-42.1,0-63.2c0-0.2,0-0.3,0-0.4v-4.3
		c0-6.9-5.6-12.5-12.5-12.5h-41c-6.9,0-12.5,5.6-12.5,12.5v21.8c0,0.2,0,0.3,0,0.5c0.1,34.5,0.1,68.9,0.1,103.4
		c-0.1,0.5-0.1,1.1-0.1,1.6v21.8c0,6.9,5.6,12.5,12.5,12.5h41c6.9,0,12.5-5.6,12.5-12.5v-21.8c0-0.1,0-0.3,0-0.4
		C-374,835.9-374,822-374,808.1z"/>
	<path d="M-13.8,713.1c6.8-9.2,6.4-10.7-3.7-15.5c-41.7-19.9-90.3-16.9-127.3,11.9c-2.4,1.9-4.9,3.6-7.4,5.5
		c-8.3,9.1-16.5,18.3-22.6,29c-6.4,11.1-10.9,22.8-13.5,35.3c-0.7,3.9-3.6,8.9,2.8,10.1c7.4,1.4,15.1,1.4,22.6,2
		c1.5,0.1,3.1,0.3,4.6,0.4c2.7,0,5.3,1.4,8.1,0.7c1.2,0.1,2.3,0.2,3.5,0.3c3.5,0,6.8,1.8,10.4,0.9c1.5,0.1,3.1,0.2,4.6,0.4
		c3.1,0.1,6.1,1.7,9.3,0.9c1.2,0.1,2.3,0.2,3.5,0.2c0.4-0.3,0.8-0.5,1.3-0.7c-0.4,0.2-0.8,0.4-1.3,0.7c1.9,0.1,3.8,0.2,5.8,0.3
		c11.6,1.1,23.3,2.1,34.9,3.4c4.2,0.5,6.2-2.1,8.2-5c18.3-26.3,36.7-52.6,55.1-78.9C-14.7,714.4-14.3,713.7-13.8,713.1z"/>
</g>
</svg>
