<svg id="Capa_1" xmlns="http://www.w3.org/2000/svg" viewBox="-122 -123.6 595.3 841.9">
  <style>
    .st0{fill:#1d1d1b}
  </style>
  <g id="tVYw0l.tif">
    <path class="st0" d="M427.5 250.5c0 52.5-.6 105.1.3 157.6.3 18.8-6.1 33.6-18.7 46.3-28.2 28.7-56.7 57.1-85.1 85.6-11 11-24.2 16.3-39.9 16.3-69-.1-137.9.1-206.9-.1-31.2-.1-48.6-14.5-54.2-45.4-1.7-9.1-7.8-9.5-14.2-10.5-33.7-5.3-58.1-23.6-74.1-53.1-32.2-59.4 8.4-137.5 75.5-144.3 10.6-1.1 12.7-5.4 12.6-14.7-.2-65.3.7-130.5-.5-195.8-.6-29.8 19.7-54.5 54.2-54 99.3 1.3 198.7.4 298 .5 35.2 0 53 17.9 53 52.9v158.7zm-25.5.8c0-51.3 0-102.6-.1-153.9 0-25.7-7.3-33.1-32.7-33.1H81.1C56.2 64.3 50 70.6 50 95.6c-.1 64.9.2 129.7-.6 194.6-.1 9.8 1.5 14.7 11.1 18.3 24 9 42.5 25.1 53.2 48.5 25.5 55.8 4 111.5-52.1 137.2-12.7 5.8-15.2 11.4-9.6 22.5 4 8.1 11.1 12.2 19.9 12.2 72.2.1 144.5.1 216.7.1 10.7 0 15.5-5.2 15.2-16.2-.4-15.6-.4-31.2 0-46.8.6-23.2 15-37.4 38.1-37.8 13.1-.2 26.3 0 39.4-.1 18.4-.1 20.7-2.2 20.7-20.5.1-52 0-104.1 0-156.3zM3.2 448.8c3.7-.2 5.6-3.1 7.9-5.3 20.7-19.8 41.7-39.4 62.1-59.5 15-14.8 16-9.8.7-28.5-.5-.6-1.2-1.2-1.7-1.8-5.6-7-10.7-6.7-17.2-.4-14.6 14.3-28.6 29.3-44.4 42.5-5.7 4.7-9.5 4.6-14.6-.4-3.4-3.4-6.8-10.7-12.8-6.1-7.3 5.6-15.6 11.1-18.2 20.7-.9 3.8 34.2 38.7 38.2 38.8z"/>
    <path class="st0" d="M255.9 285c31.6 0 63.1.1 94.7-.1 8.3 0 14.4 1.2 14.7 11.6.3 11.4-7.1 11-14.8 11-63.1 0-126.2 0-189.3-.1-5.8 0-12.8 1.4-14.9-7.1-2.5-10.1 1.4-15.2 12.5-15.3 32.3-.1 64.7 0 97.1 0zm-.1 59.6c-32 0-63.9-.1-95.9.1-8.3 0-14.4-1-14.1-11.8.3-10.1 6.1-10.9 13.9-10.9 63.9.1 127.9.1 191.8 0 7.6 0 14.1.3 13.8 10.7-.3 10-6.2 12-14.7 11.9-31.7-.1-63.2 0-94.8 0zm-1.1 41.8H160c-7.5 0-14.1-.8-14.2-10.8-.1-7.4 2.1-12 10.3-11.7 1.6.1 3.3-.1 4.9-.1 62.7 0 125.4-.1 188.1.1 5.4 0 11.8-1.7 15 5.3 4.3 9.6-.3 17-11.1 17.1-32.7.2-65.5.1-98.3.1zm-108.4-251c0 3.7-.4 7.4.1 11 1.5 12.7-2.1 22.7-12.6 31-8.5 6.8-15.4 15.7-23.1 23.6-5.3 5.3-9.7 6-14.7-1.3-23.4-34.2-1.1-88.8 39.7-96.4 7.7-1.5 10.7 1.3 10.6 8.8-.1 7.8 0 15.5 0 23.3zm5.2 96c-11.8.2-22.5-3.7-32.8-9-6.3-3.2-8.7-7.5-2.8-13.4 11-11 22-22 33-32.9 3-3 6.9-4.2 11.2-4.3 15.1-.1 30.3-.3 45.4-.5 8.6-.1 10.3 4 8.4 11.9-6.9 27.3-33.8 48.3-62.4 48.2zm191.3-66.7c0-17.2.2-34.4-.1-51.6-.1-7.7 2-12.5 11-12.4 8.6 0 11.6 4.3 11.5 12.2-.1 34.8-.1 69.7 0 104.5 0 7.2-2.1 11.7-10.5 11.6-8.1 0-12.2-2.7-12-11.4.3-17.6.1-35.2.1-52.9zm-155.6-3.8c-35.4-1-30.7 4.1-31.1-32v-8.6c0-19.8 2.4-21.3 21.1-13.2 19.3 8.3 31.1 23.2 36.9 43.1 2.3 7.8.5 11.7-8.5 10.8-6.1-.6-12.3-.1-18.4-.1zm131.5 29.5c0 9.4-.1 18.8.1 28.2.2 8.2-4.2 10.5-11.6 10.4-7-.1-10.8-2.7-10.8-10 .1-19.6.1-39.2 0-58.8-.1-8.1 4.2-10.5 11.6-10.4 7 .1 10.8 2.7 10.8 10-.2 10.2-.1 20.4-.1 30.6zm-46.3 20.4c-.6 8.2 2.9 18.4-11.4 18.2-13-.2-10.9-9.4-11.1-17.3-.2-9 0-17.4 13-17.2 13.5.1 8.5 9.7 9.5 16.3z"/>
  </g>
</svg>
