<svg height="512pt" viewBox="0 0 512 512" width="512pt" xmlns="http://www.w3.org/2000/svg"><path d="m160 430.039062v81.960938h-40v-130.957031c9.820312 18.988281 23.503906 35.664062 40 48.996093zm192 0v81.960938h40v-130.957031c-9.820312 18.988281-23.503906 35.664062-40 48.996093zm-312-370.039062c0-33.085938 26.914062-60 60-60s60 26.914062 60 60-26.914062 60-60 60-60-26.914062-60-60zm40 0c0 11.027344 8.972656 20 20 20s20-8.972656 20-20-8.972656-20-20-20-20 8.972656-20 20zm272 0c0-33.085938 26.914062-60 60-60s60 26.914062 60 60-26.914062 60-60 60-60-26.914062-60-60zm40 0c0 11.027344 8.972656 20 20 20s20-8.972656 20-20-8.972656-20-20-20-20 8.972656-20 20zm-67.109375 291.605469 25.394531 25.394531-28.285156 28.285156-25.394531-25.394531c-6.363281 3.761719-13.277344 6.683594-20.605469 8.578125v35.53125h-40v-35.53125c-7.328125-1.894531-14.242188-4.816406-20.605469-8.578125l-25.394531 25.394531-28.285156-28.285156 25.394531-25.394531c-3.761719-6.363281-6.683594-13.277344-8.578125-20.605469h-35.871094v-40h35.871094c1.894531-7.328125 4.816406-14.242188 8.578125-20.605469l-25.394531-25.394531 28.285156-28.285156 25.394531 25.394531c6.363281-3.761719 13.277344-6.683594 20.605469-8.578125v-35.53125h40v35.53125c7.328125 1.894531 14.242188 4.816406 20.605469 8.578125l25.394531-25.394531 28.285156 28.285156-25.394531 25.394531c3.761719 6.363281 6.683594 13.277344 8.578125 20.605469h35.871094v40h-35.871094c-1.894531 7.328125-4.816406 14.242188-8.578125 20.605469zm-101.535156-63.675781c-4.625 6.523437-7.355469 14.480468-7.355469 23.070312 0 22.054688 17.945312 40 40 40s40-17.945312 40-40-17.945312-40-40-40c-8.585938 0-16.546875 2.730469-23.070312 7.351562zm228.644531-148.929688h-80c-26.074219 0-48.304688 16.722656-56.558594 40h136.558594c11.027344 0 20 8.972656 20 20v128h-40v185h40v-145h40v-168c0-33.085938-26.914062-60-60-60zm-412 60c0-11.027344 8.972656-20 20-20h136.558594c-8.253906-23.277344-30.484375-40-56.558594-40h-80c-33.085938 0-60 26.914062-60 60v168h40v145h40v-185h-40zm0 0"/></svg>