<?xml version="1.0" encoding="utf-8"?>
<!-- Generator: Adobe Illustrator 19.1.0, SVG Export Plug-In . SVG Version: 6.00 Build 0)  -->
<svg version="1.1" id="Capa_1" xmlns="http://www.w3.org/2000/svg" xmlns:xlink="http://www.w3.org/1999/xlink" x="0px" y="0px"
	 viewBox="-507 507.8 600 600" style="enable-background:new -507 507.8 600 600;" xml:space="preserve">
<g>
	<path d="M-98.6,627.3c0-54.3-44.1-99.5-98.4-99.5s-98.4,45.2-98.4,99.5c0,54.3,44.1,98.4,98.4,98.4S-98.6,681.7-98.6,627.3z"/>
	<path d="M-164.2,725.8H-197h-32.8c-23.1,0-45.5,6-65.8,16.2c34.5,9.3,67,22.7,98.6,40.9c31.6-18.1,64.1-31.5,98.6-40.9
		C-118.7,731.8-141.1,725.8-164.2,725.8z"/>
	<path d="M50.1,824.2c-18.1,0-32.8,14.7-32.8,32.8v65.6c0,18.1,14.7,32.8,32.8,32.8s32.8-14.7,32.8-32.8V857
		C82.9,838.8,68.2,824.2,50.1,824.2z"/>
	<path d="M-411.3,922.5V857c0-18.1-14.7-32.8-32.8-32.8s-32.8,14.7-32.8,32.8v65.6c0,18.1,14.7,32.8,32.8,32.8
		S-411.3,940.7-411.3,922.5z"/>
	<path d="M-444.1,775v16.4c36.2,0,65.6,29.4,65.6,65.6v65.6c0,36.2-29.4,65.6-65.6,65.6v16.4c0,9.1,7.3,16.4,16.4,16.4
		c84.1,0,151.3,26.6,214.3,66.7v-276c-63.3-36.3-131.3-53.1-214.3-53.1C-436.8,758.5-444.1,765.8-444.1,775z"/>
	<path d="M-15.5,922.5V857c0-36.2,29.4-65.6,65.6-65.6V775c0-9.1-7.3-16.4-16.4-16.4c-83,0-151,16.9-214.3,53.1v276
		c63-40.1,130.2-66.7,214.3-66.7c9.1,0,16.4-7.3,16.4-16.4v-16.4C13.9,988.2-15.5,958.8-15.5,922.5z"/>
</g>
</svg>
