<svg height="512pt" viewBox="0 0 511 512" width="512pt" xmlns="http://www.w3.org/2000/svg"><path d="m174.753906 472h-113.5625c-8.539062 0-13.6875-4.765625-16-7.605469-3.988281-4.90625-5.53125-11.289062-4.234375-17.519531 20.769531-99.765625 108.8125-172.617188 210.453125-174.980469 1.6875.0625 3.382813.105469 5.089844.105469 74.988281 0 136-61.007812 136-136s-61.011719-136-136-136c-74.992188 0-136 61.007812-136 136 0 44.507812 21.492188 84.09375 54.644531 108.917969-30.371093 9.996093-58.871093 25.546875-83.816406 46.0625-45.730469 37.617187-77.527344 90.085937-89.53125 147.742187-3.761719 18.066406.746094 36.621094 12.363281 50.910156 11.558594 14.214844 28.703125 22.367188 47.03125 22.367188h113.5625c11.042969 0 20-8.953125 20-20s-8.957031-20-20-20zm-14.253906-336c0-52.933594 43.0625-96 96-96 52.933594 0 96 43.066406 96 96 0 52.175781-41.839844 94.761719-93.730469 95.972656-.746093-.085937-1.5-.140625-2.269531-.140625-1.5625 0-3.121094.023438-4.679688.050781-50.769531-2.445312-91.320312-44.515624-91.320312-95.882812zm302.253906 172h-163.511718c-27.425782 0-49.742188 22.316406-49.742188 49.742188v104.515624c0 27.425782 22.316406 49.742188 49.742188 49.742188h163.511718c27.429688 0 49.746094-22.316406 49.746094-49.742188v-104.515624c0-27.425782-22.316406-49.742188-49.746094-49.742188zm-1.664062 40-76.441406 47.53125c-3.175782 1.972656-7.117188 1.972656-10.292969 0l-76.3125-47.449219c.394531-.050781.792969-.082031 1.199219-.082031zm1.664062 124h-163.511718c-5.371094 0-9.746094-4.371094-9.746094-9.742188v-72.386718l63.738281 39.628906c8.101563 5.035156 17.183594 7.554688 26.265625 7.554688s18.167969-2.519532 26.269531-7.554688l66.730469-41.492188v74.25c0 5.371094-4.375 9.742188-9.746094 9.742188zm0 0"/></svg>