<svg xmlns="http://www.w3.org/2000/svg" viewBox="-122 -123.6 595.3 841.9">
  <path d="M15.1 181.4c-3 2.1-5.9 4.3-8.9 6.4 7.1 11.4 11.5 29 21.6 33.4 83.3 35.7 141.8 94.5 175.9 178.3 2.5 6.1 9.9 14.3 15.2 14.4 39.9 1.2 79.9.7 119.5.7V181.5c-108.9-.1-216.1-.1-323.3-.1zm373.8 283.8H226.7v44.1c54.2 0 106.5 1.1 158.6-.4 31.9-.9 49.6-21 49.7-54.4.5-104.6.5-209.2 0-313.8-.2-36-18.9-54.3-55.3-55.1-34.5-.8-69.1-.2-103.6-.2-99.7 0-199.4-.2-299 .1-36 .1-57.1 14.7-60 43.9-2.3 23.1-.5 46.7-.5 70h45.3V133h426.9c.1 110.7.1 219 .1 332.2zm-216.1 43.1c2.5-138-129.1-268.3-255.1-254.2v39.6c128.4 15.7 199.1 87.3 214 214.6h41.1zm-136.7-.7h42c-3-92-79.4-165.9-160.6-156.5V388c74.2 15.1 107.1 48 118.6 119.6zm-53.2.7c-8.3-44.6-27.4-62.4-64.8-64v64h64.8z" fill="#1d1d1b"/>
</svg>
