<?xml version="1.0" encoding="utf-8"?>
<!-- Generator: Adobe Illustrator 19.1.0, SVG Export Plug-In . SVG Version: 6.00 Build 0)  -->
<svg version="1.1" id="Capa_1" xmlns="http://www.w3.org/2000/svg" xmlns:xlink="http://www.w3.org/1999/xlink" x="0px" y="0px"
	 viewBox="-507 507.8 600 600" style="enable-background:new -507 507.8 600 600;" xml:space="preserve">
<g>
	<path d="M-324,1033.6c0,26.5,21.5,48,48,48s48-21.5,48-48c0-26.5-21.5-48-48-48S-324,1007.1-324,1033.6z M-276.1,1017.6
		c8.8,0,16,7.2,16,16c0,8.8-7.2,16-16,16s-16-7.2-16-16C-292,1024.8-284.9,1017.6-276.1,1017.6z"/>
	<path d="M-98,1033.6c0,26.5,21.5,48,48,48s48-21.5,48-48c0-26.5-21.5-48-48-48S-98,1007.1-98,1033.6z M-50,1017.6
		c8.8,0,16,7.2,16,16c0,8.8-7.2,16-16,16s-16-7.2-16-16C-66,1024.8-58.8,1017.6-50,1017.6z"/>
	<path d="M-308.1,921.6L-308.1,921.6C-308,921.6-308,921.6-308.1,921.6l290.1,0c7.1,0,13.4-4.7,15.4-11.6l64-223.9
		c1.4-4.8,0.4-10-2.6-14c-3-4-7.8-6.4-12.8-6.4h-66.8c-3.3-73.8-64.4-132.9-139-132.9s-135.7,59.1-139,132.9H-345l-11.4-51.5
		c-1.6-7.3-8.1-12.5-15.6-12.5h-96c-8.8,0-16,7.2-16,16c0,8.8,7.2,16,16,16h83.1c2,9.1,54.7,246.3,57.8,259.9
		c-17,7.4-28.9,24.3-28.9,44c0,26.5,21.5,48,48,48h32H-50h32c8.8,0,16-7.2,16-16c0-8.8-7.2-16-16-16H-308c-8.8,0-16-7.2-16-16
		C-324,928.8-316.9,921.7-308.1,921.6z M-272.1,665.7c3.3-59.1,52.4-106.3,112.3-106.3s109.1,47.1,112.3,106.3
		c0.1,2.1,0.2,4.2,0.2,6.3c0,8.9-1,17.5-3,25.7c-11.7,49.7-56.3,86.8-109.5,86.8s-97.9-37.1-109.5-86.8c-1.9-8.3-3-16.9-3-25.7
		C-272.3,669.8-272.3,667.8-272.1,665.7z M-337.9,697.7h41.3c12.1,64.5,68.8,113.4,136.8,113.4S-35.2,762.2-23,697.7h47.8l-54.8,192
		h-265.2L-337.9,697.7z"/>
	<path d="M-179.8,717.1c-1.9-3.2-3.3-9.6-4.4-19.1h-30.5c-0.2,20.8,6.1,35.6,18.9,44.2c7.3,4.8,18.3,8,33.2,9.7v22.4h10.9v-22.7
		c11.7-0.9,21.7-4,30.2-9.2c13.9-8.6,20.9-22.3,20.9-41.3c0-14.4-5.1-25.5-15.2-33.4c-6.1-4.7-18.1-10.2-35.9-16.4v-43
		c7.4,0.5,12.6,3.5,15.4,8.8c1.6,3.1,2.7,8,3.3,14.7h29.7c-0.4-18-7-31.1-19.6-39.1c-7-5-16.5-8-28.7-9v-15.2h-10.9v15
		c-7.7,0.6-13.5,1.5-17.5,2.8c-6.5,2-12.5,5.7-17.8,11.1c-4.1,4.1-7.4,9.1-9.6,14.8c-2.3,5.7-3.4,12.1-3.4,19.1
		c0,10.6,2.9,19.7,8.9,27.2c5.9,7.5,16,13.4,30.4,17.6l9.1,2.7v48.2C-171.1,725.4-176.8,722.1-179.8,717.1z M-151.6,682.5
		c6.2,2.3,10.7,4.6,13.3,6.8c4.4,3.8,6.6,8.9,6.6,15.3c0,8.5-2.3,14.5-7,17.9c-2.7,2-7,3.3-12.8,4.1V682.5z M-174.7,642.7
		c-4.7-3.7-7.1-8.7-7.1-15c0-5.8,1.6-10.4,4.7-13.7c3.2-3.3,8-5.1,14.5-5.2v39.6C-168,646.6-172.1,644.7-174.7,642.7z"/>
</g>
</svg>
