<?xml version="1.0" encoding="utf-8"?>
<!-- Generator: Adobe Illustrator 19.1.0, SVG Export Plug-In . SVG Version: 6.00 Build 0)  -->
<svg version="1.1" id="Capa_1" xmlns="http://www.w3.org/2000/svg" xmlns:xlink="http://www.w3.org/1999/xlink" x="0px" y="0px"
	 viewBox="-551 551.8 512 512" style="enable-background:new -551 551.8 512 512;" xml:space="preserve">
<g>
	<path d="M-411.5,791.8h206c11,0,20-9,20-20s-9-20-20-20h-206c-11,0-20,9-20,20S-422.5,791.8-411.5,791.8z"/>
	<path d="M-411.5,871.8h125.1c11,0,20-9,20-20s-9-20-20-20h-125.1c-11,0-20,9-20,20S-422.5,871.8-411.5,871.8z"/>
	<path d="M-185.5,551.8h-245.9c-44.1,0-80,35.9-80,80v352c0,44.1,35.9,80,80,80h66.9c11,0,20-9,20-20s-9-20-20-20h-66.9
		c-22.1,0-40-17.9-40-40v-352c0-22.1,17.9-40,40-40h245.9c22.1,0,40,17.9,40,40v123c0,11,9,20,20,20s20-9,20-20v-123
		C-105.5,587.7-141.4,551.8-185.5,551.8z"/>
	<path d="M-411.5,711.8h206c11,0,20-9,20-20s-9-20-20-20h-206c-11,0-20,9-20,20S-422.5,711.8-411.5,711.8z"/>
	<path d="M-125.3,945.4c-2.8-6.4-6.8-11.9-11.9-16.5c-4.8-4.4-10.3-7.8-16.4-10.1c-5.1-2-11.9-4.1-20.1-6.4v-38.7
		c5.3,3,8.7,7.7,10.4,14c3.4,12.5,11.9,15.1,18.5,15.1c5.1,0,9.4-1.8,13-5.4c3.6-3.6,5.4-7.9,5.4-12.8c0-4-1.1-8.4-3.2-13
		c-2-4.5-4.9-8.9-8.6-13c-4.8-5.6-10.4-9.8-16.8-12.6c-5.3-2.3-11.6-4-18.7-4.9v-8.9c0-12.1-7.9-13.4-11.4-13.4
		c-3.4,0-11.2,1.3-11.2,13.7v8.6c-15,1.9-26.8,7.1-35.2,15.5c-9.1,9.2-13.8,21-13.8,35.2c0,10.9,2.4,20,7.1,27
		c4.7,7,10.8,12.5,18.3,16.2c6.4,3.3,14.3,6.3,23.6,8.9v44.7c-2.2-1-4.1-2.2-5.7-3.6c-2.7-2.4-4.7-5-6-7.8c-1.5-3.2-3.2-7.9-5.2-14
		c-1.2-3.8-3.4-6.8-6.5-8.9c-3-2.1-6.7-3.1-11-3.1c-5.4,0-10,1.9-13.6,5.6c-3.6,3.7-5.4,8-5.4,12.7c0,5.5,1.2,11.1,3.5,16.8
		c2.3,5.6,5.9,11,10.7,16.1c4.8,5.1,10.8,9.5,18,12.9c6.2,3,13.3,5.1,21.2,6.2v15.5c0,4.4,0.8,7.6,2.3,10c1.3,2,3.9,4.3,9.1,4.3
		c6.2,0,8.6-3.5,9.5-5.5c1.1-2.6,1.6-6.3,1.6-11.5v-13c10-1.3,18.9-4.2,26.5-8.8c8.6-5.2,15.1-12,19.6-20.2
		c4.4-8.2,6.6-17.1,6.6-26.4C-121.1,958.8-122.6,951.7-125.3,945.4z M-173.8,951c4.9,1.9,8.7,4.1,11.4,6.6c3.2,2.9,4.8,7,4.8,12.5
		c0,5.2-1.7,9.7-5.3,13.6c-2.7,3-6.4,5.3-11,6.8V951z M-205.1,899.8c-2.5-2.3-3.8-5.9-3.8-10.8c0-5.2,1.3-8.9,4-11.2
		c2.2-1.9,5-3.5,8.4-5v32.4C-200.1,903.5-203,901.7-205.1,899.8z"/>
</g>
</svg>
