<?xml version="1.0" encoding="utf-8"?>
<!-- Generator: Adobe Illustrator 19.1.0, SVG Export Plug-In . SVG Version: 6.00 Build 0)  -->
<svg version="1.1" id="Capa_1" xmlns="http://www.w3.org/2000/svg" xmlns:xlink="http://www.w3.org/1999/xlink" x="0px" y="0px"
	 viewBox="215.6 -248 600 600" style="enable-background:new 215.6 -248 600 600;" xml:space="preserve">
<style type="text/css">
	.st0{fill:#1D1D1B;}
</style>
<g>
	<path class="st0" d="M655.2-224.7H412.2c-18.7,0-34.1,15.5-34.1,34.3v72.7v244.5v88.9c-4.4,4.1-7.9,7.3-9.4,8.7
		c-19.6,17.8-39.2,35.8-58.7,53.7c-3.1,2.9-6,5.9-9.2,9c12.9,14,25.5,27.6,38.1,41.4c21.7-20,43-39.3,64-59c0,0,3.6-4.5,8.3-9.5
		c0.3,0,0.7,0,1,0h333.5c18.8,0,34.1-15.4,34.1-34.3V-92.5C779.9-201.4,658.5-224.4,655.2-224.7z M746.7-134.7
		c-7.7-3.6-17-5.5-27.8-5.5h-31.5c0.3-13.5-0.6-34.9-7-52.5C702.4-183.5,732.3-166.1,746.7-134.7z M752.3,221.6c0,5.5-4.8,10-9.9,10
		h-299c5.7-4.9,10.5-9,12-10.4c-3.3-3.6-6.3-6.8-9.5-10.4c9.4-8.6,18.5-17,27.5-25.3c6.3,4.2,12,8.4,18.1,11.9
		c31.5,17.8,64.5,20.2,98.2,8.1c19.6-7,35.9-19,49.1-35.3c18.3-22.4,27-48.2,26.2-76.8c-0.7-29.1-11.1-54.7-31.1-75.9
		c-25.5-26.9-57.1-39.2-94-36.6c-28.4,2-53,13.4-73.3,34c-24.6,25.2-35.4,55.4-33.3,90.3c1.2,19.9,7.3,38.3,18.6,54.8
		c2.3,3.3,2.2,5.2-1.1,8c-8.1,6.9-15.8,14.3-24.3,22.2c-3-3.6-5.9-7.1-9-10.8c-1.8,1.6-6.2,5.7-11.8,10.9v-66v-239.3v-71.2
		c0-5.7,4.4-10.4,9.9-10.4h225.9c3.5,0,6,1.3,8.5,4c11.2,12.2,12.7,47.1,11.4,66.6l-0.8,12.6H716c31.2,0,36,22.4,36.3,24.7V221.6z
		 M461.1,96.2c0-48.1,39.7-87.5,87.9-87.4c48.8,0.1,87.8,39.4,87.8,88.3c0,48-39.8,87.6-87.9,87.5
		C500.1,184.5,461.1,145.3,461.1,96.2z"/>
	<path class="st0" d="M649.8-131.3c0-5.6,0-5.6-5.5-5.6H453.9c-1.1,0-2.4-0.2-3.4,0.1c-0.9,0.4-2.2,1.5-2.2,2.3
		c-0.2,8.4-0.1,16.8-0.1,26c2.2-0.1,3.7-0.1,5.2-0.1h107.8c28.1,0,56.2-0.1,84.3,0.1c3.4,0,4.5-1,4.3-4.3
		C649.6-119,649.8-125.2,649.8-131.3z"/>
	<path class="st0" d="M448.1-62c0,7.7,0.2,15.2-0.1,22.6c-0.2,4.2,1.1,5.5,5.5,5.5c62.9-0.2,125.8-0.1,188.7-0.1
		c1.7,0,3.5,0.2,5.1-0.1c0.9-0.2,2.4-1.4,2.4-2.2c0.2-8.5,0.1-17,0.1-25.7H448.1z"/>
</g>
</svg>
