<?xml version="1.0" encoding="utf-8"?>
<!-- Generator: Adobe Illustrator 19.1.0, SVG Export Plug-In . SVG Version: 6.00 Build 0)  -->
<svg version="1.1" id="Capa_1" xmlns="http://www.w3.org/2000/svg" xmlns:xlink="http://www.w3.org/1999/xlink" x="0px" y="0px"
	 viewBox="-781 781.8 52 52" style="enable-background:new -781 781.8 52 52;" xml:space="preserve">
<g id="Y2zDF6.tif">
	<g>
		<path d="M-778.8,803.1c2-0.3,4-0.7,6-1c0.3-0.1,0.5-0.2,0.6-0.5c0.3-1.3,0.8-2.5,1.5-3.6c0.1-0.2,0.1-0.4,0-0.6
			c-1.1-1.5-2.2-3.1-3.3-4.6c-0.2-0.3-0.2-0.5,0.1-0.8c1.1-1,2.1-2.1,3.1-3.1c0.3-0.3,0.5-0.4,0.9-0.1c1.5,1.1,3,2.1,4.5,3.2
			c0.3,0.2,0.5,0.2,0.8,0.1c1.1-0.6,2.2-1.1,3.4-1.4c0.4-0.1,0.5-0.3,0.6-0.6c0.3-1.8,0.6-3.6,0.9-5.4c0.1-0.4,0.2-0.6,0.7-0.6
			c1.5,0,2.9,0,4.4,0c0.4,0,0.6,0.1,0.7,0.6c0.3,1.8,0.6,3.6,0.9,5.4c0.1,0.4,0.2,0.5,0.6,0.6c1.2,0.3,2.3,0.8,3.4,1.4
			c0.3,0.2,0.5,0.2,0.8,0c1.5-1.1,3-2.2,4.5-3.3c0.3-0.2,0.5-0.3,0.8,0c1.1,1.1,2.1,2.2,3.2,3.2c0.3,0.3,0.3,0.5,0.1,0.8
			c-1.1,1.5-2.1,3-3.2,4.5c-0.2,0.3-0.3,0.6-0.1,1c0.6,1,1.1,2.2,1.4,3.3c0.1,0.3,0.2,0.5,0.6,0.5c1.8,0.3,3.7,0.6,5.5,0.9
			c0.5,0.1,0.7,0.2,0.6,0.7c0,0.6,0,1.2,0,1.8c0,0.3-0.1,0.5-0.5,0.5c-0.4,0-0.9,0-1.3,0c-4.1,0-8.2,0-12.2,0c-0.7,0-0.7,0-0.7-0.7
			c-0.1-3.2-2.8-6-6-6.5c-3.9-0.6-7.4,1.8-8.3,5.6c-1,4.2,2.2,8.5,6.6,8.7c0.4,0,0.6,0.2,0.6,0.6c0,4.5,0,9.1,0,13.6
			c0,0.4-0.1,0.6-0.6,0.6c-0.6,0-1.2,0-1.8,0c-0.4,0-0.5-0.2-0.6-0.6c-0.3-1.8-0.6-3.7-0.9-5.5c-0.1-0.3-0.2-0.5-0.5-0.6
			c-1.3-0.3-2.5-0.8-3.6-1.5c-0.3-0.2-0.5-0.1-0.7,0.1c-1.5,1.1-3,2.1-4.5,3.2c-0.3,0.2-0.5,0.3-0.9-0.1c-1-1.1-2.1-2.1-3.2-3.2
			c-0.3-0.3-0.3-0.5-0.1-0.8c1.1-1.5,2.1-2.9,3.2-4.4c0.3-0.3,0.3-0.6,0.1-1c-0.6-1-1.1-2.1-1.4-3.2c-0.1-0.4-0.3-0.6-0.8-0.7
			c-1.9-0.3-3.9-0.7-5.8-1C-778.8,806.8-778.8,805-778.8,803.1z"/>
		<path d="M-753.3,831.5c0-6.6,0-13.2,0-19.7c0-1.5,0.8-2.2,2.2-2.2c5.9,0,11.7,0,17.6,0c1.5,0,2.2,0.7,2.2,2.2c0,6.4,0,12.8,0,19.2
			c0,0.2,0,0.4,0,0.6C-738.6,831.5-745.9,831.5-753.3,831.5z M-742.2,815.1c-2.2,0-4.4,0-6.7,0c-0.5,0-0.6,0.1-0.6,0.6
			c0,3.8,0,7.7,0,11.5c0,0.5,0.1,0.6,0.6,0.6c4.4,0,8.9,0,13.3,0c0.4,0,0.6-0.1,0.6-0.6c0-3.8,0-7.7,0-11.5c0-0.4-0.1-0.6-0.6-0.6
			C-737.8,815.1-740,815.1-742.2,815.1z"/>
		<path d="M-746.9,819c0-1,1-1.6,1.9-1.2c0.1,0.1,0.2,0.1,0.3,0.2c0.7,0.5,0.7,0.5,1.3-0.1c0.5-0.5,0.9-0.9,1.4-1.4
			c0.9-0.8,2.1-0.4,2.3,0.6c0.1,0.5-0.1,0.9-0.4,1.3c-1,1-1.9,2-3,2.9c-0.6,0.6-1.3,0.5-1.9,0c-0.5-0.5-1-1-1.5-1.5
			C-746.8,819.7-746.9,819.4-746.9,819z"/>
		<path d="M-746.9,824.5c0-0.5,0.2-0.9,0.6-1.1c0.4-0.2,0.9-0.3,1.3,0c0.1,0.1,0.3,0.2,0.4,0.3c0.5,0.4,0.5,0.4,1,0
			c0.5-0.5,1.1-1.1,1.6-1.6c0.5-0.5,1-0.5,1.6-0.2c0.5,0.3,0.7,0.8,0.6,1.3c0,0.3-0.2,0.6-0.5,0.8c-1,1-1.9,1.9-2.9,2.9
			c-0.7,0.6-1.4,0.6-2,0c-0.5-0.4-0.9-0.9-1.4-1.4C-746.7,825.2-746.9,824.9-746.9,824.5z"/>
	</g>
</g>
</svg>
