<?xml version="1.0" encoding="iso-8859-1"?>
<!-- Generator: Adobe Illustrator 19.0.0, SVG Export Plug-In . SVG Version: 6.00 Build 0)  -->
<svg version="1.1" id="Layer_1" xmlns="http://www.w3.org/2000/svg" xmlns:xlink="http://www.w3.org/1999/xlink" x="0px" y="0px"
	 viewBox="0 0 512 512" style="enable-background:new 0 0 512 512;" xml:space="preserve">
<g>
	<g>
		<path d="M496.109,324.206l-52.62-43.325c1.163-8.468,1.729-16.686,1.729-24.881c0-8.195-0.565-16.413-1.729-24.881l52.619-43.326
			c6.304-5.196,7.935-14.174,3.848-21.239l-44.522-77.108c-4.076-7.076-12.663-10.163-20.315-7.283l-63.945,23.956
			c-13.152-10.131-27.543-18.435-42.957-24.804l-11.228-67.359C315.652,5.902,308.685,0,300.522,0h-89.043
			c-8.163,0-15.131,5.902-16.467,13.956l-11.228,67.359c-15.413,6.37-29.804,14.674-42.957,24.804L76.88,82.163
			c-7.641-2.892-16.239,0.207-20.315,7.283l-44.522,77.108c-4.087,7.066-2.456,16.043,3.848,21.239l52.619,43.326
			c-1.162,8.468-1.727,16.686-1.727,24.881c0,8.195,0.565,16.413,1.729,24.881l-52.619,43.326
			c-6.304,5.196-7.935,14.174-3.848,21.239l44.522,77.108c4.087,7.076,12.684,10.184,20.315,7.283l63.945-23.956
			c13.152,10.131,27.543,18.435,42.957,24.804l11.228,67.359c1.336,8.053,8.303,13.955,16.466,13.955c32.809,0,56.205,0,89.043,0
			c8.163,0,15.131-5.902,16.468-13.956l11.228-67.359c15.413-6.37,29.804-14.674,42.957-24.804l63.945,23.956
			c7.641,2.892,16.239-0.207,20.315-7.283l44.522-77.108C504.044,338.38,502.413,329.402,496.109,324.206z M289.391,478.609h-66.783
			V385.15c10.911,2.843,22.077,4.382,33.391,4.382c11.381,0,22.408-1.495,33.391-4.385V478.609z M293.054,348.989
			c-0.358,0.141-0.761,0.272-1.152,0.392c-12.065,4.598-23.891,6.761-35.902,6.761c-12.435,0-24.663-2.326-36.348-6.891
			c-0.239-0.076-0.479-0.163-0.707-0.25c-38.348-15.338-63.12-51.838-63.12-93c0-30.663,13.696-59.153,37.587-78.163
			c7.272-5.779,18.065-0.62,18.065,8.706v63.892c0,1.989,1.076,3.848,2.805,4.837l38.957,22.261c0.837,0.479,1.793,0.728,2.76,0.728
			c0.967,0,1.924-0.25,2.76-0.728l38.956-22.261c1.729-0.99,2.805-2.848,2.805-4.837v-63.891c0-9.315,10.802-14.477,18.065-8.706
			c23.891,19.01,37.587,47.499,37.587,78.162C356.174,297.163,331.402,333.663,293.054,348.989z"/>
	</g>
</g>
<g>
</g>
<g>
</g>
<g>
</g>
<g>
</g>
<g>
</g>
<g>
</g>
<g>
</g>
<g>
</g>
<g>
</g>
<g>
</g>
<g>
</g>
<g>
</g>
<g>
</g>
<g>
</g>
<g>
</g>
</svg>
