<?xml version="1.0" encoding="utf-8"?>
<!-- Generator: Adobe Illustrator 19.1.0, SVG Export Plug-In . SVG Version: 6.00 Build 0)  -->
<svg version="1.1" id="Capa_1" xmlns="http://www.w3.org/2000/svg" xmlns:xlink="http://www.w3.org/1999/xlink" x="0px" y="0px"
	 viewBox="-507 507.8 600 600" style="enable-background:new -507 507.8 600 600;" xml:space="preserve">
<g>
	<path d="M-51,950.1c-5.5,0-10,4.5-10,10v73.7c0,5.5-4.5,10-10,10h-364c-5.5,0-10-4.5-10-10v-452c0-5.5,4.5-10,10-10h364
		c5.5,0,10,4.5,10,10v108.8c0,5.5,4.5,10,10,10c5.5,0,10-4.5,10-10V581.8c0-16.5-13.5-30-30-30h-364c-16.5,0-30,13.5-30,30v452
		c0,16.5,13.5,30,30,30h364c16.5,0,30-13.5,30-30v-73.7C-41,954.6-45.5,950.1-51,950.1z"/>
	<path d="M-161,697.8c0-50.7-41.3-92-92-92s-92,41.3-92,92c0,26.3,11.1,50.1,28.9,66.9c0.3,0.4,0.7,0.7,1.1,1
		c16.4,15,38.2,24.1,62,24.1c23.9,0,45.7-9.2,62-24.1c0.4-0.3,0.7-0.6,1.1-1C-172.1,747.8-161,724.1-161,697.8z M-253,769.8
		c-16.3,0-31.4-5.5-43.5-14.7c8.8-15.6,25.2-25.3,43.5-25.3c18.3,0,34.7,9.7,43.5,25.3C-221.6,764.3-236.7,769.8-253,769.8z
		 M-269,693.8v-6.5c0-8.8,7.2-16,16-16s16,7.2,16,16v6.5c0,8.8-7.2,16-16,16S-269,702.6-269,693.8z M-195.1,740.4
		c-7.4-10.9-17.6-19.4-29.5-24.7c4.7-6.1,7.5-13.7,7.5-22v-6.5c0-19.9-16.1-36-36-36s-36,16.1-36,36v6.5c0,8.3,2.8,15.9,7.5,22
		c-11.9,5.3-22.1,13.8-29.5,24.7c-8.8-12-14.1-26.7-14.1-42.7c0-39.7,32.3-72,72-72s72,32.3,72,72
		C-181,713.7-186.2,728.5-195.1,740.4z"/>
	<path d="M-199,989.8h-54c-5.5,0-10,4.5-10,10s4.5,10,10,10h54c5.5,0,10-4.5,10-10S-193.5,989.8-199,989.8z"/>
	<path d="M-199,933.8h-142c-5.5,0-10,4.5-10,10s4.5,10,10,10h142c5.5,0,10-4.5,10-10S-193.5,933.8-199,933.8z"/>
	<path d="M-199,877.8h-142c-5.5,0-10,4.5-10,10s4.5,10,10,10h142c5.5,0,10-4.5,10-10S-193.5,877.8-199,877.8z"/>
	<path d="M-376.6,824.7c-1.9-1.9-4.4-2.9-7.1-2.9c-2.6,0-5.2,1.1-7.1,2.9c-1.9,1.9-2.9,4.4-2.9,7.1s1.1,5.2,2.9,7.1
		c1.9,1.9,4.4,2.9,7.1,2.9c2.6,0,5.2-1.1,7.1-2.9c1.9-1.9,2.9-4.4,2.9-7.1S-374.8,826.5-376.6,824.7z"/>
	<path d="M-376.6,880.7c-1.9-1.9-4.4-2.9-7.1-2.9c-2.6,0-5.2,1.1-7.1,2.9c-1.9,1.9-2.9,4.4-2.9,7.1s1.1,5.2,2.9,7.1
		c1.9,1.9,4.4,2.9,7.1,2.9c2.6,0,5.2-1.1,7.1-2.9c1.9-1.9,2.9-4.4,2.9-7.1S-374.8,882.5-376.6,880.7z"/>
	<path d="M-383.7,933.8c-2.6,0-5.2,1.1-7.1,2.9c-1.9,1.9-2.9,4.4-2.9,7.1s1.1,5.2,2.9,7.1c1.9,1.9,4.4,2.9,7.1,2.9
		c2.6,0,5.2-1.1,7.1-2.9c1.9-1.9,2.9-4.4,2.9-7.1s-1.1-5.2-2.9-7.1C-378.5,934.8-381.1,933.8-383.7,933.8z"/>
	<path d="M-199,821.8h-142c-5.5,0-10,4.5-10,10s4.5,10,10,10h142c5.5,0,10-4.5,10-10S-193.5,821.8-199,821.8z"/>
	<path d="M26,682.1c-9.7-5.6-21-7.1-31.9-4.2c-10.8,2.9-19.9,9.9-25.5,19.6l-125.8,218c-0.7,1.2-1.1,2.5-1.3,3.9l-8.9,79.3
		c-0.4,3.9,1.5,7.8,4.9,9.8c1.6,0.9,3.3,1.3,5,1.3c2.1,0,4.2-0.7,5.9-1.9l64.3-47.3c1.1-0.8,2-1.9,2.7-3.1l125.8-218
		C53,719.4,46.1,693.6,26,682.1z M-144.9,978.1l4.6-41.4l28.9,16.7L-144.9,978.1z M-96.8,938.7l-38.1-22l101-174.9l38.1,22
		L-96.8,938.7z M24.1,729.4l-9.9,17.1l-38.1-22l9.9-17.1c2.9-5.1,7.7-8.7,13.4-10.2c5.7-1.5,11.6-0.7,16.7,2.2
		c5.1,2.9,8.7,7.7,10.2,13.4C27.8,718.4,27,724.4,24.1,729.4z"/>
</g>
</svg>
