<?xml version="1.0" encoding="utf-8"?>
<!-- Generator: Adobe Illustrator 19.1.0, SVG Export Plug-In . SVG Version: 6.00 Build 0)  -->
<svg version="1.1" id="Capa_1" xmlns="http://www.w3.org/2000/svg" xmlns:xlink="http://www.w3.org/1999/xlink" x="0px" y="0px"
	 viewBox="-507 507.8 600 600" style="enable-background:new -507 507.8 600 600;" xml:space="preserve">
<g>
	<rect x="-256" y="824.4" width="99.7" height="33.2"/>
	<path d="M17.5,823.5c-6.8,20.4-25.8,34.1-47.3,34.1h-93.4v16.6c0,9.2-7.4,16.6-16.6,16.6h-132.9c-9.2,0-16.6-7.4-16.6-16.6v-16.6
		h-93.4c-21.5,0-40.5-13.7-47.3-34.1l-59.7-179.2v362.7c0,27.5,22.4,49.8,49.8,49.8H27.4c27.5,0,49.8-22.4,49.8-49.8V644.3
		L17.5,823.5z"/>
	<path d="M-382.7,824.4h93.4v-16.6c0-9.2,7.4-16.6,16.6-16.6h132.9c9.2,0,16.6,7.4,16.6,16.6v16.6h93.4c7.2,0,13.5-4.6,15.8-11.4
		l62.6-188H-89.9v-16.6c0-27.5-22.4-49.8-49.8-49.8h-132.9c-27.5,0-49.8,22.4-49.8,49.8V625h-138.6l62.6,188
		C-396.2,819.8-389.8,824.4-382.7,824.4z M-289.2,608.4c0-9.2,7.4-16.6,16.6-16.6h132.9c9.2,0,16.6,7.4,16.6,16.6V625h-166.1V608.4z
		"/>
</g>
</svg>
