<?xml version="1.0" encoding="utf-8"?>
<!-- Generator: Adobe Illustrator 19.1.0, SVG Export Plug-In . SVG Version: 6.00 Build 0)  -->
<svg version="1.1" id="Capa_1" xmlns="http://www.w3.org/2000/svg" xmlns:xlink="http://www.w3.org/1999/xlink" x="0px" y="0px"
	 viewBox="-501 501.8 612 612" style="enable-background:new -501 501.8 612 612;" xml:space="preserve">
<g>
	<path d="M85.2,968.1c-14-17.1-28-34.1-42.3-50.8c-3.8-4.4-5.5-8.8-5.5-14.6c0.1-88.9,0.1-177.8,0.1-266.6c0-2.2,0.1-4.4-0.1-6.5
		c-0.6-11.4-8.2-19.9-19.4-21.7c-2.7-0.4-5.6-0.4-8.4-0.4c-139.1,0-278.1,0-417.2,0c-3.4,0-6.8-0.1-10.3,0.1
		c-11.4,0.7-19.2,7.3-21.5,18.5c-0.6,2.9-0.7,5.9-0.7,8.8c0,90,0,179.9,0,269.9c0,4.3-1.1,7.7-4,11c-8,9.3-15.7,18.8-23.7,28.1
		c-8.6,10-16.4,20.6-25.6,30.2c0,3.1,0,6.2,0,9.3c7.5,18.7,17.3,25.3,37.7,25.3c105.5,0,211,0,316.5,0c64.5,0,129,0,193.5,0
		c11,0,20.9-2.7,28.4-11.4c4.5-5.2,7.1-11.1,8-18C91.6,973.9,87.8,971.3,85.2,968.1z M-160.2,996.8c-27.3,0.1-54.7,0.1-82,0
		c-3.1,0-6.1-0.9-6.4-4.7c-0.3-4,2.3-4.9,5.7-4.9c14,0,28,0,41.9,0c13.5,0,27,0,40.5,0c3.2,0,6.6,0,6.6,4.5
		C-153.8,995.8-157,996.8-160.2,996.8z M-114.8,974.7c-0.8,1.5-3.2,0.6-4.8,0.7c-6.1,0.1-12.1,0.1-18.2,0.1c-21.1,0-42.3,0-63.4,0
		c-27.5,0-55,0-82.5,0c-1.3,0-3.1,0.7-3.9-0.7c-0.9-1.5,1-2.4,1.8-3.4c1.6-2.1,3.8-3.8,5-6.1c4.3-7.9,11-9.1,19.5-9
		c42.1,0.4,84.2,0.3,126.4,0.1c4.3,0,7.4,1.2,9.9,4.6c2.5,3.4,5.4,6.4,8,9.7C-116.2,971.9-113.8,972.9-114.8,974.7z M5.5,869.5
		c0,14.2-7.2,21.3-21.3,21.3c-123.4,0-246.8,0-370.2,0c-15,0-22-7-22.1-22c0-73,0-146.1,0-219.1c0-11.7,4.8-18.9,13.9-20.9
		c2.5-0.6,5.2-0.5,7.9-0.5c61.7,0,123.4,0,185.1,0c61.7,0,123.4,0.2,185.1-0.1c12.9-0.1,21.7,7.4,21.7,21.5
		C5.5,722.8,5.6,796.1,5.5,869.5z"/>
	<g>
		<path d="M-198.1,743.7c0.7,0.7,1.6,1.1,2.6,1.1h110.5c1,0,2-0.4,2.7-1.2c0.7-0.8,1-1.8,0.9-2.9c-3.2-29.6-17-56.8-38.9-76.5
			c-22-19.7-50.5-30.6-80.4-30.6c-27.3,0-54,9.4-75.2,26.5c-0.8,0.7-1.3,1.6-1.4,2.7c-0.1,1,0.3,2.1,1.1,2.8L-198.1,743.7z
			 M-213,701.7l31.7-47.1c3.6,0.7,7.2,1.6,10.8,2.7l-34.7,52.2L-213,701.7z M-200.7,652.7c0.9,0,1.9,0,2.9,0l-25.8,38.3l-8.4-8.4
			l20.6-29.5C-207.8,652.9-204.2,652.7-200.7,652.7z M-232.5,657.8l-10,14.3l-6.9-6.9c4.5-2.5,9.2-4.6,14-6.4
			C-234.5,658.5-233.5,658.2-232.5,657.8z M-138.6,725.6l20.2-30.4c1.4,2,2.7,4,4,6l-16.7,24.3L-138.6,725.6L-138.6,725.6z
			 M-113.3,725.6l6.3-9.2c1.2,3,2.3,6.1,3.2,9.2H-113.3z M-168.2,725.6l32.6-49.1c1,0.9,2.1,1.8,3,2.7c1.5,1.3,2.9,2.8,4.4,4.2
			l-28,42.2L-168.2,725.6L-168.2,725.6z M-185.9,725.6h-3.2l-5.5-5.5l38-57.2c3.1,1.5,6.1,3.2,9,5L-185.9,725.6z"/>
		<path d="M-213.9,752.8l-74.8-74.8c-0.7-0.7-1.8-1.1-2.8-1.1c-1,0.1-2,0.6-2.7,1.4c-17.1,21.2-26.5,47.9-26.5,75.2
			c0,37.4,16.9,72,46.5,94.9c0.7,0.5,1.4,0.8,2.3,0.8c0.2,0,0.4,0,0.7-0.1c1-0.2,1.9-0.8,2.5-1.7l55.4-90.1
			C-212.5,755.9-212.7,754-213.9,752.8z M-236.1,757.7l-39.2,63.7c-6.1-6.7-11.3-14.1-15.3-22.1c-7.3-14.2-10.9-29.6-10.9-45.7
			c0-12,2.1-23.7,6.2-34.8c1.8-4.8,3.9-9.5,6.4-14L-236.1,757.7z"/>
		<path d="M-85.1,762.4h-108.7c-1.3,0-2.5,0.7-3.1,1.8l-56.9,92.6c-0.5,0.9-0.7,2-0.4,3c0.3,1,1,1.8,1.9,2.3
			c16.2,7.7,33.5,11.6,51.5,11.6c29.9,0,58.4-10.9,80.4-30.6c22-19.7,35.8-46.9,38.9-76.5c0.1-1-0.2-2.1-0.9-2.9
			C-83,762.9-84,762.4-85.1,762.4z"/>
	</g>
</g>
</svg>
