<svg height="512pt" viewBox="0 0 512 512" width="512pt" xmlns="http://www.w3.org/2000/svg"><path d="m301 45c0-24.8125-20.1875-45-45-45s-45 20.1875-45 45 20.1875 45 45 45 45-20.1875 45-45zm0 0"/><path d="m121 377c0-24.8125-20.1875-45-45-45s-46 20.1875-46 45 21.1875 45 46 45 45-20.1875 45-45zm0 0"/><path d="m482 377c0-24.8125-21.1875-45-46-45s-45 20.1875-45 45 20.1875 45 45 45 46-20.1875 46-45zm0 0"/><path d="m436 422c-8.816406 0-17.160156 1.808594-25.023438 4.617188l-65.816406-54.855469c9.863282-15.992188 15.839844-34.636719 15.839844-54.761719 0-52.753906-39.25-96.128906-90-103.484375v-31.515625h60v-15c0-41.351562-33.648438-77-75-77s-75 35.648438-75 77v15h60v31.515625c-50.75 7.355469-90 50.730469-90 103.484375 0 20.125 5.976562 38.769531 15.839844 54.761719l-65.816406 54.855469c-7.863282-2.808594-16.207032-4.617188-25.023438-4.617188-41.351562 0-76 32.648438-76 74v15l151 1v-15c0-21.132812-8.859375-40.167969-22.972656-53.816406l58.082031-48.410156c18.609375 16.738281 42.957031 27.226562 69.890625 27.226562s51.28125-10.488281 69.890625-27.226562l58.082031 48.410156c-14.113281 13.648437-22.972656 32.683594-22.972656 53.816406v15l151-1v-15c0-41.351562-34.648438-74-76-74zm-195-53.789062-40.605469-40.605469 21.210938-21.210938 19.394531 19.394531 49.394531-49.394531 21.210938 21.210938zm0 0"/></svg>