<?xml version="1.0" encoding="utf-8"?>
<!-- Generator: Adobe Illustrator 24.1.0, SVG Export Plug-In . SVG Version: 6.00 Build 0)  -->
<svg version="1.1" id="Capa_1" xmlns="http://www.w3.org/2000/svg" xmlns:xlink="http://www.w3.org/1999/xlink" x="0px" y="0px"
	 viewBox="0 0 300 300" style="enable-background:new 0 0 300 300;" xml:space="preserve">
<style type="text/css">
	.st0{fill:#484C58;}
</style>
<g>
	<path class="st0" d="M267.2,84.9H32.8c-6.2,0-11.2,5-11.2,11.2v139.1c0,6.2,5,11.2,11.2,11.2h234.4c6.2,0,11.2-5,11.2-11.2V96.1
		C278.4,89.9,273.4,84.9,267.2,84.9z M108.5,196.3c0.3,4.5,2,9,3.3,14.2c-6.5-0.4-13.3,0.1-19.8-1.4c-9.6-2.2-15.9-11.8-15.7-21.9
		c0.2-11,5.7-18.5,16.2-21.2c3.4-0.9,4-2.5,4-5.6c0.1-14.7,12.7-27.4,27.4-27.1c4.5,0.1,9,1.7,14,2.8c11.3-17.6,28.9-21,43.4-15.5
		c12.7,4.8,23.4,17.9,23.1,28.8c-3.5,0.7-7.1,1.5-11,2.3c-4.7-6.1-11-10.3-19-11.8c-18.6-3.4-35.1,6.5-40.7,24.6
		c-0.8,2.5-1.9,3.8-4.6,4.6C115.1,173.3,107.6,183.1,108.5,196.3z M240,213c-2.7,3.1-6.4,4.4-10.6,4.4c-15.5,0-31.1,0-46.6,0
		c-14.9,0-29.9-0.1-44.8,0c-19.1,0.2-25.7-16-21.9-30.1c2.4-9.1,10.1-12.4,18.6-13.9c2.2-0.4,3.1-1,3.6-3.4
		c4-20,22.6-30.4,40.5-22.5c4,1.8,7.5,5,10.7,8.1c1.9,1.9,3.1,2.8,6,1.7c7.1-2.7,14.3-2.3,21.1,1.2c7.9,4.1,11.7,11,12.2,19.7
		c0.1,2.4,1.1,3.2,3.2,3.8C247.4,186.7,247.2,204.8,240,213z"/>
	<path class="st0" d="M270.3,77.3c0-5.3-4.3-9.5-9.5-9.5H151.3c-4.3,0-8.1-2.9-9.2-7c-1.1-4.2-4.9-7-9.2-7h-89c-4.2,0-8,2.8-9.1,6.9
		l-6.1,21.3h241.6V77.3z"/>
</g>
</svg>
