<?xml version="1.0" encoding="utf-8"?>
<!-- Generator: Adobe Illustrator 24.1.0, SVG Export Plug-In . SVG Version: 6.00 Build 0)  -->
<svg version="1.1" id="Capa_1" xmlns="http://www.w3.org/2000/svg" xmlns:xlink="http://www.w3.org/1999/xlink" x="0px" y="0px"
	 viewBox="0 0 470.6 470.6" style="enable-background:new 0 0 470.6 470.6;" xml:space="preserve">
<style type="text/css">
	.st0{fill:#434A54;}
</style>
<path class="st0" d="M460.2,285.5c-6.5-12.7-12.8-25.6-19.3-38.3c-5.4-10.7-10.8-21.3-16.3-32c-1.5-2.8-3.3-5.3-6.7-5.8
	c-3.3-0.5-6.2,0.3-8.2,3.1c-2.4,3.3-2,6.7-0.3,10.1c9.4,18.6,18.8,37.2,28.2,55.8c2,4,2,4.2-2.6,4.2c-20.6,0-41.2,0-61.8,0
	c-6.1,0-6.1,0-6.1-6c0-70.3,0-140.6,0-210.9c0-1.7,0.1-3.5-0.1-5.2c-0.4-4-3.5-7-7.6-7.4c-1.1-0.1-2.2-0.1-3.3-0.1
	c-61.5,0-123.1,0-184.6,0c-1.4,0-2.7-0.1-4.1,0.1c-6.1,0.9-9,7.6-5.6,12.7c2.3,3.5,5.7,3.9,9.4,3.9c56.7,0,113.5,0,170.2,0
	c8.9,0,9,0,9,9.1c0,64.6,0,129.3,0,193.9c0,2.1-0.4,4.2-0.2,6.3c0.3,3.6-1.8,3.7-4.4,3.5c-3.4-0.3-2.4-2.9-2.4-4.8
	c0-63.1,0-126.3,0-189.4c0-8.8-2.7-11.5-11.4-11.5c-61.3,0-122.6,0-183.9,0c-1.2,0-2.5,0-3.7,0.1c-4.4,0.4-7.6,3.7-7.7,7.9
	c-0.1,4.3,2.8,7.9,7.1,8.5c1.7,0.2,3.4,0.2,5.2,0.2c57.2,0,114.5,0,171.7,0c5.6,0,5.6,0,5.6,5.7c0,59.2,0,118.4,0,177.6c0,1,0,2,0,3
	c0,1.8-0.8,2.6-2.7,2.8c-4.1,0.5-3.9-2.1-3.9-4.9c0-55.1,0-110.3,0-165.4c0-9-2.8-11.8-11.6-11.8c-61.3,0-122.6,0-183.9,0
	c-1.2,0-2.5,0-3.7,0.1c-4.2,0.4-7.4,3.8-7.5,7.8c-0.2,4.3,2.7,8,6.9,8.6c1.7,0.3,3.4,0.2,5.2,0.2c57.4,0,114.7,0,172.1,0
	c5.4,0,5.4,0,5.4,5.6c0,22.1,0,44.2,0,66.2c0,29.7,0,59.4,0,89.2c0,2.9-0.5,4.8-4,4.4c-3.4-0.3-2.5-2.8-2.5-4.7
	c0-46.7,0-93.5,0-140.2c0-2.3,0-4.7-0.6-7c-0.9-3.6-3.6-6-7.3-6.3c-1.3-0.1-2.7-0.1-4.1-0.1c-61.1,0-122.1,0-183.2,0
	c-1.5,0-3,0-4.4,0.1c-3.8,0.5-6.5,3.1-7.2,6.9c-0.3,1.8-0.5,3.7-0.5,5.5c0,47.2-0.1,94.5,0.1,141.7c0,3.4-1,4.2-4.1,4.1
	c-16.2-0.1-32.3-0.1-48.5-0.1c-4.5,0-4.7-0.2-2.7-4.2c6.8-13.3,13.5-26.6,20.3-39.9c2.8-5.6,5.6-11.2,8.4-16.9
	c1.7-3.5,1.3-6.7-1.1-9.6c-2.2-2.6-5.2-3.2-8.4-2.4c-3.3,0.8-5,3.4-6.4,6.2c-11.4,22.6-22.8,45.1-34.2,67.6c-1.6,3.2-2.1,6.5-2.1,10
	c0,50,0,99.9,0,149.9c0,1.8,0,3.7,0,5.5c0.1,5.8,3.1,8.7,9,8.9c1.4,0,2.7,0,4.1,0c70.9,0,141.8,0,212.8,0c71.9,0,143.8,0,215.7,0
	c7.6,0,10.4-2.7,10.4-10.1c0-51.6,0-103.1,0-154.7C462,290.2,461.4,287.8,460.2,285.5z M105.9,277.5c0-43.8,0-87.6,0-131.3
	c0-5.1,0-5.1,5-5.1c53.5,0,107,0,160.6,0c0.5,0,1,0,1.5,0c5.6,0.1,5.9,0.4,5.9,5.9c0,43.5,0,87.1,0,130.6c0,5.1,0,5.2-5.1,5.2
	c-27.1,0-54.3,0-81.4,0s-54.3,0-81.4,0C105.9,282.6,105.9,282.6,105.9,277.5z M304,335.8c0,2.3-1.1,3.4-3.4,3.4c-0.9,0-1.7,0-2.6,0
	c-41.4,0-82.8,0-124.2,0c-5.9,0-6-0.1-5.9-6c0.1-13-1.7-11,11.2-11.1c19-0.1,37.9,0,56.9,0c20.9,0,41.9,0,62.8,0
	c4.9,0,5.2,0.3,5.2,5.3C304.1,330.1,304,332.9,304,335.8z"/>
</svg>
