<?xml version="1.0" encoding="utf-8"?>
<!-- Generator: Adobe Illustrator 21.0.0, SVG Export Plug-In . SVG Version: 6.00 Build 0)  -->
<svg version="1.1" id="Capa_1" xmlns="http://www.w3.org/2000/svg" xmlns:xlink="http://www.w3.org/1999/xlink" x="0px" y="0px"
	 viewBox="0 0 283.5 283.5" style="enable-background:new 0 0 283.5 283.5;" xml:space="preserve">
<style type="text/css">
	.st0{fill:#434A54;}
	.st1{fill-rule:evenodd;clip-rule:evenodd;fill:#434A54;}
	.st2{fill:#FFFFFF;}
	.st3{fill:#656D78;}
	.st4{fill:none;stroke:#CCCBCB;stroke-width:0.6826;stroke-miterlimit:10;}
	.st5{fill:#5F6A76;}
	.st6{fill:none;stroke:#000000;stroke-width:3;stroke-miterlimit:10;}
	.st7{fill:#444A54;}
	.st8{fill-rule:evenodd;clip-rule:evenodd;fill:#444A54;}
</style>
<g>
	<path class="st7" d="M135.8,120l-92.5,87c-0.5,0.5-0.8,1.2-0.9,2c0,0.7,0.3,1.5,0.8,2L58,225.8c0.5,0.5,1.2,0.8,2,0.8
		c0.7,0,1.4-0.3,2-0.9l87-92.5c1-1.1,1-2.8-0.1-3.8l-9.3-9.3C138.6,119,136.9,119,135.8,120z"/>
	<path class="st7" d="M216.7,223.9c-0.6-0.6-1.3-0.9-2.1-0.9H123c-0.8,0-1.6,0.3-2.1,0.9c-0.6,0.6-0.9,1.3-0.9,2.1v10.2h-10.5v10.2
		H93.7v10.2h150.3v-10.2H228v-10.2h-10.5V226C217.6,225.2,217.3,224.4,216.7,223.9z"/>
	<path class="st7" d="M122.2,92l53.2,53.2l36.4-36.4c0.4-0.4,0.8-0.6,1.2-1l-53.4-53.4c-0.3,0.4-0.6,0.8-0.9,1.2L122.2,92z"/>
	<path class="st7" d="M216.2,111.1c-0.4,0.3-0.8,0.6-1.2,1l-36.4,36.4l-0.5,0.5c-4.4,4.4-4.4,11.5,0,15.8c4.4,4.4,11.5,4.4,15.8,0
		l36.9-36.9c4.4-4.4,4.4-11.5,0-15.8C226.9,108.1,220.6,107.8,216.2,111.1z"/>
	<path class="st7" d="M139.8,35.7l-36.9,36.9c-4.4,4.4-4.4,11.5,0,15.8c4.4,4.4,11.5,4.4,15.8,0l0.5-0.5l36.4-36.4
		c0.4-0.4,0.6-0.8,0.9-1.2c3.3-4.4,3.1-10.7-0.9-14.7C151.2,31.3,144.2,31.3,139.8,35.7z"/>
</g>
</svg>
