<?xml version="1.0" encoding="utf-8"?>
<!-- Generator: Adobe Illustrator 16.0.0, SVG Export Plug-In . SVG Version: 6.00 Build 0)  -->
<!DOCTYPE svg PUBLIC "-//W3C//DTD SVG 1.1//EN" "http://www.w3.org/Graphics/SVG/1.1/DTD/svg11.dtd">
<svg version="1.1" id="Capa_1" xmlns="http://www.w3.org/2000/svg" xmlns:xlink="http://www.w3.org/1999/xlink" x="0px" y="0px"
	 width="283.46px" height="283.46px" viewBox="0 0 283.46 283.46" enable-background="new 0 0 283.46 283.46" xml:space="preserve">
<path fill="#444A54" d="M219.469,111.212V226.76c0,5.849-4.78,10.62-10.65,10.62H104.454c-5.87,0-10.719-4.771-10.719-10.62v-8.724
	h97.032c6.379,0,11.603-5.215,11.603-11.577V98.669c0-0.888,0-1.776-0.125-2.608C206.197,96.062,219.469,95.368,219.469,111.212"/>
<path fill="#444A54" d="M196.25,90.364c-1.854-34.614-41.273-42.058-42.359-42.187H70.904c-6.383,0-11.615,5.211-11.615,11.642
	v140.935c0,6.362,5.232,11.581,11.615,11.581h113.863c6.379,0,11.607-5.219,11.607-11.581V92.972
	C196.375,92.079,196.375,91.183,196.25,90.364 M185.087,78.653c-2.62-1.207-5.81-1.84-9.499-1.84h-10.724
	c0.061-4.586-0.259-11.84-2.431-17.753C169.967,62.176,180.174,68.025,185.087,78.653 M188.212,200.753
	c0,1.909-1.659,3.431-3.444,3.431H70.904c-1.913,0-3.456-1.521-3.456-3.431V59.818c0-1.979,1.543-3.625,3.456-3.625h78.711
	c1.211,0,2.111,0.448,3,1.396c3.896,4.267,4.404,16.288,3.956,23.029v0.513l-0.259,3.818h19.275c10.904,0,12.56,7.702,12.624,8.53
	V200.753z"/>
<path fill="#444A54" d="M139.556,167.932l-11.586-10.18l-1.939-1.763l-6.81,7.585c-0.923,0.776-1.319,1.349-1.319,1.349
	l21.499,20.852c0,0,0.732-0.513,1.393-1.263l35.381-39.498l1.595-1.668l-7.405-6.775c-1.306-1.112-1.956-1.436-1.956-1.436
	L139.556,167.932z"/>
</svg>
