<?xml version="1.0" encoding="utf-8"?>
<!-- Generator: Adobe Illustrator 16.0.0, SVG Export Plug-In . SVG Version: 6.00 Build 0)  -->
<!DOCTYPE svg PUBLIC "-//W3C//DTD SVG 1.1//EN" "http://www.w3.org/Graphics/SVG/1.1/DTD/svg11.dtd">
<svg version="1.1" id="Capa_1" xmlns="http://www.w3.org/2000/svg" xmlns:xlink="http://www.w3.org/1999/xlink" x="0px" y="0px"
	 width="283.46px" height="283.46px" viewBox="0 0 283.46 283.46" enable-background="new 0 0 283.46 283.46" xml:space="preserve">
<path fill="#444A54" d="M242,167.255c-3.956-4.464-8.414-9.488-13.325-15.053c-5.15,5.631-9.673,10.609-15.185,16.627
	c-5.038-5.938-9.382-11.056-14.772-17.414c-4.885,6.085-8.861,11.022-13.258,16.5c-6.065-5.771-10.909-10.362-16.687-15.846
	c-5.231,5.551-10.189,11.216-15.654,16.32c-1.988,1.841-5.217,2.401-7.899,3.469c-0.507,0.2-1.161,0.101-1.734,0.02
	c-11.423-1.38-19.75,1.389-27.983,11.296c-15.272,18.369-36.791,22.885-59.543,16.627c-23.393-6.438-37.804-22.592-43.049-46.158
	c-6.219-27.99,8.594-56.621,34.629-68.25c26.288-11.736,56.768-3.696,73.741,19.917c3.083,4.283,6.164,5.818,11.316,5.778
	c36.736-0.201,73.474-0.041,110.203-0.18c3.984-0.007,6.92,0.994,9.642,3.97c5.071,5.564,10.489,10.802,15.779,16.167
	c3.69,3.743,4.491,7.426,0.201,11.402C259.915,150.307,251.527,158.3,242,167.255 M45.443,156.833
	c8.781,0.047,16.308-7.326,16.348-16.013c0.04-8.427-7.986-16.44-16.374-16.34c-8.474,0.086-15.681,7.413-15.826,16.073
	C29.431,149.68,36.356,156.779,45.443,156.833"/>
</svg>
