<?xml version="1.0" encoding="utf-8"?>
<!-- Generator: Adobe Illustrator 16.0.0, SVG Export Plug-In . SVG Version: 6.00 Build 0)  -->
<!DOCTYPE svg PUBLIC "-//W3C//DTD SVG 1.1//EN" "http://www.w3.org/Graphics/SVG/1.1/DTD/svg11.dtd">
<svg version="1.1" id="Capa_1" xmlns="http://www.w3.org/2000/svg" xmlns:xlink="http://www.w3.org/1999/xlink" x="0px" y="0px"
	 width="283.46px" height="283.46px" viewBox="0 0 283.46 283.46" enable-background="new 0 0 283.46 283.46" xml:space="preserve">
<path fill="#444A54" d="M224.511,75.651h-26.981v-21.23c0-3.78,2.125-23.935-13.314-23.935H59.442
	c-14.787,0-12.858,19.566-12.858,23.333v167.503c0,3.88,0.015-1.151,3.953-1.151h33.787v34.412c0,3.98,5.379-7.311,9.429-7.311
	h131.441c4.043,0,10.062,7.185,10.062-0.087V90.159C235.256,86.241,228.559,75.651,224.511,75.651 M65.455,48.55H178.66v153.558
	H65.455V48.55z M216.387,229.197h-113.2v-9.025h90.679c4.055,0,3.664,3.806,3.664-0.075V93.715h18.857V229.197z"/>
<rect x="80.236" y="106.162" fill="#444A54" width="89.945" height="19.331"/>
<rect x="80.236" y="145.023" fill="#444A54" width="89.945" height="19.344"/>
</svg>
