<?xml version="1.0" encoding="utf-8"?>
<!-- Generator: Adobe Illustrator 16.0.0, SVG Export Plug-In . SVG Version: 6.00 Build 0)  -->
<!DOCTYPE svg PUBLIC "-//W3C//DTD SVG 1.1//EN" "http://www.w3.org/Graphics/SVG/1.1/DTD/svg11.dtd">
<svg version="1.1" id="Capa_1" xmlns="http://www.w3.org/2000/svg" xmlns:xlink="http://www.w3.org/1999/xlink" x="0px" y="0px"
	 width="283.46px" height="283.46px" viewBox="0 0 283.46 283.46" enable-background="new 0 0 283.46 283.46" xml:space="preserve">
<g>
	<g>
		<g>
			<g>
				<path fill="#444A54" d="M135.086,32.208h16.367v19.177c9.592,1.845,17.889,4.724,24.943,8.624
					c7.031,3.906,14.352,9.928,21.941,18.033l-23.225,16.143c-6.99-6.196-14.895-10.911-23.66-14.16v41.475
					c9.947,2.578,17.809,5.5,23.549,8.736c9.365,5.229,16.609,11.757,21.725,19.563c5.131,7.825,7.689,16.74,7.689,26.771
					c0,7.82-1.637,15.159-4.922,22.058c-3.277,6.893-7.793,12.513-13.537,16.864c-5.752,4.346-11.941,7.517-18.578,9.504
					c-3.549,1.039-8.846,1.805-15.926,2.326v29.742h-16.367v-29.742c-8.994-1.107-16.701-2.963-23.111-5.581
					c-6.41-2.626-12.488-6.394-18.246-11.337c-4.346-3.697-9.184-9.288-14.479-16.805l23.988-16.697
					c9.359,13.037,19.98,20.674,31.848,22.886v-47.882c-12.385-2.801-22.383-6.874-30.014-12.214
					c-7.639-5.351-13.15-11.634-16.527-18.861c-3.402-7.226-5.088-14.374-5.088-21.457c0-6.046,1.447-12.179,4.361-18.41
					c2.91-6.231,7.045-11.546,12.43-15.972c5.385-4.424,11.285-7.747,17.699-9.949c3.766-1.325,9.475-2.55,17.139-3.657V32.208z
					 M135.086,117.732V78.478c-8.404,1.406-14.475,3.929-18.189,7.582c-3.727,3.635-5.586,7.756-5.586,12.327
					c0,4.127,1.506,7.723,4.473,10.776C118.784,112.236,125.208,115.093,135.086,117.732z M151.454,155.671v44.885
					c7.973-1.095,13.896-3.693,17.809-7.787s5.852-8.903,5.852-14.432c0-4.797-1.717-9.131-5.199-12.99
					C166.458,161.479,160.293,158.25,151.454,155.671z"/>
			</g>
		</g>
	</g>
</g>
</svg>
