<?xml version="1.0" encoding="utf-8"?>
<!-- Generator: Adobe Illustrator 16.0.0, SVG Export Plug-In . SVG Version: 6.00 Build 0)  -->
<!DOCTYPE svg PUBLIC "-//W3C//DTD SVG 1.1//EN" "http://www.w3.org/Graphics/SVG/1.1/DTD/svg11.dtd">
<svg version="1.1" id="Capa_1" xmlns="http://www.w3.org/2000/svg" xmlns:xlink="http://www.w3.org/1999/xlink" x="0px" y="0px"
	 width="283.46px" height="283.46px" viewBox="0 0 283.46 283.46" enable-background="new 0 0 283.46 283.46" xml:space="preserve">
<g>
	<g>
		<g>
			<g>
				<g>
					<g>
						<path fill="#444A54" d="M173.878,124.098c-4.121-6.272-9.986-11.474-17.507-15.688c-4.626-2.642-10.99-4.955-18.99-7.104
							V67.946c7.09,2.635,13.454,6.435,19.074,11.393l18.664-12.963c-6.106-6.531-11.979-11.396-17.673-14.543
							c-5.622-3.136-12.307-5.447-20.065-6.932V29.462h-13.128v15.439c-6.199,0.91-10.819,1.902-13.79,2.975
							c-5.204,1.73-9.911,4.379-14.299,8.01c-4.286,3.549-7.679,7.842-9.987,12.805c-2.389,5.029-3.557,9.991-3.557,14.859
							c0,5.695,1.412,11.483,4.133,17.258c2.729,5.784,7.183,10.908,13.302,15.199c6.11,4.295,14.208,7.596,24.198,9.824v38.568
							c-9.583-1.818-18.088-7.924-25.69-18.415l-19.315,13.378c4.282,6.109,8.17,10.576,11.635,13.547
							c4.712,3.959,9.58,7.019,14.709,9.169c5.196,2.066,11.393,3.547,18.662,4.457v23.95h13.128v-23.95
							c5.688-0.412,9.991-1.071,12.797-1.901c5.368-1.57,10.313-4.131,15.033-7.594c4.627-3.554,8.258-8.012,10.899-13.627
							c2.642-5.535,3.961-11.396,3.961-17.758C180.071,137.647,178.012,130.456,173.878,124.098z M124.253,98.329
							c-8.018-2.141-13.129-4.451-15.529-6.93c-2.476-2.485-3.633-5.373-3.633-8.672c0-3.633,1.487-7.02,4.462-9.916
							c3.047-2.97,7.93-4.955,14.7-6.109V98.329z M151.745,158.702c-3.139,3.309-7.925,5.372-14.364,6.277v-36.09
							c7.09,2.063,12.06,4.626,14.862,7.763c2.805,3.136,4.212,6.608,4.212,10.403C156.455,151.521,154.89,155.398,151.745,158.702z
							"/>
					</g>
				</g>
				<g>
					<g>
						<g>
							<path fill="#444A54" d="M275.368,177.359l-26.238-7.176c-20.186,53.36-66.993,85.371-120.627,85.371
								c-47.137,0-90.976-27.606-114.462-72.058l21.342-11.275c19.305,36.524,54.951,59.191,93.12,59.191
								c41.809,0,79.486-26.791,97.245-67.828l-29.961-8.717l62.282-50.171L275.368,177.359z"/>
						</g>
					</g>
				</g>
			</g>
		</g>
	</g>
</g>
</svg>
