<?xml version="1.0" encoding="UTF-8"?>
<svg xmlns="http://www.w3.org/2000/svg" xmlns:xlink="http://www.w3.org/1999/xlink" width="25pt" height="25pt" viewBox="0 0 25 25" version="1.1">
<g id="surface1">
<path style=" stroke:none;fill-rule:nonzero;fill:rgb(0%,0%,0%);fill-opacity:1;" d="M 0 8.203125 L 0 7.421875 C 0 6.773438 0.523438 6.25 1.171875 6.25 L 18.75 6.25 L 18.75 3.90625 C 18.75 2.863281 20.015625 2.339844 20.75 3.078125 L 24.65625 6.984375 C 25.113281 7.441406 25.113281 8.183594 24.65625 8.640625 L 20.75 12.546875 C 20.015625 13.28125 18.75 12.765625 18.75 11.71875 L 18.75 9.375 L 1.171875 9.375 C 0.523438 9.375 0 8.851562 0 8.203125 Z M 23.828125 15.625 L 6.25 15.625 L 6.25 13.28125 C 6.25 12.242188 4.988281 11.714844 4.25 12.453125 L 0.34375 16.359375 C -0.113281 16.816406 -0.113281 17.558594 0.34375 18.015625 L 4.25 21.921875 C 4.984375 22.65625 6.25 22.140625 6.25 21.09375 L 6.25 18.75 L 23.828125 18.75 C 24.476562 18.75 25 18.226562 25 17.578125 L 25 16.796875 C 25 16.148438 24.476562 15.625 23.828125 15.625 Z M 23.828125 15.625 "/>
</g>
</svg>
