<?xml version="1.0" encoding="utf-8"?>
<!-- Generator: Adobe Illustrator 16.0.0, SVG Export Plug-In . SVG Version: 6.00 Build 0)  -->
<!DOCTYPE svg PUBLIC "-//W3C//DTD SVG 1.1//EN" "http://www.w3.org/Graphics/SVG/1.1/DTD/svg11.dtd">
<svg version="1.1" id="Capa_1" xmlns="http://www.w3.org/2000/svg" xmlns:xlink="http://www.w3.org/1999/xlink" x="0px" y="0px"
	 width="283.46px" height="283.46px" viewBox="0 0 283.46 283.46" enable-background="new 0 0 283.46 283.46" xml:space="preserve">
<g>
	<path fill="#444A54" d="M237.95,193.783v-83.083c0-2.646-1.79-4.796-3.991-4.796H128.618c-2.215,0-4.005,2.15-4.005,4.796v8.857
		h-28.98V95.301h35.845c6.232,0,11.292-5.093,11.292-11.363V41.017c0-6.267-5.061-11.354-11.292-11.354h-90.17
		c-6.238,0-11.298,5.086-11.298,11.354v42.921c0,6.27,5.06,11.363,11.298,11.363h36.484v24.257H52.382
		c-2.643,0-4.802,2.151-4.802,4.8v69.426H30.009v44.213h225.509v-44.213H237.95z M47.108,74.727V50.234
		c0-1.307,1.901-2.367,4.234-2.367h70.097c2.333,0,4.219,1.061,4.219,2.367v24.492c0,1.298-1.887,2.358-4.219,2.358H51.342
		C49.01,77.085,47.108,76.024,47.108,74.727z"/>
</g>
</svg>
