<?xml version="1.0" encoding="utf-8"?>
<!-- Generator: Adobe Illustrator 16.0.0, SVG Export Plug-In . SVG Version: 6.00 Build 0)  -->
<!DOCTYPE svg PUBLIC "-//W3C//DTD SVG 1.1//EN" "http://www.w3.org/Graphics/SVG/1.1/DTD/svg11.dtd">
<svg version="1.1" id="Capa_1" xmlns="http://www.w3.org/2000/svg" xmlns:xlink="http://www.w3.org/1999/xlink" x="0px" y="0px"
	 width="283.46px" height="283.46px" viewBox="0 0 283.46 283.46" enable-background="new 0 0 283.46 283.46" xml:space="preserve">
<g>
	<g>
		<path fill="#444A54" d="M241.738,150.144c0.014-23.87,0.054-47.712,0.067-71.569c0-7.197-3.604-11.083-10.714-11.109
			c-20.653-0.054-41.313-0.041-61.973-0.041c2.064,3.98,4.121,7.96,6.186,11.941h44.602c7.023,0,10.333,3.244,10.333,10.32
			c0.041,17.665,0.094,35.342,0.041,53c-0.041,8.61-0.375,17.209-0.429,25.82c-0.027,4.289,0.416,8.577,0.35,12.866
			c-0.068,6.748-3.23,9.777-9.912,9.777c-26.221,0.007-52.422,0.007-78.624,0.007H63.045c-6.633,0-9.911-3.076-9.924-9.811
			c-0.006-9.396,0.369-18.817,0.341-28.232c-0.04-20.874-0.254-41.749-0.341-62.622c-0.021-5.998,1.588-9.181,5.623-10.455
			c-0.161-0.308-0.315-0.623-0.483-0.951c-1.957-3.793-2.761-7.794-2.479-11.66H54.2c-9.69,0.041-12.665,3.189-12.665,12.832
			c-0.007,36.254-0.007,86.961,0,123.221c0,9.073,3.458-1.97,12.712-1.997c14.628-0.026,29.27-0.161,43.898-0.153
			c44.054,0.046,88.114,0.073,132.161,0.207c6.017,0.014,11.847,9.865,11.592,1.729
			C241.497,190.049,241.738,163.372,241.738,150.144"/>
		<path fill="#444A54" d="M245.263,202.969c-4.423-3.432-9.074-4.757-14.495-4.697c-13.569,0.141-27.139,0.094-40.71,0.094
			c-46.773-0.007-93.547-0.06-140.321,0.007c-2.439,0.013-5.361,0.348-7.277,1.675c-10.534,7.324-20.84,15.023-31.22,22.596
			c0.026,0.435,0.053,0.884,0.086,1.333c3.391,0.349,6.782,0.972,10.199,0.972c62.622,0.074,125.258,0.04,187.873,0.067
			c17.88,0,35.758,0.033,53.61-0.067c3.042-0.007,6.058-0.697,9.074-1.079c0-0.409,0.013-0.811,0.033-1.207
			C263.142,216.136,254.014,209.791,245.263,202.969"/>
		<path fill="#444A54" d="M11.232,222.637l27.207-3.478c27.14,0,50.889,0.396,78.028,0.51c1.743,0.013,4.966,0.938,6.729,1.547
			c1.971,0.704,5.214-0.563,7.223-0.509c8.859,0.208,12.317-0.931,21.183-1.038c1.407-0.007,9.979-17.102,10.333-0.965
			c0.087,4.013,7.887-4.182,10.849-4.182c33.197-0.014,54.146,5.669,87.344,5.669l11.987,2.466c0.784,6.019,0,15.386,0,15.386
			c-12.364,0.134-34.235,0.061-46.593,0.061c-55.096,0-110.193,0-165.29,0c-12.773,0-36.24,0.053-48.999,0.006
			c0,0,0.167-3.559-0.027-10.667L11.232,222.637z"/>
		<path fill="#444A54" d="M189.616,137.975c-1.085,1.139-2.345,2.083-3.512,3.136c-2.264,1.187-4.537,2.366-6.808,3.538h-16.478
			c6.347-3.296,12.686-6.593,19.024-9.897c2.346-1.219,4.236-2.948,5.375-5.421c1.703-3.74,1.139-7.278-0.678-10.802
			c-6.748-13.054-13.488-26.108-20.23-39.162c-2.051-3.967-4.095-7.96-6.159-11.928c-1.708-3.33-3.424-6.667-5.152-9.999
			c-0.248-0.489-0.523-0.971-0.845-1.44c-1.555-2.272-3.136-2.909-5.804-2.212c-1.064,0.282-2.124,0.677-3.108,1.16
			c-3.538,1.755-7.023,3.538-10.534,5.327c-2.561,1.293-5.066,2.68-7.68,3.879c-2.318,1.073-4.912,0.228-6.36-1.869
			c-0.422-0.604-0.783-1.253-1.112-1.91c-3.035-5.756-5.998-11.52-9.066-17.243c-0.604-1.119-1.488-2.137-2.432-2.995
			c-1.321-1.227-2.936-1.568-4.618-0.697c-11.418,5.91-22.852,11.841-34.257,17.812c-3.323,1.742-5.494,4.462-6.151,8.256
			c-0.121,0.643-0.161,1.273-0.147,1.896c0.013,2.097,0.723,4.081,1.715,5.998c1.019,1.983,2.05,3.966,3.069,5.951
			c6.319,12.229,12.625,24.459,18.938,36.702c4.919,9.536,9.837,19.072,14.769,28.593h-9.294
			c-3.552-6.854-7.083-13.724-10.629-20.599c-7.571-14.662-15.15-29.331-22.703-44c-0.167-0.322-0.321-0.63-0.489-0.965
			c-1.957-3.793-2.761-7.801-2.493-11.66c0.342-4.678,2.292-9.174,5.75-12.806c1.078-1.132,2.346-2.098,3.524-3.129
			c13.188-6.849,26.362-13.711,39.564-20.559c0.596-0.121,1.186-0.241,1.782-0.348c3.591-0.685,7.103,0.04,10.507,1.078
			c9.449,2.875,18.857,5.877,28.279,8.879c2.345,0.75,4.644,1.656,6.888,2.614c3.203,1.367,6.125,3.149,7.801,6.366
			c3.089,5.971,6.165,11.935,9.254,17.906c2.064,3.98,4.121,7.96,6.186,11.941c5.964,11.566,11.94,23.139,17.852,34.739
			C197.296,122.213,195.768,131.488,189.616,137.975"/>
		<rect x="92.082" y="136.278" fill="#444A54" width="86.82" height="8.37"/>
	</g>
</g>
</svg>
