<?xml version="1.0" encoding="UTF-8"?>
<svg xmlns="http://www.w3.org/2000/svg" xmlns:xlink="http://www.w3.org/1999/xlink" width="25pt" height="33pt" viewBox="0 0 25 33" version="1.1">
<g id="surface1">
<path style=" stroke:none;fill-rule:nonzero;fill:rgb(0%,0%,0%);fill-opacity:1;" d="M 8.351562 10.3125 L 8.351562 12.375 L 10.4375 12.375 L 10.4375 10.3125 Z M 12.519531 4.125 L 10.4375 4.125 L 10.4375 6.1875 L 12.519531 6.1875 Z M 8.351562 6.1875 L 8.351562 8.25 L 10.4375 8.25 L 10.4375 6.1875 Z M 12.519531 8.25 L 10.4375 8.25 L 10.4375 10.3125 L 12.519531 10.3125 Z M 24.082031 6.308594 L 18.621094 0.902344 C 18.035156 0.320312 17.238281 -0.0078125 16.414062 -0.0078125 L 3.125 -0.0078125 C 1.398438 0 0 1.386719 0 3.09375 L 0 29.90625 C 0 31.613281 1.398438 33 3.125 33 L 21.875 33 C 23.601562 33 25 31.613281 25 29.90625 L 25 8.5 C 25 7.683594 24.667969 6.890625 24.082031 6.308594 Z M 16.667969 3.34375 L 21.621094 8.25 L 16.667969 8.25 Z M 21.875 29.90625 L 3.125 29.90625 L 3.125 3.09375 L 8.3125 3.09375 L 8.3125 4.125 L 10.398438 4.125 L 10.398438 3.09375 L 13.542969 3.09375 L 13.542969 9.796875 C 13.542969 10.652344 14.238281 11.34375 15.105469 11.34375 L 21.875 11.34375 Z M 12.644531 17.125 C 12.570312 16.765625 12.253906 16.5 11.875 16.5 L 10.4375 16.5 L 10.4375 14.4375 L 8.351562 14.4375 L 8.351562 16.5 L 7.070312 22.757812 C 6.640625 24.851562 8.253906 26.8125 10.417969 26.8125 C 12.570312 26.8125 14.1875 24.867188 13.769531 22.777344 Z M 10.4375 25.144531 C 9.269531 25.144531 8.328125 24.363281 8.328125 23.402344 C 8.328125 22.441406 9.269531 21.664062 10.4375 21.664062 C 11.601562 21.664062 12.546875 22.441406 12.546875 23.402344 C 12.546875 24.363281 11.601562 25.144531 10.4375 25.144531 Z M 12.519531 12.375 L 10.4375 12.375 L 10.4375 14.4375 L 12.519531 14.4375 Z M 12.519531 12.375 "/>
</g>
</svg>
