<?xml version="1.0" encoding="utf-8"?>
<!-- Generator: Adobe Illustrator 24.1.0, SVG Export Plug-In . SVG Version: 6.00 Build 0)  -->
<svg version="1.1" id="Capa_1" xmlns="http://www.w3.org/2000/svg" xmlns:xlink="http://www.w3.org/1999/xlink" x="0px" y="0px"
	 viewBox="0 0 283.5 283.5" style="enable-background:new 0 0 283.5 283.5;" xml:space="preserve">
<style type="text/css">
	.st0{fill:#444A54;}
	.st1{display:none;}
	.st2{display:inline;fill:#4078B9;}
</style>
<g>
	<path class="st0" d="M236.2,104.4V241c0,6.9-5.7,12.6-12.6,12.6H100.5c-6.9,0-12.7-5.6-12.7-12.6v-10.3h114.5
		c7.5,0,13.7-6.2,13.7-13.7V89.6c0-1.1,0-2.1-0.2-3.1C220.5,86.5,236.2,85.7,236.2,104.4"/>
	<path class="st0" d="M208.8,79.7c-2.2-40.9-48.7-49.7-50-49.9H60.9c-7.5,0-13.7,6.2-13.7,13.8v166.7c0,7.5,6.2,13.7,13.7,13.7
		h134.3c7.5,0,13.7-6.2,13.7-13.7V82.8C209,81.8,209,80.7,208.8,79.7 M195.6,65.9c-3.1-1.4-6.8-2.2-11.2-2.2h-12.6
		c0.1-5.4-0.3-14-2.9-21C177.8,46.4,189.8,53.3,195.6,65.9 M199.3,210.3c0,2.3-2,4.1-4.1,4.1H60.9c-2.3,0-4.1-1.8-4.1-4.1V43.6
		c0-2.3,1.8-4.3,4.1-4.3h92.9c1.4,0,2.5,0.5,3.5,1.7c4.6,5,5.2,19.3,4.7,27.2v0.6l-0.3,4.5h22.7c12.9,0,14.8,9.1,14.9,10.1V210.3z"
		/>
	<polygon class="st0" points="179.9,150.4 179.9,171.4 150.6,171.4 150.6,200.5 129.6,200.5 129.6,171.4 100.3,171.4 100.3,150.4 
		129.6,150.4 129.6,121.1 150.6,121.1 150.6,150.4 	"/>
</g>
<g class="st1">
	<path class="st2" d="M445.6,265H308.3c-17.5,0-31.8-14.2-31.8-31.8v-141l73.8-73.8h95.2c17.5,0,31.7,14.2,31.7,31.7l0.1,183.1
		C477.3,250.8,463.1,265,445.6,265 M294.3,99.6v133.6c0,7.7,6.3,14,14,14h137.4c7.7,0,13.9-6.3,13.9-14l-0.1-183.1
		c0-7.7-6.3-13.9-13.9-13.9h-87.8L294.3,99.6z"/>
	<polygon class="st2" points="398.2,193.6 329.5,193.6 329.5,167 398.2,167 398.2,144.1 436.5,180.3 398.2,216.5 	"/>
	<polygon class="st2" points="308.8,113 371.8,50.1 371.8,113 	"/>
</g>
</svg>
