<?xml version="1.0" encoding="utf-8"?>
<!-- Generator: Adobe Illustrator 21.0.0, SVG Export Plug-In . SVG Version: 6.00 Build 0)  -->
<svg version="1.1" id="Capa_1" xmlns="http://www.w3.org/2000/svg" xmlns:xlink="http://www.w3.org/1999/xlink" x="0px" y="0px"
	 viewBox="0 0 283.5 283.5" style="enable-background:new 0 0 283.5 283.5;" xml:space="preserve">
<style type="text/css">
	.st0{fill:#434A54;}
	.st1{fill-rule:evenodd;clip-rule:evenodd;fill:#434A54;}
	.st2{fill:#FFFFFF;}
	.st3{fill:#656D78;}
	.st4{fill:none;stroke:#CCCBCB;stroke-width:0.6826;stroke-miterlimit:10;}
	.st5{fill:#5F6A76;}
	.st6{fill:none;stroke:#000000;stroke-width:3;stroke-miterlimit:10;}
	.st7{fill:#444A54;}
	.st8{fill-rule:evenodd;clip-rule:evenodd;fill:#444A54;}
</style>
<g>
	<path class="st8" d="M181.3,54v-1.7h0.1v-2.5h-22.8c-0.9,0-1.6-0.7-1.6-1.6c0-4.4-1.8-8.4-4.7-11.3c-2.9-2.9-6.8-4.6-11.2-4.6
		c-4.3,0-8.4,1.8-11.3,4.6c-2.9,2.9-4.6,6.8-4.6,11.3c0,0.9-0.8,1.6-1.7,1.6h-22.8v2.5h0.1V54v14.3V70v4.4h80.5V70v-1.7V54z
		 M68.6,54h25.7v4.8l0,0V70H83.9c-6.8,0-12.3,5.6-12.3,12.4v146.2c0,6.8,5.5,12.4,12.3,12.4h114.3c6.8,0,12.4-5.6,12.4-12.4V82.4
		c0-6.8-5.6-12.4-12.4-12.4h-10.4V58.8h0.1V54h25.6c5.8,0,10.5,4.7,10.5,10.5v182.1c0,5.7-4.6,10.5-10.5,10.5H68.6
		c-5.7,0-10.5-4.7-10.5-10.5V64.4C58.1,58.7,62.9,54,68.6,54L68.6,54z M98.3,99.7c2.3,0,4.2,0.9,5.7,2.4c1.5,1.5,2.4,3.5,2.4,5.7
		c0,2.3-0.9,4.2-2.4,5.7c-1.5,1.5-3.5,2.5-5.7,2.5s-4.3-1-5.7-2.4c-1.5-1.5-2.5-3.6-2.5-5.8c0-2.3,1-4.2,2.4-5.7l0.2-0.1
		C94,100.5,96.1,99.7,98.3,99.7L98.3,99.7z M101.7,104.4c-0.9-0.9-2.1-1.5-3.5-1.5c-1.3,0-2.6,0.6-3.5,1.4v0.1
		c-0.9,0.9-1.5,2.1-1.5,3.5c0,1.4,0.6,2.6,1.5,3.5c0.9,0.9,2.1,1.5,3.5,1.5c1.4,0,2.6-0.6,3.5-1.5c0.9-0.9,1.5-2.1,1.5-3.5
		C103.2,106.5,102.6,105.3,101.7,104.4L101.7,104.4z M120.5,111.5c-0.9,0-1.7-2.4-1.7-5.1c0-2.7,0.8-4.8,1.7-4.8h73.1
		c0.9,0,1.6,2.1,1.6,4.8c0,2.7-0.7,5.1-1.6,5.1H120.5z M98.3,125.1c2.3,0,4.2,0.9,5.7,2.4c1.5,1.5,2.4,3.5,2.4,5.7
		c0,2.3-0.9,4.2-2.4,5.7c-1.5,1.5-3.5,2.5-5.7,2.5s-4.3-1-5.7-2.4c-1.5-1.5-2.5-3.6-2.5-5.8c0-2.3,1-4.2,2.4-5.7l0.2-0.1
		C94,125.9,96.1,125.1,98.3,125.1L98.3,125.1z M101.7,129.7c-0.9-0.9-2.1-1.5-3.5-1.5c-1.3,0-2.6,0.6-3.5,1.4v0.1
		c-0.9,0.9-1.5,2.1-1.5,3.5c0,1.4,0.6,2.6,1.5,3.5c0.9,0.9,2.1,1.5,3.5,1.5c1.4,0,2.6-0.6,3.5-1.5c0.9-0.9,1.5-2.1,1.5-3.5
		C103.2,131.8,102.6,130.6,101.7,129.7L101.7,129.7z M120.5,136.9c-0.9,0-1.7-2.4-1.7-5.1c0-2.7,0.8-4.8,1.7-4.8h73.1
		c0.9,0,1.6,2.1,1.6,4.8c0,2.7-0.7,5.1-1.6,5.1H120.5z M141,52.5c3.7,0,6.5,2.9,6.5,6.5c0,3.6-2.9,6.5-6.5,6.5c-3.6,0-6.5-3-6.5-6.5
		C134.5,55.4,137.5,52.5,141,52.5L141,52.5z"/>
</g>
<g>
	<polygon class="st7" points="134.7,223.1 113.9,194 123.1,187.4 133.9,202.5 163,154.5 172.7,160.4 	"/>
</g>
</svg>
