<?xml version="1.0" encoding="utf-8"?>
<!-- Generator: Adobe Illustrator 24.1.0, SVG Export Plug-In . SVG Version: 6.00 Build 0)  -->
<svg version="1.1" id="Capa_1" xmlns="http://www.w3.org/2000/svg" xmlns:xlink="http://www.w3.org/1999/xlink" x="0px" y="0px"
	 viewBox="0 0 20 20" style="enable-background:new 0 0 20 20;" xml:space="preserve">
<style type="text/css">
	.st0{fill:#434A54;}
</style>
<g>
	<path class="st0" d="M10,0.3c-5.4,0-9.7,4.3-9.7,9.7s4.3,9.7,9.7,9.7s9.7-4.3,9.7-9.7S15.4,0.3,10,0.3z M9.1,8.5
		C9.3,8.7,9.7,9,10.3,9.2c1.1,0.3,1.9,0.8,2.4,1.2c0.5,0.5,0.8,1.2,0.8,2.1s-0.2,1.5-0.8,2c-0.5,0.5-1.2,0.8-2.2,0.9v1.4h-1v-1.4
		c-0.9,0-1.6-0.3-2.2-0.9c-0.6-0.5-0.9-1.3-0.9-2.3v-0.1h2c0,0.6,0.2,1.1,0.5,1.3s0.7,0.4,1.2,0.4s0.9-0.1,1.1-0.3s0.3-0.6,0.3-0.9
		c0-0.4-0.1-0.7-0.3-0.9S10.6,11.2,10,11c-1.1-0.4-1.9-0.8-2.4-1.2c-0.5-0.5-0.8-1.2-0.8-2s0.2-1.5,0.8-2s1.2-0.9,2.1-0.9V3.2h1.2
		v1.5c0.9,0.2,1.5,0.5,2,1s0.7,1.2,0.7,2.2h-2c0-0.5-0.2-0.9-0.4-1.2s-0.5-0.4-1-0.4s-0.8,0.2-1,0.4C8.9,6.9,8.8,7.2,8.8,7.6
		C8.8,8,8.9,8.3,9.1,8.5z"/>
</g>
</svg>
