<?xml version="1.0" encoding="utf-8"?>
<!-- Generator: Adobe Illustrator 21.0.0, SVG Export Plug-In . SVG Version: 6.00 Build 0)  -->
<svg version="1.1" id="Capa_1" xmlns="http://www.w3.org/2000/svg" xmlns:xlink="http://www.w3.org/1999/xlink" x="0px" y="0px"
	 viewBox="0 0 283.5 283.5" style="enable-background:new 0 0 283.5 283.5;" xml:space="preserve">
<style type="text/css">
	.st0{fill:#434A54;}
	.st1{fill-rule:evenodd;clip-rule:evenodd;fill:#434A54;}
	.st2{fill:#FFFFFF;}
	.st3{fill:#656D78;}
	.st4{fill:none;stroke:#CCCBCB;stroke-width:0.6826;stroke-miterlimit:10;}
	.st5{fill:#5F6A76;}
	.st6{fill:none;stroke:#000000;stroke-width:3;stroke-miterlimit:10;}
	.st7{fill:#444A54;}
	.st8{fill-rule:evenodd;clip-rule:evenodd;fill:#444A54;}
</style>
<g>
	<g>
		<path class="st7" d="M29.7,93.2v137.7h41.5V93.2H29.7z M56.5,218H44.4v-20.2h12.1V218z M56.5,186.8H44.4v-20.2h12.1V186.8z
			 M56.5,155.7H44.4v-20.2h12.1V155.7z M56.5,124.5H44.4v-20.2h12.1V124.5z"/>
		<path class="st7" d="M212.8,93.2v137.7h41.5V93.2H212.8z M239.6,218h-12.1v-20.2h12.1V218z M239.6,186.8h-12.1v-20.2h12.1V186.8z
			 M239.6,155.7h-12.1v-20.2h12.1V155.7z M239.6,124.5h-12.1v-20.2h12.1V124.5z"/>
	</g>
	<g>
		<rect x="29.9" y="239.5" class="st7" width="224.2" height="17.5"/>
		<g>
			<g>
				<rect x="89.3" y="118.4" class="st7" width="15.3" height="88.1"/>
				<rect x="119.3" y="118.4" class="st7" width="15.3" height="88.1"/>
				<rect x="149.3" y="118.4" class="st7" width="15.3" height="88.1"/>
				<rect x="179.3" y="118.4" class="st7" width="15.3" height="88.1"/>
			</g>
			<rect x="89.3" y="213.4" class="st7" width="105.3" height="17.5"/>
			<rect x="89.3" y="93.2" class="st7" width="105.3" height="17.5"/>
		</g>
		<path class="st7" d="M142,32L29.7,85.5h224.6L142,32z M143.7,77.1v5.4h-6v-4.9c-3.7-0.2-7.3-1.2-9.4-2.2l1.7-7.4
			c2.4,1.2,5.7,2.3,9.3,2.3c2.7,0,4.6-0.7,4.6-2.4c0-1.6-1.5-2.6-5.5-3.9c-5.7-1.9-9.8-4.6-9.8-9.9c0-4.8,3.3-8.6,9.4-9.8v-4.9h6
			v4.4c3.7,0.2,6.1,0.9,8,1.7l-1.7,7c-1.4-0.6-4-1.8-8-1.8c-3.1,0-4.1,1.1-4.1,2.3c0,1.3,1.8,2.3,6.2,3.9c6.7,2.2,9.1,5.2,9.1,10
			C153.6,71.9,150.1,76,143.7,77.1z"/>
	</g>
</g>
</svg>
