<?xml version="1.0" encoding="utf-8"?>
<!-- Generator: Adobe Illustrator 21.1.0, SVG Export Plug-In . SVG Version: 6.00 Build 0)  -->
<svg version="1.1" id="Capa_1" xmlns="http://www.w3.org/2000/svg" xmlns:xlink="http://www.w3.org/1999/xlink" x="0px" y="0px"
	 viewBox="0 0 283.5 283.5" style="enable-background:new 0 0 283.5 283.5;" xml:space="preserve">
<style type="text/css">
	.st0{fill:#444A54;}
</style>
<title>Iconos sin retícula</title>
<path class="st0" d="M248.1,152.7l-8.4-7c-2.6-2.1-6.3-1.8-8.6,0.6l-56.3,61h-25.6c-10.9,0-17.9-2.4-24.1-7.5s-4.6-14.2-4.1-14.9
	h53.5c3.3,0,4-1.5,6.1-5.9l4.5-10.7c1.2-4.3-2.7-5.9-6.1-5.9H78.5c-1.7,0-3.4,0.8-4.5,2.1l-47.4,44.2l48.7,46.7l25.4-25.6h81.2
	c0.1,0,0.2,0,0.3,0c1.9,0.1,3.7-0.6,4.9-2l61.7-66.9c2.1-2.4,1.9-6.1-0.6-8.2C248.2,152.8,248.2,152.8,248.1,152.7z"/>
<path class="st0" d="M107.7,140.3h69.9c4.5,0,8.1-3.6,8.1-8.1c0,0,0,0,0,0V52.5c0-4.5-3.6-8.1-8.1-8.1c0,0,0,0,0,0h-69.9
	c-4.5,0-8.2,3.6-8.2,8.1c0,0,0,0,0,0v79.6C99.5,136.7,103.2,140.3,107.7,140.3C107.7,140.3,107.7,140.3,107.7,140.3z M162.9,79.3
	c2.5-0.1,4.9,0.4,7.2,1.5l-1.2,4.8c-1.8-0.9-3.8-1.3-5.8-1.3c-6,0-10.3,4.3-10.3,12.3c0,7.3,3.8,12,10.3,12c2,0,4-0.4,5.9-1.2
	l0.9,4.8c-2.4,1.1-5,1.6-7.6,1.5c-9.4,0-15.1-6.6-15.1-16.8C147.1,86,153.9,79.4,162.9,79.3L162.9,79.3z M119,79.9h6.1l7.6,14.3
	c1.9,3.6,3.6,7.4,5,11.2h0.1c-0.4-4.4-0.5-8.8-0.5-13.8V79.9h5v33.3h-5.6l-7.6-14.7c-2-3.7-3.7-7.6-5.3-11.5h-0.1
	c0.2,4.3,0.3,8.7,0.3,14.2v11.9h-5L119,79.9z"/>
<path class="st0" d="M242.2,88.7c0-3.1-2.1-4.6-5.5-4.6c-1,0-2.1,0-3.1,0.2v9.1h2.8C240.1,93.5,242.2,91.5,242.2,88.7z"/>
<path class="st0" d="M274,44.4h-69.9c-4.5,0-8.1,3.7-8.1,8.1v79.6c0,4.5,3.6,8.2,8.1,8.2c0,0,0,0,0,0H274c4.5,0,8.1-3.6,8.1-8.1
	c0,0,0,0,0,0V52.5C282.2,48.1,278.5,44.4,274,44.4C274,44.4,274,44.4,274,44.4z M225.4,85h-8.5v28.2h-5.4V85h-8.4v-5.1h22.3V85z
	 M245.8,110.5c-2.1,2.1-5.6,3.1-11,3.1c-2.2,0-4.4-0.1-6.6-0.4V80.3c2.6-0.5,5.2-0.7,7.9-0.7c4,0,6.4,0.5,8.5,2.1
	c2,1.4,3.2,3.7,3.1,6.2c0,3.2-1.9,6.1-4.9,7.2v0.1c3.7,1,6.2,4.4,6,8.3C248.8,106.2,247.7,108.7,245.8,110.5z M267.4,108.7
	c2,0,4-0.4,5.9-1.2l0.9,4.8c-2.4,1.1-5,1.6-7.6,1.5c-9.4,0-15.1-6.6-15.1-16.8c0-11,6.7-17.6,15.8-17.6c2.5-0.1,4.9,0.4,7.2,1.5
	l-1.2,4.8c-1.8-0.9-3.8-1.3-5.8-1.3c-6,0-10.3,4.3-10.3,12.3C257.1,104,260.9,108.7,267.4,108.7z"/>
<path class="st0" d="M236.3,98h-2.7v10.9c0.9,0.1,1.9,0.2,2.9,0.2c3.5,0,6.5-1.5,6.5-5.6C243,99.5,240,98,236.3,98z"/>
<path class="st0" d="M88.5,132.2V52.5c0-4.5-3.6-8.1-8.1-8.1c0,0,0,0,0,0H10.5c-4.5,0-8.2,3.6-8.2,8.1c0,0,0,0,0,0v79.6
	c0,4.5,3.6,8.2,8.1,8.2c0,0,0,0,0,0h69.9C84.8,140.3,88.5,136.7,88.5,132.2C88.5,132.2,88.5,132.2,88.5,132.2z M47.5,113.6v5.7h-4.6
	V114c-3.2,0-6.3-0.9-9-2.4l1.5-5.2c2.6,1.5,5.6,2.4,8.6,2.4c3.5,0,5.9-1.7,5.9-4.4c0-2.5-1.9-4.1-6-5.6c-5.8-2.1-9.6-4.8-9.6-9.9
	c0-4.8,3.3-8.4,8.9-9.4v-5.4h4.5v5.1c2.6,0,5.3,0.7,7.6,1.8l-1.5,5.1c-2.3-1.2-4.9-1.9-7.5-1.9c-3.9,0-5.2,2-5.2,3.9
	c0,2.3,2,3.5,6.7,5.4c6.2,2.3,9,5.3,9,10.2C56.8,108.5,53.5,112.6,47.5,113.6L47.5,113.6z"/>
</svg>
