<?xml version="1.0" encoding="utf-8"?>
<!-- Generator: Adobe Illustrator 16.0.0, SVG Export Plug-In . SVG Version: 6.00 Build 0)  -->
<!DOCTYPE svg PUBLIC "-//W3C//DTD SVG 1.1//EN" "http://www.w3.org/Graphics/SVG/1.1/DTD/svg11.dtd">
<svg version="1.1" id="Capa_1" xmlns="http://www.w3.org/2000/svg" xmlns:xlink="http://www.w3.org/1999/xlink" x="0px" y="0px"
	 width="283.46px" height="283.46px" viewBox="0 0 283.46 283.46" enable-background="new 0 0 283.46 283.46" xml:space="preserve">
<g>
	<g>
		<g>
			<g>
				<g>
					<path fill="#515151" d="M269.796,116.003L196.142,42.1c-2.566-2.566-6.707-2.566-9.195-0.086l-60.479,59.159l-0.34-0.163
						l-23.521-10.442c-4.729-2.069-10.195-1.155-14.008,2.325l-40.096,36.87c-2.652,2.481-4.227,5.962-4.227,9.606v57.669
						c0,7.202,5.799,13.001,13.088,13.001h50.701l32.73,32.894c1.242,1.163,2.816,1.907,4.645,1.907
						c1.658,0,3.311-0.744,4.551-1.907l119.805-117.649c1.248-1.241,1.744-4.056,1.908-4.552
						C271.705,118.902,271.044,117.25,269.796,116.003z M145.441,229.18l-64.547-64.872l37.535-38.273l0.66,0.325l39.027,16.823
						l12.342-21.707l-31.234-14.667l52.281-50.957l64.453,64.795L145.441,229.18z"/>
				</g>
			</g>
			<rect x="11.47" y="129.763" fill="#515151" width="22.443" height="80.028"/>
		</g>
	</g>
</g>
</svg>
