<?xml version="1.0" encoding="utf-8"?>
<!-- Generator: Adobe Illustrator 24.1.0, SVG Export Plug-In . SVG Version: 6.00 Build 0)  -->
<svg version="1.1" id="Capa_1" xmlns="http://www.w3.org/2000/svg" xmlns:xlink="http://www.w3.org/1999/xlink" x="0px" y="0px"
	 viewBox="0 0 283.5 283.5" style="enable-background:new 0 0 283.5 283.5;" xml:space="preserve">
<style type="text/css">
	.st0{fill:#444A54;}
</style>
<g>
	<path class="st0" d="M210.5,265H73.1c-17.5,0-31.8-14.2-31.8-31.8v-141l73.8-73.8h95.2c17.5,0,31.7,14.2,31.7,31.7l0.1,183.1
		C242.1,250.8,227.9,265,210.5,265 M59.1,99.6v133.6c0,7.7,6.3,14,14,14h137.4c7.7,0,13.9-6.3,13.9-14l-0.1-183.1
		c0-7.7-6.3-13.9-13.9-13.9h-87.8L59.1,99.6z"/>
	<polygon class="st0" points="163,193.6 94.3,193.6 94.3,167 163,167 163,144.1 201.4,180.3 163,216.5 	"/>
	<polygon class="st0" points="73.7,113 136.6,50.1 136.6,113 	"/>
</g>
</svg>
