<?xml version="1.0" encoding="utf-8"?>
<!-- Generator: Adobe Illustrator 16.0.0, SVG Export Plug-In . SVG Version: 6.00 Build 0)  -->
<!DOCTYPE svg PUBLIC "-//W3C//DTD SVG 1.1//EN" "http://www.w3.org/Graphics/SVG/1.1/DTD/svg11.dtd">
<svg version="1.1" id="Capa_1" xmlns="http://www.w3.org/2000/svg" xmlns:xlink="http://www.w3.org/1999/xlink" x="0px" y="0px"
	 width="283.46px" height="283.46px" viewBox="0 0 283.46 283.46" enable-background="new 0 0 283.46 283.46" xml:space="preserve">
<g>
	<g>
		<g>
			<path fill="#444A54" d="M182.298,228.497c-0.055,4.386-3.916,7.777-8.301,7.777H54.948c-4.343,0-8.174-3.378-8.245-7.721
				c-0.198-12.977,7.152-23.097,17.965-30.268c2.058-1.418,4.286-2.654,6.713-3.122c15.539-3.364,32.668-6.899,21.656-27.155
				c-1.462-2.713-2.881-5.354-4.357-8.063c-3.589-4.954-5.648-11.017-5.648-17.561v-11.357c0-16.778,13.723-30.522,30.498-30.522
				h1.887c16.773,0,30.496,13.728,30.496,30.522v11.356c0,6.545-2.058,12.607-5.647,17.56c-1.476,2.712-2.881,5.353-4.357,8.063
				c-10.955,20.258,6.131,23.793,21.67,27.157c2.469,0.468,4.712,1.704,6.77,3.122C175.077,205.443,182.484,215.549,182.298,228.497
				z"/>
		</g>
	</g>
	<path fill="#444A54" d="M141.712,29.455L19.157,104.708l7.294,7.31H47.44v87.704c3.307-3.847,7.237-7.411,11.935-10.534
		c2.242-1.532,5.945-3.805,10.643-4.729c5.266-1.148,14.759-3.191,16.448-5.392c-0.085,0-0.056-1.789-2.256-5.849l-4.059-7.511
		c-4.753-6.843-7.28-14.877-7.28-23.323v-11.371c0-22.827,18.576-41.409,41.396-41.409h1.888c22.833,0,41.395,18.581,41.395,41.409
		v11.37c0,8.446-2.512,16.497-7.28,23.324l-4.059,7.509c-2.341,4.344-2.143,6.091-2.129,6.104c1.519,1.932,11.07,4.005,16.207,5.111
		c4.84,0.922,8.571,3.207,10.955,4.854c14.815,9.881,22.918,23.879,22.692,39.365c-0.028,2.726-0.711,5.294-1.831,7.622h44.078
		V112.018h20.789l7.295-7.31L141.712,29.455z M209.134,176.042h-20.889v-20.911h20.889V176.042z M209.134,132.916h-20.889v-20.898
		h20.889V132.916z"/>
</g>
</svg>
