<?xml version="1.0" encoding="utf-8"?>
<!-- Generator: Adobe Illustrator 16.0.0, SVG Export Plug-In . SVG Version: 6.00 Build 0)  -->
<!DOCTYPE svg PUBLIC "-//W3C//DTD SVG 1.1//EN" "http://www.w3.org/Graphics/SVG/1.1/DTD/svg11.dtd">
<svg version="1.1" id="Capa_1" xmlns="http://www.w3.org/2000/svg" xmlns:xlink="http://www.w3.org/1999/xlink" x="0px" y="0px"
	 width="283.46px" height="283.46px" viewBox="0 0 283.46 283.46" enable-background="new 0 0 283.46 283.46" xml:space="preserve">
<g>
	<g>
		<g>
			<g>
				<g>
					<path fill="#444A54" d="M118,47.246v44.46c21.136,0.586,38.145,18.016,38.145,39.277v11.369c0,6.123-1.345,11.949-3.998,17.252
						c-0.881,1.709-1.818,3.352-2.945,4.944l-4.126,7.657c-2.524,4.59-2.582,7.068-2.28,7.768c1.346,2.89,12.005,5.182,17.713,6.424
						c2.476,0.467,4.651,1.354,6.482,2.295c1.535,0.766,2.77,1.533,3.765,2.24c14.191,9.48,21.798,22.318,21.798,37.032
						c0,2.659-0.596,5.13-1.715,7.365l0.129,0.182h45.053V47.301L118,47.246z M173.291,89.116h-20.962V68.21h20.962V89.116z
						 M215.105,172.792h-20.906V151.89h20.906V172.792z M215.105,130.983h-20.906V110.02h20.906V130.983z M215.105,89.116h-20.906
						V68.21h20.906V89.116z"/>
				</g>
			</g>
			<path fill="#444A54" d="M183.057,228.443c-0.057,4.37-3.916,7.771-8.289,7.771H55.69c-4.342,0-8.175-3.369-8.232-7.723
				c-0.213-12.969,7.151-23.097,17.951-30.257c2.058-1.413,4.308-2.653,6.716-3.122c15.537-3.357,32.672-6.893,21.673-27.146
				c-1.479-2.71-2.897-5.36-4.362-8.067c-3.605-4.947-5.659-11.016-5.659-17.547v-11.369c0-16.777,13.726-30.5,30.511-30.5h1.879
				c16.773,0,30.501,13.722,30.501,30.5v11.369c0,6.531-2.064,12.6-5.658,17.547c-1.472,2.707-2.872,5.357-4.348,8.067
				c-10.961,20.253,6.131,23.788,21.668,27.146c2.471,0.469,4.711,1.709,6.775,3.122C175.836,205.386,183.244,215.5,183.057,228.443
				z"/>
		</g>
	</g>
</g>
</svg>
