<?xml version="1.0" encoding="utf-8"?>
<!-- Generator: Adobe Illustrator 16.0.0, SVG Export Plug-In . SVG Version: 6.00 Build 0)  -->
<!DOCTYPE svg PUBLIC "-//W3C//DTD SVG 1.1//EN" "http://www.w3.org/Graphics/SVG/1.1/DTD/svg11.dtd">
<svg version="1.1" id="Capa_1" xmlns="http://www.w3.org/2000/svg" xmlns:xlink="http://www.w3.org/1999/xlink" x="0px" y="0px"
	 width="283.461px" height="283.46px" viewBox="0 0 283.461 283.46" enable-background="new 0 0 283.461 283.46"
	 xml:space="preserve">
<rect x="0.02" y="0.227" fill="none" stroke="#2F9DD3" stroke-width="0.2286" stroke-miterlimit="10" width="283.449" height="283.455"/>
<path fill="#444A54" d="M156.981,125.229V34.113l2.125,0.009c1.157,0.005,2.296-1.138,2.302-2.282
	c0.007-1.531-1.122-2.684-2.279-2.688H121.4c-1.157,0.005-2.286,1.157-2.279,2.688c0.006,1.145,1.145,2.287,2.302,2.282l2.125-0.009
	v91.115c-16.551,5.24-16.307,20.35-16.307,20.35v108.908h66.047V145.578C173.288,145.578,173.532,130.469,156.981,125.229z"/>
<g>
	<g>
		<path fill="#444A54" d="M50.104,188.83c-7.261,0-8.111-0.782-8.111-7.329v-79.354c0-6.545,0.851-7.268,8.111-7.268h62.588V84.072
			H44.836c-10.602,0-15.371,4.326-15.371,14.084v87.076c0,10.15,4.629,14.34,15.585,14.34h51.077V188.83H50.104z"/>
		<path fill="#444A54" d="M238.738,84.072h-70.9v10.807h65.571c7.262,0,8.112,0.725,8.112,7.27v79.353
			c0,6.547-0.851,7.265-8.112,7.329h-49.007v10.742h54.628c10.168,0,15.01-4.384,15.01-13.754V98.156
			C254.04,88.398,249.269,84.072,238.738,84.072z"/>
		<path fill="#444A54" d="M112.692,117.924V98.355H89.29v76.921h6.838v-24.69C96.127,131.871,104.372,122.649,112.692,117.924z"/>
		<rect x="189.8" y="98.355" fill="#444A54" width="31.375" height="76.921"/>
		<rect x="55.723" y="98.486" fill="#444A54" width="15.145" height="76.923"/>
		<path fill="#444A54" d="M170.882,119.879V98.553h-3.045v19.371C168.859,118.504,169.878,119.154,170.882,119.879z"/>
	</g>
</g>
</svg>
