<?xml version="1.0" encoding="utf-8"?>
<!-- Generator: Adobe Illustrator 16.0.0, SVG Export Plug-In . SVG Version: 6.00 Build 0)  -->
<!DOCTYPE svg PUBLIC "-//W3C//DTD SVG 1.1//EN" "http://www.w3.org/Graphics/SVG/1.1/DTD/svg11.dtd">
<svg version="1.1" id="Capa_1" xmlns="http://www.w3.org/2000/svg" xmlns:xlink="http://www.w3.org/1999/xlink" x="0px" y="0px"
	 width="283.46px" height="283.46px" viewBox="0 0 283.46 283.46" enable-background="new 0 0 283.46 283.46" xml:space="preserve">
<g>
	<g>
		<g>
			<polygon fill="#444A54" points="228.694,30.23 74.154,30.23 74.154,74.776 91.896,74.776 91.896,48.025 218.422,48.025 
				218.422,153.433 218.422,160.962 228.694,160.633 236.218,160.633 236.218,153.433 236.218,37.766 236.218,30.23 			"/>
			<path fill="#444A54" d="M47.248,236.667l35.313,0.039l49.47,36.067l9.692-36.067l68.621-0.039V82.853H47.248V236.667z
				 M65.045,100.772h127.449v118.14h-66.662l-6.617,23.163l-28.297-23.163H65.045V100.772z"/>
			<path fill="#444A54" d="M85.17,143.503h89.132c1.635,0,2.604-0.995,2.604-2.627v-2.951c0-1.634-0.97-2.628-2.604-2.628H85.17
				c-1.309,0-2.609,0.994-2.609,2.628v2.951C82.561,142.508,83.861,143.503,85.17,143.503z"/>
			<path fill="#444A54" d="M85.17,164.477h76.029c1.309,0,2.611-1.319,2.611-2.622v-3.281c0-1.319-1.303-2.62-2.611-2.62H85.17
				c-1.309,0-2.609,1.301-2.609,2.62v3.281C82.561,163.157,83.861,164.477,85.17,164.477z"/>
			<path fill="#444A54" d="M157.918,184.449v-2.939c0-1.644-0.978-2.629-2.624-2.629H85.17c-1.309,0-2.609,0.985-2.609,2.629v2.939
				c0,1.643,1.301,2.964,2.609,2.964h70.124C156.94,187.413,157.918,186.092,157.918,184.449z"/>
		</g>
	</g>
</g>
</svg>
