<?xml version="1.0" encoding="utf-8"?>
<!-- Generator: Adobe Illustrator 16.0.0, SVG Export Plug-In . SVG Version: 6.00 Build 0)  -->
<!DOCTYPE svg PUBLIC "-//W3C//DTD SVG 1.1//EN" "http://www.w3.org/Graphics/SVG/1.1/DTD/svg11.dtd">
<svg version="1.1" id="Capa_1" xmlns="http://www.w3.org/2000/svg" xmlns:xlink="http://www.w3.org/1999/xlink" x="0px" y="0px"
	 width="283.46px" height="283.46px" viewBox="0 0 283.46 283.46" enable-background="new 0 0 283.46 283.46" xml:space="preserve">
<g>
	<g>
		<path fill="#515151" d="M227.671,55.082c-2.552-7.33-9.507-12.547-17.651-12.547H73.325c-8.143,0-15.099,5.217-17.644,12.547
			l-25.857,74.441v99.422c0,6.835,5.598,12.426,12.427,12.426h12.427c6.899,0,12.434-5.591,12.434-12.426v-12.428l149.129,0.001
			v12.427c0,6.836,5.584,12.427,12.427,12.427h12.427c6.899,0,12.427-5.591,12.427-12.427v-99.422L227.671,55.082z M73.325,179.237
			c-10.32,0-18.647-8.327-18.647-18.647c0-10.313,8.327-18.641,18.647-18.641c10.313,0.001,18.64,8.328,18.64,18.641
			C91.965,170.911,83.638,179.238,73.325,179.237z M210.02,179.238c-10.306,0-18.633-8.327-18.633-18.648
			c0-10.313,8.327-18.64,18.633-18.64c10.32,0,18.647,8.327,18.647,18.64C228.667,170.911,220.34,179.238,210.02,179.238z
			 M54.678,117.096l18.647-55.92H210.02l18.647,55.921L54.678,117.096z"/>
	</g>
</g>
<rect x="283.479" y="0.227" fill="none" stroke="#2F9DD3" stroke-width="0.2286" stroke-miterlimit="10" width="283.449" height="283.455"/>
</svg>
