<?xml version="1.0" encoding="utf-8"?>
<!-- Generator: Adobe Illustrator 17.0.0, SVG Export Plug-In . SVG Version: 6.00 Build 0)  -->
<!DOCTYPE svg PUBLIC "-//W3C//DTD SVG 1.1//EN" "http://www.w3.org/Graphics/SVG/1.1/DTD/svg11.dtd">
<svg version="1.1" id="Capa_1" xmlns="http://www.w3.org/2000/svg" xmlns:xlink="http://www.w3.org/1999/xlink" x="0px" y="0px"
	 width="50px" height="50px" viewBox="-11 -11 50 50" enable-background="new -11 -11 50 50" xml:space="preserve">
<g>
	<path fill="#434A54" d="M14-8.05C1.822-8.05-8.05,1.822-8.05,14S1.822,36.05,14,36.05S36.05,26.178,36.05,14S26.178-8.05,14-8.05z
		 M14.154-1.804c2.274,0.005,4.183,1.898,4.201,4.167c0.016,2.304-1.964,4.254-4.276,4.208c-2.287-0.046-4.171-1.969-4.142-4.226
		C9.966,0.075,11.88-1.808,14.154-1.804z M25.709,9.859c-2.025,0.173-4.06,0.266-6.092,0.353c-2.383,0.102-2.953,0.745-2.816,3.098
		c0.31,5.342,1.375,10.53,3.09,15.591c0.101,0.296,0.164,0.622,0.269,0.89c0.249,0.633,0.169,1.192-0.372,1.34
		c-0.512,0.14-1.285,0.033-1.64-0.299c-0.476-0.449-0.753-1.18-0.946-1.84c-0.745-2.55-1.399-5.125-2.151-7.672
		c-0.135-0.454-0.586-0.814-0.89-1.219c-0.306,0.403-0.756,0.764-0.89,1.219c-0.753,2.547-1.405,5.123-2.151,7.672
		c-0.192,0.66-0.471,1.392-0.947,1.84c-0.354,0.334-1.128,0.439-1.64,0.299c-0.54-0.148-0.621-0.709-0.372-1.34
		c0.105-0.268,0.169-0.594,0.269-0.89c1.715-5.062,2.78-10.249,3.09-15.591c0.135-2.355-0.435-2.996-2.816-3.098
		c-2.032-0.087-4.065-0.179-6.092-0.353c-1.594-0.135-2.296-0.671-2.07-1.498c0.345-1.252,1.424-1.035,2.331-0.939
		c3.762,0.396,7.523,0.634,11.286,0.649c3.765-0.013,7.525-0.252,11.286-0.649c0.907-0.096,1.986-0.313,2.331,0.939
		C28.006,9.187,27.302,9.722,25.709,9.859z"/>
	<polygon fill="#434A54" points="14.173,8.072 14.161,8.071 14.148,8.072 	"/>
</g>
</svg>
