<?xml version="1.0" encoding="utf-8"?>
<!-- Generator: Adobe Illustrator 24.1.0, SVG Export Plug-In . SVG Version: 6.00 Build 0)  -->
<svg version="1.1" id="Capa_1" xmlns="http://www.w3.org/2000/svg" xmlns:xlink="http://www.w3.org/1999/xlink" x="0px" y="0px"
	 viewBox="0 0 300 300" style="enable-background:new 0 0 300 300;" xml:space="preserve">
<style type="text/css">
	.st0{fill:#484C58;}
</style>
<g>
	<path class="st0" d="M184.1,172.5c11.2,0,20.3,0,29.4,0c0.7,33.1-20,67.1-49.4,80.3c-42.9,19.2-80.1,10-112.1-25.1
		c-5.7,8.9-11.1,17.3-16.8,26.1c33.4,34.6,73.8,47.1,119.2,34.5c57.1-15.9,85.6-57.1,90.4-116.2c9.7,0,18.8,0,29.4,0
		C259,148,244.6,125.6,229.4,102C214.3,125.5,199.8,148.1,184.1,172.5z"/>
	<path class="st0" d="M144.3,217c2.7-19.5,1.6-21.8-15.3-30c-2.7-1.3-5.5-2.5-8.3-3.6c-7-2.7-13.3-3.7-20.8,0.4
		c-9.8,5.4-20.8,4.9-30.9-0.2c-15.6-7.8-26.6,3-38.4,9.4c-9.8,5.3-5,15.2-5.7,23.9C65.2,217,104.8,217,144.3,217z"/>
	<path class="st0" d="M84.7,177.3c16.4,0.2,30.2-13.2,30.5-29.5c0.3-16.4-12.9-30.3-29.3-30.7c-16.8-0.5-30.9,13.2-31,30
		C54.8,163.5,68.3,177.1,84.7,177.3z"/>
	<path class="st0" d="M267,73.7c-2.4-1.2-4.9-2.2-7.4-3.2c-6.2-2.4-12-3.3-18.6,0.4c-8.8,4.9-18.6,4.4-27.7-0.2
		c-13.9-7-23.9,2.7-34.4,8.4c-8.8,4.8-4.5,13.6-5.1,21.5c36.1,0,71.6,0,107,0C283.1,83,282.1,81,267,73.7z"/>
	<path class="st0" d="M227.2,64.9c14.7,0.2,27-11.8,27.3-26.5c0.3-14.7-11.6-27.1-26.3-27.5c-15-0.4-27.7,11.9-27.7,26.9
		C200.5,52.5,212.5,64.7,227.2,64.9z"/>
</g>
</svg>
