<?xml version="1.0" encoding="utf-8"?>
<!-- Generator: Adobe Illustrator 21.1.0, SVG Export Plug-In . SVG Version: 6.00 Build 0)  -->
<svg version="1.1" id="Capa_1" xmlns="http://www.w3.org/2000/svg" xmlns:xlink="http://www.w3.org/1999/xlink" x="0px" y="0px"
	 viewBox="0 0 215 224.9" style="enable-background:new 0 0 215 224.9;" xml:space="preserve">
<style type="text/css">
	.st0{fill:#434A54;}
</style>
<g>
	<path class="st0" d="M182.4,167.7c1.3,0,2.4-0.5,3.3-1.4c0.9-0.9,1.4-2,1.4-3.3v-23.5c0-1.3-0.5-2.4-1.4-3.3
		c-0.9-0.9-2-1.4-3.3-1.4s-2.4,0.5-3.3,1.4c-0.9,0.9-1.4,2-1.4,3.3V163c0,1.3,0.5,2.4,1.4,3.3C180,167.2,181.1,167.7,182.4,167.7
		L182.4,167.7z"/>
	<path class="st0" d="M207.6,155.1c-2-3.9-4.7-7.2-8.3-9.9c-1-0.8-2.2-1.1-3.5-0.9c-1.3,0.2-2.3,0.8-3.1,1.8s-1.1,2.2-0.9,3.5
		c0.2,1.3,0.8,2.3,1.8,3.1c2.4,1.8,4.3,4,5.6,6.6s2,5.4,2,8.4c0,2.5-0.5,5-1.5,7.3s-2.3,4.3-4,6s-3.7,3-6,4s-4.7,1.5-7.3,1.5
		c-2.5,0-5-0.5-7.3-1.5s-4.3-2.3-6-4s-3-3.7-4-6s-1.5-4.7-1.5-7.3c0-3,0.7-5.7,2-8.4c1.3-2.6,3.2-4.8,5.6-6.6c1-0.8,1.6-1.8,1.8-3.1
		s-0.1-2.4-0.9-3.5c-0.8-1.1-1.8-1.7-3.1-1.8c-1.3-0.2-2.5,0.1-3.5,0.9c-3.6,2.7-6.3,6-8.3,9.9s-3,8.1-3,12.6
		c0,3.8,0.7,7.5,2.2,10.9c1.5,3.5,3.5,6.5,6,9s5.5,4.5,9,6s7.1,2.2,10.9,2.2c3.8,0,7.5-0.7,10.9-2.2c3.5-1.5,6.5-3.5,9-6
		s4.5-5.5,6-9s2.2-7.1,2.2-10.9C210.6,163.2,209.6,159,207.6,155.1L207.6,155.1z"/>
</g>
<g>
	<path class="st0" d="M152.5,180.3c-1.7-4-2.6-8.2-2.6-12.6c0-5.1,1.1-10,3.4-14.5c1.2-2.3,2.6-4.4,4.2-6.4c-0.1,0-0.1-0.1-0.2-0.1
		c-2.7-1.8-5.6-3.4-8.8-4c-20.1-4.4-42.2-8.9-28.1-35.1c1.9-3.5,3.7-6.9,5.6-10.4c4.7-6.4,7.3-14.3,7.3-22.7V59.6
		c0-21.7-17.7-39.5-39.5-39.5h-2.4C69.8,20.1,52,37.9,52,59.6v14.7c0,8.5,2.7,16.3,7.3,22.7c1.9,3.5,3.7,6.9,5.6,10.4
		c14.3,26.2-7.9,30.8-28.1,35.1c-3.1,0.6-6,2.2-8.7,4C14.5,155.8,5,168.7,5,185.2c0,5.9,4.7,10.7,10.7,10.7h150.7
		c-2.6-1.5-4.9-3.2-7-5.2C156.5,187.7,154.2,184.2,152.5,180.3z"/>
</g>
</svg>
