<?xml version="1.0" encoding="utf-8"?>
<!-- Generator: Adobe Illustrator 21.0.0, SVG Export Plug-In . SVG Version: 6.00 Build 0)  -->
<svg version="1.1" id="Capa_1" xmlns="http://www.w3.org/2000/svg" xmlns:xlink="http://www.w3.org/1999/xlink" x="0px" y="0px"
	 viewBox="0 0 20 20" style="enable-background:new 0 0 20 20;" xml:space="preserve">
<style type="text/css">
	.st0{fill:#434A54;}
	.st1{fill-rule:evenodd;clip-rule:evenodd;fill:#434A54;}
	.st2{fill:#4077BA;}
	.st3{fill:#597F2E;}
	.st4{fill:#D73747;}
</style>
<g>
</g>
<g>
</g>
<g>
	<g>
		<g>
			<g>
				<path class="st2" d="M19.3,11.3c-0.5,4.8-4.5,8.5-9.3,8.5c-2.1,0-4.1-0.7-5.7-2L1.3,20l1.1-7.1L9.5,14l-2.8,2
					c1,0.6,2.1,0.9,3.3,0.9c3.4,0,6.2-2.5,6.5-5.9L19.3,11.3z"/>
			</g>
		</g>
	</g>
	<g>
		<g>
			<g>
				<g>
					<path class="st2" d="M17.5,0l-0.3,7.1l-7.1-0.3l2.5-2.3c-0.8-0.4-1.7-0.5-2.6-0.5c-3.5,0-6.3,2.7-6.5,6.2L0.7,10
						C0.9,5,5,1,10,1c1.7,0,3.4,0.5,4.9,1.4L17.5,0z"/>
				</g>
			</g>
		</g>
	</g>
</g>
</svg>
