<?xml version="1.0" encoding="utf-8"?>
<!-- Generator: Adobe Illustrator 17.0.0, SVG Export Plug-In . SVG Version: 6.00 Build 0)  -->
<!DOCTYPE svg PUBLIC "-//W3C//DTD SVG 1.1//EN" "http://www.w3.org/Graphics/SVG/1.1/DTD/svg11.dtd">
<svg version="1.1" id="Capa_1" xmlns="http://www.w3.org/2000/svg" xmlns:xlink="http://www.w3.org/1999/xlink" x="0px" y="0px"
	 width="600px" height="600px" viewBox="0 0 600 600" enable-background="new 0 0 600 600" xml:space="preserve">
<g>
	<path fill="#434A54" d="M492.16,551.218c0,15.731-12.874,28.64-28.816,28.64H49.832c-15.943,0-28.64-12.909-28.64-28.64
		c0-44.158,25.36-78.724,62.359-103.271c7.195-4.903,14.955-9.206,23.314-10.828c53.999-11.674,113.536-23.948,75.267-94.278
		c-5.114-9.417-10.017-18.622-15.131-28.005c-12.486-17.211-19.645-38.268-19.645-60.947V214.42
		c0-58.303,47.685-105.953,105.953-105.953h6.525c58.302,0,105.953,47.65,105.953,105.953v39.467
		c0,22.679-7.16,43.736-19.646,60.947c-5.114,9.383-10.017,18.588-15.096,28.005c-38.092,70.33,21.233,82.604,75.232,94.278
		c8.571,1.622,16.366,5.925,23.526,10.828C466.589,472.494,492.16,507.06,492.16,551.218"/>
	<polygon fill="#434A54" points="580.379,91.356 580.379,149.306 509.026,149.306 509.026,220.659 450.901,220.659 450.901,149.306 
		379.513,149.306 379.513,91.356 450.901,91.356 450.901,19.828 509.026,19.828 509.026,91.356 	"/>
</g>
</svg>
