<?xml version="1.0" encoding="utf-8"?>
<!-- Generator: Adobe Illustrator 24.2.3, SVG Export Plug-In . SVG Version: 6.00 Build 0)  -->
<svg version="1.1" id="Layer_1" xmlns="http://www.w3.org/2000/svg" xmlns:xlink="http://www.w3.org/1999/xlink" x="0px" y="0px"
	 viewBox="0 0 100 100" style="enable-background:new 0 0 100 100;" xml:space="preserve">
<style type="text/css">
	.st0{fill:#FFFFFF;}
	.st1{fill:#EE3124;}
</style>
<g>
	<path class="st0" d="M69.36,32.85h-9.42v-7.41c0-1.32,0.74-8.35-4.65-8.35H11.74c-5.16,0-4.49,6.83-4.49,8.14v58.44
		c0,1.36,0.01-0.4,1.38-0.4h11.79v12c0,1.39,1.88-2.55,3.29-2.55H69.6c1.41,0,3.51,2.51,3.51-0.03V37.91
		C73.11,36.54,70.77,32.85,69.36,32.85 M13.84,23.39h39.51v53.58H13.84V23.39z M66.52,86.42H27.01v-3.15h31.65
		c1.41,0,1.28,1.33,1.28-0.03V39.15h6.58V86.42z"/>
	<rect x="19" y="43.49" class="st0" width="31.39" height="6.74"/>
	<rect x="19" y="57.05" class="st0" width="31.39" height="6.75"/>
</g>
<g>
	<rect x="68.17" y="22.94" class="st0" width="10.22" height="25.96"/>
	<path class="st1" d="M73.11,7.83L49.19,49.25h47.83L73.11,7.83z M73.1,45.13c-1.12,0-2.03-0.91-2.03-2.05
		c0-1.13,0.91-2.04,2.03-2.04c1.12,0,2.04,0.92,2.04,2.04C75.15,44.22,74.23,45.13,73.1,45.13 M71.07,24.84h4.08v14.37h-4.08V24.84z
		"/>
</g>
</svg>
