<?xml version="1.0" encoding="utf-8"?>
<!-- Generator: Adobe Illustrator 17.0.0, SVG Export Plug-In . SVG Version: 6.00 Build 0)  -->
<!DOCTYPE svg PUBLIC "-//W3C//DTD SVG 1.1//EN" "http://www.w3.org/Graphics/SVG/1.1/DTD/svg11.dtd">
<svg version="1.1" id="Capa_1" xmlns="http://www.w3.org/2000/svg" xmlns:xlink="http://www.w3.org/1999/xlink" x="0px" y="0px"
	 width="600px" height="600px" viewBox="-2.36 120.945 600 600" enable-background="new -2.36 120.945 600 600"
	 xml:space="preserve">
<g>
	<g>
		<path fill="#434A54" d="M297.64,200.904c121.558,0,220.014,98.465,220.014,220.031c0,121.468-98.456,220.051-220.014,220.051
			c-121.46,0-220.034-98.583-220.034-220.051C77.606,299.37,176.18,200.904,297.64,200.904 M297.64,704.967
			c156.869,0,284.022-127.14,284.022-284.031c0-156.872-127.152-284.012-284.022-284.012c-156.889,0-284.022,127.14-284.022,284.012
			C13.618,577.826,140.751,704.967,297.64,704.967"/>
		<path fill="#434A54" d="M266.79,552.441c0-17.917,14.525-32.411,32.406-32.411c17.921,0,32.544,14.494,32.544,32.411
			c0,18.015-14.623,32.528-32.544,32.528C281.315,584.97,266.79,570.456,266.79,552.441"/>
	</g>
	<rect x="266.792" y="262.966" fill="#434A54" width="64.95" height="228.011"/>
</g>
</svg>
