<?xml version="1.0" encoding="utf-8"?>
<!-- Generator: Adobe Illustrator 21.1.0, SVG Export Plug-In . SVG Version: 6.00 Build 0)  -->
<svg version="1.1" id="Capa_1" xmlns="http://www.w3.org/2000/svg" xmlns:xlink="http://www.w3.org/1999/xlink" x="0px" y="0px"
	 viewBox="0 0 215 224.9" style="enable-background:new 0 0 215 224.9;" xml:space="preserve">
<style type="text/css">
	.st0{fill:#434A54;}
</style>
<g>
	<path class="st0" d="M172,206.2c0,4.3-3.5,7.8-7.9,7.8h-113c-4.4,0-7.8-3.5-7.8-7.8c0-12.1,6.9-21.5,17-28.2c2-1.3,4.1-2.5,6.4-3
		c14.8-3.2,31-6.5,20.6-25.8c-1.4-2.6-2.7-5.1-4.1-7.7c-3.4-4.7-5.4-10.5-5.4-16.7v-10.8c0-15.9,13-29,29-29h1.8c15.9,0,29,13,29,29
		V125c0,6.2-2,12-5.4,16.7c-1.4,2.6-2.7,5.1-4.1,7.7c-10.4,19.2,5.8,22.6,20.6,25.8c2.3,0.4,4.5,1.6,6.4,3
		C165,184.7,172,194.2,172,206.2z"/>
	<g>
		<path class="st0" d="M203.5,51.1c-5.5-5.5-12.1-8.3-19.8-8.3H99.5v-4c0-7.7-2.8-14.3-8.3-19.8c-5.5-5.5-12.1-8.3-19.8-8.3H31.3
			c-7.7,0-14.3,2.8-19.8,8.3C6,24.6,3.3,31.2,3.3,38.9v120.3c0,7.7,2.8,14.3,8.3,19.8c5.5,5.5,12.1,8.3,19.8,8.3h11.8
			c3.3-5.2,8-9.9,14-13.9c2.9-2,5.6-3.2,8.4-3.8l0.3-0.1c7.5-1.6,16.9-3.7,18.7-7.6c1.2-2.5-0.6-6.7-2.3-9.8
			c-0.7-1.3-1.4-2.6-2.1-3.9c-0.6-1.1-1.2-2.3-1.8-3.4c-4.1-5.7-6.2-12.5-6.2-19.7v-10.8c0-19.1,15.5-34.6,34.6-34.6h1.8
			c19.1,0,34.6,15.5,34.6,34.6V125c0,7.1-2.2,13.9-6.2,19.7c0,0-3.2,5.9-4,7.3c-1.7,3.1-3.4,7.3-2.2,9.8c1.8,4,11.2,6,18.7,7.6
			l0.3,0.1c3.6,0.7,6.6,2.5,8.5,3.8c6,4,10.7,8.7,14,13.9h11.5c7.7,0,14.3-2.8,19.8-8.3c5.5-5.5,8.3-12.1,8.3-19.8V70.9
			C211.7,63.3,209,56.7,203.5,51.1z"/>
	</g>
</g>
</svg>
