<?xml version="1.0" encoding="utf-8"?>
<!-- Generator: Adobe Illustrator 19.2.1, SVG Export Plug-In . SVG Version: 6.00 Build 0)  -->
<svg version="1.1" id="Capa_1" xmlns="http://www.w3.org/2000/svg" xmlns:xlink="http://www.w3.org/1999/xlink" x="0px" y="0px"
	 viewBox="0 0 20 20" style="enable-background:new 0 0 20 20;" xml:space="preserve">
<style type="text/css">
	.st0{fill:#597F2E;}
</style>
<g>
	<g>
		<path class="st0" d="M15.6,18.9c-2.1,0-3.8-1.7-3.8-3.8s1.7-3.8,3.8-3.8s3.8,1.7,3.8,3.8S17.7,18.9,15.6,18.9z M15.6,12.4
			c-1.5,0-2.8,1.2-2.8,2.8s1.2,2.8,2.8,2.8s2.8-1.2,2.8-2.8S17.2,12.4,15.6,12.4z"/>
	</g>
	<g>
		<polygon class="st0" points="15.3,16.6 14,15.5 14.6,14.8 15.3,15.3 16.7,14 17.3,14.7 		"/>
	</g>
</g>
<g>
	<path class="st0" d="M11.4,15.2c0-0.3,0.1-0.7,0.1-1c-0.8-0.5-1.2-1.3-0.4-2.7c0.1-0.3,0.3-0.7,0.5-1c0.4-0.6,0.7-1.4,0.7-2.2V6.9
		c0-2.1-1.7-3.8-3.8-3.8H8.3c-2.1,0-3.8,1.7-3.8,3.8v1.5c0,0.8,0.3,1.5,0.7,2.1c0.1,0.3,0.3,0.7,0.5,1C7.1,14,5,14.5,3,14.9
		c-0.3,0.1-0.5,0.2-0.8,0.4C0.9,16.2,0,17.4,0,19c0,0.5,0.4,1,1,1h14.8c0.4,0,0.8-0.3,0.9-0.7c-0.4,0.1-0.7,0.2-1.1,0.2
		C13.3,19.4,11.4,17.5,11.4,15.2z"/>
</g>
</svg>
