<?xml version="1.0" encoding="utf-8"?>
<!-- Generator: Adobe Illustrator 21.0.0, SVG Export Plug-In . SVG Version: 6.00 Build 0)  -->
<svg version="1.1" id="Capa_1" xmlns="http://www.w3.org/2000/svg" xmlns:xlink="http://www.w3.org/1999/xlink" x="0px" y="0px"
	 viewBox="0 0 20 20" style="enable-background:new 0 0 20 20;" xml:space="preserve">
<style type="text/css">
	.st0{fill:#434A54;}
	.st1{fill-rule:evenodd;clip-rule:evenodd;fill:#434A54;}
	.st2{fill:#4077BA;}
	.st3{fill:#597F2E;}
	.st4{fill:#D73747;}
</style>
<g>
</g>
<g>
</g>
<g>
</g>
<g>
</g>
<g>
</g>
<g>
</g>
<g>
</g>
<g>
	<g>
		<path class="st3" d="M16.8,19c0,0.6-0.5,1-1,1H1c-0.6,0-1-0.5-1-1c0-1.6,0.9-2.8,2.2-3.7c0.3-0.2,0.5-0.3,0.8-0.4
			C5,14.5,7.1,14,5.7,11.5c-0.2-0.3-0.4-0.7-0.5-1C4.8,9.9,4.5,9.2,4.5,8.4V6.9c0-2.1,1.7-3.8,3.8-3.8h0.2c2.1,0,3.8,1.7,3.8,3.8
			v1.4c0,0.8-0.3,1.6-0.7,2.2c-0.2,0.3-0.4,0.7-0.5,1c-1.4,2.5,0.8,3,2.7,3.4c0.3,0.1,0.6,0.2,0.8,0.4C15.9,16.2,16.8,17.4,16.8,19z
			"/>
	</g>
	<g>
		<polygon class="st3" points="20,2.6 20,4.6 17.4,4.6 17.4,7.2 15.3,7.2 15.3,4.6 12.8,4.6 12.8,2.6 15.3,2.6 15.3,0 17.4,0 
			17.4,2.6 		"/>
	</g>
</g>
</svg>
