<?xml version="1.0" encoding="utf-8"?>
<!-- Generator: Adobe Illustrator 21.0.0, SVG Export Plug-In . SVG Version: 6.00 Build 0)  -->
<svg version="1.1" id="Capa_1" xmlns="http://www.w3.org/2000/svg" xmlns:xlink="http://www.w3.org/1999/xlink" x="0px" y="0px"
	 viewBox="0 0 20 20" style="enable-background:new 0 0 20 20;" xml:space="preserve">
<style type="text/css">
	.st0{fill:#434A54;}
	.st1{fill-rule:evenodd;clip-rule:evenodd;fill:#434A54;}
	.st2{fill:#4077BA;}
	.st3{fill:#597F2E;}
	.st4{fill:#D73747;}
</style>
<g>
</g>
<g>
</g>
<g>
</g>
<g>
</g>
<g>
	<g>
		<g>
			<g id="pIPEqc_1_">
				<g>
					<path class="st2" d="M9.9,13.1c-0.3,0-0.6,0-0.9,0c-0.2,0-0.3-0.1-0.3-0.3c0-0.8,0-1.7,0.2-2.5C9,10.1,9.1,9.8,9.3,9.6
						c0.3-0.4,0.7-0.7,1.1-1.1c0.3-0.2,0.6-0.5,0.9-0.7c0.6-0.5,0.5-1.4-0.2-1.9C10,5.4,8.8,5.9,8.4,6.9C8.4,7,8.3,7.2,8.3,7.3
						C8.2,7.6,8.1,7.6,7.9,7.6C7.3,7.5,6.8,7.5,6.2,7.4c-0.1,0-0.2,0-0.2,0C5.8,7.3,5.7,7.2,5.7,7C5.8,5.9,6.4,5,7.4,4.3
						C8,3.9,8.7,3.7,9.5,3.6c0.8-0.1,1.6,0,2.4,0.3c0.9,0.3,1.5,0.8,2,1.6c0.7,1.1,0.6,2.4-0.3,3.4c-0.4,0.5-1,1-1.5,1.4
						c-0.1,0.1-0.3,0.3-0.4,0.4c-0.3,0.2-0.4,0.5-0.4,0.9c0,0.4,0,0.8,0,1.2c0,0.2-0.1,0.3-0.3,0.3C10.5,13.1,10.2,13.1,9.9,13.1
						L9.9,13.1z"/>
					<path class="st2" d="M11.3,15.2c0,0.7-0.6,1.3-1.3,1.3c-0.7,0-1.3-0.6-1.3-1.3c0-0.7,0.6-1.3,1.3-1.3
						C10.7,13.9,11.3,14.4,11.3,15.2z"/>
				</g>
			</g>
			<g>
				<g>
					<path class="st2" d="M10,0C4.5,0,0,4.5,0,10s4.5,10,10,10c5.5,0,10-4.5,10-10S15.5,0,10,0z M10,17.7c-4.3,0-7.7-3.5-7.7-7.7
						c0-4.3,3.5-7.7,7.7-7.7c4.3,0,7.7,3.5,7.7,7.7C17.7,14.3,14.3,17.7,10,17.7z"/>
				</g>
			</g>
		</g>
	</g>
</g>
</svg>
