<?xml version="1.0" encoding="utf-8"?>
<!-- Generator: Adobe Illustrator 21.1.0, SVG Export Plug-In . SVG Version: 6.00 Build 0)  -->
<svg version="1.1" id="Capa_1" xmlns="http://www.w3.org/2000/svg" xmlns:xlink="http://www.w3.org/1999/xlink" x="0px" y="0px"
	 viewBox="0 0 20 20" style="enable-background:new 0 0 20 20;" xml:space="preserve">
<style type="text/css">
	.st0{fill:#0C4497;}
</style>
<g>
	<path class="st0" d="M10,0C4.5,0,0,4.5,0,10s4.5,10,10,10s10-4.5,10-10S15.5,0,10,0z M16.6,15.2l-1.2,1.2c-0.3,0.3-0.8,0.2-1.1-0.1
		l-3-3.8c-0.8,0.5-1.7,0.8-2.7,0.8c-2.8,0-5-2.3-5-5c0-2.8,2.3-5,5-5c2.8,0,5,2.3,5,5c0,0.8-0.2,1.6-0.6,2.3l3.6,3.4
		C17,14.3,17,14.8,16.6,15.2z"/>
	<path class="st0" d="M8.6,4.6c-2,0-3.7,1.6-3.7,3.7c0,2,1.7,3.7,3.7,3.7s3.7-1.6,3.7-3.7C12.3,6.3,10.7,4.6,8.6,4.6z"/>
</g>
</svg>
