<?xml version="1.0" encoding="utf-8"?>
<!-- Generator: Adobe Illustrator 21.0.0, SVG Export Plug-In . SVG Version: 6.00 Build 0)  -->
<svg version="1.1" id="Capa_1" xmlns="http://www.w3.org/2000/svg" xmlns:xlink="http://www.w3.org/1999/xlink" x="0px" y="0px"
	 viewBox="0 0 20 20" style="enable-background:new 0 0 20 20;" xml:space="preserve">
<style type="text/css">
	.st0{fill:#434A54;}
	.st1{fill-rule:evenodd;clip-rule:evenodd;fill:#434A54;}
	.st2{fill:#4077BA;}
	.st3{fill:#597F2E;}
	.st4{fill:#D73747;}
</style>
<g>
</g>
<g>
</g>
<g>
</g>
<g>
	<g>
		<g>
			<path class="st0" d="M14.3,0H2C1.7,0,1.4,0.3,1.4,0.6v15c0,0.3,0.3,0.6,0.6,0.6h7.3c-0.3-0.4-0.5-0.8-0.7-1.2h-6V1.2h11.1v9
				c0.5,0.2,0.9,0.5,1.2,0.8V0.6C14.9,0.3,14.7,0,14.3,0z M14.3,0H2C1.7,0,1.4,0.3,1.4,0.6v15c0,0.3,0.3,0.6,0.6,0.6h7.3
				c-0.3-0.4-0.5-0.8-0.7-1.2h-6V1.2h11.1v9c0.5,0.2,0.9,0.5,1.2,0.8V0.6C14.9,0.3,14.7,0,14.3,0z"/>
		</g>
		<rect x="4.2" y="4.2" class="st0" width="7.9" height="1.7"/>
		<rect x="4.2" y="7.6" class="st0" width="7.9" height="1.7"/>
	</g>
	<g id="XMLID_7_" transform="translate(720 192)">
		<path id="XMLID_11_" class="st0" d="M-703.4-172.2l-2-2.4c0.5-0.3,1-0.8,1.3-1.3l2.4,2c0.3,0.2,0.3,0.6,0,0.8l-0.9,0.9
			C-702.8-171.9-703.1-171.9-703.4-172.2L-703.4-172.2z"/>
		<path class="st0" d="M-705.1-181c-0.3-0.3-0.8-0.6-1.2-0.8c-0.5-0.2-1-0.3-1.5-0.3c-2.1,0-3.8,1.7-3.8,3.8c0,0.4,0.1,0.9,0.2,1.3
			c0.2,0.4,0.4,0.8,0.7,1.2c0.7,0.8,1.7,1.3,2.9,1.3c2.1,0,3.8-1.7,3.8-3.8C-704-179.3-704.4-180.3-705.1-181z M-706.3-175.8
			c-0.4,0.2-0.9,0.4-1.4,0.4c-0.5,0-1-0.1-1.4-0.4c-0.5-0.3-0.9-0.7-1.1-1.2c-0.2-0.4-0.3-0.8-0.3-1.3c0-1.6,1.3-2.8,2.8-2.8
			c0.5,0,1,0.2,1.5,0.4c0.6,0.3,1,0.9,1.2,1.5c0.1,0.3,0.2,0.6,0.2,0.9s-0.1,0.6-0.2,0.9C-705.3-176.7-705.7-176.2-706.3-175.8z"/>
	</g>
</g>
<g>
</g>
</svg>
