<?xml version="1.0" encoding="utf-8"?>
<!-- Generator: Adobe Illustrator 21.0.0, SVG Export Plug-In . SVG Version: 6.00 Build 0)  -->
<svg version="1.1" id="Capa_1" xmlns="http://www.w3.org/2000/svg" xmlns:xlink="http://www.w3.org/1999/xlink" x="0px" y="0px"
	 viewBox="0 0 16.9 20" style="enable-background:new 0 0 16.9 20;" xml:space="preserve">
<style type="text/css">
	.st0{fill:#4077BA;}
</style>
<g>
	<g>
		<path class="st0" d="M16.1,20H0.8C0.3,20,0,19.7,0,19.2V0.8C0,0.3,0.3,0,0.8,0h15.3c0.4,0,0.8,0.3,0.8,0.8v18.5
			C16.9,19.7,16.5,20,16.1,20z M1.4,18.6h14V1.4h-14V18.6z"/>
	</g>
	<g>
		<path class="st0" d="M14.3,5.4c0,0.4-0.3,0.7-0.7,0.7H3.3c-0.4,0-0.7-0.3-0.7-0.7V3.2c0-0.4,0.3-0.7,0.7-0.7h10.2
			c0.4,0,0.7,0.3,0.7,0.7L14.3,5.4L14.3,5.4z"/>
		<path class="st0" d="M13.5,7.7H9.9C9.5,7.7,9.2,8,9.2,8.4v2.9c0,0.4,0.3,0.7,0.7,0.7h3.6c0.4,0,0.7-0.3,0.7-0.7V8.4
			C14.3,8,13.9,7.7,13.5,7.7z M12.7,10.1h-2c-0.2,0-0.3-0.1-0.3-0.3s0.1-0.3,0.3-0.3h2c0.2,0,0.3,0.1,0.3,0.3S12.9,10.1,12.7,10.1z"
			/>
		<path class="st0" d="M13.5,13.2H9.9c-0.4,0-0.7,0.3-0.7,0.7v2.9c0,0.4,0.3,0.7,0.7,0.7h3.6c0.4,0,0.7-0.3,0.7-0.7v-2.9
			C14.3,13.5,13.9,13.2,13.5,13.2z M12.7,16.3h-2c-0.2,0-0.3-0.1-0.3-0.3c0-0.2,0.1-0.3,0.3-0.3h2c0.2,0,0.3,0.1,0.3,0.3
			C13.1,16.2,12.9,16.3,12.7,16.3z M12.7,15h-2c-0.2,0-0.3-0.1-0.3-0.3c0-0.2,0.1-0.3,0.3-0.3h2c0.2,0,0.3,0.1,0.3,0.3
			C13.1,14.9,12.9,15,12.7,15z"/>
		<path class="st0" d="M6.9,7.7H3.3C2.9,7.7,2.6,8,2.6,8.4v2.9c0,0.4,0.3,0.7,0.7,0.7h3.6c0.4,0,0.7-0.3,0.7-0.7V8.4
			C7.7,8,7.3,7.7,6.9,7.7z M6.1,10.1H5.5v0.5c0,0.2-0.2,0.3-0.4,0.3c-0.2,0-0.4-0.1-0.4-0.3v-0.5H4.2C4,10.1,3.8,10,3.8,9.8
			S4,9.5,4.2,9.5h0.6V9c0-0.2,0.2-0.3,0.4-0.3c0.2,0,0.4,0.1,0.4,0.3v0.5h0.6c0.2,0,0.4,0.1,0.4,0.3C6.5,10,6.3,10.1,6.1,10.1z"/>
		<path class="st0" d="M6.9,13.2H3.3c-0.4,0-0.7,0.3-0.7,0.7v2.9c0,0.4,0.3,0.7,0.7,0.7h3.6c0.4,0,0.7-0.3,0.7-0.7v-2.9
			C7.7,13.5,7.3,13.2,6.9,13.2z M6.1,15.7c0.1,0.1,0.1,0.3,0,0.5c-0.1,0.1-0.4,0.1-0.5,0l-0.4-0.4l-0.4,0.4c-0.1,0.1-0.4,0.1-0.5,0
			c-0.1-0.1-0.1-0.3,0-0.5l0.4-0.4L4.2,15c-0.1-0.1-0.1-0.3,0-0.5c0.1-0.1,0.4-0.1,0.5,0l0.4,0.4l0.4-0.4c0.1-0.1,0.4-0.1,0.5,0
			c0.1,0.1,0.1,0.3,0,0.5l-0.4,0.4L6.1,15.7z"/>
	</g>
</g>
</svg>
