<?xml version="1.0" encoding="utf-8"?>
<!-- Generator: Adobe Illustrator 16.0.0, SVG Export Plug-In . SVG Version: 6.00 Build 0)  -->
<!DOCTYPE svg PUBLIC "-//W3C//DTD SVG 1.1//EN" "http://www.w3.org/Graphics/SVG/1.1/DTD/svg11.dtd">
<svg version="1.1" id="Capa_1" xmlns="http://www.w3.org/2000/svg" xmlns:xlink="http://www.w3.org/1999/xlink" x="0px" y="0px"
	 width="283.46px" height="283.46px" viewBox="0 0 283.46 283.46" enable-background="new 0 0 283.46 283.46" xml:space="preserve">
<path fill="#FFFFFF" d="M217.296,124.087V47.539c0.007-1.962-0.107-19.284-13.309-32.7c-6.379-6.475-18.171-14.217-38.069-14.217
	h-48.401c-19.874,0-31.646,7.742-38.054,14.217C66.29,28.255,66.134,45.577,66.174,47.324v76.763H42.778v158.751h197.903V124.087
	H217.296z M98.241,47.343c0.137-6.673,3.639-14.628,19.275-14.628h48.401c15.663,0,19.16,7.955,19.318,14.609v76.763H98.241V47.343z
	 M168.771,253.402h-54.084v-99.881h54.084V253.402z"/>
</svg>
