<?xml version="1.0" encoding="utf-8"?>
<!-- Generator: Adobe Illustrator 24.1.0, SVG Export Plug-In . SVG Version: 6.00 Build 0)  -->
<svg version="1.1" id="Capa_1" xmlns="http://www.w3.org/2000/svg" xmlns:xlink="http://www.w3.org/1999/xlink" x="0px" y="0px"
	 viewBox="0 0 83.92 80.75" style="enable-background:new 0 0 83.92 80.75;" xml:space="preserve">
<style type="text/css">
	.st0{fill:#4178BC;}
</style>
<g>
	<path class="st0" d="M77.27,44.94l6.55-26.07c0.26-1.02,0.03-2.11-0.62-2.94c-0.65-0.83-1.65-1.32-2.7-1.32h-54.4
		c-0.84,0-1.6,0.32-2.2,0.82L19.79,2.4C19.34,0.97,18.02,0,16.52,0H3.43C1.53,0,0,1.53,0,3.43s1.53,3.43,3.43,3.43h10.58l16.37,52
		c0.45,1.43,1.77,2.4,3.27,2.4h40.3c1.89,0,3.43-1.53,3.43-3.43s-1.53-3.43-3.43-3.43H36.16L34,47.54h39.94
		C75.52,47.54,76.89,46.47,77.27,44.94z M74.64,27.27c-0.22-0.05-0.46-0.07-0.7-0.07h-8.16v-5.14c0-0.21-0.03-0.41-0.06-0.6H76.1
		L74.64,27.27z M48.1,27.2v-5.14c0-0.21-0.03-0.41-0.06-0.6h10.95c-0.04,0.2-0.06,0.4-0.06,0.6v5.14H48.1z M58.93,34.05v6.63H48.1
		v-6.63H58.93z M26.09,21.46h15.22c-0.04,0.2-0.06,0.4-0.06,0.6v5.14H28.61c-0.34,0-0.66,0.06-0.96,0.15l-1.87-5.92
		C25.89,21.44,25.99,21.46,26.09,21.46z M29.76,34.05h11.49v6.63h-7.6c-0.61,0-1.17,0.17-1.66,0.45L29.76,34.05z M65.79,40.68v-6.63
		h7.15l-1.66,6.63H65.79z"/>
	
		<ellipse transform="matrix(0.7071 -0.7071 0.7071 0.7071 -39.8969 49.3047)" class="st0" cx="39.57" cy="72.81" rx="7.93" ry="7.93"/>
	<circle class="st0" cx="66.01" cy="72.81" r="7.93"/>
</g>
</svg>
