<?xml version="1.0" encoding="utf-8"?>
<!-- Generator: Adobe Illustrator 17.0.0, SVG Export Plug-In . SVG Version: 6.00 Build 0)  -->
<!DOCTYPE svg PUBLIC "-//W3C//DTD SVG 1.1//EN" "http://www.w3.org/Graphics/SVG/1.1/DTD/svg11.dtd">
<svg version="1.1" id="Capa_1" xmlns="http://www.w3.org/2000/svg" xmlns:xlink="http://www.w3.org/1999/xlink" x="0px" y="0px"
	 width="50px" height="50px" viewBox="-11 -11 50 50" enable-background="new -11 -11 50 50" xml:space="preserve">
<g>
	<g>
		<path fill="#434A54" d="M17.947-5.351v5.07c7.366,1.749,12.909,8.26,13.172,16.087v1.157c-0.292,9.003-7.545,16.247-16.539,16.549
			h-1.166c-8.994-0.3-16.238-7.545-16.53-16.549v-1.157C-2.853,7.971,2.679,1.46,10.056-0.28v-5.07
			C-0.276-3.498-8.104,5.524-8.104,16.39c0,12.211,9.888,22.11,22.099,22.11s22.108-9.897,22.108-22.11
			C36.105,5.524,28.277-3.498,17.947-5.351z"/>
	</g>
	<path fill="#434A54" d="M16.273-10.5V8.78c0,1.177-0.903,2.144-2.041,2.267c-0.076,0.009-0.151,0.009-0.227,0.009
		s-0.16,0-0.235-0.009c-1.149-0.123-2.041-1.091-2.041-2.267V-10.5H16.273z"/>
</g>
</svg>
