<?xml version="1.0" encoding="utf-8"?>
<!-- Generator: Adobe Illustrator 21.0.0, SVG Export Plug-In . SVG Version: 6.00 Build 0)  -->
<svg version="1.1" id="Capa_1" xmlns="http://www.w3.org/2000/svg" xmlns:xlink="http://www.w3.org/1999/xlink" x="0px" y="0px"
	 viewBox="0 0 20 20" style="enable-background:new 0 0 20 20;" xml:space="preserve">
<style type="text/css">
	.st0{fill:#434A54;}
	.st1{fill-rule:evenodd;clip-rule:evenodd;fill:#434A54;}
	.st2{fill:#4077BA;}
	.st3{fill:#597F2E;}
	.st4{fill:#D73747;}
</style>
<g>
	<g id="XMLID_10_">
		<g id="XMLID_13_">
			<g id="XMLID_16_">
				<g>
					<circle class="st0" cx="5.4" cy="9" r="0.7"/>
				</g>
			</g>
			<g id="XMLID_15_">
				<g>
					<circle class="st0" cx="9.2" cy="9" r="0.7"/>
				</g>
			</g>
			<g id="XMLID_14_">
				<g>
					<circle class="st0" cx="12.9" cy="9" r="0.7"/>
				</g>
			</g>
		</g>
		<g id="XMLID_12_">
			<g>
				<path class="st0" d="M20,16.2l-1.1-2.6V7.1c0-1-0.7-1.7-1.7-1.8c-0.1-1.1-1-1.9-2.1-1.9H3.2c-1.2,0-2.1,1-2.1,2.1V12L0,14.6
					C0,14.8,0,15,0.2,15.2c0.1,0.1,0.3,0.2,0.4,0.2c0.1,0,0.2,0,0.2-0.1l2.5-1.1h0.2c0.2,0.7,0.9,1.2,1.7,1.2H17l2.6,1.1
					c0,0,0.1,0,0.1,0c0.1,0,0.1,0,0.2-0.1C20,16.4,20,16.3,20,16.2z M16,12.1c0,0.5-0.4,0.9-0.9,0.9H3.2c-0.1,0-0.2,0-0.2,0.1
					l-1.3,0.5l0.5-1.3c0-0.1,0-0.2,0-0.2V5.5c0-0.5,0.4-0.9,0.9-0.9h11.9C15.6,4.6,16,5,16,5.5V12.1z"/>
			</g>
		</g>
	</g>
</g>
</svg>
