<?xml version="1.0" encoding="utf-8"?>
<!-- Generator: Adobe Illustrator 21.0.0, SVG Export Plug-In . SVG Version: 6.00 Build 0)  -->
<svg version="1.1" id="Capa_1" xmlns="http://www.w3.org/2000/svg" xmlns:xlink="http://www.w3.org/1999/xlink" x="0px" y="0px"
	 viewBox="0 0 20 20" style="enable-background:new 0 0 20 20;" xml:space="preserve">
<style type="text/css">
	.st0{fill:#434A54;}
	.st1{fill-rule:evenodd;clip-rule:evenodd;fill:#434A54;}
	.st2{fill:#4077BA;}
	.st3{fill:#597F2E;}
	.st4{fill:#D73747;}
</style>
<g>
	<path class="st1" d="M20,12.6V7.4h-1.8c-0.2-0.5-0.3-0.9-0.6-1.4l1.2-1.2l-3.7-3.7L14,2.3c-0.4-0.2-0.9-0.4-1.4-0.6V0H7.4v1.8
		C6.9,1.9,6.5,2.1,6,2.3L4.8,1.1L1.1,4.8L2.3,6C2.1,6.5,1.9,6.9,1.8,7.4H0v5.2h1.8c0.2,0.5,0.3,0.9,0.6,1.4l-1.2,1.2l3.7,3.7L6,17.7
		c0.4,0.2,0.9,0.4,1.4,0.6V20h5.2v-1.8c0.5-0.2,0.9-0.3,1.4-0.6l1.2,1.2l3.7-3.7L17.7,14c0.2-0.4,0.4-0.9,0.6-1.4H20z M10,15.7
		c-3.1,0-5.7-2.5-5.7-5.7c0-3.1,2.5-5.7,5.7-5.7c3.1,0,5.7,2.5,5.7,5.7C15.7,13.1,13.1,15.7,10,15.7z"/>
</g>
</svg>
