<?xml version="1.0" encoding="utf-8"?>
<!-- Generator: Adobe Illustrator 24.1.0, SVG Export Plug-In . SVG Version: 6.00 Build 0)  -->
<svg version="1.1" id="Capa_1" xmlns="http://www.w3.org/2000/svg" xmlns:xlink="http://www.w3.org/1999/xlink" x="0px" y="0px"
	 viewBox="0 0 300 300" style="enable-background:new 0 0 300 300;" xml:space="preserve">
<style type="text/css">
	.st0{fill:none;}
	.st1{fill:#484C58;}
</style>
<g>
	<path class="st0" d="M121.1,125.8c-15.4,0.1-28,12.8-28,28.3c0,15.7,12.3,28.1,27.9,28.2c15.6,0.1,28.2-12.2,28.6-27.8
		C149.9,139.2,136.5,125.7,121.1,125.8z"/>
	<path class="st1" d="M188.6,125c-0.4-3-0.4-6.6,0.8-9.3c2-4.7,5-8.9,7.8-13.3c2.2-3.4,1.9-6.4-1-9.2c-4.7-4.7-9.4-9.4-14.1-14.1
		c-2.8-2.8-5.8-3.2-9.2-1c-4.3,2.8-8.6,5.8-13.3,7.8c-2.7,1.2-6.2,1.2-9.3,0.8c-5.6-0.7-7.7-4.5-8.8-10c-1.3-6.6-3.8-12.9-5.8-19.4
		c-9.4,0-18.9,0-28.3,0c-2.2,6.6-4.8,13-6.6,19.7C98,87.1,90,90.6,81.3,85.3c-4-2.4-7.9-5.4-12.2-7.1c-2.4-0.9-6.5-0.6-8.4,1
		c-5.3,4.3-10.2,9.2-14.5,14.5c-1.5,1.9-1.8,6.1-0.9,8.5c2,4.9,5.7,9.1,7.9,13.9c1.1,2.5,1,5.8,0.6,8.6c-0.8,6.3-5.4,8.1-11.1,9.4
		c-20.8,5.1-17.5,1.7-17.7,22.3c-0.1,13.4,0,13.4,13.3,16.7c2.3,0.6,4.6,1.1,6.8,1.7c8.5,2.2,11.9,10.8,7.4,18.5
		c-12.2,21.1-12.8,14.8,3.8,31.8c7.8,8,7.9,8,17.8,2.1c2-1.2,4.3-2.1,6-3.7c5.7-5.5,11.3-2.8,16.8,0c1.2,0.6,2.2,2.5,2.6,4
		c1.5,5.3,2.8,10.8,4.1,16.2c1,4.3,3.4,6.6,8.1,6.5c6.2-0.2,12.4-0.2,18.6,0c4.7,0.1,7.1-2,8-6.5c0.9-4.2,2.5-8.2,3.1-12.4
		c0.7-5.3,3.3-8,8.4-9.9c0.1-0.1,0.3-0.1,0.4-0.1c15.1-29.6,30.3-59.3,45.2-88.3C191.8,131.7,189.2,129.5,188.6,125z M121,182.3
		c-15.7-0.1-27.9-12.4-27.9-28.2c0-15.5,12.6-28.3,28-28.3c15.5-0.1,28.9,13.5,28.5,28.7C149.2,170.1,136.6,182.4,121,182.3z"/>
</g>
<g id="_x33_3HbAo_1_">
	<g>
		<path class="st1" d="M156.6,280.6c-3.2-9.9-6.5-19.8-9.5-29.8c-0.6-2.1-0.8-5,0.2-6.9c21.6-42.4,43.3-84.7,65-127
			c0.3-0.6,0.8-1.2,1-1.4c14.8,7.6,29.5,15.1,44.4,22.8c-0.7,1.5-1.6,3.3-2.5,5.2c-20.6,40.1-41.2,80.2-61.7,120.4
			c-0.9,1.8-1.5,3.8-2.3,5.7C179.7,273.2,168.1,276.9,156.6,280.6z"/>
		<path class="st1" d="M277.6,99.4c-4.5,8.2-9,16.5-13.3,24.3c-14.1-7.2-28.8-14.8-43.9-22.5c3.6-7,7.1-14.6,11.3-21.7
			c2.6-4.5,7.1-5.9,11.8-3.5c10.8,5.4,21.4,11.2,32,16.9C276.2,95.1,276.9,97.2,277.6,99.4z"/>
	</g>
</g>
</svg>
