<?xml version="1.0" encoding="utf-8"?>
<!-- Generator: Adobe Illustrator 21.0.0, SVG Export Plug-In . SVG Version: 6.00 Build 0)  -->
<svg version="1.1" id="Capa_1" xmlns="http://www.w3.org/2000/svg" xmlns:xlink="http://www.w3.org/1999/xlink" x="0px" y="0px"
	 viewBox="0 0 98.3 98.3" style="enable-background:new 0 0 98.3 98.3;" xml:space="preserve">
<style type="text/css">
	.st0{fill:#597F2E;}
</style>
<g>
	<polygon class="st0" points="28.4,33.9 28.4,39 48.7,51.7 69,39 69,33.9 48.7,46.6 	"/>
	<path class="st0" d="M49.2,0C22,0,0,22,0,49.1s22,49.1,49.2,49.1c27.1,0,49.1-22,49.1-49.1S76.3,0,49.2,0z M74,64.4
		c0,2.8-2.3,5.1-5.1,5.1H28.4c-2.8,0-5.1-2.3-5.1-5.1l0-30.4c0-2.8,2.2-5.1,5-5.1H69c2.8,0,5.1,2.3,5.1,5.1V64.4z"/>
</g>
</svg>
