<?xml version="1.0" encoding="utf-8"?>
<!-- Generator: Adobe Illustrator 21.0.0, SVG Export Plug-In . SVG Version: 6.00 Build 0)  -->
<svg version="1.1" id="Capa_1" xmlns="http://www.w3.org/2000/svg" xmlns:xlink="http://www.w3.org/1999/xlink" x="0px" y="0px"
	 viewBox="0 0 20 20" style="enable-background:new 0 0 20 20;" xml:space="preserve">
<style type="text/css">
	.st0{fill:#434A54;}
	.st1{fill-rule:evenodd;clip-rule:evenodd;fill:#434A54;}
	.st2{fill:#4077BA;}
	.st3{fill:#597F2E;}
	.st4{fill:#D73747;}
</style>
<g>
</g>
<g>
</g>
<g>
	<g>
		<path class="st4" d="M10,0C4.5,0,0,4.5,0,10s4.5,10,10,10c5.5,0,10-4.5,10-10S15.5,0,10,0z M2.6,10c0-4.1,3.3-7.4,7.4-7.4
			c1.7,0,3.2,0.5,4.4,1.5L4,14.4C3.1,13.1,2.6,11.6,2.6,10z M10,17.4c-1.5,0-3-0.5-4.1-1.3L16.2,5.9c0.8,1.2,1.2,2.6,1.2,4.1
			C17.4,14.1,14.1,17.4,10,17.4z"/>
	</g>
</g>
</svg>
