<?xml version="1.0" encoding="utf-8"?>
<!-- Generator: Adobe Illustrator 21.0.0, SVG Export Plug-In . SVG Version: 6.00 Build 0)  -->
<svg version="1.1" id="Capa_1" xmlns="http://www.w3.org/2000/svg" xmlns:xlink="http://www.w3.org/1999/xlink" x="0px" y="0px"
	 viewBox="0 0 20.8 25" style="enable-background:new 0 0 20.8 25;" xml:space="preserve">
<style type="text/css">
	.st0{fill:#4077BA;}
</style>
<g>
	<g>
		<g>
			<path class="st0" d="M0,18.1v5.1c0,1,0.8,1.8,1.8,1.8h17.3c1,0,1.8-0.8,1.8-1.8V6.8c0-5.6-6.3-6.8-6.5-6.8H1.8C0.8,0,0,0.8,0,1.8
				v3.7V18.1z M19.1,4.6c-0.4-0.2-0.9-0.3-1.4-0.3H16c0-0.7,0-1.8-0.4-2.7C16.8,2.1,18.4,3,19.1,4.6z M1.2,5.5V1.8
				c0-0.3,0.2-0.5,0.5-0.5h12c0.2,0,0.3,0.1,0.5,0.2c0.6,0.6,0.7,2.5,0.6,3.5l0,0.7h2.9c1.7,0,1.9,1.2,1.9,1.3v16.3
				c0,0.3-0.3,0.5-0.5,0.5H1.8c-0.3,0-0.5-0.2-0.5-0.5v-5.1V5.5z"/>
		</g>
	</g>
	<rect x="4.5" y="9.4" class="st0" width="11.7" height="2.1"/>
	<rect x="4.5" y="14" class="st0" width="11.7" height="2.1"/>
	<rect x="4.5" y="18.6" class="st0" width="11.7" height="2.1"/>
</g>
</svg>
