<?xml version="1.0" encoding="utf-8"?>
<!-- Generator: Adobe Illustrator 21.1.0, SVG Export Plug-In . SVG Version: 6.00 Build 0)  -->
<svg version="1.1" id="Capa_1" xmlns="http://www.w3.org/2000/svg" xmlns:xlink="http://www.w3.org/1999/xlink" x="0px" y="0px"
	 viewBox="0 0 20 20" style="enable-background:new 0 0 20 20;" xml:space="preserve">
<style type="text/css">
	.st0{fill:#D73747;}
</style>
<path class="st0" d="M15.1,1.6H6.7c-0.7,0-1.2,0.5-1.2,1.2v2.5H0.8c-0.1,0-0.1,0-0.1,0H0.6c-0.1,0-0.1,0.1-0.1,0.1c0,0,0,0,0.1,0
	c-0.1,0-0.1,0-0.1,0c0,0.1-0.1,0.1-0.1,0.3v7.8c0,0.1,0.1,0.2,0.1,0.3c0,0,0,0,0.1,0c0.1,0,0.1,0,0.1,0c1.3,0,2.5,0,3.9,0
	c0.2,0,0.3,0.1,0.5,0.1c0.1,0,0.3,0,0.4,0v3.4c0,0.7,0.5,1.2,1.2,1.2h11.6c0.7,0,1.2-0.5,1.2-1.2V6.1C19.4,2.4,15.3,1.6,15.1,1.6z
	 M2.7,10.8c0.2,0.3,0.5,0.4,0.8,0.4c0.3,0,0.5-0.1,0.6-0.3c0.2-0.1,0.3-0.4,0.4-0.7l0.9,0.3c-0.1,0.5-0.3,0.9-0.7,1.2
	c-0.3,0.3-0.7,0.4-1.1,0.4c-0.6,0-1.1-0.2-1.5-0.7C1.7,11,1.6,10.4,1.6,9.6c0-0.8,0.2-1.5,0.5-1.9C2.5,7.2,3,7,3.6,7
	c0.5,0,1,0.2,1.3,0.5C5.1,7.8,5.3,8,5.4,8.4L4.5,8.7C4.5,8.4,4.4,8.2,4.2,8S3.9,7.8,3.6,7.8C3.3,7.8,3,8,2.8,8.2
	C2.6,8.5,2.5,8.9,2.5,9.5S2.5,10.6,2.7,10.8z M18.3,4.7l-2-0.2c0-0.5,0-1.2-0.3-1.8C16.7,3,17.8,3.6,18.3,4.7z M5.6,10.4l0.9-0.1
	c0.1,0.3,0.1,0.6,0.3,0.7c0.1,0.1,0.4,0.2,0.7,0.2c0.3,0,0.5-0.1,0.7-0.2c0.1-0.1,0.2-0.3,0.2-0.5c0-0.1,0-0.2-0.1-0.3
	c-0.1-0.1-0.2-0.1-0.3-0.2C7.8,10,7.6,9.9,7.2,9.8c-0.5-0.1-0.8-0.3-1-0.5c-0.3-0.3-0.4-0.6-0.4-1c0-0.3,0.1-0.5,0.2-0.7
	c0.1-0.3,0.3-0.4,0.5-0.5C6.7,7,7.1,7,7.4,7c0.5,0,0.9,0.1,1.3,0.4C8.9,7.6,9.1,8,9.1,8.4L8.3,8.5C8.2,8.2,8.1,8,8,8
	C7.9,7.8,7.7,7.8,7.5,7.8C7.2,7.8,7,7.8,6.9,8C6.7,8.1,6.6,8.2,6.6,8.3c0,0.1,0.1,0.2,0.1,0.3C6.9,8.8,7.1,8.8,7.5,9
	s0.7,0.3,0.9,0.3c0.2,0.1,0.4,0.3,0.5,0.5c0.1,0.3,0.2,0.5,0.2,0.8c0,0.3-0.1,0.5-0.2,0.8c-0.1,0.3-0.3,0.5-0.6,0.5
	c-0.3,0.1-0.6,0.2-0.9,0.2c-0.5,0-1-0.1-1.3-0.5C5.9,11.4,5.7,11,5.6,10.4z M18.3,17.4H6.7c-0.2,0-0.3-0.1-0.3-0.3v-3.4
	c1.1,0,2.2,0,3.3,0h4c0.1,0,0.1,0,0.2,0c0.1,0,0.1,0,0.1,0s0.1,0,0.1-0.1c0,0,0,0,0,0c0,0,0,0-0.1,0c0,0,0,0,0.1,0c0,0,0,0,0,0
	c0-0.1,0-0.1,0-0.2V5.7c0-0.2,0-0.3-0.1-0.3h-0.1c-0.1,0-0.1,0-0.2,0H6.4V2.8c0-0.2,0.1-0.3,0.3-0.3h8c0.1,0,0.2,0.1,0.3,0.1
	C15.4,3,15.5,4.3,15.4,5l-0.1,0.5h1.9c1.1,0,1.3,0.7,1.3,0.9c0,0,0,0.4,0,1v9.8h0.1C18.6,17.3,18.5,17.4,18.3,17.4z M9.1,7.1h0.9
	l1.1,3.7l1.1-3.7h0.9l-1.6,5h-0.9V12L9.1,7.1z"/>
</svg>
