<?xml version="1.0" encoding="utf-8"?>
<!-- Generator: Adobe Illustrator 21.0.0, SVG Export Plug-In . SVG Version: 6.00 Build 0)  -->
<svg version="1.1" id="Capa_1" xmlns="http://www.w3.org/2000/svg" xmlns:xlink="http://www.w3.org/1999/xlink" x="0px" y="0px"
	 viewBox="0 0 20 20" style="enable-background:new 0 0 20 20;" xml:space="preserve">
<style type="text/css">
	.st0{fill:#434A54;}
	.st1{fill-rule:evenodd;clip-rule:evenodd;fill:#434A54;}
	.st2{fill:#4077BA;}
	.st3{fill:#597F2E;}
	.st4{fill:#D73747;}
</style>
<g>
</g>
<g>
</g>
<g>
	<g>
		<g>
			<g>
				<path class="st3" d="M7.8,8.3C7.6,8.1,7.4,8.1,7.1,8.1H6.2v1.8h0.9c0.3,0,0.5-0.1,0.7-0.2C7.9,9.4,8,9.2,8,9
					C8,8.7,7.9,8.5,7.8,8.3z M7.8,9.6C7.9,9.4,8,9.2,8,9c0-0.3-0.1-0.5-0.2-0.6C7.6,8.1,7.4,8.1,7.1,8.1H6.2v1.8h0.9
					C7.4,9.8,7.6,9.8,7.8,9.6z M15.5,1.2H6.6c-0.7,0-1.2,0.6-1.2,1.2v2.6h-5C0.1,5.1,0,5.2,0,5.4v8.2c0,0.3,0,0.3,0.3,0.3h4.1
					c0.2,0,0.4,0,0.6,0c0.1,0,0.3,0,0.4,0v3.6c0,0.7,0.6,1.2,1.2,1.2h12.2c0.7,0,1.2-0.6,1.2-1.2V6C20,2.1,15.6,1.2,15.5,1.2z
					 M4.2,11c0,0.5-0.2,1-0.5,1.3c-0.3,0.3-0.7,0.5-1.2,0.5c-0.5,0-1-0.1-1.3-0.4C1,12,0.8,11.6,0.8,11.1l0,0h1
					c0,0.3,0.1,0.5,0.2,0.6c0.1,0.1,0.3,0.2,0.5,0.2c0.2,0,0.3-0.1,0.5-0.3c0.1-0.2,0.2-0.4,0.2-0.7V7.2h1V11z M18.8,4.5
					c-0.3-0.1-0.6-0.2-1-0.2h-1.2c0-0.5,0-1.3-0.3-1.9C17.2,2.7,18.3,3.3,18.8,4.5z M6.2,12.6h-1V7.2h2c0.6,0,1.1,0.2,1.4,0.5
					C8.9,8,9,8.4,9,9c0,0.5-0.2,0.9-0.5,1.3c-0.3,0.3-0.8,0.5-1.4,0.5H6.2V12.6z M19.1,17.6c0,0.2-0.2,0.4-0.4,0.4H6.6
					c-0.2,0-0.4-0.2-0.4-0.4v-3.6h7.7c0.1,0,0.1,0,0.2,0c0.2,0,0.3-0.1,0.3-0.3V5.5c0-0.3,0-0.4-0.4-0.4H6.2V2.4
					c0-0.2,0.2-0.4,0.4-0.4H15c0.1,0,0.2,0,0.3,0.1c0.4,0.4,0.5,1.7,0.4,2.5l0,0.5h2.1c1.2,0,1.3,0.8,1.3,0.9V17.6z M11,11.5
					c0.2,0.3,0.5,0.4,0.8,0.4c0.2,0,0.4,0,0.6-0.1c0.1,0,0.3-0.1,0.3-0.2v-1h-1V9.8h2v2.1c-0.2,0.2-0.4,0.4-0.7,0.6
					c-0.3,0.2-0.7,0.2-1.2,0.2c-0.6,0-1.1-0.2-1.5-0.6c-0.4-0.4-0.6-0.9-0.6-1.6V9.4c0-0.7,0.2-1.2,0.6-1.6c0.4-0.4,0.9-0.6,1.5-0.6
					c0.6,0,1.1,0.2,1.4,0.5c0.3,0.3,0.5,0.7,0.5,1.3l0,0h-1c0-0.3-0.1-0.5-0.2-0.7C12.2,8.1,12,8,11.7,8c-0.3,0-0.6,0.1-0.8,0.4
					c-0.2,0.3-0.3,0.6-0.3,1v1.1C10.7,10.9,10.8,11.2,11,11.5z M7.8,8.3C7.6,8.1,7.4,8.1,7.1,8.1H6.2v1.8h0.9c0.3,0,0.5-0.1,0.7-0.2
					C7.9,9.4,8,9.2,8,9C8,8.7,7.9,8.5,7.8,8.3z"/>
			</g>
		</g>
	</g>
</g>
<g>
</g>
<g>
</g>
</svg>
