<?xml version="1.0" encoding="utf-8"?>
<!-- Generator: Adobe Illustrator 17.0.0, SVG Export Plug-In . SVG Version: 6.00 Build 0)  -->
<!DOCTYPE svg PUBLIC "-//W3C//DTD SVG 1.1//EN" "http://www.w3.org/Graphics/SVG/1.1/DTD/svg11.dtd">
<svg version="1.1" id="Capa_1" xmlns="http://www.w3.org/2000/svg" xmlns:xlink="http://www.w3.org/1999/xlink" x="0px" y="0px"
	 width="300px" height="300px" viewBox="0 0 300 300" enable-background="new 0 0 300 300" xml:space="preserve">
<g enable-background="new    ">
	<path fill="#484C58" d="M132.771,197.474h10.658v37.906c0,5.468-1.468,9.82-4.403,13.058s-6.708,4.856-11.319,4.856
		c-5.19,0-9.285-1.437-12.283-4.309c-2.999-2.872-4.447-7.067-4.346-12.585l0.113-0.227h10.318c0,2.998,0.573,5.215,1.719,6.651
		s2.639,2.154,4.479,2.154c1.486,0,2.702-0.856,3.647-2.57c0.945-1.713,1.417-4.056,1.417-7.029L132.771,197.474L132.771,197.474z"
		/>
	<path fill="#484C58" d="M176.081,238.214c0-2.191-0.561-3.924-1.682-5.196c-1.121-1.271-3.131-2.513-6.028-3.723
		c-5.644-1.99-9.889-4.245-12.736-6.765c-2.847-2.52-4.271-6.047-4.271-10.582c0-4.51,1.625-8.183,4.876-11.017
		c3.25-2.835,7.394-4.252,12.434-4.252c5.341,0,9.637,1.512,12.888,4.535c3.25,3.023,4.824,7.08,4.724,12.17l-0.075,0.227h-10.355
		c0-2.848-0.637-5.008-1.909-6.481c-1.272-1.475-3.093-2.211-5.461-2.211c-2.04,0-3.628,0.674-4.762,2.021
		c-1.134,1.349-1.7,3.03-1.7,5.046c0,1.864,0.643,3.401,1.927,4.61c1.285,1.209,3.489,2.532,6.614,3.968
		c5.315,1.765,9.341,3.994,12.074,6.689c2.734,2.696,4.101,6.325,4.101,10.885c0,4.712-1.6,8.415-4.799,11.111
		c-3.2,2.696-7.445,4.044-12.736,4.044c-5.216,0-9.676-1.455-13.379-4.365c-3.704-2.91-5.493-7.338-5.367-13.284l0.076-0.227h10.393
		c0,3.452,0.699,5.934,2.098,7.445s3.458,2.268,6.18,2.268c2.292,0,4.012-0.63,5.158-1.891
		C175.508,241.981,176.081,240.306,176.081,238.214z"/>
	<path fill="#484C58" d="M232.694,232.696c0,6.476-1.827,11.527-5.479,15.155c-3.653,3.628-8.517,5.442-14.588,5.442
		c-6.072,0-10.923-1.814-14.551-5.442s-5.442-8.68-5.442-15.155v-15.344c0-6.449,1.808-11.508,5.424-15.174
		c3.615-3.666,8.459-5.499,14.531-5.499c6.071,0,10.941,1.833,14.606,5.499c3.666,3.666,5.499,8.725,5.499,15.174V232.696z
		 M222.075,217.239c0-4.006-0.813-7.029-2.438-9.07c-1.625-2.041-3.975-3.062-7.048-3.062c-3.1,0-5.43,1.015-6.992,3.043
		s-2.343,5.058-2.343,9.089v15.457c0,4.082,0.787,7.144,2.362,9.184c1.574,2.041,3.911,3.062,7.011,3.062
		c3.099,0,5.447-1.021,7.048-3.062c1.6-2.04,2.4-5.102,2.4-9.184L222.075,217.239L222.075,217.239z"/>
	<path fill="#484C58" d="M279.143,252.5h-10.658l-17.46-35.109l-0.227,0.037V252.5H240.14v-55.026h10.658l17.46,35.147l0.227-0.038
		v-35.109h10.658L279.143,252.5L279.143,252.5z"/>
</g>
<g>
	<path fill="#484C58" d="M103.019,259.5v-69h141.743V74.797l-45.271-45.271H50.276v259.35h194.487V259.5H103.019z M179.952,45.714
		l48.634,48.625h-48.634V45.714z M85.162,117.808h129.675v16.188H85.162V117.808z M85.162,166.402v-16.188h129.675v16.188"/>
</g>
</svg>
