<?xml version="1.0" encoding="utf-8"?>
<!-- Generator: Adobe Illustrator 21.0.0, SVG Export Plug-In . SVG Version: 6.00 Build 0)  -->
<svg version="1.1" id="Capa_1" xmlns="http://www.w3.org/2000/svg" xmlns:xlink="http://www.w3.org/1999/xlink" x="0px" y="0px"
	 viewBox="0 0 20 20" style="enable-background:new 0 0 20 20;" xml:space="preserve">
<style type="text/css">
	.st0{fill:#434A54;}
	.st1{fill-rule:evenodd;clip-rule:evenodd;fill:#434A54;}
	.st2{fill:#4077BA;}
	.st3{fill:#597F2E;}
	.st4{fill:#D73747;}
</style>
<g>
</g>
<g>
</g>
<g>
	<g>
		<g>
			<g>
				<path class="st4" d="M15.5,1.2H6.6c-0.7,0-1.2,0.6-1.2,1.2v2.6h-5c0,0-0.1,0-0.1,0c0,0,0,0-0.1,0C0.1,5.1,0,5.2,0,5.4v8.2
					c0,0.2,0,0.3,0.1,0.3c0,0,0,0,0,0c0,0,0.1,0,0.2,0c1.3,0,2.7,0,4.1,0c0.2,0,0.4,0,0.6,0c0.1,0,0.3,0,0.4,0v3.6
					c0,0.7,0.6,1.2,1.2,1.2h12.1c0.7,0,1.2-0.6,1.2-1.2V5.9C20,2.1,15.6,1.2,15.5,1.2z M18.8,4.5c-0.3-0.1-0.6-0.2-1-0.2h-1.1
					c0-0.5,0-1.2-0.3-1.9C17.2,2.7,18.3,3.3,18.8,4.5z M19.1,17.5c0,0.2-0.2,0.4-0.4,0.4H6.6c-0.2,0-0.4-0.2-0.4-0.4V14
					c1.1,0,2.3,0,3.4,0h4.2c0.1,0,0.1,0,0.2,0c0.1,0,0.1,0,0.1,0c0.1,0,0.2-0.1,0.2-0.3V5.5c0-0.2,0-0.3-0.1-0.4c0,0,0,0-0.1,0
					c0,0-0.1,0-0.2,0H6.2V2.5c0-0.2,0.2-0.4,0.4-0.4H15c0.1,0,0.2,0,0.3,0.1c0.4,0.4,0.5,1.7,0.4,2.5l0,0.5h2.1
					c1.1,0,1.3,0.7,1.3,0.9V17.5z M3.1,11.4h2.5v0.8H1.8v-0.6l2.4-4H1.8V6.8h3.7v0.5L3.1,11.4z M7.5,12.2H6.4V6.8h1.1V12.2z
					 M9.7,10.3v2H8.6V6.8h2.1c0.6,0,1.1,0.2,1.5,0.5c0.4,0.3,0.5,0.7,0.5,1.3c0,0.5-0.2,0.9-0.5,1.3c-0.4,0.3-0.8,0.5-1.5,0.5H9.7z
					 M9.7,9.4h1c0.3,0,0.5-0.1,0.7-0.2c0.2-0.2,0.2-0.4,0.2-0.6c0-0.3-0.1-0.5-0.2-0.6c-0.2-0.2-0.4-0.3-0.7-0.3h-1V9.4z"/>
			</g>
			<g>
				<g>
					<path class="st4" d="M0,13.6V5.4c0-0.2,0-0.3,0.2-0.3C0,5.1,0,5.2,0,5.4L0,13.6c0,0.2,0,0.3,0.1,0.3C0,13.9,0,13.8,0,13.6z"/>
				</g>
				<g>
					<path class="st4" d="M14.3,5.1c0.1,0,0.1,0.1,0.1,0.4v8.2c0,0.2,0,0.3-0.2,0.3c0.1,0,0.2-0.1,0.2-0.3V5.5
						C14.5,5.2,14.4,5.1,14.3,5.1z"/>
				</g>
			</g>
		</g>
	</g>
</g>
<g>
</g>
<g>
</g>
</svg>
