<?xml version="1.0" encoding="utf-8"?>
<!-- Generator: Adobe Illustrator 21.0.0, SVG Export Plug-In . SVG Version: 6.00 Build 0)  -->
<svg version="1.1" id="Capa_1" xmlns="http://www.w3.org/2000/svg" xmlns:xlink="http://www.w3.org/1999/xlink" x="0px" y="0px"
	 viewBox="0 0 20 20" style="enable-background:new 0 0 20 20;" xml:space="preserve">
<style type="text/css">
	.st0{fill:#434A54;}
	.st1{fill-rule:evenodd;clip-rule:evenodd;fill:#434A54;}
	.st2{fill:#4077BA;}
	.st3{fill:#597F2E;}
	.st4{fill:#D73747;}
</style>
<g>
</g>
<g>
</g>
<g>
</g>
<g>
</g>
<g>
	<g>
		<g>
			<g>
				<path class="st0" d="M15.5,1.2H6.6c-0.7,0-1.2,0.6-1.2,1.2v2.6h-5C0.1,5.1,0,5.2,0,5.4v8.2c0,0.3,0,0.3,0.3,0.3h4.1
					c0.2,0,0.4,0,0.6,0c0.1,0,0.3,0,0.4,0v3.6c0,0.7,0.6,1.2,1.2,1.2h12.2c0.7,0,1.2-0.6,1.2-1.2V6C20,2.1,15.6,1.2,15.5,1.2z
					 M18.8,4.5c-0.3-0.1-0.6-0.2-1-0.2h-1.1c0-0.5,0-1.3-0.3-1.9C17.2,2.7,18.3,3.3,18.8,4.5z M19.1,17.5c0,0.2-0.2,0.4-0.4,0.4H6.6
					c-0.2,0-0.4-0.2-0.4-0.4v-3.6h7.7c0.1,0,0.1,0,0.2,0c0.2,0,0.3-0.1,0.3-0.3V5.5c0-0.3,0-0.4-0.4-0.4H6.2V2.5
					c0-0.2,0.2-0.4,0.4-0.4H15c0.1,0,0.2,0,0.3,0.1c0.4,0.5,0.5,1.7,0.4,2.5l0,0.5h2.1c1.2,0,1.3,0.8,1.3,0.9V17.5z M5,7.9H3.6v4.4
					h-1V7.9H1.2V7.1H5V7.9z M7.3,9l0.9-1.9h1.2L7.9,9.7l1.5,2.6H8.3l-1-1.9l-1,1.9H5.2l1.5-2.6L5.2,7.1h1.1L7.3,9z M13.4,7.9H12v4.4
					h-1V7.9H9.6V7.1h3.8V7.9z"/>
			</g>
		</g>
	</g>
</g>
<g>
</g>
</svg>
