<?xml version="1.0" encoding="utf-8"?>
<!-- Generator: Adobe Illustrator 17.0.0, SVG Export Plug-In . SVG Version: 6.00 Build 0)  -->
<!DOCTYPE svg PUBLIC "-//W3C//DTD SVG 1.1//EN" "http://www.w3.org/Graphics/SVG/1.1/DTD/svg11.dtd">
<svg version="1.1" id="Capa_1" xmlns="http://www.w3.org/2000/svg" xmlns:xlink="http://www.w3.org/1999/xlink" x="0px" y="0px"
	 width="300px" height="300px" viewBox="0 0 300 300" enable-background="new 0 0 300 300" xml:space="preserve">
<g>
	<g enable-background="new    ">
		<path fill="#484C58" d="M93.897,189.276h9.592v34.115c0,4.921-1.321,8.838-3.963,11.752s-6.037,4.37-10.187,4.37
			c-4.672,0-8.356-1.292-11.055-3.877c-2.699-2.585-4.003-6.36-3.912-11.327l0.103-0.204h9.286c0,2.699,0.515,4.694,1.547,5.987
			c1.032,1.292,2.375,1.938,4.031,1.938c1.337,0,2.432-0.771,3.282-2.313c0.851-1.541,1.275-3.65,1.275-6.326V189.276z"/>
		<path fill="#484C58" d="M132.877,225.942c0-1.973-0.505-3.531-1.514-4.677c-1.009-1.145-2.817-2.262-5.425-3.351
			c-5.08-1.791-8.9-3.82-11.463-6.088s-3.844-5.442-3.844-9.524c0-4.059,1.463-7.363,4.388-9.915
			c2.926-2.551,6.655-3.826,11.19-3.826c4.808,0,8.674,1.36,11.599,4.082c2.926,2.721,4.343,6.372,4.252,10.952l-0.067,0.204h-9.32
			c0-2.563-0.573-4.507-1.718-5.833c-1.146-1.327-2.783-1.99-4.915-1.99c-1.837,0-3.265,0.607-4.285,1.819
			c-1.021,1.214-1.531,2.728-1.531,4.541c0,1.679,0.578,3.062,1.735,4.15c1.156,1.088,3.14,2.278,5.952,3.571
			c4.784,1.587,8.406,3.594,10.867,6.021c2.46,2.426,3.69,5.691,3.69,9.796c0,4.24-1.44,7.573-4.319,10
			c-2.88,2.427-6.701,3.639-11.463,3.639c-4.694,0-8.707-1.31-12.041-3.928c-3.333-2.619-4.943-6.604-4.83-11.956l0.068-0.204h9.354
			c0,3.106,0.63,5.34,1.888,6.7c1.259,1.361,3.112,2.041,5.562,2.041c2.063,0,3.61-0.566,4.643-1.7S132.877,227.824,132.877,225.942
			z"/>
		<path fill="#484C58" d="M183.83,220.976c0,5.828-1.645,10.374-4.933,13.64s-7.664,4.897-13.129,4.897s-9.83-1.632-13.096-4.897
			c-3.265-3.266-4.897-7.812-4.897-13.64v-13.81c0-5.805,1.627-10.357,4.881-13.656c3.254-3.3,7.613-4.949,13.078-4.949
			s9.847,1.649,13.146,4.949c3.299,3.299,4.949,7.852,4.949,13.656V220.976z M174.271,207.065c0-3.605-0.73-6.327-2.193-8.164
			c-1.463-1.836-3.577-2.755-6.344-2.755c-2.789,0-4.887,0.913-6.293,2.738s-2.108,4.553-2.108,8.181v13.911
			c0,3.674,0.708,6.429,2.126,8.266c1.417,1.837,3.521,2.755,6.31,2.755s4.903-0.918,6.344-2.755
			c1.439-1.837,2.159-4.592,2.159-8.266V207.065z"/>
		<path fill="#484C58" d="M225.632,238.799h-9.592L200.326,207.2l-0.204,0.034v31.564h-9.592v-49.523h9.592l15.714,31.632
			l0.204-0.033v-31.599h9.592V238.799z"/>
	</g>
	<g>
		<polygon fill="#484C58" points="247.243,181.299 247.243,65.596 201.973,20.325 52.757,20.325 52.757,279.675 247.243,279.675 
			247.243,250.299 231.068,250.299 231.068,263.447 231.066,263.447 68.985,263.447 68.985,36.513 182.433,36.513 182.433,85.138 
			231.068,85.138 231.068,181.299 		"/>
		<rect x="85.162" y="108.607" fill="#484C58" width="129.675" height="16.188"/>
		<rect x="85.162" y="141.013" fill="#484C58" width="129.675" height="16.188"/>
	</g>
</g>
</svg>
