<?xml version="1.0" encoding="utf-8"?>
<!-- Generator: Adobe Illustrator 21.0.0, SVG Export Plug-In . SVG Version: 6.00 Build 0)  -->
<svg version="1.1" id="Capa_1" xmlns="http://www.w3.org/2000/svg" xmlns:xlink="http://www.w3.org/1999/xlink" x="0px" y="0px"
	 viewBox="0 0 20 20" style="enable-background:new 0 0 20 20;" xml:space="preserve">
<style type="text/css">
	.st0{fill:#434A54;}
	.st1{fill-rule:evenodd;clip-rule:evenodd;fill:#434A54;}
	.st2{fill:#4077BA;}
	.st3{fill:#597F2E;}
	.st4{fill:#D73747;}
</style>
<g>
</g>
<g>
</g>
<g>
</g>
<g>
</g>
<g>
</g>
<g>
</g>
<g>
</g>
<g>
	<g>
		<g>
			<g>
				<path class="st3" d="M15.5,1.2H6.7C6,1.2,5.4,1.8,5.4,2.5v2.6h-5c0,0-0.1,0-0.1,0c0,0,0,0-0.1,0c-0.1,0-0.2,0.1-0.2,0.3v8.2
					c0,0.2,0,0.3,0.1,0.3c0,0,0,0,0,0c0,0,0.1,0,0.2,0c1.3,0,2.7,0,4.1,0c0.2,0,0.4,0,0.6,0c0.1,0,0.3,0,0.4,0v3.6
					c0,0.7,0.6,1.2,1.2,1.2h12.1c0.7,0,1.2-0.6,1.2-1.2V5.9C20,2.1,15.6,1.2,15.5,1.2z M4.3,12.2c0,0-0.1-0.1-0.1-0.1
					c-0.3-0.5-0.6-1-0.9-1.6c0-0.1-0.1-0.1-0.1-0.2c-0.3,0.5-0.6,1-0.8,1.5c-0.2,0.3-0.3,0.5-0.7,0.4c-0.2,0-0.3,0-0.5,0
					c0.1-0.1,0.1-0.2,0.1-0.2c0.5-0.8,0.9-1.6,1.4-2.5c0.1-0.1,0.1-0.2,0-0.3C2.3,8.6,1.9,8,1.6,7.3c0-0.1-0.1-0.1-0.1-0.2
					C1.5,7.1,1.6,7,1.6,6.9c0.2,0,0.4,0,0.6,0C2.3,6.9,2.4,7,2.4,7c0.2,0.5,0.5,0.9,0.8,1.4c0,0.1,0.1,0.1,0.1,0.2
					C3.5,8,3.8,7.5,4.1,7c0.1-0.1,0.2-0.2,0.3-0.2c0.2,0,0.5,0,0.8,0C5.2,7,5.1,7,5.1,7.1C4.7,7.8,4.3,8.6,3.8,9.3
					c-0.1,0.1-0.1,0.2,0,0.3c0.5,0.8,0.9,1.6,1.3,2.4c0,0.1,0.1,0.1,0.1,0.2C5,12.2,4.6,12.2,4.3,12.2z M18.8,4.5
					c-0.3-0.1-0.6-0.2-1-0.2h-1.1c0-0.5,0-1.2-0.3-1.9C17.2,2.7,18.3,3.3,18.8,4.5z M5.7,12.2c-0.1,0-0.2,0-0.2-0.2V7.4
					c0-0.1-0.1-0.3,0.1-0.4c0,0,0-0.1,0-0.1c0.2,0,0.4,0,0.5,0c0.1,0,0.2,0,0.3,0C6.7,6.9,6.7,7,6.8,7C7,7.9,7.3,8.8,7.6,9.7
					c0,0,0,0.1,0.1,0.2C8,8.9,8.3,8,8.5,7c0-0.1,0.1-0.2,0.2-0.2c0.3,0,0.6,0,0.9,0v5.4c-0.3,0-0.5,0-0.8,0c0,0-0.1-0.1-0.1-0.2
					c0-1,0-1.9,0-2.9V8.9h0C8.8,9.1,8.7,9.2,8.6,9.4c-0.2,0.6-0.4,1.1-0.5,1.7c0,0.1-0.1,0.2-0.2,0.2c-0.1,0-0.3,0-0.4,0
					c-0.1,0-0.2,0-0.3-0.2C7,10.4,6.7,9.7,6.5,9c0,0,0,0,0-0.1c0,0.1,0,0.1,0,0.2c0,1,0,2,0,2.9c0,0.2,0,0.2-0.2,0.2c0,0,0,0-0.1,0
					C6.1,12.2,5.9,12.2,5.7,12.2z M19.2,17.5c0,0.2-0.2,0.4-0.4,0.4H6.7c-0.2,0-0.4-0.2-0.4-0.4V14c1.1,0,2.3,0,3.4,0H14
					c0.1,0,0.1,0,0.2,0c0.1,0,0.1,0,0.1,0c0.1,0,0.2-0.1,0.2-0.3V5.5c0-0.2,0-0.3-0.1-0.4c0,0,0,0-0.1,0c0,0-0.1,0-0.2,0H6.3V2.5
					c0-0.2,0.2-0.4,0.4-0.4h8.4c0.1,0,0.2,0,0.3,0.1c0.4,0.4,0.5,1.7,0.4,2.5l0,0.5h2.1c1.1,0,1.3,0.7,1.3,0.9V17.5z M11.7,11.3
					c0.5,0,1.1,0,1.6,0c0.1,0,0.2,0,0.2,0.2c0,0.2,0,0.4,0,0.6c0,0.1,0,0.2-0.2,0.2h-2.6c-0.1,0-0.1,0-0.1-0.2V7.2
					c0,0,0-0.1,0.1-0.1c0-0.1,0.1-0.1,0.2-0.2h0.7v0.2c0,1.3,0,2.6,0,3.9C11.4,11.2,11.5,11.3,11.7,11.3z"/>
			</g>
			<g>
				<g>
					<path class="st3" d="M0.1,13.6V5.4c0-0.2,0-0.3,0.2-0.3C0.1,5.1,0,5.2,0,5.4L0.1,13.6c0,0.2,0,0.3,0.1,0.3
						C0.1,13.9,0.1,13.8,0.1,13.6z"/>
				</g>
				<g>
					<path class="st3" d="M14.4,5.1c0.1,0,0.1,0.1,0.1,0.4v8.2c0,0.2,0,0.3-0.2,0.3c0.1,0,0.2-0.1,0.2-0.3V5.5
						C14.5,5.2,14.5,5.1,14.4,5.1z"/>
				</g>
			</g>
		</g>
	</g>
</g>
</svg>
