<?xml version="1.0" encoding="utf-8"?>
<!-- Generator: Adobe Illustrator 21.0.0, SVG Export Plug-In . SVG Version: 6.00 Build 0)  -->
<svg version="1.1" id="Capa_1" xmlns="http://www.w3.org/2000/svg" xmlns:xlink="http://www.w3.org/1999/xlink" x="0px" y="0px"
	 viewBox="0 0 20 20" style="enable-background:new 0 0 20 20;" xml:space="preserve">
<style type="text/css">
	.st0{fill:#434A54;}
	.st1{fill-rule:evenodd;clip-rule:evenodd;fill:#434A54;}
	.st2{fill:#4077BA;}
	.st3{fill:#597F2E;}
	.st4{fill:#D73747;}
</style>
<g>
</g>
<g>
</g>
<g>
</g>
<g>
</g>
<g>
</g>
<g>
</g>
<g>
	<g>
		<g>
			<g>
				<path class="st3" d="M15.5,1.2H6.6c-0.7,0-1.2,0.6-1.2,1.2v2.6h-5C0.1,5.1,0,5.2,0,5.4v8.2c0,0.3,0,0.3,0.3,0.3h4.1
					c0.2,0,0.4,0,0.6,0c0.1,0,0.3,0,0.4,0v3.6c0,0.7,0.6,1.2,1.2,1.2h12.2c0.7,0,1.2-0.6,1.2-1.2V6C20,2.1,15.6,1.2,15.5,1.2z
					 M18.8,4.5c-0.3-0.1-0.6-0.2-1-0.2h-1.1c0-0.5,0-1.3-0.3-1.9C17.2,2.7,18.3,3.3,18.8,4.5z M4.1,12.6l-1-1.9l-1,1.9H0.9L2.5,10
					L0.9,7.4h1.2l1,1.9l1-1.9h1.2L3.8,10l1.7,2.6H4.1z M5.6,12.6V7.4h1.1v4.5H9v0.8H5.6z M19.1,17.5c0,0.2-0.2,0.4-0.4,0.4H6.6
					c-0.2,0-0.4-0.2-0.4-0.4v-3.6h7.7c0.1,0,0.1,0,0.2,0c0.2,0,0.3-0.1,0.3-0.3V5.5c0-0.3,0-0.4-0.4-0.4H6.2V2.5
					c0-0.2,0.2-0.4,0.4-0.4H15c0.1,0,0.2,0,0.3,0.1c0.4,0.5,0.5,1.7,0.4,2.5l0,0.5h2.1c1.2,0,1.3,0.8,1.3,0.9V17.5z M11.9,10.8
					c-0.1-0.1-0.4-0.2-0.7-0.3c-0.6-0.2-1.1-0.4-1.4-0.6c-0.3-0.2-0.5-0.6-0.5-1c0-0.4,0.2-0.8,0.5-1.1c0.4-0.3,0.8-0.4,1.4-0.4
					c0.6,0,1,0.1,1.4,0.4c0.4,0.3,0.5,0.7,0.5,1.2l0,0h-1c0-0.3-0.1-0.5-0.2-0.6c-0.2-0.1-0.4-0.2-0.7-0.2c-0.3,0-0.5,0.1-0.6,0.2
					c-0.1,0.1-0.2,0.3-0.2,0.5c0,0.2,0.1,0.3,0.2,0.4c0.2,0.1,0.4,0.2,0.8,0.4c0.6,0.2,1,0.4,1.3,0.6c0.3,0.3,0.5,0.6,0.5,1
					c0,0.5-0.2,0.8-0.5,1.1c-0.4,0.3-0.8,0.4-1.4,0.4c-0.6,0-1-0.1-1.5-0.4C9.3,12,9.1,11.6,9.2,11l0,0h1c0,0.3,0.1,0.5,0.3,0.7
					c0.2,0.1,0.4,0.2,0.7,0.2c0.3,0,0.5-0.1,0.6-0.2c0.1-0.1,0.2-0.3,0.2-0.5C12.1,11,12,10.9,11.9,10.8z"/>
			</g>
		</g>
	</g>
</g>
</svg>
