<?xml version="1.0" encoding="utf-8"?>
<!-- Generator: Adobe Illustrator 21.0.0, SVG Export Plug-In . SVG Version: 6.00 Build 0)  -->
<svg version="1.1" id="Capa_1" xmlns="http://www.w3.org/2000/svg" xmlns:xlink="http://www.w3.org/1999/xlink" x="0px" y="0px"
	 viewBox="0 0 20 20" style="enable-background:new 0 0 20 20;" xml:space="preserve">
<style type="text/css">
	.st0{fill:#434A54;}
	.st1{fill-rule:evenodd;clip-rule:evenodd;fill:#434A54;}
	.st2{fill:#4077BA;}
	.st3{fill:#597F2E;}
	.st4{fill:#D73747;}
</style>
<g>
</g>
<g>
</g>
<g>
</g>
<g>
</g>
<g>
</g>
<g>
</g>
<g>
	<g>
		<g>
			<path class="st2" d="M18.3,6.1C18.4,6,18.4,6,18.3,6.1l1.2-1.2c0.6-0.6,0.6-1.7,0-2.3l-2-2c-0.6-0.6-1.7-0.6-2.3,0l-1.1,1.1
				c0,0-0.1,0.1-0.1,0.1L18.3,6.1z"/>
			<polygon class="st2" points="2.9,17.1 5.1,19.3 2.5,19.7 0,20.1 0.4,17.5 0.8,15 			"/>
			<polygon class="st2" points="14.7,3.5 14.7,3.5 14,2.9 14,2.9 13.4,2.3 1.3,14.4 5.6,18.8 17.8,6.6 			"/>
		</g>
	</g>
</g>
</svg>
