<?xml version="1.0" encoding="utf-8"?>
<!-- Generator: Adobe Illustrator 18.1.1, SVG Export Plug-In . SVG Version: 6.00 Build 0)  -->
<svg version="1.1" id="Capa_1" xmlns="http://www.w3.org/2000/svg" xmlns:xlink="http://www.w3.org/1999/xlink" x="0px" y="0px"
	 viewBox="-7 -24.9 595.3 841.9" enable-background="new -7 -24.9 595.3 841.9" xml:space="preserve">
<g>
	<polygon fill="none" points="371,270.7 361,260.8 167.2,454.6 236.8,524.1 430.6,330.3 380.9,280.6 	"/>
	<path fill="#4077BA" d="M290.7,106.8C135.3,106.8,9.4,236.3,9.4,396.1c0,159.8,125.9,289.3,281.3,289.3
		c155.3,0,281.3-129.5,281.3-289.3C571.9,236.3,446,106.8,290.7,106.8z M187.2,538.5l-40.4,6.1l6.1-40.4l6.1-40.5l34.3,34.3
		l34.3,34.3L187.2,538.5z M236.8,524.1l-69.6-69.5L361,260.8l9.9,9.9l9.9,9.9l49.7,49.7L236.8,524.1z M458.5,302.4l-17.4,17.4
		c-0.4,0.4-0.8,0.8-1.3,1.2l-69.5-69.5c0.4-0.4,0.8-0.9,1.2-1.3l17.4-17.4c10.3-10.3,27-10.3,37.2,0l32.3,32.3
		C468.8,275.4,468.8,292.1,458.5,302.4z"/>
</g>
</svg>
