<?xml version="1.0" encoding="utf-8"?>
<!-- Generator: Adobe Illustrator 21.0.0, SVG Export Plug-In . SVG Version: 6.00 Build 0)  -->
<svg version="1.1" id="Capa_1" xmlns="http://www.w3.org/2000/svg" xmlns:xlink="http://www.w3.org/1999/xlink" x="0px" y="0px"
	 viewBox="0 0 20 20" style="enable-background:new 0 0 20 20;" xml:space="preserve">
<style type="text/css">
	.st0{fill:#434A54;}
	.st1{fill-rule:evenodd;clip-rule:evenodd;fill:#434A54;}
	.st2{fill:#4077BA;}
	.st3{fill:#597F2E;}
	.st4{fill:#D73747;}
</style>
<g>
</g>
<g>
</g>
<g>
</g>
<g>
	<g>
		<g id="UhzlB0_2_">
			<g>
				<path class="st4" d="M2.3,5.7c0.7,4.8,1.4,9.5,2,14.3h11.3c0.7-4.7,1.3-9.5,2-14.3H2.3z M6.8,17.7l-0.1,0
					c-0.3,0-0.6-0.2-0.6-0.5L5.4,8.6C5.4,8.3,5.6,8,5.9,8l0.1,0c0.3,0,0.6,0.2,0.6,0.5l0.7,8.5C7.4,17.4,7.2,17.7,6.8,17.7z
					 M10.6,16.8c0,0.5-0.1,0.9-0.7,0.9c-0.6,0-0.6-0.5-0.6-0.9c0-2.7,0-5.3,0-8C9.3,8.4,9.4,8,9.9,8c0.6,0,0.7,0.4,0.7,0.9
					c0,1.3,0,2.7,0,4C10.6,14.1,10.6,15.5,10.6,16.8z M13.8,17.2c0,0.3-0.3,0.6-0.6,0.5l-0.1,0c-0.3,0-0.6-0.3-0.5-0.6l0.7-8.5
					c0-0.3,0.3-0.6,0.6-0.5l0.1,0c0.3,0,0.6,0.3,0.5,0.6L13.8,17.2z"/>
				<path class="st4" d="M12.3,0c0.9,0.4,1.5,1.1,1.4,2.2c1,0,2,0,3,0c1.3,0,2.1,1.1,1.6,2.3c-0.1,0.2-0.5,0.3-0.7,0.3
					c-3.5,0-7,0-10.5,0c-1.8,0-3.6,0-5.5,0c0-0.6-0.1-1.1,0-1.6c0.1-0.7,0.6-1,1.4-1c1.1,0,2.1,0,3.2,0C6.1,1.1,6.7,0.4,7.6,0
					C9.2,0,10.7,0,12.3,0z M12.4,2.2c0-0.8-0.1-0.9-0.7-0.9c-1.2,0-2.3,0-3.5,0c-0.6,0-0.9,0.3-0.7,0.9C9.1,2.2,10.7,2.2,12.4,2.2z"
					/>
			</g>
		</g>
	</g>
</g>
</svg>
