<?xml version="1.0" encoding="utf-8"?>
<!-- Generator: Adobe Illustrator 21.0.0, SVG Export Plug-In . SVG Version: 6.00 Build 0)  -->
<svg version="1.1" id="Capa_1" xmlns="http://www.w3.org/2000/svg" xmlns:xlink="http://www.w3.org/1999/xlink" x="0px" y="0px"
	 viewBox="0 0 20 20" style="enable-background:new 0 0 20 20;" xml:space="preserve">
<style type="text/css">
	.st0{fill:#434A54;}
	.st1{fill-rule:evenodd;clip-rule:evenodd;fill:#434A54;}
	.st2{fill:#4077BA;}
	.st3{fill:#597F2E;}
	.st4{fill:#D73747;}
</style>
<g>
</g>
<g>
</g>
<g>
</g>
<g>
	<g>
		<g>
			<g>
				<path class="st2" d="M15.6,20H4.4c-1.4,0-2.6-1.2-2.6-2.6V6l6-6h7.7c1.4,0,2.6,1.2,2.6,2.6l0,14.9C18.1,18.8,17,20,15.6,20z
					 M3.3,6.6v10.8c0,0.6,0.5,1.1,1.1,1.1h11.1c0.6,0,1.1-0.5,1.1-1.1l0-14.9c0-0.6-0.5-1.1-1.1-1.1H8.4L3.3,6.6z"/>
			</g>
			<g>
				<polygon class="st2" points="11.7,14.2 6.2,14.2 6.2,12 11.7,12 11.7,10.2 14.8,13.1 11.7,16.1 				"/>
			</g>
		</g>
		<g>
			<polygon class="st2" points="4.5,7.7 9.6,2.6 9.6,7.7 			"/>
		</g>
	</g>
</g>
</svg>
