<?xml version="1.0" encoding="utf-8"?>
<!-- Generator: Adobe Illustrator 17.0.0, SVG Export Plug-In . SVG Version: 6.00 Build 0)  -->
<!DOCTYPE svg PUBLIC "-//W3C//DTD SVG 1.1//EN" "http://www.w3.org/Graphics/SVG/1.1/DTD/svg11.dtd">
<svg version="1.1" id="Capa_1" xmlns="http://www.w3.org/2000/svg" xmlns:xlink="http://www.w3.org/1999/xlink" x="0px" y="0px"
	 width="841.89px" height="595.28px" viewBox="0 0 841.89 595.28" enable-background="new 0 0 841.89 595.28" xml:space="preserve">
<g>
	<polygon fill="none" points="629.057,119.056 390.945,267.876 152.833,119.056 152.833,178.584 390.945,327.404 629.057,178.584 	
		"/>
	<path fill="#434A54" d="M645.635,505.974c-3.367,0-6.732-0.87-9.75-2.612c-6.033-3.483-9.75-9.921-9.75-16.888v-32.248H506.03
		c-10.77,0-19.5-8.73-19.5-19.5v-80c0-10.77,8.73-19.5,19.5-19.5h120.105v-32.24c0-6.967,3.717-13.405,9.751-16.888
		c6.031-3.483,13.466-3.483,19.501,0.001l33.198,19.171V119.056c0-32.74-26.788-59.528-59.528-59.528H152.833
		c-32.74,0-59.528,26.788-59.528,59.528v357.168c0,32.74,26.788,59.528,59.528,59.528h476.224c29.92,0,54.855-22.375,58.931-51.216
		l-32.602,18.825C652.37,505.103,649.003,505.974,645.635,505.974z M152.833,178.584v-59.528l238.112,148.82l238.112-148.82v59.528
		l-238.112,148.82L152.833,178.584z"/>
</g>
<polygon fill="#434A54" points="645.636,302.986 645.636,354.726 506.03,354.726 506.03,434.726 645.636,434.726 645.636,486.474 
	804.515,394.735 "/>
</svg>
