<?xml version="1.0" encoding="utf-8"?>
<!-- Generator: Adobe Illustrator 21.0.0, SVG Export Plug-In . SVG Version: 6.00 Build 0)  -->
<svg version="1.1" id="Capa_1" xmlns="http://www.w3.org/2000/svg" xmlns:xlink="http://www.w3.org/1999/xlink" x="0px" y="0px"
	 viewBox="0 0 25 25" style="enable-background:new 0 0 25 25;" xml:space="preserve">
<style type="text/css">
	.st0{fill:#D73747;}
	.st1{fill:#597F2E;}
</style>
<g>
	<g>
		<path class="st0" d="M12.5,22.2c-5.4,0-9.7-4.3-9.7-9.7c0-5.3,4.3-9.7,9.7-9.7c5.3,0,9.7,4.3,9.7,9.7
			C22.2,17.9,17.8,22.2,12.5,22.2 M12.5,0C5.6,0,0,5.6,0,12.5S5.6,25,12.5,25S25,19.4,25,12.5S19.4,0,12.5,0"/>
		<path class="st0" d="M10.5,6.5l1.2,2c0.3,0.6,0.7,1.2,1,1.8h0C13,9.6,13.3,9,13.6,8.4l1.1-2h4.1l-4,5.8l4,6.3h-4.3l-1.2-2.2
			c-0.3-0.6-0.6-1.2-0.9-1.8h-0.1c-0.3,0.6-0.6,1.2-0.9,1.8l-1.1,2.2H6.2l4.1-6.2l-4-5.9H10.5z"/>
	</g>
</g>
</svg>
