<?xml version="1.0" encoding="utf-8"?>
<!-- Generator: Adobe Illustrator 21.0.0, SVG Export Plug-In . SVG Version: 6.00 Build 0)  -->
<svg version="1.1" id="Capa_1" xmlns="http://www.w3.org/2000/svg" xmlns:xlink="http://www.w3.org/1999/xlink" x="0px" y="0px"
	 viewBox="0 0 25 25" style="enable-background:new 0 0 25 25;" xml:space="preserve">
<style type="text/css">
	.st0{fill:#D73747;}
	.st1{fill:#597F2E;}
</style>
<path class="st1" d="M12.5,0C5.6,0,0,5.6,0,12.5C0,19.4,5.6,25,12.5,25C19.4,25,25,19.4,25,12.5C25,5.6,19.4,0,12.5,0z M19.7,9.2
	l-9,10c-0.2,0.2-0.4,0.3-0.4,0.3l-5.4-5.3c0,0,0.1-0.1,0.3-0.3L7,12l0.5,0.4l2.9,2.6l7.3-8.3c0,0,0.2,0.1,0.5,0.4l1.9,1.7L19.7,9.2z
	"/>
</svg>
