<?xml version="1.0" encoding="utf-8"?>
<!-- Generator: Adobe Illustrator 21.0.0, SVG Export Plug-In . SVG Version: 6.00 Build 0)  -->
<svg version="1.1" id="Capa_1" xmlns="http://www.w3.org/2000/svg" xmlns:xlink="http://www.w3.org/1999/xlink" x="0px" y="0px"
	 viewBox="0 0 20.4 25.1" style="enable-background:new 0 0 20.4 25.1;" xml:space="preserve">
<style type="text/css">
	.st0{fill:#4077BA;}
</style>
<g>
	<g>
		<g>
			<path class="st0" d="M17.2,25.1H3.2c-1.8,0-3.2-1.4-3.2-3.2V7.6l7.5-7.5h9.7c1.8,0,3.2,1.4,3.2,3.2l0,18.6
				C20.4,23.6,18.9,25.1,17.2,25.1z M1.8,8.3v13.6c0,0.8,0.6,1.4,1.4,1.4h13.9c0.8,0,1.4-0.6,1.4-1.4l0-18.6c0-0.8-0.6-1.4-1.4-1.4
				H8.3L1.8,8.3z"/>
		</g>
		<g>
			<polygon class="st0" points="11.5,18 11.5,11.1 14.2,11.1 14.2,18 16.5,18 12.8,21.9 9.1,18 			"/>
		</g>
	</g>
	<g>
		<polygon class="st0" points="3.3,9.7 9.7,3.3 9.7,9.7 		"/>
	</g>
</g>
</svg>
