<?xml version="1.0" encoding="utf-8"?>
<!-- Generator: Adobe Illustrator 21.0.0, SVG Export Plug-In . SVG Version: 6.00 Build 0)  -->
<svg version="1.1" id="Capa_1" xmlns="http://www.w3.org/2000/svg" xmlns:xlink="http://www.w3.org/1999/xlink" x="0px" y="0px"
	 viewBox="0 0 20 20" style="enable-background:new 0 0 20 20;" xml:space="preserve">
<style type="text/css">
	.st0{fill:#434A54;}
	.st1{fill-rule:evenodd;clip-rule:evenodd;fill:#434A54;}
	.st2{fill:#4077BA;}
	.st3{fill:#597F2E;}
	.st4{fill:#D73747;}
</style>
<g>
</g>
<g>
</g>
<g>
</g>
<g>
</g>
<g>
</g>
<g>
	<g>
		<g>
			<g>
				<path class="st3" d="M1.7,14.5v4.1c0,0.8,0.6,1.4,1.4,1.4h13.8c0.8,0,1.4-0.6,1.4-1.4V5.5c0-4.5-5-5.4-5.2-5.5H3.1
					C2.3,0,1.7,0.6,1.7,1.4v3V14.5z M17,3.7c-0.3-0.1-0.7-0.2-1.2-0.2h-1.3c0-0.6,0-1.4-0.3-2.2C15.1,1.7,16.4,2.4,17,3.7z M2.7,4.4
					v-3C2.7,1.2,2.8,1,3.1,1h9.6C12.8,1,12.9,1,13,1.1c0.5,0.5,0.5,2,0.5,2.8l0,0.5h2.3c1.3,0,1.5,0.9,1.5,1v13.1
					c0,0.2-0.2,0.4-0.4,0.4H3.1c-0.2,0-0.4-0.2-0.4-0.4v-4.1V4.4z"/>
			</g>
		</g>
		<rect x="5.3" y="5.4" class="st3" width="9.4" height="1.7"/>
		<polygon class="st3" points="14.7,13.8 14.7,15.5 12.3,15.5 12.3,17.9 10.6,17.9 10.6,15.5 8.2,15.5 8.2,13.8 10.6,13.8 
			10.6,11.5 12.3,11.5 12.3,13.8 		"/>
		<rect x="5.3" y="8.2" class="st3" width="9.4" height="1.7"/>
	</g>
</g>
</svg>
