<?xml version="1.0" encoding="utf-8"?>
<!-- Generator: Adobe Illustrator 21.0.0, SVG Export Plug-In . SVG Version: 6.00 Build 0)  -->
<svg version="1.1" id="Capa_1" xmlns="http://www.w3.org/2000/svg" xmlns:xlink="http://www.w3.org/1999/xlink" x="0px" y="0px"
	 viewBox="0 0 25 25" style="enable-background:new 0 0 25 25;" xml:space="preserve">
<style type="text/css">
	.st0{fill:#4077BA;}
</style>
<g>
	<rect x="8.4" y="18.1" class="st0" width="8.2" height="0.5"/>
	<rect x="8.4" y="15.3" class="st0" width="8.2" height="0.5"/>
	<rect x="8.4" y="16.7" class="st0" width="8.2" height="0.5"/>
	<path class="st0" d="M15.3,5.7H9.7c-0.6,0-1.2,0.5-1.2,1.2V10c0,0.6,0.5,1.2,1.2,1.2h5.6c0.6,0,1.2-0.5,1.2-1.2V6.9
		C16.5,6.2,15.9,5.7,15.3,5.7z M15.5,10.3c0,0.2-0.1,0.3-0.3,0.3h-1.9c-0.2,0-0.3-0.1-0.3-0.3V6.6c0-0.2,0.1-0.3,0.3-0.3h1.9
		c0.2,0,0.3,0.1,0.3,0.3V10.3z"/>
	<path class="st0" d="M12.5,0C5.6,0,0,5.6,0,12.5C0,19.4,5.6,25,12.5,25C19.4,25,25,19.4,25,12.5C25,5.6,19.4,0,12.5,0z M17.7,20.1
		H7.3V15c0-0.6,0.5-1.2,1.2-1.2h8.1c0.6,0,1.2,0.5,1.2,1.2V20.1z M20.1,18.9c0,0.6-0.5,1.2-1.2,1.2h-0.8V15c0-0.9-0.7-1.6-1.6-1.6
		H8.5c-0.9,0-1.6,0.7-1.6,1.6v5.1H6.1c-0.6,0-1.2-0.5-1.2-1.2V6.1c0-0.6,0.5-1.2,1.2-1.2h12.9c0.6,0,1.2,0.5,1.2,1.2V18.9z"/>
</g>
</svg>
