<?xml version="1.0" encoding="utf-8"?>
<!-- Generator: Adobe Illustrator 21.0.0, SVG Export Plug-In . SVG Version: 6.00 Build 0)  -->
<svg version="1.1" id="Capa_1" xmlns="http://www.w3.org/2000/svg" xmlns:xlink="http://www.w3.org/1999/xlink" x="0px" y="0px"
	 viewBox="0 0 20 20" style="enable-background:new 0 0 20 20;" xml:space="preserve">
<style type="text/css">
	.st0{fill:#434A54;}
	.st1{fill-rule:evenodd;clip-rule:evenodd;fill:#434A54;}
	.st2{fill:#4077BA;}
	.st3{fill:#597F2E;}
	.st4{fill:#D73747;}
</style>
<g>
	<g>
		<g>
			<g>
				<path class="st0" d="M10,0.1c-5.5,0-10,4.5-10,10c0,5.5,4.5,10,10,10c5.5,0,10-4.5,10-10C20,4.5,15.5,0.1,10,0.1z M10.3,17.8
					v-0.9H9.7v0.9c-4.1-0.1-7.3-3.4-7.5-7.5h0.9V9.8H2.3c0.1-4.1,3.4-7.3,7.5-7.5v0.9h0.5V2.3c4.1,0.1,7.3,3.4,7.5,7.5h-0.9v0.5h0.9
					C17.6,14.4,14.3,17.7,10.3,17.8z"/>
			</g>
			<path class="st0" d="M10.7,4.3v5.8c0,0.4-0.3,0.7-0.7,0.7c-0.4,0-0.7-0.3-0.7-0.7V4.3H10.7z"/>
		</g>
	</g>
</g>
<g>
</g>
<g>
</g>
<g>
</g>
</svg>
