<?xml version="1.0" encoding="utf-8"?>
<!-- Generator: Adobe Illustrator 21.0.0, SVG Export Plug-In . SVG Version: 6.00 Build 0)  -->
<svg version="1.1" id="Capa_1" xmlns="http://www.w3.org/2000/svg" xmlns:xlink="http://www.w3.org/1999/xlink" x="0px" y="0px"
	 viewBox="0 0 25.2 20" style="enable-background:new 0 0 25.2 20;" xml:space="preserve">
<style type="text/css">
	.st0{fill:#434A54;}
	.st1{fill-rule:evenodd;clip-rule:evenodd;fill:#434A54;}
	.st2{fill:#4077BA;}
	.st3{fill:#597F2E;}
	.st4{fill:#D73747;}
</style>
<g>
</g>
<g>
	<path class="st2" d="M25.2,7.4L18,0.1c-0.3-0.3-0.7-0.3-0.9,0l-5.9,5.8l0,0l-2.3-1c-0.5-0.2-1-0.1-1.4,0.2L3.6,8.7
		C3.3,9,3.2,9.3,3.2,9.7v5.6c0,0.7,0.6,1.3,1.3,1.3h5l3.2,3.2c0.1,0.1,0.3,0.2,0.5,0.2c0.2,0,0.3-0.1,0.4-0.2L25.2,8.3
		c0.1-0.1,0.2-0.4,0.2-0.4C25.4,7.7,25.3,7.5,25.2,7.4z M13,18.4l-6.3-6.3l3.7-3.7l0.1,0l3.8,1.6l1.2-2.1l-3.1-1.4l5.1-5l6.3,6.3
		L13,18.4z"/>
	<rect x="-0.1" y="8.7" class="st2" width="2.2" height="7.8"/>
</g>
</svg>
