<?xml version="1.0" encoding="utf-8"?>
<!-- Generator: Adobe Illustrator 17.0.0, SVG Export Plug-In . SVG Version: 6.00 Build 0)  -->
<!DOCTYPE svg PUBLIC "-//W3C//DTD SVG 1.1//EN" "http://www.w3.org/Graphics/SVG/1.1/DTD/svg11.dtd">
<svg version="1.1" id="Capa_1" xmlns="http://www.w3.org/2000/svg" xmlns:xlink="http://www.w3.org/1999/xlink" x="0px" y="0px"
	 width="400px" height="400px" viewBox="0 0 400 400" enable-background="new 0 0 400 400" xml:space="preserve">
<g>
	<rect x="90.969" y="259.904" fill="#434B54" width="280.765" height="49.871"/>
</g>
<g>
	<rect x="90.969" y="177.245" fill="#434B54" width="280.765" height="49.871"/>
</g>
<g>
	<rect x="90.969" y="91.831" fill="#434B54" width="280.765" height="49.871"/>
</g>
<g>
	<circle fill="#434B54" cx="51.43" cy="284.84" r="22.456"/>
</g>
<g>
	<path fill="#434B54" d="M41.511,137.95c-0.04,0-0.08,0-0.119-0.001c-1.2-0.036-2.319-0.614-3.042-1.572l-9.368-12.399
		c-1.319-1.746-0.973-4.231,0.773-5.55c1.745-1.319,4.229-0.974,5.55,0.773l6.397,8.466l26.003-30.419
		c1.421-1.664,3.923-1.86,5.587-0.438s1.859,3.923,0.438,5.587l-29.206,34.166C43.769,137.444,42.668,137.95,41.511,137.95z"/>
</g>
<g>
	<path fill="#434B54" d="M41.511,224.742c-0.04,0-0.08-0.001-0.119-0.002c-1.2-0.036-2.319-0.614-3.042-1.572l-9.368-12.399
		c-1.319-1.746-0.973-4.231,0.773-5.551c1.745-1.319,4.229-0.973,5.55,0.773l6.397,8.467l26.003-30.419
		c1.421-1.664,3.923-1.86,5.587-0.438s1.859,3.923,0.438,5.587l-29.206,34.167C43.77,224.236,42.668,224.742,41.511,224.742z"/>
</g>
</svg>
