<?xml version="1.0" encoding="utf-8"?>
<!-- Generator: Adobe Illustrator 21.0.0, SVG Export Plug-In . SVG Version: 6.00 Build 0)  -->
<svg version="1.1" id="Capa_1" xmlns="http://www.w3.org/2000/svg" xmlns:xlink="http://www.w3.org/1999/xlink" x="0px" y="0px"
	 viewBox="0 0 23 25" style="enable-background:new 0 0 23 25;" xml:space="preserve">
<style type="text/css">
	.st0{fill:#4077BA;}
	.st1{fill:none;}
</style>
<g>
	<g>
		<g>
			<g>
				<path class="st0" d="M7.8,20v3.7c0,0.7,0.6,1.3,1.3,1.3h12.6c0.7,0,1.3-0.6,1.3-1.3v-12c0-4.1-4.6-5-4.7-5H9.1
					c-0.7,0-1.3,0.6-1.3,1.3v2.7V20z M21.8,10.2c-0.3-0.1-0.6-0.2-1.1-0.2h-1.2c0-0.5,0-1.3-0.3-2C20.1,8.3,21.2,9,21.8,10.2z
					 M8.7,10.8V8.1c0-0.2,0.2-0.4,0.4-0.4h8.7c0.1,0,0.2,0,0.3,0.2c0.4,0.5,0.5,1.8,0.4,2.6l0,0.5h2.1c1.2,0,1.4,0.9,1.4,0.9v11.9
					c0,0.2-0.2,0.4-0.4,0.4H9.1c-0.2,0-0.4-0.2-0.4-0.4V20V10.8z"/>
			</g>
		</g>
		<rect x="11.1" y="13.6" class="st0" width="8.6" height="1.6"/>
		<rect x="11.1" y="17" class="st0" width="8.6" height="1.6"/>
		<rect x="11.1" y="20.4" class="st0" width="8.6" height="1.6"/>
	</g>
	<g>
		<circle class="st1" cx="8.8" cy="3.1" r="1.3"/>
		<path class="st0" d="M16.1,2.3h-4.3C11.4,1,10.2,0,8.8,0s-2.6,1-3,2.3H1.5C0.7,2.3,0,3,0,3.8V7v10.7v2.4V22c0,0.8,0.7,1.5,1.5,1.5
			h5.3c0-0.3,0-0.7,0-1H1.5C1.3,22.4,1,22.2,1,22v-2.3v-2V7V3.8c0-0.3,0.2-0.5,0.4-0.5h2.3v4.2h3V7.1c0,0,0.1-1.3,2.6-1.3
			c1.6,0,3.5,0,4.6,0V3.4h2.3c0.2,0,0.4,0.2,0.4,0.5v1v1c0.3,0,0.7,0,1,0V4.8v-1C17.6,3,16.9,2.3,16.1,2.3z M8.8,4.4
			c-0.7,0-1.3-0.6-1.3-1.3c0-0.7,0.6-1.3,1.3-1.3c0.7,0,1.3,0.6,1.3,1.3C10.1,3.8,9.5,4.4,8.8,4.4z"/>
	</g>
</g>
</svg>
