<?xml version="1.0" encoding="utf-8"?>
<!-- Generator: Adobe Illustrator 17.0.0, SVG Export Plug-In . SVG Version: 6.00 Build 0)  -->
<!DOCTYPE svg PUBLIC "-//W3C//DTD SVG 1.1//EN" "http://www.w3.org/Graphics/SVG/1.1/DTD/svg11.dtd">
<svg version="1.1" id="Capa_1" xmlns="http://www.w3.org/2000/svg" xmlns:xlink="http://www.w3.org/1999/xlink" x="0px" y="0px"
	 width="50px" height="50px" viewBox="-11 -11 50 50" enable-background="new -11 -11 50 50" xml:space="preserve">
<path fill="#434A54" d="M29.317,23.186h-3.06c-3.386,0-6.126-2.743-6.126-6.126v-1.966c1.356-1.611,2.325-3.517,2.93-5.527
	c0.063-0.342,0.388-0.509,0.606-0.74c1.172-1.176,1.4-3.155,0.522-4.562c-0.116-0.213-0.335-0.4-0.321-0.665
	c0-1.795,0.011-3.594,0-5.389c-0.053-2.167-0.673-4.421-2.191-6.025c-1.225-1.299-2.907-2.07-4.649-2.397
	c-2.193-0.418-4.492-0.398-6.665,0.153C8.477-9.582,6.705-8.477,5.611-6.843C4.643-5.42,4.218-3.691,4.147-1.99
	c-0.03,1.825-0.009,3.66-0.016,5.493c0.044,0.365-0.268,0.612-0.409,0.92c-0.827,1.5-0.462,3.547,0.867,4.642
	c0.338,0.231,0.402,0.656,0.525,1.021c0.58,1.812,1.541,3.483,2.761,4.943v2.033c0,3.383-2.743,6.126-6.126,6.126h-3.064
	c0,0-5.549,1.53-9.186,9.19v3.06c0,1.691,1.37,3.064,3.06,3.064H35.44c1.691,0,3.06-1.373,3.06-3.064v-3.06
	c-3.637-7.66-9.186-9.19-9.186-9.19L29.317,23.186z"/>
</svg>
