<?xml version="1.0" encoding="utf-8"?>
<!-- Generator: Adobe Illustrator 21.0.0, SVG Export Plug-In . SVG Version: 6.00 Build 0)  -->
<svg version="1.1" id="Capa_1" xmlns="http://www.w3.org/2000/svg" xmlns:xlink="http://www.w3.org/1999/xlink" x="0px" y="0px"
	 viewBox="0 0 20 20" style="enable-background:new 0 0 20 20;" xml:space="preserve">
<style type="text/css">
	.st0{fill:#434A54;}
	.st1{fill-rule:evenodd;clip-rule:evenodd;fill:#434A54;}
	.st2{fill:#4077BA;}
	.st3{fill:#597F2E;}
	.st4{fill:#D73747;}
</style>
<g>
</g>
<g>
	<g>
		<g>
			<path class="st0" d="M20,1.8v2.9h-7.1c-0.2-1.2-0.8-2.2-1.7-2.9H20z"/>
			<path class="st0" d="M20,8.5v2.9h-8.6c0,0,0,0,0,0c-0.1-0.1,0-0.5,0.3-1l0.5-0.9c0.2-0.3,0.4-0.6,0.5-1H20z"/>
			<path class="st0" d="M16.3,17.2c0,0.5-0.4,1-1,1H1c-0.6,0-1-0.4-1-1c0-1.5,0.9-2.7,2.2-3.6c0.2-0.2,0.5-0.3,0.8-0.4
				c1.9-0.4,3.9-0.8,2.6-3.3C5.4,9.6,5.2,9.3,5.1,9C4.6,8.4,4.4,7.7,4.4,6.9V5.5c0-1.8,1.3-3.3,2.9-3.6c0.2,0,0.5-0.1,0.7-0.1h0.3
				c1.7,0,3.2,1.3,3.5,2.9C11.9,5,12,5.2,12,5.5v1.4c0,0.6-0.1,1.2-0.4,1.7c-0.1,0.1-0.2,0.3-0.3,0.4c-0.2,0.3-0.3,0.6-0.5,1
				c-0.3,0.6-0.5,1.1-0.4,1.5c0.1,1.2,1.6,1.5,3,1.8c0.3,0.1,0.6,0.2,0.8,0.4c0.7,0.5,1.3,1,1.6,1.7C16.2,15.8,16.3,16.5,16.3,17.2z
				"/>
			<path class="st0" d="M20,15.3v2.9h-2.9c0.2-0.3,0.3-0.6,0.3-1c0-0.7-0.1-1.3-0.4-1.9H20z"/>
		</g>
	</g>
</g>
<g>
</g>
<g>
</g>
</svg>
