<?xml version="1.0" encoding="utf-8"?>
<!-- Generator: Adobe Illustrator 21.0.0, SVG Export Plug-In . SVG Version: 6.00 Build 0)  -->
<svg version="1.1" id="Capa_1" xmlns="http://www.w3.org/2000/svg" xmlns:xlink="http://www.w3.org/1999/xlink" x="0px" y="0px"
	 viewBox="0 0 20 20" style="enable-background:new 0 0 20 20;" xml:space="preserve">
<style type="text/css">
	.st0{fill:#434A54;}
	.st1{fill-rule:evenodd;clip-rule:evenodd;fill:#434A54;}
	.st2{fill:#4077BA;}
	.st3{fill:#597F2E;}
	.st4{fill:#D73747;}
</style>
<g>
</g>
<g>
	<g>
		<path class="st0" d="M11.3,11.3c-0.5,0.4-1.4,0.6-2.2,0.8c-0.3,0.1-0.5,0.2-0.7,0.4c-0.7,0.5-1.3,1.2-1.6,2h-6
			c-0.4,0-0.8-0.3-0.8-0.8c0-1.2,0.7-2.1,1.7-2.7c0.2-0.1,0.4-0.2,0.6-0.3c1.4-0.3,3-0.6,2-2.5C4.1,7.9,4,7.7,3.9,7.4
			C3.5,7,3.4,6.4,3.4,5.8v-1C3.4,3.2,4.6,2,6.2,2h0.2c1.5,0,2.8,1.3,2.8,2.8v1c0,0.6-0.2,1.2-0.5,1.6C8.5,7.7,8.3,7.9,8.2,8.2
			c-1,1.9,0.6,2.2,2,2.5c0.2,0,0.4,0.2,0.6,0.3C11,11.1,11.1,11.2,11.3,11.3z"/>
		<path class="st0" d="M20,15.9c0,0.4-0.3,0.8-0.8,0.8H8.3c-0.4,0-0.8-0.3-0.8-0.8c0-0.5,0.1-1,0.4-1.5c0.3-0.5,0.7-0.9,1.3-1.3
			c0.2-0.1,0.4-0.2,0.6-0.3c0.8-0.2,1.7-0.4,2.1-0.9c0.3-0.3,0.3-0.8-0.1-1.6v0c0,0,0,0,0,0c-0.1-0.2-0.3-0.5-0.4-0.7
			c-0.3-0.5-0.5-1-0.5-1.6V7c0-1.5,1.3-2.8,2.8-2.8h0.2c1.5,0,2.8,1.3,2.8,2.8v1c0,0.6-0.2,1.2-0.5,1.6c-0.1,0.2-0.3,0.5-0.4,0.7
			c0,0,0,0,0,0c-1,1.8,0.6,2.1,2,2.5c0.2,0,0.4,0.2,0.6,0.3C19.3,13.8,20,14.7,20,15.9z"/>
	</g>
</g>
<g>
</g>
<g>
</g>
<g>
</g>
</svg>
