<?xml version="1.0" encoding="utf-8"?>
<!-- Generator: Adobe Illustrator 21.0.0, SVG Export Plug-In . SVG Version: 6.00 Build 0)  -->
<svg version="1.1" id="Capa_1" xmlns="http://www.w3.org/2000/svg" xmlns:xlink="http://www.w3.org/1999/xlink" x="0px" y="0px"
	 viewBox="0 0 20 20" style="enable-background:new 0 0 20 20;" xml:space="preserve">
<style type="text/css">
	.st0{fill:#434A54;}
	.st1{fill-rule:evenodd;clip-rule:evenodd;fill:#434A54;}
	.st2{fill:#4077BA;}
	.st3{fill:#597F2E;}
	.st4{fill:#D73747;}
</style>
<g>
</g>
<g>
</g>
<g>
</g>
<g>
</g>
<g>
	<path class="st2" d="M16.6,5.1c0,0.1,0,0.2,0,0.3v11.4c0,0.7-0.6,1.2-1.2,1.2H5.2v0.9c0,0.6,0.5,1.1,1.1,1.1h11
		c0.6,0,1.1-0.5,1.1-1.1V6.7C18.4,5,17,5.1,16.6,5.1z"/>
	<path class="st2" d="M16,16.1V4.7c0-0.1,0-0.2,0-0.3C15.8,0.8,11.6,0,11.5,0H2.8C2.1,0,1.6,0.6,1.6,1.2v14.9c0,0.7,0.6,1.2,1.2,1.2
		h12C15.5,17.4,16,16.8,16,16.1z M14.8,3.2c-0.3-0.1-0.6-0.2-1-0.2h-1.1c0-0.5,0-1.3-0.3-1.9C13.2,1.5,14.3,2.1,14.8,3.2z M2.4,16.1
		V1.2c0-0.2,0.2-0.4,0.4-0.4h8.3c0.1,0,0.2,0,0.3,0.1c0.4,0.5,0.5,1.7,0.4,2.4v0.1l0,0.4h2c1.2,0,1.3,0.8,1.3,0.9v11.3
		c0,0.2-0.2,0.4-0.4,0.4h-12C2.6,16.5,2.4,16.3,2.4,16.1z"/>
	<path class="st2" d="M11.8,8.2l-0.6-0.4l-0.1,1.3c-0.3,0.1-0.6,0.1-0.9,0.2c-2,0.8-3.3,2.8-3.4,5.2c0,0.2,0,0.3,0,0.5L8,15
		c0-0.1,0-0.3,0-0.4c0-1.9,0.9-3.7,3-4.3l-0.1,1.2l3.1-1.5l0.3-0.2L14,9.7L11.8,8.2z"/>
</g>
</svg>
