<?xml version="1.0" encoding="utf-8"?>
<!-- Generator: Adobe Illustrator 21.0.0, SVG Export Plug-In . SVG Version: 6.00 Build 0)  -->
<svg version="1.1" id="Capa_1" xmlns="http://www.w3.org/2000/svg" xmlns:xlink="http://www.w3.org/1999/xlink" x="0px" y="0px"
	 viewBox="0 0 75.2 38.9" style="enable-background:new 0 0 75.2 38.9;" xml:space="preserve">
<style type="text/css">
	.st0{fill:#4077BA;}
	.st1{fill:#2F836E;}
</style>
<g>
	<g>
		<polygon class="st1" points="75.2,5 75.2,9 70.3,9 70.3,14 66.2,14 66.2,9 61.3,9 61.3,5 66.2,5 66.2,0 70.3,0 70.3,5 		"/>
	</g>
	<g>
		<g>
			<path class="st1" d="M64.7,29.8c-0.5-0.3-1-0.6-1.6-0.8c-3.8-0.8-7.9-1.7-5.2-6.6c0.4-0.7,0.7-1.3,1.1-1.9
				c0.9-1.2,1.4-2.7,1.4-4.2v-2.7c0-4.1-3.3-7.4-7.4-7.4h-0.5c-4.1,0-7.4,3.3-7.4,7.4v2.7c0,1.6,0.5,3,1.4,4.2
				c0.4,0.7,0.7,1.3,1.1,1.9c1.9,3.4,0.4,4.9-1.9,5.7c0.7,0.2,1.2,0.5,1.6,0.8c3.1,2.1,4.8,4.9,4.8,8c0,0.8-0.3,1.5-0.8,2h15.9
				c1.1,0,2-0.9,2-2C69.1,33.9,67.3,31.5,64.7,29.8z"/>
			<path class="st1" d="M22,28.9c0.4-0.2,0.9-0.6,1.5-0.8c-2.3-0.8-3.8-2.3-1.9-5.7c0.4-0.7,0.7-1.3,1.1-1.9
				c0.9-1.2,1.4-2.7,1.4-4.2v-2.7c0-4.1-3.3-7.4-7.4-7.4h-0.5c-4.1,0-7.4,3.3-7.4,7.4v2.7c0,1.6,0.5,3,1.4,4.2
				c0.4,0.7,0.7,1.3,1.1,1.9c2.7,4.9-1.5,5.7-5.2,6.6c-0.6,0.1-1.1,0.4-1.6,0.8C1.8,31.5,0,33.9,0,37c0,1.1,0.9,2,2,2h16
				c-0.5-0.5-0.8-1.2-0.8-2C17.2,33.8,18.8,31,22,28.9z"/>
		</g>
	</g>
</g>
<path class="st1" d="M50.9,37c0,1.1-0.9,2-2,2H20.2c-1.1,0-2-0.9-2-2c0-3.1,1.8-5.5,4.3-7.2c0.5-0.3,1-0.6,1.6-0.8
	c3.8-0.8,7.9-1.7,5.2-6.6c-0.4-0.7-0.7-1.3-1.1-1.9c-0.9-1.2-1.4-2.7-1.4-4.2v-2.7c0-4.1,3.3-7.4,7.4-7.4h0.5c4.1,0,7.4,3.3,7.4,7.4
	v2.7c0,1.6-0.5,3-1.4,4.2c-0.4,0.7-0.7,1.3-1.1,1.9c-2.6,4.9,1.5,5.7,5.2,6.6c0.6,0.1,1.1,0.4,1.6,0.8C49.1,31.5,50.9,33.9,50.9,37z
	"/>
</svg>
