<?xml version="1.0" encoding="utf-8"?>
<!-- Generator: Adobe Illustrator 21.0.0, SVG Export Plug-In . SVG Version: 6.00 Build 0)  -->
<svg version="1.1" id="Capa_1" xmlns="http://www.w3.org/2000/svg" xmlns:xlink="http://www.w3.org/1999/xlink" x="0px" y="0px"
	 viewBox="0 0 38.9 38.9" style="enable-background:new 0 0 38.9 38.9;" xml:space="preserve">
<style type="text/css">
	.st0{fill:#4077BA;}
	.st1{fill:#2F836E;}
</style>
<g>
	<path class="st0" d="M32.8,37c0,1.1-0.9,2-2,2H2c-1.1,0-2-0.9-2-2c0-3.1,1.8-5.5,4.3-7.2c0.5-0.3,1-0.6,1.6-0.8
		c3.8-0.8,7.9-1.7,5.2-6.6c-0.4-0.7-0.7-1.3-1.1-1.9c-0.9-1.2-1.4-2.7-1.4-4.2v-2.7c0-4.1,3.3-7.4,7.4-7.4h0.5
		c4.1,0,7.4,3.3,7.4,7.4v2.7c0,1.6-0.5,3-1.4,4.2c-0.4,0.7-0.7,1.3-1.1,1.9c-2.6,4.9,1.5,5.7,5.2,6.6c0.6,0.1,1.1,0.4,1.6,0.8
		C31,31.5,32.8,33.9,32.8,37z"/>
	<g>
		<polygon class="st0" points="38.9,5 38.9,9 33.9,9 33.9,14 29.9,14 29.9,9 24.9,9 24.9,5 29.9,5 29.9,0 33.9,0 33.9,5 		"/>
	</g>
</g>
</svg>
