<?xml version="1.0" encoding="utf-8"?>
<!-- Generator: Adobe Illustrator 21.0.0, SVG Export Plug-In . SVG Version: 6.00 Build 0)  -->
<svg version="1.1" id="Capa_1" xmlns="http://www.w3.org/2000/svg" xmlns:xlink="http://www.w3.org/1999/xlink" x="0px" y="0px"
	 viewBox="0 0 20 20" style="enable-background:new 0 0 20 20;" xml:space="preserve">
<style type="text/css">
	.st0{fill:#434A54;}
	.st1{fill-rule:evenodd;clip-rule:evenodd;fill:#434A54;}
	.st2{fill:#4077BA;}
	.st3{fill:#597F2E;}
	.st4{fill:#D73747;}
</style>
<g>
</g>
<g>
</g>
<g>
	<g>
		<path class="st2" d="M14.3,20H4.7C2.1,20,0,17.9,0,15.3V5.7C0,3.1,2.1,1,4.7,1h7.9v3.4H4.7C4,4.4,3.4,5,3.4,5.7v9.5
			c0,0.7,0.6,1.3,1.3,1.3h9.5c0.7,0,1.3-0.6,1.3-1.3v-4.4H19v4.4C19,17.9,16.9,20,14.3,20z"/>
	</g>
	<g>
		<polygon class="st2" points="10.7,13.7 5.7,9.2 8,6.6 10.6,8.9 17.6,1.9 20,4.3 		"/>
	</g>
</g>
</svg>
