<?xml version="1.0" encoding="utf-8"?>
<!-- Generator: Adobe Illustrator 21.0.0, SVG Export Plug-In . SVG Version: 6.00 Build 0)  -->
<svg version="1.1" id="Capa_1" xmlns="http://www.w3.org/2000/svg" xmlns:xlink="http://www.w3.org/1999/xlink" x="0px" y="0px"
	 viewBox="0 0 20 20" style="enable-background:new 0 0 20 20;" xml:space="preserve">
<style type="text/css">
	.st0{fill:#434A54;}
	.st1{fill-rule:evenodd;clip-rule:evenodd;fill:#434A54;}
	.st2{fill:#4077BA;}
	.st3{fill:#597F2E;}
	.st4{fill:#D73747;}
</style>
<g>
</g>
<g>
</g>
<g>
</g>
<g>
</g>
<g>
	<g>
		<path class="st0" d="M13.7,19.2c0,0.4-0.4,0.8-0.8,0.8H1.3c-0.4,0-0.8-0.4-0.8-0.8c0-1.2,0.7-2.2,1.8-2.9C2.4,16.1,2.6,16,2.9,16
			C4.4,15.7,6,15.3,5,13.3c-0.1-0.3-0.3-0.5-0.4-0.8C4.2,12.1,4,11.5,4,10.8V9.7c0-1.6,1.3-3,3-3h0.2c1.6,0,3,1.3,3,3v1.1
			c0,0.6-0.2,1.2-0.6,1.7c-0.1,0.3-0.3,0.5-0.4,0.8c-1.1,2,0.6,2.3,2.1,2.6c0.2,0,0.5,0.2,0.7,0.3C13,17,13.7,17.9,13.7,19.2z"/>
		<g id="jRSz8S_2_">
			<g>
				<path class="st0" d="M6.4,0v5.7c0,0,0.7-0.1,1.3-0.1V2h2.6v4.6H9.2C9.4,6.6,9.8,6.8,10,7c0,0,1,0.8,0.9,1.9c0,0,0,0.8,0,1.6
					c-0.1,0.8-0.3,2-0.3,2s-0.2,0.4-0.3,0.5c0,0-1.2,1.7,0.6,2c2.3,0.4,3.4,1.5,3.7,2.5c0.4,1.6-0.1,2.2-0.1,2.2h5l0-19.8H6.4z
					 M14.3,13.2h-2.6V8.6h2.6V13.2z M14.3,6.6h-2.6V2h2.6V6.6z M18.3,13.2h-2.6V8.6h2.6V13.2z M18.3,6.6h-2.6V2h2.6V6.6z"/>
			</g>
		</g>
	</g>
</g>
<g>
</g>
</svg>
