<?xml version="1.0" encoding="utf-8"?>
<!-- Generator: Adobe Illustrator 21.0.0, SVG Export Plug-In . SVG Version: 6.00 Build 0)  -->
<svg version="1.1" id="Capa_1" xmlns="http://www.w3.org/2000/svg" xmlns:xlink="http://www.w3.org/1999/xlink" x="0px" y="0px"
	 viewBox="0 0 20 20" style="enable-background:new 0 0 20 20;" xml:space="preserve">
<style type="text/css">
	.st0{fill:#434A54;}
	.st1{fill-rule:evenodd;clip-rule:evenodd;fill:#434A54;}
	.st2{fill:#4077BA;}
	.st3{fill:#597F2E;}
	.st4{fill:#D73747;}
</style>
<g>
	<g>
		<g>
			<path class="st1" d="M6.8,6.7C6.4,6,6,5.3,5.6,4.6C5.1,3.8,4.6,2.9,4.1,2C4,1.9,4,1.9,3.8,2C3.6,2.1,3.3,2.3,3,2.5
				C2.2,3.1,1.8,3.9,1.8,5c0,0.9,0.1,1.7,0.3,2.5c0.4,1.7,1.1,3.2,1.9,4.8c1,1.9,2.1,3.6,3.6,5.1c0.9,0.9,1.8,1.8,2.9,2.4
				c0.6,0.3,1.2,0.4,1.9,0.2c0.5-0.2,0.9-0.4,1.4-0.6c0.2-0.1,0.2-0.2,0.1-0.3c-0.9-1.5-1.7-3-2.6-4.4c-0.1-0.1-0.1-0.2-0.3-0.1
				c-0.4,0.2-0.8,0.2-1.3,0.1c-0.6-0.2-1.1-0.5-1.5-0.9c-0.8-0.7-1.3-1.6-1.8-2.5c-0.4-0.8-0.6-1.6-0.6-2.5C5.9,7.8,6.1,7.2,6.8,6.7
				z M16.8,17.6c0-0.1-0.1-0.2-0.1-0.3c-0.8-1.5-1.7-2.9-2.5-4.4c-0.2-0.4-0.6-0.5-1-0.3c-0.4,0.2-0.8,0.5-1.3,0.7
				c-0.3,0.2-0.4,0.5-0.3,0.9c0,0.1,0.1,0.2,0.1,0.3c0.8,1.4,1.6,2.9,2.5,4.3c0.2,0.3,0.5,0.4,0.9,0.2c0.5-0.3,0.9-0.5,1.4-0.8
				C16.7,18.1,16.8,17.9,16.8,17.6z M7.7,6.6c0,0,0.1,0,0.2-0.1c0.4-0.3,0.9-0.5,1.3-0.8c0.4-0.2,0.5-0.6,0.2-0.9
				C9.2,4.3,8.9,3.7,8.6,3.2C8,2.3,7.5,1.3,6.9,0.4C6.7,0.1,6.4,0,6.1,0.1C5.6,0.4,5.2,0.7,4.7,0.9C4.4,1.1,4.3,1.5,4.5,1.8
				c0.9,1.5,1.7,3,2.6,4.5C7.2,6.5,7.4,6.6,7.7,6.6z"/>
			<path class="st1" d="M6.8,6.7C6.1,7.2,5.9,7.8,5.9,8.6c0,0.9,0.3,1.7,0.6,2.5c0.4,1,1,1.8,1.8,2.5c0.4,0.4,0.9,0.8,1.5,0.9
				c0.4,0.1,0.9,0.1,1.3-0.1c0.1-0.1,0.2,0,0.3,0.1c0.8,1.5,1.7,3,2.6,4.4c0.1,0.2,0.1,0.2-0.1,0.3c-0.5,0.2-0.9,0.4-1.4,0.6
				c-0.7,0.2-1.3,0.1-1.9-0.2c-1.1-0.6-2.1-1.4-2.9-2.4C6.1,15.8,5,14.1,4,12.2c-0.8-1.5-1.5-3.1-1.9-4.8C1.9,6.7,1.8,5.8,1.8,5
				c0-1,0.4-1.9,1.2-2.5C3.3,2.3,3.6,2.1,3.8,2C4,1.9,4,1.9,4.1,2c0.5,0.9,1,1.7,1.5,2.6C6,5.3,6.4,6,6.8,6.7z"/>
			<path class="st1" d="M16.8,17.6c0,0.2-0.1,0.4-0.3,0.6c-0.5,0.3-0.9,0.5-1.4,0.8c-0.3,0.2-0.7,0.1-0.9-0.2
				c-0.8-1.4-1.6-2.9-2.5-4.3c-0.1-0.1-0.1-0.2-0.1-0.3c-0.1-0.3,0-0.7,0.3-0.9c0.4-0.2,0.8-0.5,1.3-0.7c0.4-0.2,0.7-0.1,1,0.3
				c0.8,1.5,1.7,2.9,2.5,4.4C16.7,17.4,16.8,17.5,16.8,17.6z"/>
			<path class="st1" d="M7.7,6.6c-0.3,0-0.5-0.1-0.6-0.3c-0.9-1.5-1.7-3-2.6-4.5C4.3,1.5,4.4,1.1,4.7,0.9c0.5-0.3,0.9-0.5,1.4-0.8
				C6.4,0,6.7,0.1,6.9,0.4C7.5,1.3,8,2.3,8.6,3.2c0.3,0.5,0.6,1.1,0.9,1.6c0.2,0.4,0.1,0.7-0.2,0.9C8.8,6.1,8.4,6.3,7.9,6.6
				C7.8,6.6,7.7,6.6,7.7,6.6z"/>
		</g>
	</g>
</g>
<g>
</g>
<g>
</g>
<g>
</g>
</svg>
