<?xml version="1.0" encoding="utf-8"?>
<!-- Generator: Adobe Illustrator 21.0.0, SVG Export Plug-In . SVG Version: 6.00 Build 0)  -->
<svg version="1.1" id="Capa_1" xmlns="http://www.w3.org/2000/svg" xmlns:xlink="http://www.w3.org/1999/xlink" x="0px" y="0px"
	 viewBox="0 0 20 20" style="enable-background:new 0 0 20 20;" xml:space="preserve">
<style type="text/css">
	.st0{fill:#434A54;}
	.st1{fill-rule:evenodd;clip-rule:evenodd;fill:#434A54;}
	.st2{fill:#4077BA;}
	.st3{fill:#597F2E;}
	.st4{fill:#D73747;}
</style>
<g>
</g>
<g>
</g>
<g>
	<g>
		<path class="st2" d="M15.3,6.2V3.5h1.2V0H3.5v3.5h1.2v2.7c0,0.2,0.1,1.8,2.7,3.5c-2.6,1.8-2.7,3.4-2.7,3.6v3.1H3.5V20h12.9v-3.5
			h-1.2v-3.1c0-0.2-0.1-1.9-2.7-3.6C15.2,8,15.3,6.4,15.3,6.2z M14.1,6.2c0,0-0.2,1.3-3,2.8c-0.3,0.1-0.5,0.4-0.5,0.7
			c0,0.3,0.2,0.6,0.5,0.7c1.4,0.7,2.2,1.5,2.6,2c0.4,0.5,0.4,0.9,0.4,0.9v3.1H6.5v-3.1c0,0,0.2-1.4,3.1-2.9c0.3-0.1,0.5-0.4,0.5-0.7
			C10,9.5,9.9,9.2,9.6,9C8.2,8.3,7.4,7.6,7,7.1C6.6,6.6,6.5,6.2,6.5,6.2V3.5h7.6V6.2z"/>
	</g>
</g>
</svg>
