<?xml version="1.0" encoding="utf-8"?>
<!-- Generator: Adobe Illustrator 24.1.0, SVG Export Plug-In . SVG Version: 6.00 Build 0)  -->
<svg version="1.1" id="Capa_1" xmlns="http://www.w3.org/2000/svg" xmlns:xlink="http://www.w3.org/1999/xlink" x="0px" y="0px"
	 viewBox="0 0 300 300" style="enable-background:new 0 0 300 300;" xml:space="preserve">
<style type="text/css">
	.st0{fill:#484C58;}
</style>
<g>
	<path class="st0" d="M264.9,241.5l-50.6-50.6c28.4-39.7,24.9-95.3-10.7-130.9c-19.2-19.2-44.7-29.7-71.8-29.7
		C104.7,30.2,79.2,40.8,60,60c-19.2,19.2-29.7,44.7-29.7,71.8c0,27.1,10.6,52.6,29.7,71.8c19.2,19.2,44.7,29.7,71.8,29.7
		c21.5,0,41.9-6.7,59.1-19l50.6,50.6c3.2,3.2,7.5,4.9,11.7,4.9c4.2,0,8.5-1.6,11.7-4.9C271.4,258.4,271.4,247.9,264.9,241.5z
		 M83.4,180.2c-12.9-12.9-20-30.1-20-48.4c0-18.3,7.1-35.5,20.1-48.4c12.9-12.9,30.1-20,48.4-20s35.5,7.1,48.4,20
		c26.7,26.7,26.7,70.1,0,96.8c-12.9,12.9-30.1,20-48.4,20C113.5,200.2,96.3,193.1,83.4,180.2z M183.1,132.7
		c0,9.1-7.4,16.6-16.6,16.6h-18.6v18.6c0,9.1-7.4,16.6-16.6,16.6s-16.6-7.4-16.6-16.6v-18.6H96.2c-9.1,0-16.6-7.4-16.6-16.6
		s7.4-16.6,16.6-16.6h18.6V97.6c0-9.1,7.4-16.6,16.6-16.6s16.6,7.4,16.6,16.6v18.6h18.6C175.7,116.2,183.1,123.6,183.1,132.7z"/>
</g>
</svg>
