<?xml version="1.0" encoding="utf-8"?>
<!-- Generator: Adobe Illustrator 17.0.0, SVG Export Plug-In . SVG Version: 6.00 Build 0)  -->
<!DOCTYPE svg PUBLIC "-//W3C//DTD SVG 1.1//EN" "http://www.w3.org/Graphics/SVG/1.1/DTD/svg11.dtd">
<svg version="1.1" id="Capa_1" xmlns="http://www.w3.org/2000/svg" xmlns:xlink="http://www.w3.org/1999/xlink" x="0px" y="0px"
	 width="1133.9px" height="1133.9px" viewBox="0 0 1133.9 1133.9" style="enable-background:new 0 0 1133.9 1133.9;"
	 xml:space="preserve">
<style type="text/css">
	.st0{fill:#484C58;}
</style>
<g>
	<path class="st0" d="M709.8,1008h238.8V769.2H709.8V1008z M774,833.4h110.4v110.4H774V833.4z"/>
	<path class="st0" d="M406.5,365.8h87.3v199.9H172.6v203.6H85.3V1008h238.8V769.2h-87.3V629.9h256.9v139.3h-96.2V1008h238.8V769.2
		H558V365.8h87.3V126.9H406.5V365.8z M259.9,943.8H149.6V833.4h110.4V943.8z M572.1,943.8H461.8V833.4h110.4V943.8z M470.7,191.2
		h110.4v110.4H470.7V191.2z"/>
	<path class="st0" d="M1020.2,523c0-7.4-0.5-14.4-1.6-21.8l29.2-20.2l-13.3-39.9l-35.1,1.1c-6.9-12.8-15.4-24.5-25.5-35.1l11.7-33
		l-33.5-24.5L924.5,371c-12.8-6.4-27.1-10.6-41.5-13.3l-10.1-33.5h-42l-10.1,33.5c-14.4,2.7-28.7,7.4-41.5,13.3l-27.6-21.3
		l-33.5,24.5l11.7,33c-10.1,10.6-18.6,22.3-25.5,35.1l-35.1-1.1L656.5,481l29.2,20.2c-1.1,6.9-1.6,14.4-1.6,21.8s0.5,14.9,1.6,21.8
		l-29.2,20.2l12.8,39.9l35.1-1.1c6.9,12.8,15.4,24.5,25.5,35.1l-11.7,33.5l33.5,24.5l28.2-21.8c12.8,6.4,26.6,10.6,41.5,13.3
		l10.1,34h41.5l10.1-34c14.4-2.7,28.2-7.4,41.5-13.3l28.2,21.8l33.5-24.5L974.5,639c10.1-10.6,18.6-22.3,25.5-35.1l35.1,1.1
		l12.8-39.9l-29.2-20.2C1019.7,537.9,1020.2,530.5,1020.2,523z M851.7,597.6c-41.4,0-75-33.6-75-75c0-41.4,33.6-75,75-75
		c41.4,0,75,33.6,75,75C927,563.9,893.4,597.6,851.7,597.6z"/>
</g>
</svg>
