<?xml version="1.0" encoding="utf-8"?>
<!-- Generator: Adobe Illustrator 17.0.0, SVG Export Plug-In . SVG Version: 6.00 Build 0)  -->
<!DOCTYPE svg PUBLIC "-//W3C//DTD SVG 1.1//EN" "http://www.w3.org/Graphics/SVG/1.1/DTD/svg11.dtd">
<svg version="1.1" id="Capa_1" xmlns="http://www.w3.org/2000/svg" xmlns:xlink="http://www.w3.org/1999/xlink" x="0px" y="0px"
	 width="782.14px" height="841.89px" viewBox="0 0 782.14 841.89" enable-background="new 0 0 782.14 841.89" xml:space="preserve">
<g>
	<g>
		<path fill="none" d="M493.27,392.326H158.425v-60.1H493.27V392.326z"/>
		<path fill="none" d="M536.199,186.267c14.31,0,28.619,2.862,40.067,8.586c-20.033-45.791-65.824-71.548-100.167-85.858
			c11.448,25.757,11.448,57.238,11.448,77.272H536.199z"/>
		<path fill="#434B54" d="M576.266,744.342H81.154c-8.586,0-14.31-5.724-14.31-14.31V584.075V220.61h-2.862V114.719
			c0-8.586,5.724-14.31,14.31-14.31h343.431c5.724,0,8.586,2.862,14.31,5.724c17.172,17.172,20.033,71.548,17.172,100.167v20.033
			h82.996c48.653,0,54.377,34.343,54.377,37.205v95.966c9.997,6.809,18.961,16.719,26.218,29.288l10.987,19.031V257.815
			c0-160.268-180.301-194.611-186.025-194.611H81.154c-28.619,0-51.515,22.895-51.515,51.515V220.61v360.602V727.17
			c0,28.619,22.895,51.515,51.515,51.515h495.113c24.019,0,44-16.13,49.804-38.233h-40.56
			C582.658,742.927,579.11,744.342,576.266,744.342z M576.266,194.853c-11.448-5.724-25.757-8.586-40.067-8.586h-48.653
			c0-20.033,0-51.515-11.448-77.272C510.442,123.305,556.233,149.062,576.266,194.853z"/>
		<rect x="158.425" y="332.225" fill="#434B54" width="334.845" height="60.1"/>
		<polygon fill="#434B54" points="158.425,463.874 158.425,523.974 420.089,523.974 454.788,463.874 		"/>
		<path fill="#434B54" d="M378.78,595.522H158.425v60.1H346.24c2.019-5.953,4.746-11.958,8.193-17.93L378.78,595.522z"/>
	</g>
	<g>
		<path fill="#434B54" d="M742.742,647.943l-30.276-52.44c-22.866-39.606-60.284-104.414-83.15-144.02l-30.276-52.44
			c-22.866-39.606-60.284-39.606-83.15,0l-30.276,52.44c-22.866,39.606-60.284,104.414-83.15,144.02l-30.276,52.44
			c-22.866,39.606-4.158,72.01,41.575,72.01h60.552c45.732,0,120.567,0,166.3,0h60.552
			C746.9,719.953,765.608,687.548,742.742,647.943z M556.112,676.564c-12.957,0.001-23.482-10.517-23.482-23.571
			c0-12.983,10.525-23.486,23.482-23.486c12.986,0,23.582,10.503,23.582,23.486C579.695,666.047,569.098,676.564,556.112,676.564z
			 M579.696,608.454h-47.065V443.23h47.065V608.454z"/>
	</g>
</g>
</svg>
