<?xml version="1.0" encoding="iso-8859-1"?>
<!-- Generator: Adobe Illustrator 16.0.0, SVG Export Plug-In . SVG Version: 6.00 Build 0)  -->
<!DOCTYPE svg PUBLIC "-//W3C//DTD SVG 1.1//EN" "http://www.w3.org/Graphics/SVG/1.1/DTD/svg11.dtd">
<svg version="1.1" id="Capa_1" xmlns="http://www.w3.org/2000/svg" xmlns:xlink="http://www.w3.org/1999/xlink" x="0px" y="0px"
	 width="45.203px" height="45.203px" viewBox="0 0 45.203 45.203" style="enable-background:new 0 0 45.203 45.203;"
	 xml:space="preserve">
<g>
	<g>
		<path d="M14.167,17.196c-0.564,0-1.019,0.449-1.018,1.013l0.022,6.383c0.001,0.562,0.458,1.02,1.02,1.02c0.001,0,0.002,0,0.003,0
			c0.318,0,0.601-0.155,0.788-0.383l0.403,6.229c0.036,0.556,0.497,0.983,1.054,0.983h2.102c0.557,0,1.019-0.432,1.054-0.987
			l0.403-6.239c0.186,0.242,0.469,0.396,0.787,0.396c0,0,0.001,0,0.003,0c0.562,0,1.019-0.474,1.021-1.031l0.021-6.379
			c0.001-0.56-0.454-1.075-1.018-1.075c-0.001,0-0.002,0-0.002,0c-0.444,0-6.2,0.069-6.641,0.069
			C14.17,17.196,14.168,17.196,14.167,17.196z"/>
		<circle cx="17.492" cy="13.657" r="2.827"/>
		<path d="M24.696,17.196c-0.564,0-1.02,0.449-1.019,1.013l0.022,6.383c0.001,0.562,0.459,1.02,1.021,1.02c0,0,0.002,0,0.004,0
			c0.317,0,0.602-0.155,0.787-0.383l0.402,6.229c0.036,0.556,0.498,0.983,1.055,0.983h2.103c0.557,0,1.019-0.432,1.054-0.987
			l0.402-6.239c0.186,0.242,0.469,0.396,0.786,0.396c0.001,0,0.002,0,0.003,0c0.563,0,1.02-0.474,1.021-1.031l0.021-6.379
			c0.003-0.56-0.453-1.075-1.018-1.075c-0.001,0-0.003,0-0.003,0c-0.444,0-6.2,0.069-6.64,0.069
			C24.699,17.196,24.698,17.196,24.696,17.196z"/>
		<circle cx="28.02" cy="13.657" r="2.827"/>
		<path d="M44.069,12.258c-0.479-0.17-1.006-0.061-1.373,0.27C39.01,4.932,31.292,0,22.69,0C12.604,0,3.759,6.811,1.18,16.564
			c-0.219,0.831-0.038,1.746,0.486,2.428c0.526,0.682,1.351,1.102,2.21,1.102h0.02c1.343,0,2.531-0.918,2.888-2.215
			c1.968-7.141,8.509-12.135,15.906-12.135c6.312,0,11.918,3.532,14.692,9.029c-0.507,0.02-0.969,0.32-1.185,0.792
			c-0.243,0.53-0.124,1.156,0.3,1.557l6.044,5.751c0.393,0.375,0.969,0.479,1.468,0.27c0.5-0.209,0.828-0.695,0.836-1.237
			l0.126-8.343C44.981,12.98,44.618,12.456,44.069,12.258z"/>
		<path d="M41.452,25.066c-1.35,0-2.541,0.908-2.898,2.207c-1.976,7.166-8.539,12.172-15.961,12.172
			c-6.333,0-11.959-3.549-14.744-9.064c0.509-0.02,0.972-0.322,1.188-0.795c0.245-0.532,0.125-1.162-0.3-1.564L2.671,22.25
			c-0.394-0.375-0.972-0.48-1.474-0.271c-0.501,0.21-0.83,0.698-0.838,1.243l-0.127,8.371c-0.008,0.586,0.356,1.112,0.907,1.31
			c0.479,0.172,1.008,0.063,1.378-0.271c3.699,7.623,11.443,12.571,20.075,12.571c10.121,0,18.997-6.836,21.585-16.622
			c0.22-0.834,0.037-1.739-0.489-2.423C43.163,25.475,42.334,25.066,41.452,25.066z"/>
	</g>
</g>
<g>
</g>
<g>
</g>
<g>
</g>
<g>
</g>
<g>
</g>
<g>
</g>
<g>
</g>
<g>
</g>
<g>
</g>
<g>
</g>
<g>
</g>
<g>
</g>
<g>
</g>
<g>
</g>
<g>
</g>
</svg>
