<svg id="Capa_1" xmlns="http://www.w3.org/2000/svg" viewBox="-122 -123.6 595.3 841.9">
  <style>
    .st0{fill:#1d1d1b}
  </style>
  <path class="st0" d="M-88.5 184.4c7.5-.4 15.1-2 20.4 5.1 1 1.3 1.8 2.9 2.6 4.9 5 12.4-1.8 17.5-8.7 23.7-10 9-11.6 17.7-1.8 27.3.3.3.7.7 1.1 1 7.5 6.9 14.7 14.2 21.8 21.7.6.6 1.2 1.3 1.8 1.9l.3.3c8.6 9.1 16.5 8.6 25.5-.2 6.3-6.2 14-11 23-17.9.5-5 .5-13.5 2.3-21.6 1.5-6.4.8-11.2-2.1-15.7-.3-.4-.5-.8-.8-1.2l-.1-.1-.9-1.2v-.1c-.3-.4-.6-.8-1-1.2l-.2-.2c-.3-.3-.6-.7-.9-1-.4-.4-.8-.9-1.3-1.3l-.2-.2C-44 173.7-44.2 123-9 90.5c26.2-24.2 61.4-27.4 91-11.2 9.8 5.4 19 12.9 27.1 22.6 3.2 3.9 9.6 6.6 14.8 7.1 10.4 1.1 21 .3 27.8.3 3.2-10 3.6-19.1 8.3-24.4 17.1-19.7 17.6-20.1-1.1-38.9-3.2-3.2-6.4-6.2-9.6-9.4-13-13.2-17.4-17.6-25-13.6-4 2-8.9 6.3-16.5 12.9-.6.5-1.4 1-2.3 1.5-3.9 1.9-9.5 2.6-12.8 1.1-4.9-2.1-10.8-8.1-11.3-13C78-4.2 78.5-4.3 49-4.3H37.3c-10.7 0-17.1 0-20.9 1.8-5.6 2.5-5.8 8.8-5.8 24.2 0 9.5-4 13.2-11.7 17.3-.3.2-.6.3-.9.4-10.8 5.1-15.7-2.3-21.1-8.5-5.3-6-10.4-9-15.4-9s-10.1 3-15.3 9.1c-6.1 7.2-12.9 13.9-20.1 20.1-10.9 9.4-11.3 18.2-1.9 27.4.7.6 1.3 1.3 2.1 1.9 1.1 1 2.2 1.9 3.2 2.9 5.6 5.2 9.1 10.7 4.8 20.9-5.2 12.2-14 9-22.1 8.8-14-.3-21 5-20.4 19.6.5 10.6.5 21.2 0 31.8-.4 8.9 1.6 14.8 6.9 17.8 3.1 1.7 7.3 2.5 12.8 2.2zm449.4 363.8c-2.5-8-5.4-15.8-8.2-23.7-22.4-62.7-66.3-100.3-132-111.7-5-.8-12 1.4-16 4.7-49.5 41.2-94.9 41.4-144.5.4-3.8-3.2-10.1-6.3-14.3-5.4-15.7 3.5-31.8 7-46.4 13.5-45 20.1-71.7 54.7-88 98-2.7 7.3-5.2 14.8-7.4 22.5-10.1 35.5 1.2 52.4 38.5 52.5 62.6-.1 125.1-.2 187.5-.2h.2c36.1 0 72.2.1 108.4 0h85.9c20.6-.1 33.5-7 37.9-19.9 2.9-8 2.4-18.3-1.6-30.7z"/>
  <path class="st0" d="M133 139.1c-13.1 0-26.4 2.4-39.3 7.7-15.3 6.2-28.3 15.8-38.6 28.8-17.8 22.6-27.4 56-26.9 101.5 0 1.7.1 3.5.3 5.3 2 27.3 14.5 66 40.6 99.8 18.2 23.6 40.6 35.9 62.9 36.1 19.6.3 39.2-8.8 55.7-27.8 45.5-52.4 60.6-113.9 40.8-181-12.9-43.7-52.8-70.3-95.5-70.4zm323.1 199.3c-3.2-4.2-9.4-4.8-21.6-4.2-8.9.5-15.6-1.6-19-6.7-1.5-2.4-2.3-5.4-2.4-9.2-.1-7.1 5-15.7 10.3-21.2 8.3-8.6 10.9-16.1 5.4-24.1-1.3-1.9-3-3.9-5.3-5.9-7.1-6.3-13.4-13.4-20.1-20.1-18.3-18.4-20.1-18.8-38.4.4-7.4 7.8-13 8.4-22.9 4.4-4.2-1.7-6.5-3.8-7.8-6.2-2.3-4.7-.9-10.3-1.1-15.6-.2-6.2-.3-12.9-3.2-17.4-1.9-3.2-5.1-5.4-10.7-5.8-18.7-1.3-37.5-.3-55.3-.3 1.4 29.4 2.7 56.2 4 83.1h.2v.3c40.8-8.2 73.1 2.5 94.2 31.1.6.8 1.1 1.6 1.7 2.3.1.2.2.3.3.5 1.4 2.1 2.7 4.2 4 6.4 20.4 35.1 13.9 67.9-20.8 108.7-1.1 1.3-2.3 2.6-3.5 4 11.3 20.4 22.7 40.1 33.1 60.2.5 1 1 1.9 1.6 2.6 4.8 7.4 10.2 5.1 15.6 0 11-10.3 21.6-21 32.2-31.7 6.7-6.8 7.2-13.8 2.3-20.7-.7-1.1-1.6-2.1-2.6-3.2-3.1-3.4-7.5-6-9.8-9.8-.1-.2-.3-.5-.4-.7-2.2-4.7-4.1-11.5-2.2-15.6 2.5-5.6 8.2-12.8 13.3-13.5 32.3-4.6 32.4-4 32.4-36.3v-15.1c-.1-10.8-.6-17.2-3.5-20.7z"/>
  <path class="st0" d="M247.8 385.3c26.2 13 52.7 26.2 80.8 40 .1 0 .1-.1.2-.1 20.4-11.4 31.6-32.9 29.9-56.3-.6-8.4-2.8-17.1-6.9-25.6-4.3-8.9-10.5-16.4-17.9-22.2-17.7-14-42.4-18.3-64.2-9-4.1 1.8-8.9 5.4-10.6 9.3-8.5 20.3-16.1 41.1-22.7 58.3 3.8 1.9 7.6 3.7 11.4 5.6zM92 114c-10.8-12.2-23.7-19.8-36.8-22.7-.3-.1-.6-.1-1-.2-.7-.1-1.3-.3-2-.4-18.1-3.1-36.3 2.6-49.9 17.1-23.8 25.6-21.8 64 6 86 8.4-20.6 20.2-37.9 35.3-51.7C57.2 130 73.2 120.6 92 114z"/>
</svg>
