<?xml version="1.0" encoding="utf-8"?>
<!-- Generator: Adobe Illustrator 21.1.0, SVG Export Plug-In . SVG Version: 6.00 Build 0)  -->
<svg version="1.1" id="Capa_1" xmlns="http://www.w3.org/2000/svg" xmlns:xlink="http://www.w3.org/1999/xlink" x="0px" y="0px"
	 viewBox="0 0 50 50" style="enable-background:new 0 0 50 50;" xml:space="preserve">
<style type="text/css">
	.st0{fill:#434A54;}
</style>
<g>
	<path class="st0" d="M45.3,30.8l-4.4-3.7c0.1-0.7,0.1-1.4,0.1-2.1c0-0.7,0-1.4-0.1-2.1l4.4-3.7c0.5-0.4,0.7-1.2,0.3-1.8L41.8,11
		c-0.3-0.6-1.1-0.9-1.7-0.6l-5.4,2c-1.1-0.9-2.3-1.6-3.6-2.1l-1-5.7C30,4,29.4,3.5,28.8,3.5h-7.5c-0.7,0-1.3,0.5-1.4,1.2l-1,5.7
		c-1.3,0.5-2.5,1.2-3.6,2.1l-5.4-2c-0.6-0.2-1.4,0-1.7,0.6l-3.8,6.5c-0.3,0.6-0.2,1.4,0.3,1.8L9.2,23C9.1,23.7,9,24.4,9,25.1
		c0,0.7,0,1.4,0.1,2.1l-4.4,3.7c-0.5,0.4-0.7,1.2-0.3,1.8l3.8,6.5c0.3,0.6,1.1,0.9,1.7,0.6l5.4-2c1.1,0.9,2.3,1.6,3.6,2.1l1,5.7
		c0.1,0.4,0.2,0.7,0.5,0.9V34.3c-3.3-1.7-5.6-5.1-5.6-9.2c0-3.9,2.2-7.4,5.6-9.2v6.4l4.7,2.8l4.7-2.8v-6.4c3.4,1.8,5.6,5.3,5.6,9.2
		c0,4-2.3,7.5-5.6,9.2v12c0.2-0.2,0.3-0.5,0.4-0.8l1-5.7c1.3-0.5,2.5-1.2,3.6-2.1l5.4,2c0.6,0.2,1.4,0,1.7-0.6l3.8-6.5
		C45.9,32,45.8,31.3,45.3,30.8z"/>
	<path class="st0" d="M29.8,46.3L29.8,46.3c-0.1,0.1-0.2,0.2-0.3,0.2C29.6,46.4,29.7,46.4,29.8,46.3z"/>
	<path class="st0" d="M20.4,46.4C20.4,46.4,20.4,46.4,20.4,46.4C20.4,46.4,20.4,46.4,20.4,46.4L20.4,46.4z"/>
</g>
</svg>
