<?xml version="1.0" encoding="utf-8"?>
<!-- Generator: Adobe Illustrator 21.1.0, SVG Export Plug-In . SVG Version: 6.00 Build 0)  -->
<svg version="1.1" id="Capa_1" xmlns="http://www.w3.org/2000/svg" xmlns:xlink="http://www.w3.org/1999/xlink" x="0px" y="0px"
	 viewBox="0 0 50 50" style="enable-background:new 0 0 50 50;" xml:space="preserve">
<style type="text/css">
	.st0{fill:#434A54;}
</style>
<g>
	<g>
		<path class="st0" d="M42.7,20.2c-0.4-0.5-1-0.8-1.6-0.8h-2c0-1.1-0.9-2-2-2h-2v-2c0-1.1-0.9-2-2-2h-1v-4c0-0.6-0.5-1-1-1H10.8
			c-0.6,0-1,0.5-1,1v4h-1c-1.1,0-2,0.9-2,2v24.3c0,1.1,0.9,2,2,2h28.3c0.9,0,1.8-0.7,2-1.6l4-18.2C43.3,21.3,43.1,20.7,42.7,20.2
			L42.7,20.2z M9.8,39.7h-1V15.4h1V39.7z M31.1,17.4c-1.1,0-2,0.9-2,2H16.9c-0.9,0-1.8,0.7-2,1.6c0,0-4.1,18.5-4.1,18.6V9.3h20.2
			V17.4z M33.1,17.4h-1v-2h1V17.4z M26.9,13.8H14.8c-0.6,0-1-0.5-1-1c0-0.6,0.5-1,1-1h12.1c0.6,0,1,0.5,1,1
			C27.9,13.4,27.4,13.8,26.9,13.8L26.9,13.8z M26.9,17.9H14.8c-0.6,0-1-0.5-1-1c0-0.6,0.5-1,1-1h12.1c0.6,0,1,0.5,1,1
			C27.9,17.5,27.4,17.9,26.9,17.9L26.9,17.9z M26.9,17.9"/>
	</g>
</g>
</svg>
