<?xml version="1.0" encoding="utf-8"?>
<!-- Generator: Adobe Illustrator 21.1.0, SVG Export Plug-In . SVG Version: 6.00 Build 0)  -->
<svg version="1.1" id="Capa_1" xmlns="http://www.w3.org/2000/svg" xmlns:xlink="http://www.w3.org/1999/xlink" x="0px" y="0px"
	 viewBox="0 0 283.5 283.5" style="enable-background:new 0 0 283.5 283.5;" xml:space="preserve">
<style type="text/css">
	.st0{fill:#434A54;}
	.st1{fill:none;}
</style>
<g>
	<path class="st0" d="M217.6,182c-25,0-45.3,20.3-45.3,45.3s20.3,45.3,45.3,45.3c25,0,45.3-20.3,45.3-45.3S242.7,182,217.6,182z
		 M208.7,252.1l-17.8-17.8c-2-2-2-5.2,0-7.1h0c2-2,5.2-2,7.1,0l10.7,10.7l28.6-28.6c2-2,5.2-2,7.1,0v0c2,2,2,5.2,0,7.1L208.7,252.1z
		"/>
	<g>
		<path class="st1" d="M167.7,88.8c0-24.6-20-44.7-44.7-44.7c-24.6,0-44.7,20-44.7,44.7v27.7h89.5V88.8z"/>
		<path class="st1" d="M126.4,165.3c-8.6-1.7-17.8,3.1-21.5,11.4c-3.8,8.5-1.3,18.2,6.4,23.9c1.5,1.1,1.9,2.3,1.9,4
			c-0.1,8.5-0.1,17-0.1,25.5v0.1c0,7,7.4,12.3,14.8,8.6c3.1-1.6,4.9-5,4.8-8.6c0-8.5,0-16.9-0.1-25.4c0-1.9,0.4-3,2.1-4.2
			c5.4-3.9,8-9.3,8-16C142.7,174.9,136,167.3,126.4,165.3z"/>
		<path class="st0" d="M163.6,227.3c0-29.9,24.2-54.1,54.1-54.1c2.2,0,4.3,0.1,6.4,0.4v-36.1c0-11.6-9.4-21-21-21h-0.5V88.8
			c0-43.9-35.7-79.5-79.5-79.5C79.1,9.3,43.4,45,43.4,88.8v27.7h-1.8c-11.6,0-21,9.4-21,21v115.7c0,11.6,9.4,21,21,21h149.3
			C174.6,264.9,163.6,247.4,163.6,227.3z M78.2,88.8c0-24.7,20.1-44.7,44.7-44.7c24.7,0,44.7,20.1,44.7,44.7v27.7H78.2V88.8z
			 M134.8,200.5c-1.6,1.2-2.1,2.3-2.1,4.2c0.1,8.5,0.1,16.9,0.1,25.4c0.2,3.5-1.6,7-4.8,8.6c-7.4,3.8-14.8-1.5-14.8-8.6v-0.1
			c0-8.5,0-17,0.1-25.5c0-1.7-0.4-2.9-1.9-4c-7.7-5.7-10.2-15.4-6.4-23.9c3.7-8.3,12.9-13.2,21.5-11.4c9.6,2,16.2,9.6,16.4,19.2
			C142.8,191.2,140.1,196.6,134.8,200.5z"/>
	</g>
</g>
</svg>
