<?xml version="1.0" encoding="utf-8"?>
<!-- Generator: Adobe Illustrator 17.0.0, SVG Export Plug-In . SVG Version: 6.00 Build 0)  -->
<!DOCTYPE svg PUBLIC "-//W3C//DTD SVG 1.1//EN" "http://www.w3.org/Graphics/SVG/1.1/DTD/svg11.dtd">
<svg version="1.1" id="Capa_1" xmlns="http://www.w3.org/2000/svg" xmlns:xlink="http://www.w3.org/1999/xlink" x="0px" y="0px"
	 width="782.14px" height="841.89px" viewBox="0 0 782.14 841.89" enable-background="new 0 0 782.14 841.89" xml:space="preserve">
<g>
	<path fill="#434A54" d="M316.06,416.693h166.677c8.243,0,14.926-6.682,14.926-14.925V281.986l58.702-70.459
		c7.078-8.496,5.929-21.121-2.567-28.199c-8.494-7.077-21.12-5.93-28.198,2.567l-32.249,38.707
		c-2.706-2.738-6.46-4.437-10.614-4.437H316.06c-8.243,0-14.926,6.682-14.926,14.925v166.676
		C301.134,410.011,307.817,416.693,316.06,416.693z M330.986,250.017h136.825v5.24l-57.781,69.353l-27.552-43.452
		c-5.924-9.34-18.295-12.107-27.631-6.188c-9.339,5.921-12.109,18.292-6.188,27.631l42.262,66.649
		c3.427,5.404,9.229,8.844,15.613,9.258c0.434,0.028,0.866,0.042,1.298,0.042c5.919,0,11.563-2.625,15.381-7.206l44.598-53.529
		v69.026H330.986V250.017z"/>
	<path fill="#434A54" d="M316.06,653.882h166.677c8.243,0,14.926-6.683,14.926-14.926V472.279c0-8.243-6.683-14.926-14.926-14.926
		H316.06c-8.243,0-14.926,6.683-14.926,14.926v166.677C301.134,647.199,307.817,653.882,316.06,653.882z M330.986,487.205h136.825
		V624.03H330.986V487.205z"/>
	<path fill="#434A54" d="M445.356,500.467c-6.332-5.277-15.744-4.422-21.021,1.911l-24.938,29.925l-24.938-29.925
		c-5.278-6.334-14.689-7.188-21.021-1.911c-6.333,5.277-7.188,14.688-1.911,21.021l28.441,34.129l-28.441,34.129
		c-5.277,6.332-4.422,15.743,1.911,21.021c2.79,2.325,6.178,3.46,9.547,3.46c4.276,0,8.522-1.829,11.474-5.371l24.938-29.925
		l24.938,29.925c2.952,3.543,7.197,5.371,11.474,5.371c3.369,0,6.757-1.135,9.547-3.46c6.333-5.277,7.188-14.688,1.911-21.021
		l-28.441-34.129l28.441-34.129C452.544,515.156,451.689,505.745,445.356,500.467z"/>
	<path fill="#434A54" d="M664.258,346.059V301.82v-65.384v-76.768c0-13.719,7.589-86.692-48.162-86.692H164.247
		c-53.416,0-46.411,70.93-46.411,84.357v606.259c0,14.011,0-4.086,14.303-4.086h122.303h68.011h18.414h203.424h51.081h69.234
		v-65.384V346.059H664.258z M595.372,346.059v52.962v295.103h-70.346H340.867H185.847V138.361h409.524V346.059z"/>
</g>
</svg>
