<?xml version="1.0" encoding="utf-8"?>
<!-- Generator: Adobe Illustrator 17.0.0, SVG Export Plug-In . SVG Version: 6.00 Build 0)  -->
<!DOCTYPE svg PUBLIC "-//W3C//DTD SVG 1.1//EN" "http://www.w3.org/Graphics/SVG/1.1/DTD/svg11.dtd">
<svg version="1.1" id="Capa_1" xmlns="http://www.w3.org/2000/svg" xmlns:xlink="http://www.w3.org/1999/xlink" x="0px" y="0px"
	 width="782.14px" height="841.89px" viewBox="0 0 782.14 841.89" enable-background="new 0 0 782.14 841.89" xml:space="preserve">
<path fill="#444A54" d="M725.445,226.737C716.429,58.411,524.737,22.211,519.455,21.583H115.893
	c-31.04,0-56.483,25.341-56.483,56.615v685.361c0,30.938,25.443,56.318,56.483,56.318h553.711c31.021,0,56.444-25.38,56.444-56.318
	V239.419C726.053,235.077,726.053,230.72,725.445,226.737 M671.16,169.787c-12.741-5.87-28.254-8.948-46.193-8.948h-52.15
	c0.297-22.302-1.26-57.577-11.822-86.332C597.632,89.66,647.268,118.103,671.16,169.787 M498.661,60.565
	c5.889,0,10.266,2.179,14.589,6.789c18.946,20.75,21.416,79.208,19.238,111.989v2.495l-1.26,18.567h93.733
	c53.026,0,61.079,37.454,61.39,41.481v521.669h0.005c0,9.283-8.068,16.685-16.748,16.685H115.893
	c-9.303,0-16.806-7.397-16.806-16.685V78.193c0-9.624,7.504-17.628,16.806-17.628"/>
<g>
	<path fill="#434A54" d="M391.88,208.452L147.337,633.008h490.784L391.88,208.452z M391.88,590.549
		c-11.885,0-20.381-10.188-20.381-20.381c0-11.89,10.188-20.381,20.381-20.381c11.89,0,20.381,10.188,20.381,20.381
		C413.958,582.059,403.77,590.549,391.88,590.549z M371.505,529.417V381.671h42.454v147.746H371.505z"/>
</g>
</svg>
