<?xml version="1.0" encoding="utf-8"?>
<!-- Generator: Adobe Illustrator 21.0.0, SVG Export Plug-In . SVG Version: 6.00 Build 0)  -->
<svg version="1.1" id="Capa_1" xmlns="http://www.w3.org/2000/svg" xmlns:xlink="http://www.w3.org/1999/xlink" x="0px" y="0px"
	 viewBox="0 0 20 20" style="enable-background:new 0 0 20 20;" xml:space="preserve">
<style type="text/css">
	.st0{fill:#434A54;}
	.st1{fill-rule:evenodd;clip-rule:evenodd;fill:#434A54;}
	.st2{fill:#4077BA;}
	.st3{fill:#597F2E;}
	.st4{fill:#D73747;}
</style>
<g>
	<g>
		<g>
			<path class="st0" d="M18.8,8.4h-7.1V2.8c0-0.3-0.2-0.5-0.5-0.5H0.5C0.2,2.2,0,2.5,0,2.8v13c0,0.3,0.2,0.5,0.5,0.5h7.9v0.2
				c0,0.6,0.5,1.2,1.2,1.2h9.3c0.6,0,1.2-0.5,1.2-1.2v-7C20,8.9,19.5,8.4,18.8,8.4z M10.7,15.3H1v-12h9.7V15.3z M18.8,10.7l-4.6,2.9
				l-2.4-1.5v-1.2l2.4,1.5l4.6-2.9V10.7z"/>
			<g>
				<rect x="2.4" y="5.9" class="st0" width="6.9" height="1"/>
				<rect x="2.4" y="8.9" class="st0" width="6.9" height="1"/>
			</g>
		</g>
	</g>
</g>
</svg>
