<?xml version="1.0" encoding="utf-8"?>
<!-- Generator: Adobe Illustrator 17.0.0, SVG Export Plug-In . SVG Version: 6.00 Build 0)  -->
<!DOCTYPE svg PUBLIC "-//W3C//DTD SVG 1.1//EN" "http://www.w3.org/Graphics/SVG/1.1/DTD/svg11.dtd">
<svg version="1.1" id="Capa_1" xmlns="http://www.w3.org/2000/svg" xmlns:xlink="http://www.w3.org/1999/xlink" x="0px" y="0px"
	 width="300px" height="300px" viewBox="0 0 300 300" enable-background="new 0 0 300 300" xml:space="preserve">
<path fill="#434B54" d="M206.05,229.89h-23.119v12.421H44.461V54.424H182.93v101.831h23.119v-46.541l-0.122-22.018V61.641
	c0-4.648,2.569-29.235-16.269-29.235H37c-18.104,0-15.78,23.975-15.78,28.501v204.891c0,4.771,0-1.468,4.893-1.468h41.345
	l23.119,0.122h110.947c5.015,0,4.526,4.648,4.526-0.122L206.05,229.89L206.05,229.89z"/>
<g>
	<path fill="#434B54" d="M149.548,154.035c-3.248-4.956-7.847-9.101-13.793-12.421c-3.644-2.055-8.636-3.91-14.951-5.547v-26.332
		c5.565,2.063,10.584,5.056,15.022,8.99l14.745-10.249c-4.819-5.146-9.466-8.969-13.931-11.449
		c-4.479-2.476-9.747-4.304-15.837-5.475V79.376h-10.392v12.175c-4.866,0.703-8.491,1.481-10.881,2.322
		c-4.072,1.398-7.818,3.508-11.237,6.317c-3.419,2.81-6.044,6.184-7.892,10.14c-1.85,3.956-2.769,7.85-2.769,11.689
		c0,4.497,1.07,9.036,3.23,13.623c2.144,4.589,5.643,8.578,10.493,11.975c4.845,3.39,11.193,5.976,19.056,7.755v30.4
		c-7.535-1.404-14.278-6.253-20.22-14.53l-15.23,10.601c3.362,4.772,6.433,8.322,9.193,10.669c3.656,3.139,7.515,5.531,11.585,7.198
		c4.07,1.662,8.963,2.84,14.673,3.543v18.883h10.392v-18.883c4.495-0.331,7.858-0.817,10.111-1.477
		c4.214-1.262,8.143-3.275,11.795-6.034c3.647-2.763,6.514-6.331,8.595-10.707c2.086-4.38,3.125-9.039,3.125-14.004
		C154.43,164.663,152.806,159.003,149.548,154.035z M110.413,133.676L110.413,133.676c-6.273-1.676-10.352-3.489-12.256-5.441
		c-1.884-1.939-2.84-4.222-2.84-6.842c0-2.902,1.181-5.519,3.547-7.827c2.359-2.319,6.213-3.921,11.549-4.814
		C110.413,108.752,110.413,133.676,110.413,133.676z M132.11,181.316c-2.484,2.599-6.245,4.249-11.307,4.944v-28.498
		c5.612,1.637,9.526,3.688,11.721,6.143c2.211,2.45,3.301,5.202,3.301,8.248C135.826,175.664,134.594,178.717,132.11,181.316z"/>
</g>
<path fill="#434B54" d="M217.894,244.813c0,1.68,0.974,3.2,2.494,3.906c1.525,0.707,3.317,0.461,4.596-0.62l55.992-47.377
	c0.969-0.818,1.525-2.02,1.525-3.286s-0.555-2.468-1.525-3.291l-55.992-47.377c-0.793-0.667-1.783-1.016-2.782-1.016
	c-0.616,0-1.232,0.129-1.813,0.4c-1.521,0.707-2.494,2.227-2.494,3.906L217.894,244.813L217.894,244.813z"/>
<rect x="182.93" y="165.155" fill="#434B54" width="23.12" height="55.834"/>
</svg>
