<?xml version="1.0" encoding="utf-8"?>
<!-- Generator: Adobe Illustrator 17.0.0, SVG Export Plug-In . SVG Version: 6.00 Build 0)  -->
<!DOCTYPE svg PUBLIC "-//W3C//DTD SVG 1.1//EN" "http://www.w3.org/Graphics/SVG/1.1/DTD/svg11.dtd">
<svg version="1.1" id="Capa_1" xmlns="http://www.w3.org/2000/svg" xmlns:xlink="http://www.w3.org/1999/xlink" x="0px" y="0px"
	 width="300px" height="300px" viewBox="0 0 300 300" enable-background="new 0 0 300 300" xml:space="preserve">
<g>
	<g>
		<path fill="#484C58" d="M201.972,20.325H52.756v259.35h194.487V65.596L201.972,20.325z M231.066,263.447H68.985V36.513h113.447
			v48.625h48.634V263.447z M231.066,263.447"/>
		<rect x="85.162" y="173.419" fill="#484C58" width="97.269" height="16.228"/>
		<rect x="85.162" y="108.607" fill="#484C58" width="129.675" height="16.188"/>
		<rect x="85.162" y="141.013" fill="#484C58" width="129.675" height="16.188"/>
	</g>
	<path fill="#484C58" d="M203.772,182.406l-39.973,45.437l-16.052-14.104l-2.687-2.442l-9.435,10.509
		c-1.279,1.075-1.828,1.869-1.828,1.869l29.786,28.89c0,0,1.015-0.71,1.929-1.749l49.019-54.723l2.209-2.311l-10.26-9.387
		C204.673,182.854,203.772,182.406,203.772,182.406z"/>
</g>
</svg>
