<?xml version="1.0" encoding="utf-8"?>
<!-- Generator: Adobe Illustrator 17.0.0, SVG Export Plug-In . SVG Version: 6.00 Build 0)  -->
<!DOCTYPE svg PUBLIC "-//W3C//DTD SVG 1.1//EN" "http://www.w3.org/Graphics/SVG/1.1/DTD/svg11.dtd">
<svg version="1.1" id="Capa_1" xmlns="http://www.w3.org/2000/svg" xmlns:xlink="http://www.w3.org/1999/xlink" x="0px" y="0px"
	 width="300px" height="300px" viewBox="0 0 300 300" enable-background="new 0 0 300 300" xml:space="preserve">
<g>
	<g>
		<g>
			<path fill="#434B54" d="M200.877,24.266H46.594c-10.45,0-19,8.55-19,19v213.469c0,10.45,8.55,19,19,19h129.132
				c-23.401-12.987-39.281-37.946-39.281-66.553c0-4.473,0.41-8.849,1.155-13.112H61.802v-24.522h84.647
				c4.212-7.365,9.615-13.958,15.952-19.521H60.443v-24.522h129.303v9.095c7.191-2.26,14.837-3.483,22.763-3.483
				c2.486,0,4.942,0.129,7.367,0.363V43.266C219.877,32.815,211.326,24.266,200.877,24.266z M188.387,107.983H59.084V83.461h129.303
				V107.983z"/>
		</g>
	</g>
	<g>
		<path fill="#434B54" d="M212.51,275.079c-36.334,0-65.894-29.562-65.894-65.897c0-36.334,29.56-65.894,65.894-65.894
			c36.335,0,65.896,29.56,65.897,65.894C278.407,245.518,248.846,275.079,212.51,275.079z M212.51,155.288
			c-29.717,0-53.894,24.177-53.894,53.894c0,29.719,24.177,53.897,53.894,53.897c29.719,0,53.897-24.179,53.897-53.897
			C266.406,179.465,242.229,155.288,212.51,155.288z"/>
	</g>
	<g>
		<path fill="#434B54" d="M223.562,204.385c-1.912-1.078-4.532-2.052-7.846-2.911v-13.82c2.921,1.083,5.554,2.653,7.883,4.718
			l7.738-5.378c-2.529-2.701-4.968-4.707-7.311-6.008c-2.351-1.3-5.115-2.259-8.311-2.874v-6.39h-5.453v6.39
			c-2.553,0.369-4.456,0.777-5.711,1.219c-2.137,0.734-4.103,1.841-5.898,3.315s-3.172,3.245-4.142,5.322
			c-0.971,2.076-1.454,4.119-1.454,6.134c0,2.36,0.562,4.742,1.696,7.15c1.125,2.408,2.962,4.502,5.507,6.285
			c2.542,1.779,5.873,3.137,10.001,4.07v15.954c-3.954-0.737-7.493-3.281-10.611-7.626l-7.993,5.564
			c1.764,2.505,3.376,4.368,4.824,5.599c1.919,1.647,3.944,2.903,6.079,3.777c2.136,0.872,4.703,1.49,7.7,1.859v9.91h5.453v-9.91
			c2.359-0.174,4.124-0.429,5.306-0.775c2.211-0.662,4.273-1.719,6.19-3.166c1.914-1.45,3.418-3.323,4.511-5.619
			c1.094-2.299,1.64-4.744,1.64-7.349c0-3.343-0.852-6.313-2.562-8.921C229.096,208.303,226.682,206.128,223.562,204.385z
			 M210.263,200.22L210.263,200.22c-3.291-0.879-5.432-1.831-6.431-2.855c-0.988-1.018-1.49-2.216-1.49-3.591
			c0-1.523,0.619-2.896,1.861-4.108c0.619-0.609,1.434-1.123,2.444-1.544c1.011-0.42,2.216-0.748,3.616-0.982l0,0L210.263,200.22
			L210.263,200.22z M221.65,225.221c-1.303,1.364-3.277,2.23-5.934,2.595V212.86c2.946,0.859,4.999,1.935,6.152,3.224
			c1.16,1.286,1.732,2.73,1.732,4.328C223.6,222.255,222.954,223.857,221.65,225.221z"/>
	</g>
</g>
</svg>
