<?xml version="1.0" encoding="utf-8"?>
<!-- Generator: Adobe Illustrator 17.0.0, SVG Export Plug-In . SVG Version: 6.00 Build 0)  -->
<!DOCTYPE svg PUBLIC "-//W3C//DTD SVG 1.1//EN" "http://www.w3.org/Graphics/SVG/1.1/DTD/svg11.dtd">
<svg version="1.1" id="Capa_1" xmlns="http://www.w3.org/2000/svg" xmlns:xlink="http://www.w3.org/1999/xlink" x="0px" y="0px"
	 width="300px" height="300px" viewBox="0 0 300 300" enable-background="new 0 0 300 300" xml:space="preserve">
<g>
	<path fill="#434B54" d="M200.68,228.454c0,2.051,1.189,3.908,3.045,4.77c1.862,0.863,4.05,0.563,5.612-0.757l68.37-57.851
		c1.183-0.999,1.862-2.467,1.862-4.013c0-1.546-0.678-3.014-1.862-4.018l-68.37-57.851c-0.968-0.815-2.177-1.241-3.397-1.241
		c-0.752,0-1.504,0.158-2.214,0.489c-1.857,0.863-3.045,2.719-3.045,4.77V228.454z"/>
	<path fill="#434B54" d="M133.816,186.38h69.881c1.452,0,2.63-1.178,2.63-2.63v-26.296c0-1.452-1.178-2.63-2.63-2.63h-70.501
		c-9.73,0-17.429,8.851-15.473,18.923C119.179,181.236,126.19,186.38,133.816,186.38z"/>
	<path fill="#434B54" d="M99.32,71.546c0-2.051-1.189-3.908-3.045-4.77c-1.862-0.863-4.05-0.563-5.612,0.757l-68.37,57.851
		c-1.183,0.999-1.862,2.467-1.862,4.013c0,1.546,0.678,3.014,1.862,4.018l68.37,57.851c0.968,0.815,2.177,1.241,3.397,1.241
		c0.752,0,1.504-0.158,2.214-0.489c1.857-0.863,3.045-2.719,3.045-4.77V71.546z"/>
	<path fill="#434B54" d="M166.184,113.62H96.304c-1.452,0-2.63,1.178-2.63,2.63v26.296c0,1.452,1.178,2.63,2.63,2.63h70.501
		c9.73,0,17.429-8.851,15.473-18.923C180.821,118.764,173.81,113.62,166.184,113.62z"/>
</g>
</svg>
