<?xml version="1.0" encoding="utf-8"?>
<!-- Generator: Adobe Illustrator 21.1.0, SVG Export Plug-In . SVG Version: 6.00 Build 0)  -->
<svg version="1.1" id="Capa_1" xmlns="http://www.w3.org/2000/svg" xmlns:xlink="http://www.w3.org/1999/xlink" x="0px" y="0px"
	 viewBox="0 0 283.5 283.5" style="enable-background:new 0 0 283.5 283.5;" xml:space="preserve">
<style type="text/css">
	.st0{fill:#434A54;}
	.st1{fill:none;}
</style>
<g>
	<g>
		<path class="st0" d="M168.4,161.9l92.5,87c0.5,0.5,0.8,1.2,0.9,2c0,0.7-0.3,1.5-0.8,2l-14.8,14.8c-0.5,0.5-1.2,0.8-2,0.8
			c-0.7,0-1.4-0.3-2-0.9l-87-92.5c-1-1.1-1-2.8,0.1-3.8l9.3-9.3C165.6,161,167.3,160.9,168.4,161.9z"/>
		<path class="st0" d="M182,133.9l-53.2,53.2l-36.4-36.4c-0.4-0.4-0.8-0.6-1.2-1l53.4-53.4c0.3,0.4,0.6,0.8,0.9,1.2L182,133.9z"/>
		<path class="st0" d="M88,153c0.4,0.3,0.8,0.6,1.2,1l36.4,36.4l0.5,0.5c4.4,4.4,4.4,11.5,0,15.8c-4.4,4.4-11.5,4.4-15.8,0
			l-36.9-36.9c-4.4-4.4-4.4-11.5,0-15.8C77.3,150,83.6,149.7,88,153z"/>
		<path class="st0" d="M164.4,77.6l36.9,36.9c4.4,4.4,4.4,11.5,0,15.8c-4.4,4.4-11.5,4.4-15.8,0l-0.5-0.5l-36.4-36.4
			c-0.4-0.4-0.6-0.8-0.9-1.2c-3.3-4.4-3.1-10.7,0.9-14.7C153,73.2,160,73.2,164.4,77.6z"/>
	</g>
	<g>
		<path class="st1" d="M214.9,37.4H108.2c-1.6,0-2.9,0.6-4.1,1.9c-5.3,5.8-6,22.1-5.4,31.2v0.7l0.4,5.2H73.1
			c-14.8,0-17,10.4-17.1,11.6v145.3c0,2.6,2.2,4.6,4.7,4.6h146.6L150,177c-1.5-1.6-1.5-4.1,0.1-5.7l13.9-13.9
			c1.6-1.6,4.1-1.6,5.7-0.1l49.9,46.9V42.3C219.5,39.7,217.4,37.4,214.9,37.4z"/>
		<path class="st1" d="M87.6,65.4c-0.1-6.2,0.4-16,3.3-24c-10.2,4.2-24,12.1-30.7,26.5c3.5-1.6,7.9-2.5,12.9-2.5H87.6z"/>
		<path class="st0" d="M60.6,237.9c-2.4,0-4.7-2.1-4.7-4.6V87.9c0.1-1.1,2.3-11.6,17.1-11.6h26.1l-0.4-5.2v-0.7
			c-0.6-9.1,0.1-25.4,5.4-31.2c1.2-1.3,2.4-1.9,4.1-1.9h106.6c2.6,0,4.7,2.2,4.7,4.9v161.9l11.1,10.4V42.3c0-8.7-7.1-15.8-15.7-15.8
			H102.5c-1.5,0.2-54.9,10.3-57.4,57.1c-0.2,1.1-0.2,2.3-0.2,3.5v146c0,8.6,7.1,15.7,15.7,15.7h154.2c0.9,0,1.7-0.1,2.6-0.2
			l-10.2-10.8H60.6z M90.9,41.3c-2.9,8-3.4,17.8-3.3,24H73.1c-5,0-9.3,0.9-12.9,2.5C66.9,53.5,80.7,45.5,90.9,41.3z"/>
	</g>
</g>
</svg>
