<?xml version="1.0" encoding="utf-8"?>
<!-- Generator: Adobe Illustrator 17.0.0, SVG Export Plug-In . SVG Version: 6.00 Build 0)  -->
<!DOCTYPE svg PUBLIC "-//W3C//DTD SVG 1.1//EN" "http://www.w3.org/Graphics/SVG/1.1/DTD/svg11.dtd">
<svg version="1.1" id="Capa_1" xmlns="http://www.w3.org/2000/svg" xmlns:xlink="http://www.w3.org/1999/xlink" x="0px" y="0px"
	 width="300px" height="300px" viewBox="0 0 300 300" enable-background="new 0 0 300 300" xml:space="preserve">
<g>
	<path fill="#484C58" d="M189.822,162.74c-2.813-4.293-6.797-7.884-11.948-10.759c-3.157-1.78-7.48-3.387-12.951-4.805v-22.809
		c4.821,1.787,9.168,4.38,13.012,7.788l12.773-8.878c-4.174-4.458-8.2-7.769-12.067-9.917c-3.88-2.145-8.443-3.728-13.718-4.743
		V98.07h-9.001v10.546c-4.215,0.609-7.355,1.283-9.426,2.011c-3.527,1.211-6.772,3.039-9.734,5.472
		c-2.961,2.434-5.235,5.357-6.836,8.784c-1.603,3.427-2.399,6.8-2.399,10.125c0,3.895,0.927,7.827,2.798,11.8
		c1.857,3.975,4.888,7.43,9.089,10.373c4.197,2.937,9.695,5.177,16.506,6.717v26.333c-6.526-1.216-12.368-5.416-17.515-12.586
		l-13.193,9.183c2.912,4.134,5.573,7.209,7.963,9.242c3.167,2.719,6.509,4.791,10.035,6.235c3.525,1.44,7.764,2.46,12.71,3.069
		v16.357h9.001v-16.357c3.894-0.287,6.807-0.708,8.759-1.279c3.65-1.093,7.054-2.837,10.217-5.227
		c3.159-2.393,5.642-5.484,7.445-9.275c1.807-3.794,2.707-7.83,2.707-12.131C194.051,171.947,192.643,167.044,189.822,162.74z
		 M155.922,145.105c-5.433-1.452-8.966-3.023-10.616-4.713c-1.632-1.679-2.46-3.657-2.46-5.927c0-2.514,1.023-4.78,3.072-6.779
		c2.043-2.009,5.381-3.396,10.003-4.17V145.105z M174.717,186.372c-2.151,2.251-5.409,3.681-9.794,4.283V165.97
		c4.862,1.418,8.252,3.194,10.153,5.321c1.915,2.122,2.859,4.506,2.859,7.144C177.935,181.475,176.869,184.12,174.717,186.372z"/>
	<g>
		<path fill="#484C58" d="M235.559,86.42c0.17,1.132,0.17,2.341,0.17,3.549v146.699c0,8.658-7.109,15.755-15.791,15.755H87.881
			v11.873c0,7.96,6.599,14.454,14.588,14.454h142.036c7.989,0,14.495-6.494,14.495-14.454V107.039
			C258.999,85.475,240.937,86.42,235.559,86.42z"/>
		<path fill="#484C58" d="M227.57,228.902V82.215c0-1.215,0-2.435-0.17-3.549c-2.523-47.109-56.172-57.239-57.65-57.415H56.809
			c-8.687,0-15.808,7.092-15.808,15.844v191.807c0,8.658,7.121,15.761,15.808,15.761h154.964
			C220.454,244.663,227.57,237.56,227.57,228.902z M212.207,62.728c-3.566-1.642-7.907-2.505-12.928-2.505h-14.595
			c0.082-6.241-0.352-16.114-3.308-24.162C191.629,40.302,205.52,48.263,212.207,62.728z M52.105,228.902V37.094
			c0-2.693,2.1-4.933,4.704-4.933h107.123c1.648,0,2.873,0.61,4.083,1.9c5.303,5.807,5.994,22.168,5.384,31.342v0.698l-0.352,5.197
			h26.233c14.84,0,17.093,10.482,17.181,11.609v145.995c0,2.598-2.258,4.669-4.688,4.669H56.809
			C54.205,233.571,52.105,231.5,52.105,228.902z"/>
	</g>
</g>
</svg>
