<?xml version="1.0" encoding="utf-8"?>
<!-- Generator: Adobe Illustrator 17.0.0, SVG Export Plug-In . SVG Version: 6.00 Build 0)  -->
<!DOCTYPE svg PUBLIC "-//W3C//DTD SVG 1.1//EN" "http://www.w3.org/Graphics/SVG/1.1/DTD/svg11.dtd">
<svg version="1.1" id="Capa_1" xmlns="http://www.w3.org/2000/svg" xmlns:xlink="http://www.w3.org/1999/xlink" x="0px" y="0px"
	 width="300px" height="300px" viewBox="0 0 300 300" enable-background="new 0 0 300 300" xml:space="preserve">
<g>
	<g>
		<path fill="#484C58" d="M153.449,27.63v59.273h59.273L153.449,27.63z M153.449,27.63"/>
		<path fill="#484C58" d="M127.725,209.645c0-45.17,36.749-81.919,81.919-81.919c2.504,0,4.979,0.118,7.425,0.341v-26.311h-71.046
			c-4.102,0-7.425-3.326-7.425-7.425V23.282H30.707c-4.102,0-7.425,3.323-7.425,7.425v238.586c0,4.099,3.323,7.425,7.425,7.425
			h131.958C141.552,261.882,127.725,237.351,127.725,209.645L127.725,209.645z M127.725,209.645"/>
		<path fill="#484C58" d="M229.529,202.22"/>
		<path fill="#484C58" d="M209.645,142.575c-36.981,0-67.07,30.089-67.07,67.07c0,36.984,30.089,67.073,67.07,67.073
			c36.984,0,67.073-30.089,67.073-67.073C276.718,172.664,246.629,142.575,209.645,142.575L209.645,142.575z M209.645,261.868
			c-28.793,0-52.22-23.428-52.22-52.223c0-28.793,23.427-52.22,52.22-52.22c28.795,0,52.223,23.427,52.223,52.22
			C261.868,238.44,238.44,261.868,209.645,261.868L209.645,261.868z M209.645,261.868"/>
	</g>
	<path fill="#484C58" d="M230.128,213.076c-1.909-2.913-4.611-5.349-8.106-7.299c-2.142-1.208-5.075-2.298-8.786-3.26v-15.475
		c3.271,1.212,6.22,2.971,8.828,5.283l8.665-6.023c-2.832-3.024-5.563-5.271-8.187-6.728c-2.632-1.455-5.728-2.529-9.307-3.218
		v-7.155h-6.107v7.155c-2.86,0.413-4.99,0.87-6.395,1.365c-2.393,0.822-4.595,2.062-6.604,3.712
		c-2.009,1.651-3.552,3.634-4.638,5.959c-1.087,2.325-1.627,4.613-1.627,6.869c0,2.643,0.629,5.31,1.898,8.006
		c1.26,2.697,3.316,5.041,6.167,7.037c2.847,1.992,6.578,3.512,11.198,4.557v17.865c-4.428-0.825-8.391-3.675-11.883-8.539
		l-8.95,6.23c1.976,2.805,3.781,4.891,5.402,6.27c2.148,1.844,4.416,3.25,6.808,4.23c2.392,0.977,5.267,1.669,8.623,2.082v11.097
		h6.107V242c2.642-0.195,4.618-0.48,5.942-0.868c2.476-0.741,4.786-1.925,6.932-3.546c2.143-1.624,3.828-3.721,5.051-6.292
		c1.226-2.574,1.836-5.312,1.836-8.23C232.997,219.322,232.042,215.995,230.128,213.076z M207.129,201.111
		c-3.686-0.985-6.083-2.051-7.202-3.197c-1.107-1.139-1.669-2.481-1.669-4.021c0-1.706,0.694-3.243,2.084-4.599
		c1.386-1.363,3.651-2.304,6.787-2.829V201.111z M219.881,229.108c-1.46,1.527-3.67,2.497-6.645,2.905v-16.747
		c3.298,0.962,5.598,2.167,6.888,3.61c1.299,1.44,1.94,3.057,1.94,4.847C222.064,225.786,221.34,227.581,219.881,229.108z"/>
</g>
</svg>
