<?xml version="1.0" encoding="utf-8"?>
<!-- Generator: Adobe Illustrator 17.0.0, SVG Export Plug-In . SVG Version: 6.00 Build 0)  -->
<!DOCTYPE svg PUBLIC "-//W3C//DTD SVG 1.1//EN" "http://www.w3.org/Graphics/SVG/1.1/DTD/svg11.dtd">
<svg version="1.1" id="Capa_1" xmlns="http://www.w3.org/2000/svg" xmlns:xlink="http://www.w3.org/1999/xlink" x="0px" y="0px"
	 width="300px" height="300px" viewBox="0 0 300 300" enable-background="new 0 0 300 300" xml:space="preserve">
<g>
	<g>
		<g>
			<path fill="#434B54" d="M278.046,171.328l-46.421,86.118c-2.277,4.289-8.645,8.786-13.547,8.746l-183.276-1.478
				c-3.882-0.032-7.57-1.597-10.294-4.353c-2.711-2.756-4.215-6.482-4.183-10.35l1.195-142.324
				c0.066-8.044,6.642-14.53,14.703-14.464l13.395,0.084l-0.102,12.444l-8.959-0.074c-1.769-0.015-3.449,0.668-4.71,1.896
				c-1.248,1.228-1.958,2.912-1.973,4.665l-1.082,133.415c-0.03,3.661,2.91,6.652,6.571,6.682l9.183,0.075l44.03-87.273
				c2.49-4.882,7.15-8.788,12.038-8.748l106.081,0.871l0.313-35.266c6.933,0.704,12.352,6.486,12.294,13.576l-0.179,21.792
				l48.649,0.399C277.513,157.862,282.302,163.585,278.046,171.328L278.046,171.328z M57.122,208.365
				c-0.028-43.625,1.432-162.689,1.432-162.689c0.054-6.602,5.475-11.922,12.064-11.868l95.815,0.786
				c1.535,0.013,2.999,0.668,4.023,1.799l30.696,33.92c0.933,1.015,1.437,2.346,1.425,3.725l-0.716,75.41l-10.045-0.082
				l0.654-67.881c0.011-1.38-1.102-2.508-2.482-2.519l-23.71-0.195c-2.773-0.023-5.012-2.299-4.989-5.072l0.218-26.599
				c0.011-1.38-1.098-2.511-2.478-2.523l-88.48-0.726c-1.056-0.009-1.928,0.846-1.937,1.905L67.27,197.476l-7.812,15.501
				C59.458,212.963,57.125,212.775,57.122,208.365L57.122,208.365z M171.388,68.769l14.933,0.123l-14.8-16.343L171.388,68.769z
				 M77.238,154.953"/>
		</g>
	</g>
	<path fill="#434B54" d="M91.919,98.09c-2.69,0.277-4.761,2.541-4.783,5.252l-0.064,5.401c-0.043,2.711,1.964,5.017,4.654,5.359
		l3.971,0.512c0.662,2.412,1.601,4.718,2.818,6.896l-2.561,3.16c-1.708,2.114-1.58,5.145,0.32,7.089l3.779,3.863
		c1.901,1.943,4.932,2.157,7.088,0.491l3.182-2.455c2.241,1.324,4.611,2.37,7.088,3.096l0.427,4.099
		c0.277,2.689,2.541,4.761,5.252,4.783l5.401,0.064c2.711,0.043,5.017-1.964,5.359-4.655l0.491-3.885
		c2.69-0.662,5.252-1.665,7.686-2.989l2.989,2.412c2.113,1.707,5.144,1.58,7.088-0.32l3.864-3.779
		c1.943-1.9,2.156-4.932,0.491-7.089l-2.284-2.967c1.409-2.348,2.498-4.846,3.245-7.472l3.543-0.363
		c2.691-0.278,4.761-2.541,4.783-5.252l0.064-5.402c0.043-2.711-1.964-5.017-4.654-5.358l-3.459-0.448
		c-0.662-2.605-1.644-5.125-2.925-7.472l2.157-2.648c1.707-2.114,1.579-5.146-0.321-7.088l-3.779-3.865
		c-1.899-1.943-4.931-2.157-7.087-0.491l-2.583,1.985c-2.434-1.473-5.038-2.604-7.771-3.372l-0.341-3.352
		c-0.278-2.69-2.542-4.761-5.252-4.782l-5.402-0.065c-2.711-0.043-5.017,1.964-5.358,4.654l-0.428,3.331
		c-2.818,0.725-5.529,1.836-8.049,3.288l-2.669-2.178c-2.113-1.709-5.145-1.58-7.088,0.32l-3.886,3.8
		c-1.942,1.9-2.156,4.932-0.491,7.089l2.285,2.946c-1.324,2.349-2.37,4.846-3.053,7.472L91.919,98.09z M126.783,91.983
		c7.75,0.086,13.963,6.47,13.877,14.219c-0.086,7.75-6.47,13.963-14.219,13.877c-7.75-0.086-13.963-6.469-13.877-14.219
		C112.649,98.111,119.033,91.898,126.783,91.983L126.783,91.983z M126.783,91.983"/>
</g>
</svg>
