<?xml version="1.0" encoding="utf-8"?>
<!-- Generator: Adobe Illustrator 17.0.0, SVG Export Plug-In . SVG Version: 6.00 Build 0)  -->
<!DOCTYPE svg PUBLIC "-//W3C//DTD SVG 1.1//EN" "http://www.w3.org/Graphics/SVG/1.1/DTD/svg11.dtd">
<svg version="1.1" id="Capa_1" xmlns="http://www.w3.org/2000/svg" xmlns:xlink="http://www.w3.org/1999/xlink" x="0px" y="0px"
	 width="300px" height="300px" viewBox="0 0 300 300" enable-background="new 0 0 300 300" xml:space="preserve">
<g>
	<g>
		<path fill="#434B54" d="M231.854,240.84c0,11.732-9.555,21.282-21.287,21.282H89.438c-11.737,0-21.287-9.55-21.287-21.282V59.144
			c0-11.737,9.55-21.287,21.287-21.287h51.243V89.75c0,21.669,17.611,39.28,39.274,39.28h51.899V240.84z M158.669,89.75V50.578
			l60.46,60.46h-39.172C168.224,111.037,158.669,101.487,158.669,89.75L158.669,89.75z M249.842,217.559v-97.515l-0.081-0.586
			c-0.043-0.801-0.194-1.537-0.462-2.354l-0.317-0.817c-0.484-1.053-1.048-1.892-1.763-2.606l-91.195-91.189
			c-0.715-0.715-1.575-1.306-2.52-1.725c-0.247-0.124-0.521-0.231-0.881-0.333c-0.795-0.274-1.591-0.441-2.348-0.484v0.022
			l-0.586-0.108h-20.997h-17.987H89.438c-21.669,0-39.28,17.638-39.28,39.28V240.84c0,21.664,17.611,39.296,39.28,39.296h121.129
			c21.663,0,39.274-17.633,39.274-39.296v-5.272V217.559z"/>
	</g>
	<path fill="#434B54" d="M183.297,237.618c0,1.04,0.603,1.982,1.545,2.42c0.944,0.438,2.054,0.285,2.847-0.384l34.683-29.347
		c0.6-0.507,0.944-1.251,0.944-2.036s-0.344-1.529-0.944-2.038l-34.683-29.347c-0.491-0.414-1.105-0.63-1.723-0.63
		c-0.382,0-0.763,0.08-1.123,0.248c-0.942,0.438-1.545,1.379-1.545,2.42V237.618z"/>
	<path fill="#434B54" d="M149.378,216.275h35.45c0.736,0,1.334-0.598,1.334-1.334v-13.34c0-0.736-0.598-1.334-1.334-1.334h-35.764
		c-4.936,0-8.841,4.49-7.849,9.599C141.953,213.666,145.509,216.275,149.378,216.275z"/>
	<path fill="#434B54" d="M131.878,158.022c0-1.04-0.603-1.982-1.545-2.42c-0.944-0.438-2.054-0.285-2.847,0.384l-34.683,29.347
		c-0.6,0.507-0.944,1.251-0.944,2.036s0.344,1.529,0.944,2.038l34.683,29.347c0.491,0.414,1.105,0.63,1.723,0.63
		c0.382,0,0.763-0.08,1.123-0.248c0.942-0.438,1.545-1.379,1.545-2.42V158.022z"/>
	<path fill="#434B54" d="M165.798,179.365h-35.45c-0.736,0-1.334,0.598-1.334,1.334v13.34c0,0.736,0.598,1.334,1.334,1.334h35.764
		c4.936,0,8.841-4.49,7.849-9.599C173.223,181.974,169.666,179.365,165.798,179.365z"/>
</g>
</svg>
