<?xml version="1.0" encoding="utf-8"?>
<!-- Generator: Adobe Illustrator 21.1.0, SVG Export Plug-In . SVG Version: 6.00 Build 0)  -->
<svg version="1.1" id="Capa_1" xmlns="http://www.w3.org/2000/svg" xmlns:xlink="http://www.w3.org/1999/xlink" x="0px" y="0px"
	 viewBox="0 0 283.5 283.5" style="enable-background:new 0 0 283.5 283.5;" xml:space="preserve">
<style type="text/css">
	.st0{fill:#434A54;}
</style>
<g>
	<g>
		<path class="st0" d="M227,34.7H59c-3.1,0-5.6,2.5-5.6,5.6v201.2c0,3.1,2.5,5.6,5.6,5.6h168c3.1,0,5.6-2.5,5.6-5.6V40.3
			C232.6,37.2,230.1,34.7,227,34.7L227,34.7z M221.4,235.9H64.6V88.8h156.8V235.9z"/>
	</g>
	<path class="st0" d="M87,133.1h112c1.5,0,2.8-1.3,2.8-2.8v-19c0-1.5-1.3-2.8-2.8-2.8H87c-1.5,0-2.8,1.3-2.8,2.8v19
		C84.2,131.8,85.4,133.1,87,133.1L87,133.1z"/>
	<path class="st0" d="M87,215.4h51c1.5,0,2.8-1.3,2.8-2.8v-53.2c0-1.5-1.3-2.8-2.8-2.8H87c-1.5,0-2.8,1.3-2.8,2.8v53.2
		C84.2,214.1,85.4,215.4,87,215.4L87,215.4z"/>
	<path class="st0" d="M199,156.6h-39.2c-1.5,0-2.8,1.3-2.8,2.8v16.2c0,1.5,1.3,2.8,2.8,2.8H199c1.5,0,2.8-1.3,2.8-2.8v-16.2
		C201.8,157.9,200.5,156.6,199,156.6L199,156.6z"/>
	<path class="st0" d="M199,192.8h-39.2c-1.5,0-2.8,1.3-2.8,2.8v16.2c0,1.5,1.3,2.8,2.8,2.8H199c1.5,0,2.8-1.3,2.8-2.8v-16.2
		C201.8,194.1,200.5,192.8,199,192.8L199,192.8z"/>
</g>
</svg>
