<?xml version="1.0" encoding="utf-8"?>
<!-- Generator: Adobe Illustrator 21.1.0, SVG Export Plug-In . SVG Version: 6.00 Build 0)  -->
<svg version="1.1" id="Capa_1" xmlns="http://www.w3.org/2000/svg" xmlns:xlink="http://www.w3.org/1999/xlink" x="0px" y="0px"
	 viewBox="0 0 283.5 283.5" style="enable-background:new 0 0 283.5 283.5;" xml:space="preserve">
<style type="text/css">
	.st0{fill:#434A54;}
</style>
<g>
	<rect x="66.5" y="77.6" class="st0" width="111.5" height="24"/>
	<g>
		<path class="st0" d="M173.8,238l0.7-0.8c0-0.1-0.1-0.2-0.1-0.3l-1-0.2c-4.7-1-8.1-4.7-9-9.2H48.2V37.1h140.3v89.3
			c0.1,0.1,0.2,0.2,0.2,0.3l6.5,9.5c3.4,5,2.5,11.8-2,15.7l-1.7,1.5c0.2,1,0.4,1.9,0.6,2.9l2.2,0.7c5.8,1.8,9.3,7.6,8.2,13.6
			l-2.1,11.3c-0.1,0.3-0.1,0.6-0.2,0.9c0.5,0.4,1.1,0.8,1.6,1.3l0.2,0.2c0.6-0.2,1.1-0.4,1.7-0.5l0.1-0.2c0.9-4.3,4.2-7.6,8.3-8.8
			V93.1V70.7V44.4c0-4.7,2.6-29.7-16.5-29.7H40.8c-18.3,0-15.9,24.3-15.9,28.9v207.7c0,4.8,0-1.4,4.9-1.4h41.9H95h76
			C169.7,245.8,170.6,241.2,173.8,238z"/>
		<path class="st0" d="M95.6,139c0.3,0,0.6,0,0.8,0l2.6,0.2c0.5-0.9,1.1-1.7,1.6-2.6l-1.3-2.4c-1.4-2.7-1.7-5.7-1-8.5H66.5v24h17.2
			l0.2-1.1C85,143,89.9,139,95.6,139z"/>
	</g>
	<g>
		<g>
			<path class="st0" d="M99.2,169.1c0.3,3.4,1,6.7,2.1,9.9l-5.7,5c-1.9,1.6-2.2,4.4-0.8,6.4l6.5,9.5c1.4,2,4.1,2.7,6.3,1.6l6.7-3.5
				c2.7,2.3,5.6,4.2,8.7,5.8l-0.5,7.6c-0.2,2.5,1.5,4.7,4,5.1l11.3,2.1c2.4,0.5,4.8-1,5.6-3.3l2.2-7.1c3.7-0.3,7.4-1,10.9-2.2
				l4.8,5.5c1.6,1.9,4.4,2.2,6.4,0.8l9.5-6.5c2-1.4,2.7-4.1,1.6-6.3l-3.3-6.4c2.4-2.8,4.5-5.9,6.1-9.2l6.9,0.5
				c2.5,0.2,4.7-1.5,5.1-4l2.1-11.3c0.5-2.4-1-4.8-3.3-5.6l-6.5-2c-0.3-3.6-1-7.2-2.2-10.6l5.1-4.4c1.9-1.6,2.2-4.4,0.8-6.4
				l-6.5-9.5c-1.4-2-4.1-2.7-6.3-1.6l-5.8,3c-2.9-2.5-6.1-4.6-9.6-6.3l0.5-6.6c0.2-2.5-1.5-4.7-4-5.1l-11.3-2.1
				c-2.4-0.5-4.8,1-5.6,3.3l-2,6.4c-3.9,0.3-7.8,1.1-11.5,2.5l-4.4-5.1c-1.6-1.9-4.4-2.2-6.4-0.8l-9.5,6.5c-2,1.4-2.7,4.1-1.6,6.3
				l3.3,6.3c-2.3,2.8-4.3,5.9-5.8,9.2L96,146c-2.5-0.2-4.7,1.5-5.1,4l-2.1,11.3c-0.5,2.4,1,4.8,3.3,5.6L99.2,169.1z M146,146.2
				c10.3,1.9,17.1,11.9,15.2,22.2c-1.9,10.3-11.9,17.1-22.2,15.2s-17.1-11.9-15.2-22.2C125.7,151.1,135.7,144.3,146,146.2L146,146.2
				z M146,146.2"/>
			<path class="st0" d="M251.5,200.7l-5-6.2c-1.5-1.9-4.3-2.3-6.3-1l-3.9,2.5c-2.5-1.9-5.3-3.4-8.3-4.5l-0.1-4.7
				c0-2.4-1.9-4.5-4.3-4.7l-7.9-0.8c-2.4-0.2-4.7,1.4-5.2,3.7l-1,4.6c-3.2,0.5-6.3,1.5-9.2,2.8l-3.4-3.4c-1.8-1.7-4.5-1.8-6.4-0.3
				l-6.2,5.1c-1.9,1.5-2.3,4.3-1,6.3l2.8,4.3c-1.7,2.5-3.1,5.1-4.1,7.9l-5.1,0.1c-2.4,0-4.5,1.9-4.7,4.3l-0.8,7.9
				c-0.2,2.4,1.4,4.7,3.7,5.2l5.3,1.2c0.5,2.7,1.3,5.4,2.4,7.9l-3.8,3.9c-1.7,1.8-1.8,4.5-0.3,6.4l5,6.2c1.5,1.9,4.3,2.3,6.3,1
				l4.6-2.9c2.3,1.7,4.9,3.1,7.5,4.1l0.1,5.5c0,2.4,1.9,4.5,4.3,4.7l7.9,0.8c2.4,0.2,4.7-1.4,5.2-3.7l1.2-5.2c3-0.5,6-1.3,8.8-2.5
				l3.8,3.7c1.8,1.7,4.5,1.8,6.4,0.3l6.2-5c1.9-1.5,2.3-4.3,1-6.3l-2.8-4.3c1.8-2.5,3.2-5.1,4.3-7.9l4.9-0.1c2.4,0,4.5-1.9,4.7-4.3
				l0.8-7.9c0.2-2.4-1.4-4.7-3.7-5.2l-4.7-1c-0.5-3-1.3-5.8-2.5-8.6l3.3-3.4C252.9,205.3,253,202.6,251.5,200.7L251.5,200.7z
				 M213.6,240.1c-8.5-0.9-14.8-8.5-13.9-17.1c0.9-8.5,8.5-14.8,17.1-13.9c8.5,0.9,14.8,8.5,13.9,17.1
				C229.8,234.8,222.2,241,213.6,240.1L213.6,240.1z M213.6,240.1"/>
		</g>
	</g>
</g>
</svg>
