<?xml version="1.0" encoding="utf-8"?>
<!-- Generator: Adobe Illustrator 17.0.0, SVG Export Plug-In . SVG Version: 6.00 Build 0)  -->
<!DOCTYPE svg PUBLIC "-//W3C//DTD SVG 1.1//EN" "http://www.w3.org/Graphics/SVG/1.1/DTD/svg11.dtd">
<svg version="1.1" id="Capa_1" xmlns="http://www.w3.org/2000/svg" xmlns:xlink="http://www.w3.org/1999/xlink" x="0px" y="0px"
	 width="283.46px" height="283.46px" viewBox="0 0 283.46 283.46" enable-background="new 0 0 283.46 283.46" xml:space="preserve">
<g id="XMLID_7_" transform="translate(720 192)">
	<path id="XMLID_11_" fill="#434A54" d="M-504.03,63.397l-32-38.4c8-4.8,16-12.8,20.8-20.8l38.4,32c4.8,3.2,4.8,9.6,0,12.8
		l-14.4,14.4C-494.43,68.197-499.23,68.197-504.03,63.397L-504.03,63.397z"/>
	<path fill="#434A54" d="M-531.23-77.403c-4.8-4.8-12.8-9.6-19.2-12.8c-8-3.2-16-4.8-24-4.8c-33.6,0-60.8,27.2-60.8,60.8
		c0,6.4,1.6,14.4,3.2,20.8c3.2,6.4,6.4,12.8,11.2,19.2c11.2,12.8,27.2,20.8,46.4,20.8c33.6,0,60.8-27.2,60.8-60.8
		C-513.63-50.203-520.03-66.203-531.23-77.403z M-550.43,5.797c-6.4,3.2-14.4,6.4-22.4,6.4s-16-1.6-22.4-6.4
		c-8-4.8-14.4-11.2-17.6-19.2c-3.2-6.4-4.8-12.8-4.8-20.8c0-25.6,20.8-44.8,44.8-44.8c8,0,16,3.2,24,6.4c9.6,4.8,16,14.4,19.2,24
		c1.6,4.8,3.2,9.6,3.2,14.4s-1.6,9.6-3.2,14.4C-534.43-8.603-540.83-0.603-550.43,5.797z"/>
</g>
<path fill="#444A54" d="M139.556,167.932l-11.586-10.18l-1.939-1.763l-6.81,7.585c-0.923,0.776-1.319,1.349-1.319,1.349
	l21.499,20.852c0,0,0.732-0.513,1.393-1.263l35.381-39.498l1.595-1.668l-7.405-6.775c-1.306-1.112-1.956-1.436-1.956-1.436
	L139.556,167.932z"/>
<g>
	<path fill="none" d="M164.864,76.813h10.724c3.689,0,6.879,0.633,9.499,1.84c-4.913-10.628-15.12-16.477-22.654-19.593
		C164.605,64.973,164.925,72.227,164.864,76.813z"/>
	<path fill="none" d="M176.145,218.036h0.516l-0.154-0.185C176.386,217.915,176.264,217.973,176.145,218.036z"/>
	<path fill="#444A54" d="M176.145,218.036c-9.142,4.819-19.541,7.561-30.574,7.561c-11.224,0-21.845-2.619-31.261-7.561H93.735
		v8.724c0,5.849,4.849,10.62,10.719,10.62h88.326l-16.12-19.344H176.145z"/>
	<path fill="#444A54" d="M203.623,190.735l15.846,13.205v-92.727c0-15.844-13.272-15.15-17.224-15.151
		c0.125,0.832,0.125,1.72,0.125,2.608v27.552c5.809,10.04,9,21.68,9.001,33.577C211.371,170.975,208.561,181.506,203.623,190.735z"
		/>
	<path fill="#444A54" d="M95.408,203.09l-0.237-0.293c-0.315-0.421-0.605-0.84-0.908-1.26l-26.815-0.784V59.818
		c0-1.979,1.543-3.625,3.456-3.625h78.711c1.211,0,2.111,0.448,3,1.396c3.896,4.267,4.404,16.288,3.956,23.029v0.513l-0.259,3.818
		h19.275c10.904,0,12.56,7.702,12.624,8.53v15.987c1.462,1.152,2.854,2.356,4.094,3.596c1.431,1.432,2.785,2.937,4.069,4.498V92.972
		c0.001-0.893,0.001-1.789-0.124-2.608c-1.854-34.614-41.273-42.058-42.359-42.187H70.904c-6.383,0-11.615,5.211-11.615,11.642
		v140.935c0,6.362,5.232,11.581,11.615,11.581h34.433C101.769,209.634,98.439,206.554,95.408,203.09z M185.087,78.653
		c-2.62-1.207-5.81-1.84-9.499-1.84h-10.724c0.061-4.586-0.259-11.84-2.431-17.753C169.967,62.176,180.174,68.025,185.087,78.653z"
		/>
</g>
</svg>
